<svg xmlns="http://www.w3.org/2000/svg" fill="none" viewBox="0 0 32 32"><path fill="url(#a)" d="M30.354 5.406v15.242s.052 2.36-1.902 4.6c-1.952 2.242-4.517 2.514-5.196 2.514h-2.92l.37-16.955s.048-2.549 2.177-4.678C24.912 4.1 27.5 4.244 27.5 4.244h1.732s1.12-.105 1.12 1.161z"/><path fill="url(#b)" d="m11.036 17.438.085 10.326H2.586s-1.016-.024-1.016-.818V23.85s-.037-2.28 1.726-4.195 3.867-2.167 4.522-2.167 3.218-.05 3.218-.05"/><path fill="url(#c)" d="M20.751 27.76H10.648l.39-10.325s-.12-2.458 2.15-4.643c1.559-1.5 3.005-1.878 4.268-1.878h3.25z"/><path fill="#B50D31" d="M20.329 27.762h.42l-.045-16.848z" opacity=".61"/><path fill="#C84E28" d="m11.036 17.313-.4 10.452h.475z" opacity=".59"/><defs><linearGradient id="a" x1="24.574" x2="25.926" y1="2.93" y2="26.819" gradientUnits="userSpaceOnUse"><stop offset=".02" stop-color="#A75584"/><stop offset=".42" stop-color="#B6496F"/><stop offset=".57" stop-color="#BE4768"/><stop offset=".82" stop-color="#D64455"/><stop offset=".91" stop-color="#E0434D"/></linearGradient><linearGradient id="b" x1="9.044" x2=".624" y1="18.409" y2="39.945" gradientUnits="userSpaceOnUse"><stop stop-color="#FFE065"/><stop offset=".02" stop-color="#FFDB54"/><stop offset=".13" stop-color="#FFC906"/><stop offset=".14" stop-color="#FDC30B"/><stop offset=".26" stop-color="#F59D30"/><stop offset=".32" stop-color="#F28F3F"/><stop offset=".47" stop-color="#ED6948"/></linearGradient><linearGradient id="c" x1="14.102" x2="17.56" y1="10.906" y2="29.406" gradientUnits="userSpaceOnUse"><stop offset=".02" stop-color="#CF5C6C"/><stop offset=".09" stop-color="#D85F68"/><stop offset=".27" stop-color="#EA6561"/><stop offset=".4" stop-color="#F1685F"/><stop offset=".65" stop-color="#F0764F"/><stop offset=".96" stop-color="#F08441"/></linearGradient></defs></svg>