<svg xmlns="http://www.w3.org/2000/svg" fill="none" viewBox="0 0 390 390"><path fill="#e0f8f3" fill-rule="evenodd" d="M193.394 300.472c-36.464 4.085-73.178-15.942-93.819-46.21-19.168-28.107-10.192-63.483-3.753-96.867 6.887-35.706 7.638-80.323 40.826-95.346 32.917-14.9 66.312 14.817 97.747 32.62 27.454 15.55 60.098 29.622 66.575 60.448 6.4 30.454-18.387 55.69-36.912 80.721-19.971 26.984-37.254 60.892-70.664 64.634" clip-rule="evenodd"/><path fill="#59b8aa" stroke="#000" stroke-miterlimit="10" stroke-width=".325" d="M40.941 200.883a5.941 5.941 0 1 0 0-11.883 5.941 5.941 0 0 0 0 11.883Z"/><path fill="#000" d="M37.616 195.224c-.824-1.176-1.183-2.671-1.059-4.111A5.78 5.78 0 0 0 35 195.065a5.82 5.82 0 0 0 5.817 5.817 5.8 5.8 0 0 0 5.09-3.018c-2.941.796-6.62-.249-8.291-2.64"/><path fill="#fff" d="M43.423 194.411a2.283 2.283 0 1 0 0-4.567 2.283 2.283 0 0 0 0 4.567"/><path fill="#59b8aa" stroke="#000" stroke-miterlimit="10" stroke-width=".325" d="M290.599 110.198a4.599 4.599 0 1 0 0-9.198 4.599 4.599 0 0 0 0 9.198Z"/><path fill="#000" d="M288.025 105.819c-.638-.911-.916-2.068-.82-3.182a4.47 4.47 0 0 0-1.205 3.058 4.504 4.504 0 0 0 4.502 4.503 4.49 4.49 0 0 0 3.94-2.336c-2.276.616-5.123-.193-6.417-2.043"/><path fill="#fff" d="M292.52 105.188a1.768 1.768 0 1 0-.001-3.535 1.768 1.768 0 0 0 .001 3.535"/><path stroke="#000" stroke-miterlimit="10" stroke-width=".325" d="M71.95 268v7.897m3.95-3.948H68M225.949 43v7.897m3.948-3.947H222"/><path fill="#59b8aa" stroke="#000" stroke-miterlimit="10" stroke-width=".325" d="M317.111 317.222a4.112 4.112 0 1 0-.001-8.223 4.112 4.112 0 0 0 .001 8.223Z"/><path fill="#fff" stroke="#000" stroke-miterlimit="10" stroke-width=".325" d="M150.5 44.784s12.159-1.486 12.159 13.716c0 0 0-14 12.841-13.755 0 0-11.048.462-12.841-14.245 0 0 .342 14-12.159 14.284Zm-7.502 275.93s9.241-1.114 9.241 10.286c0 0 0-10.499 9.759-10.316 0 0-8.396.346-9.759-10.684 0 0 .26 10.499-9.241 10.712zM330 180.851s5.82-.712 5.82 6.575c0 0 0-6.713 6.149-6.595 0 0-5.291.221-6.149-6.831 0 0 .163 6.713-5.82 6.848z"/><g filter="url(#a)"><circle cx="144" cy="148" r="72" fill="#74acdf"/><path fill="#efefef" d="M205.777 111C212.268 121.813 216 134.471 216 148c0 13.419-3.671 25.98-10.063 36.734H82.064C75.67 173.98 72 161.419 72 148c0-13.529 3.732-26.187 10.223-37z"/><path fill="#00386b" d="M144.001 84.57c18.387 0 34.947 7.825 46.532 20.325-11.315-10.486-26.461-16.896-43.104-16.896-35.03 0-63.428 28.398-63.428 63.428 0 16.643 6.41 31.789 16.896 43.104-12.5-11.585-20.325-28.145-20.325-46.532 0-35.031 28.398-63.429 63.429-63.429"/><path fill="#cee8ff" d="M144.245 211.676c-18.387 0-34.947-7.824-46.532-20.325 11.315 10.486 26.461 16.896 43.104 16.896 35.03 0 63.428-28.398 63.428-63.428 0-16.643-6.41-31.789-16.896-43.104 12.501 11.585 20.325 28.145 20.325 46.532 0 35.031-28.398 63.429-63.429 63.429" opacity=".8"/><path fill="#000" d="M214.286 148.001c0 38.817-31.468 70.285-70.285 70.285-38.818 0-70.286-31.468-70.286-70.285 0-38.818 31.468-70.286 70.286-70.286s70.285 31.468 70.285 70.286m-133.543 0c0 34.936 28.322 63.257 63.258 63.257s63.257-28.321 63.257-63.257-28.321-63.258-63.257-63.258-63.258 28.322-63.258 63.258" opacity=".2"/><g opacity=".6" style="mix-blend-mode:hard-light"><circle cx="144" cy="148" r="70.95" stroke="url(#b)" stroke-width="2.1" style="mix-blend-mode:overlay"/></g><path fill="#f7f8f8" d="M194.385 96.566a72.3 72.3 0 0 1 13.063 17.371l-35.482 100.427a71.6 71.6 0 0 1-21.075 5.307zm-10.249-8.351a72 72 0 0 1 5.696 4.254l-45.055 127.525q-.389.005-.777.005-3.2-.001-6.328-.276z" opacity=".2"/><path fill="#f6b40e" d="m142.92 148.591 10.798 23.507s.186.45.486.326c.299-.124.113-.573.113-.573l-9-24.253m-.258 9.147c-.131 3.575 2.069 5.541 1.782 8.734-.288 3.192 1.467 4.997 1.874 6.239s-.44 1.984-.075 2.161c.366.176 1.165-.805.904-2.57-.26-1.765-1.601-2.289-1.286-6.188.315-3.9-1.596-4.808-1.131-8.365"/><path fill="#f6b40e" d="m142.821 148.093.973 25.847s0 .487.324.487c.325 0 .324-.486.324-.486l.974-25.848m-3.741 8.352c-1.491 3.252-.211 5.91-1.699 8.75-1.489 2.84-.559 5.179-.658 6.481-.099 1.303-1.167 1.665-.897 1.968s1.384-.298 1.82-2.028c.435-1.731-.604-2.728 1.181-6.21s.367-5.051 2.159-8.16"/><path fill="#f6b40e" d="m142.919 147.597-9 24.252s-.187.449.113.573c.3.125.486-.325.486-.325l10.798-23.508m-6.655 6.285c-2.623 2.435-2.458 5.381-4.921 7.435-2.462 2.055-2.499 4.571-3.089 5.736-.591 1.166-1.716 1.092-1.583 1.475.134.383 1.393.255 2.458-1.178s.488-2.75 3.47-5.285c2.982-2.534 2.273-4.527 5.119-6.713"/><path fill="#f6b40e" d="m143.201 147.181-17.603 18.965s-.345.343-.115.573.573-.115.573-.115l18.98-17.589m-8.556 3.262c-3.356 1.247-4.331 4.031-7.393 4.987s-4.06 3.267-5.052 4.118-2.003.353-2.027.757c-.023.406 1.19.768 2.722-.148s1.504-2.354 5.23-3.556 3.834-3.313 7.301-4.245"/><path fill="#f6b40e" d="m143.62 146.898-23.526 10.79s-.449.185-.325.485.573.113.573.113l24.271-8.992m-9.153-.258c-3.578-.132-5.546 2.067-8.741 1.78s-5.002 1.466-6.244 1.873c-1.243.407-1.986-.44-2.162-.075-.177.365.804 1.164 2.571.904 1.766-.261 2.291-1.601 6.193-1.286 3.903.315 4.812-1.595 8.371-1.13"/><path fill="#f6b40e" d="m144.116 146.799-25.867.973s-.487-.001-.487.324c0 .324.486.324.486.324l25.868.972m-8.358-3.738c-3.255-1.489-5.915-.21-8.757-1.698s-5.183-.557-6.486-.657c-1.304-.099-1.666-1.165-1.969-.896-.304.27.297 1.383 2.029 1.818s2.73-.602 6.214 1.181 5.056.366 8.167 2.157"/><path fill="#f6b40e" d="m144.613 146.899-24.271-8.992s-.45-.187-.574.113c-.125.299.325.485.325.485l23.527 10.79m-6.29-6.65c-2.437-2.621-5.385-2.456-7.441-4.917s-4.574-2.497-5.741-3.087-1.092-1.714-1.476-1.581-.254 1.392 1.179 2.456 2.753.487 5.289 3.467c2.537 2.98 4.531 2.271 6.719 5.115"/><path fill="#f6b40e" d="m145.035 147.183-18.979-17.589s-.344-.344-.573-.115c-.23.229.114.573.114.573l17.603 18.965m-3.264-8.549c-1.248-3.353-4.034-4.328-4.991-7.388s-3.27-4.056-4.121-5.047c-.852-.992-.354-2.002-.759-2.025s-.768 1.188.149 2.719 2.356 1.503 3.558 5.226c1.203 3.723 3.316 3.831 4.249 7.295"/><path fill="#f6b40e" d="m145.315 147.598-10.799-23.507s-.185-.45-.485-.326-.114.573-.114.573l9 24.252m.258-9.146c.132-3.575-2.069-5.541-1.781-8.734.287-3.193-1.468-4.998-1.875-6.239-.407-1.242.44-1.984.075-2.161s-1.165.804-.904 2.569c.26 1.766 1.601 2.29 1.286 6.189s1.596 4.807 1.131 8.364"/><path fill="#f6b40e" d="m145.413 148.095-.973-25.847s.001-.486-.324-.486c-.324 0-.324.486-.324.486l-.974 25.847m3.742-8.351c1.49-3.253.21-5.911 1.699-8.75 1.488-2.84.558-5.179.657-6.481.1-1.303 1.167-1.665.897-1.968s-1.384.297-1.819 2.028c-.436 1.73.603 2.727-1.182 6.209s-.366 5.052-2.159 8.16"/><path fill="#f6b40e" d="m145.315 148.592 9-24.252s.187-.449-.113-.573c-.299-.125-.486.325-.486.325l-10.798 23.507m6.655-6.285c2.623-2.435 2.458-5.38 4.921-7.434s2.499-4.571 3.09-5.736 1.715-1.092 1.582-1.475c-.134-.384-1.393-.255-2.458 1.177-1.065 1.433-.487 2.751-3.47 5.285s-2.273 4.528-5.119 6.714"/><path fill="#f6b40e" d="m145.034 149.007 17.602-18.964s.345-.343.116-.573c-.23-.229-.574.115-.574.115l-18.98 17.589m8.556-3.262c3.356-1.247 4.332-4.031 7.394-4.987s4.059-3.267 5.051-4.118 2.003-.353 2.027-.758c.023-.405-1.19-.767-2.722.149s-1.504 2.354-5.23 3.555-3.834 3.314-7.301 4.245"/><path fill="#f6b40e" d="m144.614 149.292 23.526-10.79s.45-.185.326-.485-.574-.113-.574-.113l-24.271 8.993m9.153.257c3.578.132 5.546-2.067 8.741-1.78s5.002-1.466 6.244-1.873c1.243-.407 1.986.44 2.163.075s-.805-1.164-2.572-.903-2.291 1.6-6.193 1.285-4.811 1.595-8.371 1.13"/><path fill="#f6b40e" d="m144.118 149.391 25.868-.973s.486.001.487-.324c0-.324-.487-.324-.487-.324l-25.868-.972m8.358 3.738c3.255 1.489 5.915.21 8.757 1.698s5.183.557 6.487.657c1.303.099 1.666 1.166 1.969.896s-.298-1.383-2.03-1.818-2.729.602-6.214-1.181-5.056-.366-8.167-2.157"/><path fill="#f6b40e" d="m143.622 149.291 24.271 8.993s.449.186.573-.113c.125-.3-.325-.486-.325-.486l-23.526-10.79m6.29 6.65c2.437 2.621 5.384 2.456 7.44 4.917s4.575 2.497 5.741 3.087c1.167.59 1.093 1.714 1.476 1.581s.255-1.392-1.179-2.456c-1.433-1.064-2.752-.487-5.289-3.467s-4.531-2.271-6.719-5.115"/><path fill="#f6b40e" d="m143.199 149.007 18.979 17.589s.344.344.574.115-.115-.573-.115-.573l-17.603-18.965m3.264 8.549c1.248 3.353 4.034 4.328 4.991 7.388.958 3.06 3.27 4.056 4.122 5.048.852.991.353 2.001.758 2.025.405.023.768-1.189-.149-2.72-.916-1.531-2.356-1.503-3.558-5.226-1.203-3.723-3.316-3.831-4.248-7.295"/><path fill="#85340a" d="m154.639 171.76.024.072c.016.057.036.142.043.237.012.174-.02.518-.374.665-.355.146-.621-.074-.735-.206a1.2 1.2 0 0 1-.136-.198l-.036-.069-.01-.022-5.78-12.583c.093.356.203.7.319 1.052.383 1.169.8 2.423.637 4.441-.154 1.904.097 2.959.406 3.747.162.415.329.732.498 1.118.164.372.309.766.38 1.248.139.939-.001 1.695-.246 2.207a1.7 1.7 0 0 1-.452.597c-.163.126-.422.24-.681.115a.48.48 0 0 1-.258-.292.6.6 0 0 1-.01-.309c.016-.08.042-.164.067-.238.027-.083.053-.155.081-.243.106-.332.195-.749.023-1.275-.09-.275-.259-.593-.48-.993-.215-.39-.471-.844-.705-1.362-.47-1.042-.854-2.35-.704-4.018.136-1.512-.313-2.735-.813-4.078-.497-1.335-1.039-2.777-.97-4.639l.333.013.333.012c-.063 1.713.431 3.042.929 4.382.496 1.332 1.003 2.688.851 4.369-.137 1.524.212 2.716.649 3.685.22.488.462.917.681 1.314.213.387.416.761.53 1.107.189.578.139 1.064.047 1.438.15-.382.244-.954.135-1.694a4 4 0 0 0-.331-1.078c-.145-.331-.343-.719-.509-1.143-.348-.891-.609-2.048-.448-4.043.152-1.881-.23-3.03-.607-4.18-.314-.955-.626-1.915-.598-3.246l-4.105-8.938.303-.139.303-.14 3.809 8.292.096.014.331.042a8 8 0 0 0-.064.735l6.528 14.213-8.918-24.032.626-.233z"/><path fill="#85340a" d="M144.777 173.943v.002l-.001.01v.024l-.007.077a1 1 0 0 1-.049.235c-.055.166-.218.472-.602.472-.383-.001-.544-.307-.599-.472a1.2 1.2 0 0 1-.056-.312l-.001-.024-.522-13.836c-.049.365-.08.725-.108 1.094-.093 1.227-.189 2.545-1.112 4.347-.872 1.701-1.044 2.771-1.061 3.616-.009.446.024.803.033 1.224.009.407-.008.827-.127 1.299-.232.92-.65 1.564-1.073 1.943a1.65 1.65 0 0 1-.646.38c-.2.054-.482.06-.673-.155a.48.48 0 0 1-.127-.368.64.64 0 0 1 .109-.289 2 2 0 0 1 .154-.195c.056-.065.108-.122.168-.193.224-.266.467-.617.509-1.169.022-.289-.013-.647-.063-1.101-.05-.443-.112-.96-.13-1.527-.035-1.143.11-2.499.888-3.983.705-1.344.758-2.646.81-4.077.053-1.424.106-2.964.882-4.657l.606.278c-.715 1.559-.768 2.975-.821 4.403-.052 1.42-.102 2.868-.886 4.363-.71 1.356-.844 2.59-.812 3.652.017.535.076 1.023.126 1.474.049.44.093.863.066 1.226a2.54 2.54 0 0 1-.508 1.346c.285-.295.592-.787.774-1.513.099-.393.115-.747.108-1.123-.008-.361-.043-.795-.034-1.251.019-.956.221-2.125 1.134-3.906.861-1.68.949-2.888 1.041-4.094.076-1.002.155-2.008.691-3.227l-.37-9.828.333-.012.334-.014.343 9.118.372.215q-.194.339-.34.654l.589 15.614.964-25.6.668.025z"/><path fill="#85340a" d="m134.827 172.227-.001.001-.001.003-.003.007-.01.022-.035.068a1.2 1.2 0 0 1-.136.199c-.115.131-.381.352-.736.205-.354-.147-.386-.492-.374-.665.007-.095.027-.18.044-.237q.013-.045.023-.073l.009-.022 4.817-12.981c-.185.318-.352.638-.519.969-.556 1.097-1.149 2.278-2.692 3.59-1.456 1.238-2.025 2.161-2.365 2.936-.178.407-.285.75-.438 1.143-.148.378-.324.76-.615 1.152-.566.761-1.2 1.196-1.736 1.385-.265.093-.522.13-.741.103-.206-.027-.469-.128-.564-.4a.5.5 0 0 1 .025-.389.6.6 0 0 1 .211-.224c.068-.047.146-.088.216-.123.078-.039.147-.071.229-.114.309-.16.669-.391.919-.885.131-.258.236-.603.363-1.041.123-.429.264-.93.466-1.461.405-1.07 1.058-2.266 2.345-3.34 1.166-.973 1.713-2.155 2.31-3.458.594-1.295 1.232-2.697 2.597-3.965l.454.489c-1.257 1.167-1.849 2.455-2.444 3.754-.592 1.292-1.193 2.61-2.49 3.692-1.176.981-1.772 2.069-2.148 3.063-.19.501-.323.975-.449 1.411-.123.425-.244.833-.409 1.157l-.065.121a2.54 2.54 0 0 1-.919.929c.376-.164.847-.502 1.294-1.103.241-.325.392-.645.529-.995.131-.337.266-.752.449-1.169.384-.876 1.018-1.879 2.543-3.175 1.439-1.223 1.983-2.305 2.53-3.385.454-.897.912-1.797 1.874-2.718l3.423-9.22.625.232-3.174 8.554.058.077.204.265a8 8 0 0 0-.565.473l-5.437 14.651 10.696-23.282.607.277z"/><path fill="#85340a" d="m126.266 166.867-.058.05a1.2 1.2 0 0 1-.202.131c-.156.077-.487.18-.758-.092-.271-.271-.169-.602-.091-.757a1.2 1.2 0 0 1 .181-.261l.016-.018.006-.005.002-.002.001-.001 9.414-10.142c-.294.222-.57.456-.851.697-.934.801-1.934 1.666-3.862 2.288-1.819.586-2.699 1.222-3.309 1.808-.322.308-.552.584-.844.888a4.7 4.7 0 0 1-1.009.828c-.815.487-1.566.647-2.133.617a1.7 1.7 0 0 1-.725-.189c-.18-.102-.384-.297-.368-.585a.5.5 0 0 1 .171-.35.6.6 0 0 1 .281-.126c.081-.017.169-.024.247-.03.087-.006.163-.01.255-.018.347-.03.768-.106 1.189-.467.22-.188.448-.467.733-.823.279-.349.601-.759.99-1.172.784-.833 1.846-1.689 3.446-2.189 1.45-.453 2.408-1.335 3.459-2.31 1.044-.97 2.17-2.022 3.917-2.671l.117.313.116.312c-1.609.598-2.648 1.562-3.696 2.534-1.042.968-2.102 1.956-3.714 2.459-1.462.457-2.43 1.235-3.159 2.009-.367.39-.671.777-.954 1.131-.277.346-.545.676-.821.913a2.53 2.53 0 0 1-1.311.594c.41-.008.975-.14 1.618-.524.347-.208.609-.447.87-.718.25-.261.534-.592.862-.908.69-.662 1.66-1.347 3.566-1.961 1.798-.58 2.715-1.372 3.633-2.16.764-.655 1.531-1.31 2.773-1.793l6.693-7.211.489.454-6.209 6.689.111.415a9 9 0 0 0-.703.223l-10.626 11.449 18.791-17.414.453.49z"/><path fill="#85340a" d="m120.468 158.597-.001.001-.008.002-.022.009-.072.023a1.2 1.2 0 0 1-.238.044c-.174.012-.519-.02-.666-.375-.146-.354.076-.62.207-.734.072-.062.146-.108.199-.137q.041-.022.068-.034l.022-.01.007-.004.002-.001h.002l.001-.001 12.579-5.769c-.356.093-.7.203-1.051.318-1.17.383-2.425.8-4.445.637-1.906-.154-2.961.097-3.749.405-.415.162-.733.329-1.119.498a4.7 4.7 0 0 1-1.25.379c-.939.139-1.695 0-2.207-.246a1.65 1.65 0 0 1-.598-.451c-.127-.164-.24-.422-.115-.681a.5.5 0 0 1 .292-.258.6.6 0 0 1 .308-.009c.081.015.165.042.24.067.082.027.154.053.243.081.331.105.749.195 1.276.022.275-.09.593-.259.993-.479.39-.216.845-.472 1.363-.705 1.043-.47 2.352-.854 4.022-.704 1.512.136 2.736-.313 4.08-.812 1.337-.497 2.78-1.038 4.642-.969l-.011.333-.013.333c-1.715-.063-3.045.43-4.385.928-1.333.496-2.691 1.002-4.373.851-1.526-.137-2.718.212-3.688.648-.488.22-.918.461-1.315.68-.388.214-.762.417-1.107.53l-.133.039a2.54 2.54 0 0 1-1.304.01c.382.149.954.242 1.693.133.4-.059.734-.18 1.079-.331.331-.145.719-.342 1.144-.508.891-.348 2.049-.61 4.045-.449 1.883.152 3.034-.229 4.184-.606.957-.313 1.917-.626 3.249-.597l8.944-4.102.14.303.139.303-8.298 3.805-.013.097-.044.33a8 8 0 0 0-.734-.063l-14.213 6.518 24.04-8.907.231.626z"/><path fill="#85340a" d="m118.213 148.754-.076-.007a1 1 0 0 1-.236-.05c-.165-.055-.471-.216-.471-.6s.306-.545.471-.6c.091-.03.177-.043.237-.05l.076-.007.024-.001.008.001.003-.001.001.001 13.834-.521c-.365-.049-.725-.08-1.095-.108-1.227-.093-2.546-.188-4.35-1.111-1.701-.87-2.773-1.042-3.619-1.059-.446-.009-.804.023-1.225.032a4.8 4.8 0 0 1-1.3-.128c-.92-.231-1.565-.648-1.945-1.071a1.7 1.7 0 0 1-.379-.645c-.055-.2-.061-.482.154-.674a.5.5 0 0 1 .369-.126c.123.01.222.066.288.109.069.045.136.102.196.153.065.057.122.108.193.168.266.224.618.467 1.171.509.288.022.647-.013 1.101-.064.443-.049.962-.111 1.529-.129 1.144-.035 2.501.11 3.986.887 1.345.704 2.647.758 4.08.81 1.425.052 2.966.105 4.66.88l-.138.303-.139.303c-1.561-.714-2.978-.767-4.407-.819-1.421-.052-2.87-.103-4.366-.886-1.357-.71-2.593-.844-3.656-.811-.535.017-1.024.075-1.475.125-.44.049-.863.094-1.226.066a2.53 2.53 0 0 1-1.348-.507c.295.284.789.59 1.515.773a4 4 0 0 0 1.123.107c.362-.008.797-.042 1.253-.033.956.02 2.126.221 3.909 1.133 1.681.86 2.89.948 4.097 1.04 1.004.076 2.011.155 3.23.691l9.835-.369.025.666-9.124.342-.215.373a9 9 0 0 0-.655-.34l-15.616.588 25.611.964-.026.666z"/><path fill="#85340a" d="M119.967 138.814h-.002l-.003-.002-.006-.003-.022-.01q-.027-.012-.069-.034a1.2 1.2 0 0 1-.198-.137c-.132-.114-.353-.381-.206-.735s.492-.386.666-.373a1.2 1.2 0 0 1 .31.067l.022.008 12.991 4.814a18 18 0 0 0-.969-.519c-1.098-.556-2.281-1.148-3.594-2.691-1.238-1.454-2.162-2.023-2.937-2.362-.408-.179-.751-.285-1.144-.438a4.7 4.7 0 0 1-1.153-.615c-.762-.565-1.198-1.198-1.386-1.734a1.65 1.65 0 0 1-.103-.74c.026-.206.128-.469.4-.564a.5.5 0 0 1 .389.025c.11.056.18.146.225.211.046.068.087.146.122.216l.114.229c.16.308.392.668.886.918.259.131.604.235 1.042.362.429.124.931.265 1.462.466 1.07.404 2.268 1.057 3.343 2.343.973 1.165 2.156 1.712 3.46 2.309 1.297.593 2.7 1.231 3.969 2.595l-.49.453c-1.168-1.256-2.457-1.847-3.757-2.442-1.293-.592-2.612-1.192-3.694-2.488-.982-1.175-2.072-1.77-3.066-2.147-.501-.189-.976-.322-1.412-.448-.426-.123-.833-.244-1.158-.408l-.122-.066a2.54 2.54 0 0 1-.929-.918c.164.376.503.847 1.104 1.293.325.241.646.392.996.528.337.132.752.267 1.17.449.876.384 1.88 1.017 3.177 2.542 1.224 1.437 2.307 1.981 3.387 2.527.898.454 1.799.912 2.721 1.873l9.227 3.42-.232.625-8.56-3.172-.078.059-.264.203a8 8 0 0 0-.475-.564l-14.662-5.433 23.301 10.687-.278.607z"/><path fill="#85340a" d="m125.363 130.289-.002-.001-.007-.008-.016-.018-.05-.058a1.2 1.2 0 0 1-.131-.202c-.078-.156-.18-.487.091-.758.272-.271.602-.168.758-.09a1.2 1.2 0 0 1 .26.18l.018.017 10.16 9.415a18 18 0 0 0-.698-.85c-.802-.933-1.667-1.933-2.29-3.86-.587-1.818-1.222-2.696-1.809-3.306-.308-.321-.584-.551-.889-.842a4.7 4.7 0 0 1-.829-1.009c-.487-.814-.648-1.565-.617-2.132.016-.28.079-.532.188-.724.103-.18.298-.383.586-.367a.5.5 0 0 1 .35.171.64.64 0 0 1 .127.281c.017.081.025.169.03.247.006.086.01.163.018.255.03.347.106.766.467 1.187.189.219.467.448.824.733.348.278.759.6 1.172.989.834.783 1.691 1.844 2.191 3.443.453 1.448 1.336 2.406 2.312 3.456.971 1.044 2.023 2.17 2.673 3.915l-.626.232c-.598-1.607-1.562-2.646-2.535-3.693-.968-1.041-1.957-2.1-2.461-3.711-.457-1.461-1.236-2.428-2.011-3.156-.39-.367-.777-.671-1.132-.954-.346-.276-.676-.544-.913-.82a2.53 2.53 0 0 1-.594-1.311c.007.41.139.975.523 1.617.208.348.447.61.718.87.261.25.593.533.909.861.663.69 1.348 1.659 1.963 3.563.58 1.796 1.372 2.713 2.161 3.63.655.763 1.312 1.53 1.795 2.77l7.216 6.689-.226.244-.227.245-6.695-6.205-.415.111a9 9 0 0 0-.222-.702l-11.466-10.625 17.434 18.783-.489.454z"/><path fill="#85340a" d="m133.597 124.433-.023-.072a1.2 1.2 0 0 1-.044-.238c-.012-.174.02-.518.374-.665.355-.146.621.075.735.206.062.072.108.146.137.199l.035.068.01.022 5.78 12.584a18 18 0 0 0-.318-1.053c-.384-1.168-.801-2.423-.638-4.441.154-1.904-.097-2.959-.405-3.747-.163-.414-.33-.732-.499-1.118a4.7 4.7 0 0 1-.38-1.248c-.139-.939.001-1.694.247-2.206a1.64 1.64 0 0 1 .451-.597c.164-.127.422-.241.681-.116a.5.5 0 0 1 .258.292.6.6 0 0 1 .01.309 2 2 0 0 1-.067.239c-.027.082-.053.154-.081.243-.106.331-.195.748-.023 1.274.09.275.259.593.48.993.215.39.471.845.705 1.362.47 1.042.855 2.35.704 4.019-.136 1.511.313 2.734.813 4.077.497 1.335 1.039 2.778.97 4.639l-.333-.013-.333-.011c.063-1.714-.43-3.043-.929-4.382-.496-1.332-1.003-2.689-.851-4.37.137-1.524-.212-2.716-.649-3.684-.22-.488-.462-.918-.681-1.315-.213-.387-.416-.761-.529-1.106a2.53 2.53 0 0 1-.048-1.438c-.15.381-.244.953-.135 1.693.059.4.179.734.331 1.078.145.331.343.719.509 1.144.348.89.61 2.047.448 4.043-.152 1.88.23 3.03.607 4.179.314.955.626 1.915.598 3.246l4.105 8.938-.303.139-.303.14-3.809-8.292-.096-.013-.331-.043a8 8 0 0 0 .064-.735l-6.528-14.212 8.918 24.031-.626.233z"/><path fill="#85340a" d="M143.459 122.25v-.002l.001-.011.001-.024q0-.029.006-.076c.006-.06.019-.146.049-.236.056-.165.218-.472.602-.471.383 0 .544.306.599.471a1.2 1.2 0 0 1 .057.312v.024l.522 13.836c.05-.365.08-.725.108-1.094.093-1.226.189-2.545 1.112-4.347.872-1.7 1.044-2.771 1.061-3.616.009-.445-.024-.803-.033-1.224a4.8 4.8 0 0 1 .127-1.299c.232-.92.65-1.564 1.073-1.943.209-.188.432-.321.646-.38.2-.054.482-.06.673.155a.5.5 0 0 1 .127.368.64.64 0 0 1-.109.289 2 2 0 0 1-.154.195c-.056.066-.108.123-.168.194-.224.265-.467.617-.509 1.169-.022.288.013.646.063 1.1.05.443.113.96.13 1.528.035 1.142-.11 2.498-.888 3.982-.705 1.344-.758 2.646-.81 4.078-.053 1.423-.105 2.963-.881 4.656l-.607-.278c.715-1.559.768-2.974.821-4.402.052-1.421.102-2.868.886-4.363.71-1.356.844-2.59.812-3.652-.017-.535-.076-1.024-.126-1.475-.049-.44-.093-.863-.065-1.225a2.53 2.53 0 0 1 .507-1.347c-.285.295-.592.788-.774 1.514a4 4 0 0 0-.107 1.122c.007.361.042.796.033 1.251-.019.956-.221 2.125-1.134 3.907-.861 1.679-.949 2.887-1.041 4.093-.076 1.002-.155 2.009-.691 3.227l.37 9.828-.333.013-.334.013-.343-9.118-.372-.215q.194-.339.34-.653l-.589-15.615-.964 25.6-.667-.024z"/><path fill="#85340a" d="m153.409 123.966.001-.002.001-.003.003-.006.01-.022q.013-.028.035-.069c.029-.053.074-.126.137-.198.114-.132.38-.353.735-.206.354.147.386.492.374.665-.007.095-.027.18-.044.238q-.013.044-.023.072l-.009.022-4.817 12.981c.186-.317.352-.638.519-.968.556-1.098 1.149-2.279 2.693-3.591 1.456-1.237 2.025-2.16 2.364-2.935.179-.408.285-.751.438-1.143a4.7 4.7 0 0 1 .615-1.152c.566-.762 1.2-1.197 1.736-1.385.265-.093.522-.131.741-.103.206.026.469.128.564.4a.5.5 0 0 1-.024.388.64.64 0 0 1-.212.225 2 2 0 0 1-.216.122c-.077.039-.147.072-.229.114-.309.16-.669.391-.919.885-.131.259-.236.603-.362 1.042-.124.428-.265.93-.466 1.461-.406 1.069-1.059 2.266-2.346 3.339-1.166.973-1.713 2.155-2.31 3.458-.594 1.295-1.232 2.698-2.597 3.965l-.454-.488c1.257-1.168 1.849-2.456 2.444-3.755.592-1.292 1.193-2.61 2.49-3.691 1.176-.981 1.772-2.07 2.148-3.064.19-.501.323-.975.449-1.41.123-.426.244-.833.409-1.158l.066-.121a2.53 2.53 0 0 1 .918-.928c-.376.163-.847.501-1.294 1.102a4 4 0 0 0-.529.996c-.131.336-.266.751-.449 1.168-.384.876-1.018 1.879-2.543 3.176-1.439 1.222-1.983 2.305-2.53 3.384-.454.897-.912 1.797-1.874 2.718l-3.423 9.22-.625-.232 3.174-8.553-.058-.078-.203-.264q.308-.238.564-.474l5.437-14.651-10.696 23.283-.607-.278z"/><path fill="#85340a" d="m161.97 129.325.058-.049c.047-.038.117-.089.202-.131.156-.078.487-.18.758.091s.17.602.092.758a1.2 1.2 0 0 1-.181.26l-.017.018-.006.005-.001.003h-.002l-9.414 10.143c.294-.223.57-.456.851-.698.934-.801 1.934-1.666 3.862-2.288 1.819-.586 2.699-1.222 3.309-1.808.322-.308.552-.583.844-.888a4.7 4.7 0 0 1 1.009-.828c.815-.487 1.566-.647 2.133-.616.281.015.533.078.725.188.18.103.385.297.368.585a.5.5 0 0 1-.171.35.6.6 0 0 1-.281.126 2 2 0 0 1-.247.03c-.087.006-.163.011-.255.019-.347.029-.768.105-1.189.466-.22.189-.448.467-.733.824-.279.348-.601.758-.99 1.171-.784.833-1.846 1.689-3.446 2.189-1.449.453-2.408 1.335-3.459 2.311-1.044.969-2.17 2.021-3.917 2.67l-.117-.312-.116-.313c1.609-.597 2.648-1.561 3.696-2.534 1.042-.967 2.102-1.955 3.714-2.459 1.462-.457 2.43-1.235 3.159-2.009.367-.39.671-.777.954-1.131.277-.346.545-.676.821-.913a2.54 2.54 0 0 1 1.311-.593c-.41.007-.975.139-1.617.523-.348.208-.61.447-.871.718-.25.261-.533.592-.862.908-.69.663-1.66 1.347-3.566 1.962-1.797.579-2.715 1.371-3.633 2.159-.764.655-1.531 1.311-2.773 1.794l-6.693 7.21-.489-.454 6.209-6.689-.111-.415q.377-.103.703-.223l10.627-11.449-18.792 17.414-.453-.489z"/><path fill="#85340a" d="m167.768 137.599.002-.001.008-.003.022-.008.072-.024c.058-.016.143-.036.238-.043.174-.012.519.019.665.374.147.354-.075.62-.206.734a1.2 1.2 0 0 1-.267.172l-.022.01-.007.003-.002.001-.002.001-.001.001-12.579 5.769a19 19 0 0 0 1.051-.318c1.17-.384 2.425-.8 4.445-.637 1.905.153 2.961-.097 3.749-.406.415-.162.733-.328 1.119-.498a4.8 4.8 0 0 1 1.25-.379c.939-.138 1.695.001 2.207.246.254.122.463.277.598.452.127.163.24.421.115.681a.5.5 0 0 1-.292.258.6.6 0 0 1-.308.009 2 2 0 0 1-.24-.067c-.082-.027-.154-.053-.243-.081-.331-.105-.749-.195-1.276-.023-.275.09-.593.259-.993.48-.391.215-.846.471-1.363.705-1.043.469-2.352.853-4.022.704-1.512-.137-2.736.312-4.08.811-1.337.497-2.78 1.038-4.643.97l.012-.333.013-.334c1.715.063 3.044-.43 4.385-.928 1.333-.495 2.691-1.002 4.373-.85 1.526.137 2.718-.212 3.688-.649.488-.22.918-.461 1.315-.68.388-.213.762-.416 1.107-.53l.133-.039a2.55 2.55 0 0 1 1.304-.009c-.382-.149-.954-.242-1.693-.133a4 4 0 0 0-1.079.33c-.331.146-.72.343-1.144.509-.891.348-2.049.609-4.046.448-1.882-.152-3.033.229-4.183.606-.957.314-1.917.627-3.25.598l-8.944 4.101-.139-.303-.139-.303 8.298-3.805.013-.096.043-.331q.388.05.735.064l14.213-6.518-24.041 8.907-.231-.626z"/><path fill="#85340a" d="m170.024 147.442.076.006c.06.007.145.021.236.051.165.055.471.216.471.6 0 .383-.306.545-.471.6-.091.03-.177.043-.237.05q-.046.005-.076.006l-.024.001h-.012l-13.834.52c.365.05.725.08 1.095.108 1.227.094 2.546.189 4.35 1.111 1.701.871 2.773 1.043 3.619 1.06.446.009.803-.023 1.225-.032.407-.009.827.009 1.3.128.92.231 1.565.648 1.945 1.071.187.209.321.432.379.645.055.2.061.482-.154.674a.5.5 0 0 1-.369.126.6.6 0 0 1-.288-.109 2 2 0 0 1-.196-.154c-.065-.056-.122-.107-.193-.167-.266-.224-.618-.467-1.171-.51-.288-.022-.647.014-1.101.065-.443.049-.962.111-1.529.129-1.144.035-2.501-.11-3.986-.887-1.345-.704-2.647-.758-4.08-.81-1.425-.053-2.966-.105-4.66-.88l.138-.303.139-.303c1.561.714 2.978.767 4.407.819 1.421.052 2.87.103 4.366.886 1.357.71 2.593.843 3.656.811.535-.017 1.024-.075 1.475-.125.44-.049.863-.094 1.226-.066a2.53 2.53 0 0 1 1.348.507c-.295-.285-.789-.591-1.515-.773a4 4 0 0 0-1.123-.107c-.362.007-.797.041-1.253.032-.956-.019-2.127-.22-3.909-1.132-1.681-.86-2.89-.948-4.097-1.04-1.004-.076-2.011-.155-3.23-.691l-9.835.369-.025-.666 9.124-.343.215-.372q.34.195.655.339l15.616-.587-25.611-.964.026-.666z"/><path fill="#85340a" d="m168.27 157.381.002.001.003.002.006.003.022.01.069.034c.053.029.126.075.198.137.132.114.353.38.206.735-.147.353-.492.385-.666.373a1.2 1.2 0 0 1-.309-.067l-.023-.008-12.991-4.814c.318.186.639.352.969.519 1.098.556 2.281 1.148 3.594 2.69 1.238 1.455 2.162 2.024 2.937 2.363.409.178.751.285 1.144.438a4.7 4.7 0 0 1 1.153.614c.762.566 1.198 1.199 1.386 1.734.094.265.131.522.103.741-.026.206-.128.469-.4.563a.48.48 0 0 1-.389-.024.6.6 0 0 1-.224-.211 2 2 0 0 1-.123-.216c-.039-.077-.072-.147-.114-.229-.16-.309-.392-.668-.886-.918-.259-.131-.603-.235-1.042-.362-.429-.124-.931-.265-1.462-.466-1.07-.405-2.268-1.058-3.343-2.343-.973-1.165-2.156-1.713-3.46-2.309-1.296-.593-2.7-1.231-3.968-2.595l.489-.453c1.168 1.256 2.457 1.847 3.757 2.442 1.293.592 2.612 1.192 3.695 2.488.981 1.175 2.071 1.77 3.066 2.146.501.19.975.323 1.411.449.426.123.834.244 1.158.408l.122.066c.469.267.745.614.929.918-.164-.376-.502-.847-1.103-1.293a4 4 0 0 0-.997-.529c-.337-.131-.752-.266-1.169-.449-.877-.383-1.881-1.016-3.178-2.541-1.224-1.437-2.307-1.981-3.387-2.527-.898-.455-1.799-.912-2.72-1.873l-9.228-3.42.232-.625 8.56 3.172.078-.059.265-.203q.238.31.474.564l14.662 5.433-23.3-10.687.277-.607z"/><path fill="#85340a" d="m162.874 165.906.001.002.007.008.017.017q.02.022.049.059c.038.047.089.116.132.201.078.156.18.487-.092.759-.271.27-.601.167-.757.089a1.2 1.2 0 0 1-.203-.13l-.058-.05-.017-.016-10.16-9.416c.223.294.456.569.697.85.802.934 1.668 1.933 2.29 3.86.587 1.818 1.223 2.697 1.809 3.307.309.321.585.55.889.842.294.281.579.59.83 1.008.487.814.647 1.565.616 2.132a1.65 1.65 0 0 1-.188.725c-.103.18-.298.383-.585.366a.48.48 0 0 1-.35-.171.6.6 0 0 1-.128-.281 2 2 0 0 1-.029-.246l-.018-.256c-.03-.346-.107-.766-.468-1.186-.188-.22-.466-.449-.823-.734-.349-.278-.759-.6-1.173-.988-.833-.783-1.69-1.845-2.19-3.444-.453-1.448-1.337-2.406-2.313-3.455-.97-1.044-2.022-2.17-2.672-3.916l.625-.232c.598 1.608 1.562 2.646 2.536 3.693.968 1.041 1.957 2.101 2.461 3.712.457 1.46 1.235 2.428 2.01 3.155.391.367.778.671 1.132.954.346.276.677.545.914.821.397.461.536.93.594 1.31-.007-.41-.139-.975-.523-1.617a4 4 0 0 0-.719-.869c-.261-.25-.593-.533-.909-.862-.663-.689-1.347-1.658-1.962-3.563-.58-1.795-1.373-2.712-2.161-3.63-.656-.762-1.312-1.53-1.796-2.77l-7.216-6.688.227-.244.226-.246 6.695 6.205.416-.111q.101.377.222.703l11.466 10.625-17.435-18.783.49-.455z"/><path fill="#85340a" d="M145.754 157.348c.172 3.434 2.12 4.954 1.738 8.083.84-2.475-1.185-4.393-1.07-8.047m-2.903-9.009 7.395 16.145-6.197-16.641"/><path fill="#85340a" d="M142.085 157.271c-1.156 3.238.061 5.387-1.491 8.132 1.724-1.965.588-4.511 2.094-7.844m.768-9.432.649 17.744.648-17.745"/><path fill="#85340a" d="M138.725 155.796c-2.308 2.549-2.007 5-4.491 6.942 2.345-1.156 2.27-3.943 4.937-6.446m4.323-8.42-6.196 16.641 7.395-16.146"/><path fill="#85340a" d="M136.186 153.144c-3.108 1.473-3.769 3.853-6.808 4.697 2.609-.171 3.608-2.775 7.031-4.067m7.218-6.127-12.098 13.005 13.016-12.089"/><path fill="#85340a" d="M134.854 149.728c-3.436.172-4.958 2.118-8.089 1.736 2.476.839 4.396-1.184 8.053-1.069m9.016-2.901-16.158 7.39 16.655-6.192"/><path fill="#85340a" d="M134.932 146.061c-3.24-1.155-5.391.062-8.138-1.489 1.967 1.722 4.515.587 7.85 2.092m9.44.767-17.758.649 17.759.648"/><path fill="#85340a" d="M136.411 142.706c-2.552-2.307-5.005-2.005-6.949-4.488 1.157 2.343 3.947 2.269 6.451 4.934m8.428 4.319-16.655-6.191 16.159 7.389"/><path fill="#85340a" d="M139.061 140.169c-1.474-3.106-3.856-3.765-4.701-6.802.172 2.607 2.777 3.604 4.071 7.025m6.132 7.213-13.016-12.089 12.099 13.006"/><path fill="#85340a" d="M142.481 138.839c-.172-3.434-2.12-4.954-1.738-8.083-.84 2.475 1.186 4.393 1.071 8.047m2.902 9.009-7.395-16.145 6.197 16.641"/><path fill="#85340a" d="M146.151 138.916c1.156-3.238-.062-5.387 1.49-8.132-1.724 1.965-.587 4.511-2.093 7.844m-.769 9.432-.649-17.744-.648 17.745"/><path fill="#85340a" d="M149.511 140.391c2.308-2.549 2.006-5 4.49-6.942-2.344 1.156-2.27 3.943-4.937 6.446m-4.323 8.42 6.196-16.641-7.395 16.146"/><path fill="#85340a" d="M152.049 143.043c3.109-1.473 3.769-3.853 6.808-4.697-2.609.171-3.607 2.775-7.03 4.067m-7.219 6.127 12.098-13.005-13.016 12.089"/><path fill="#85340a" d="m144.401 148.691 16.158-7.389-16.655 6.192"/><path fill="#85340a" d="m144.151 148.754 17.758-.648-17.759-.648"/><path fill="#85340a" d="m143.894 148.714 16.655 6.192-16.159-7.39"/><path fill="#85340a" d="m143.672 148.581 13.016 12.088-12.099-13.006m9.286 15.156c-.845-3.037-3.227-3.697-4.701-6.803l.63-.222c1.294 3.42 3.899 4.418 4.071 7.025m4.897-4.851c-1.943-2.483-4.397-2.181-6.948-4.487l.497-.447c2.505 2.666 5.294 2.591 6.451 4.934m2.668-6.353c-2.746-1.551-4.897-.334-8.138-1.489l.289-.603c3.335 1.505 5.883.369 7.849 2.092m.03-6.893c-3.131-.382-4.653 1.564-8.089 1.736l.036-.667c3.657.115 5.577-1.908 8.053-1.069"/><path fill="#f6b40e" d="M144.118 158.625c5.822 0 10.542-4.716 10.542-10.533s-4.72-10.533-10.542-10.533-10.542 4.716-10.542 10.533 4.72 10.533 10.542 10.533"/><path fill="#f6b40e" d="M144.118 158.625c5.822 0 10.542-4.716 10.542-10.533s-4.72-10.533-10.542-10.533-10.542 4.716-10.542 10.533 4.72 10.533 10.542 10.533"/><path fill="#85340a" d="M144.119 154.092c.805 0 1.46.654 1.46 1.459a1.502 1.502 0 0 0-2.92 0 1.46 1.46 0 0 1 1.46-1.459"/><path fill="#85340a" fill-rule="evenodd" d="M144.116 152.766c.48 0 .801-.311 2.369.148q.143.002.312.017c-1.703.162-.896 1.138-2.68 1.138h-.012c-1.783 0-.965-.976-2.668-1.138q.148-.011.277-.011c.586-.173.998-.235 1.311-.248.533-.024.775.094 1.079.094zm-.012.332c-.64-.001-.962-.475-2.369-.179h.01c1.413-.017.991.9 2.36.9h.012c1.36 0 .964-.909 2.345-.904-1.388-.286-1.71.182-2.346.183z" clip-rule="evenodd"/><path fill="#85340a" d="M144.923 151.708c.812 0 1.145.735 1.874 1.221-.405-.161-.737-.481-1.305-.806-.567-.323-1.051.071-1.375.071h-.012c-.323 0-.808-.395-1.376-.071-.567.325-.887.645-1.292.806.73-.486 1.05-1.221 1.862-1.221.161 0 .483.088.806.25h.012c.324-.162.644-.25.806-.25m.903-2.159a.73.73 0 1 1-.735 1.137c-.281.211-.67.234-.878.238h-.095c-.208-.004-.597-.027-.877-.238a.73.73 0 1 1-.736-1.137.49.49 0 0 0-.32.462.487.487 0 0 0 .973.024c.079.158.393.627 1.008.651.615-.024.928-.493 1.008-.651a.486.486 0 0 0 .972-.024.49.49 0 0 0-.32-.462"/><path fill="#85340a" d="M137.566 145.822c1.784-2.429 4.217-2.265 6-.808q.17.452.254.924c.211 1.201-.017 2.465-.66 3.695-.081-.081-.244-.162-.325-.161.723-1.022 1.012-2.019.849-2.942a3.2 3.2 0 0 0-.605-1.353c-1.297-1.216-3.648-.974-5.513.645m7.199-.808c1.783-1.457 4.215-1.62 5.999.808-1.864-1.618-4.215-1.861-5.512-.645a3.2 3.2 0 0 0-.604 1.353c-.163.923.125 1.92.849 2.942-.082-.001-.244.08-.325.161-.644-1.23-.872-2.494-.661-3.695a5.3 5.3 0 0 1 .254-.924"/><path fill="#85340a" d="M142.751 146.96c.162.001.161.163-.649.648-.81.486-2.189.568-3.568-.485 1.622.648 2.596.648 3.244.324s.811-.487.973-.487m2.826 0c.162 0 .324.163.973.487s1.622.324 3.243-.324c-1.378 1.053-2.756.971-3.567.485-.81-.485-.811-.647-.649-.648"/><path fill="#85340a" fill-rule="evenodd" d="M140.432 145.845c.72.001 1.478.311 2.004.878-1.216.891-3.007.812-3.818.083.405-.649 1.095-.961 1.814-.961m-.333.2a1.65 1.65 0 0 0-1.149.761c.357.284.807.459 1.268.489a.728.728 0 0 1-.119-1.25m.898.032a.727.727 0 0 1-.02 1.131c.325-.1.632-.285.89-.568-.065-.228-.418-.455-.87-.563m6.714-.232c.72.001 1.478.311 2.004.878-1.216.891-3.007.812-3.818.083.405-.649 1.095-.961 1.814-.961m-.501.237a1.64 1.64 0 0 0-.981.724c.316.252.705.416 1.111.472a.732.732 0 0 1-.13-1.196m.899-.04a.727.727 0 0 1-.044 1.215 2 2 0 0 0 1.081-.617c-.073-.256-.507-.512-1.037-.598" clip-rule="evenodd"/><path fill="#85340a" d="M140.484 145.34c1.053 0 1.296.244 1.782.649.487.404.73.324.812.405.08.081 0 .323-.162.242s-.487-.242-.973-.647c-.487-.406-.973-.406-1.459-.406-1.46 0-2.271 1.215-2.433 1.135-.162-.082.811-1.378 2.433-1.378m7.364 0c1.621 0 2.594 1.296 2.432 1.378-.162.08-.973-1.135-2.432-1.135-.487 0-.973 0-1.46.406-.486.405-.811.566-.973.647s-.241-.161-.161-.242c.081-.081.324-.001.811-.405.486-.405.73-.649 1.783-.649"/><path fill="#85340a" fill-rule="evenodd" d="M144.117 137.113c6.07 0 10.992 4.918 10.992 10.984s-4.922 10.983-10.992 10.983-10.992-4.917-10.992-10.983 4.922-10.984 10.992-10.984m0 .901c-5.574 0-10.091 4.515-10.091 10.083s4.517 10.083 10.091 10.083 10.092-4.514 10.092-10.083c0-5.568-4.518-10.083-10.092-10.083" clip-rule="evenodd"/></g><path fill="#f3b443" stroke="#000" stroke-miterlimit="10" stroke-width=".325" d="M67.99 50.98a3.99 3.99 0 1 0 0-7.98 3.99 3.99 0 0 0 0 7.98Z"/><path fill="#000" d="M65.757 47.179c-.553-.79-.795-1.794-.711-2.761A3.88 3.88 0 0 0 64 47.072a3.907 3.907 0 0 0 3.906 3.906c1.476 0 2.756-.82 3.418-2.026-1.975.534-4.445-.168-5.567-1.773"/><path fill="#fff" d="M69.657 46.634a1.534 1.534 0 1 0 0-3.068 1.534 1.534 0 0 0 0 3.068"/><g filter="url(#c)"><circle cx="235" cy="231" r="84" fill="#2775ca"/><path fill="#08386b" d="M235 157c21.452 0 40.771 9.128 54.287 23.712C276.087 168.479 258.417 161 239 161c-40.869 0-74 33.131-74 74 0 19.417 7.479 37.087 19.712 50.287C170.128 271.771 161 252.452 161 231c0-40.869 33.131-74 74-74"/><path fill="#f1f8ff" d="M235.287 305.289c-21.452 0-40.771-9.128-54.287-23.712 13.2 12.234 30.87 19.712 50.287 19.712 40.869 0 74-33.131 74-74 0-19.417-7.478-37.087-19.712-50.287 14.584 13.516 23.712 32.835 23.712 54.287 0 40.869-33.131 74-74 74" opacity=".8"/><path fill="#488cd6" d="M317 231c0 45.287-36.713 82-82 82s-82-36.713-82-82 36.713-82 82-82 82 36.713 82 82m-155.8 0c0 40.759 33.041 73.8 73.8 73.8s73.8-33.041 73.8-73.8-33.041-73.8-73.8-73.8-73.8 33.041-73.8 73.8"/><g opacity=".6" style="mix-blend-mode:hard-light"><circle cx="235" cy="231" r="82.95" stroke="url(#d)" stroke-width="2.1" style="mix-blend-mode:overlay"/></g><path fill="#fff" fill-rule="evenodd" d="M248.622 190.112c-1.305-.415-2.372.357-2.372 1.721v3.356c0 .915.692 1.957 1.555 2.272 13.85 5.053 23.762 18.314 23.762 33.839s-9.912 28.786-23.762 33.839c-.946.346-1.555 1.268-1.555 2.272v3.356c0 1.364 1.067 2.136 2.372 1.721 17.503-5.571 30.178-21.905 30.178-41.188s-12.675-35.617-30.178-41.188m-24.072 1.721c0-1.364-1.067-2.136-2.372-1.721C204.675 195.683 192 212.017 192 231.3s12.675 35.617 30.178 41.188c1.305.415 2.372-.357 2.372-1.721v-3.356c0-.915-.692-1.957-1.555-2.272-13.85-5.053-23.762-18.314-23.762-33.839s9.912-28.786 23.762-33.839c.863-.315 1.555-1.357 1.555-2.272zm12.658 10.647h-3.616c-.999 0-1.809.806-1.809 1.801v5.58c-7.169 1.016-11.804 5.769-11.804 11.866 0 7.892 4.789 10.954 14.899 12.31 6.859 1.119 8.811 2.59 8.811 6.478s-3.312 6.479-7.982 6.479c-6.314 0-8.392-2.753-9.158-6.315-.182-.844-.907-1.46-1.774-1.46h-4.125c-1.039 0-1.851.932-1.673 1.951 1.051 5.996 4.917 10.395 12.806 11.462v5.687c0 .995.81 1.801 1.809 1.801h3.616c.999 0 1.809-.806 1.809-1.801v-5.69c7.469-1.182 12.241-6.361 12.241-12.762 0-8.422-5.145-11.25-15.079-12.604-7.332-1.06-8.75-2.768-8.75-6.184 0-3.239 2.483-5.537 7.273-5.537 4.332 0 6.823 1.506 7.853 4.979a1.82 1.82 0 0 0 1.737 1.323h3.804c1.061 0 1.887-.971 1.66-2.004-1.204-5.488-4.918-8.781-10.739-9.82v-5.739c0-.995-.81-1.801-1.809-1.801" clip-rule="evenodd"/><path fill="#c2dfe7" d="M293.782 170.996a84.3 84.3 0 0 1 15.24 20.266l-41.395 117.165a83.5 83.5 0 0 1-24.588 6.191zm-11.957-9.746a84 84 0 0 1 6.646 4.963l-52.565 148.779a85 85 0 0 1-8.289-.315z" opacity=".2"/></g><defs><linearGradient id="b" x1="93" x2="194.7" y1="97" y2="198.7" gradientUnits="userSpaceOnUse"><stop stop-color="#fff"/><stop offset="1" stop-color="#404040"/></linearGradient><linearGradient id="d" x1="175.5" x2="294.15" y1="171.5" y2="290.15" gradientUnits="userSpaceOnUse"><stop stop-color="#fff"/><stop offset="1" stop-color="#404040"/></linearGradient><filter id="a" width="177.6" height="177.6" x="66.4" y="70.4" color-interpolation-filters="sRGB" filterUnits="userSpaceOnUse"><feFlood flood-opacity="0" result="BackgroundImageFix"/><feColorMatrix in="SourceAlpha" result="hardAlpha" values="0 0 0 0 0 0 0 0 0 0 0 0 0 0 0 0 0 0 127 0"/><feOffset dx="11.2" dy="11.2"/><feGaussianBlur stdDeviation="8.4"/><feComposite in2="hardAlpha" operator="out"/><feColorMatrix values="0 0 0 0 0 0 0 0 0 0 0 0 0 0 0 0 0 0 0.12 0"/><feBlend in2="BackgroundImageFix" result="effect1_dropShadow_15122_15302"/><feBlend in="SourceGraphic" in2="effect1_dropShadow_15122_15302" result="shape"/></filter><filter id="c" width="201.6" height="201.6" x="145.4" y="141.4" color-interpolation-filters="sRGB" filterUnits="userSpaceOnUse"><feFlood flood-opacity="0" result="BackgroundImageFix"/><feColorMatrix in="SourceAlpha" result="hardAlpha" values="0 0 0 0 0 0 0 0 0 0 0 0 0 0 0 0 0 0 127 0"/><feOffset dx="11.2" dy="11.2"/><feGaussianBlur stdDeviation="8.4"/><feComposite in2="hardAlpha" operator="out"/><feColorMatrix values="0 0 0 0 0 0 0 0 0 0 0 0 0 0 0 0 0 0 0.12 0"/><feBlend in2="BackgroundImageFix" result="effect1_dropShadow_15122_15302"/><feBlend in="SourceGraphic" in2="effect1_dropShadow_15122_15302" result="shape"/></filter></defs></svg>