<svg xmlns="http://www.w3.org/2000/svg" fill="none" viewBox="0 0 390 390"><path fill="#e0f8f3" fill-rule="evenodd" d="M193.394 300.472c-36.464 4.085-73.178-15.942-93.819-46.21-19.168-28.107-10.192-63.483-3.753-96.867 6.887-35.706 7.638-80.323 40.826-95.346 32.917-14.9 66.312 14.817 97.747 32.62 27.454 15.55 60.098 29.622 66.575 60.448 6.4 30.454-18.387 55.69-36.912 80.721-19.971 26.984-37.254 60.892-70.664 64.634" clip-rule="evenodd"/><path fill="#59b8aa" stroke="#000" stroke-miterlimit="10" stroke-width=".325" d="M40.941 200.883a5.941 5.941 0 1 0 0-11.883 5.941 5.941 0 0 0 0 11.883Z"/><path fill="#000" d="M37.616 195.224c-.824-1.176-1.183-2.671-1.059-4.111A5.78 5.78 0 0 0 35 195.065a5.82 5.82 0 0 0 5.817 5.817 5.8 5.8 0 0 0 5.09-3.018c-2.941.796-6.62-.249-8.291-2.64"/><path fill="#fff" d="M43.423 194.411a2.283 2.283 0 1 0 0-4.567 2.283 2.283 0 0 0 0 4.567"/><path fill="#59b8aa" stroke="#000" stroke-miterlimit="10" stroke-width=".325" d="M290.599 110.198a4.599 4.599 0 1 0 0-9.198 4.599 4.599 0 0 0 0 9.198Z"/><path fill="#000" d="M288.025 105.819c-.638-.911-.916-2.068-.82-3.182a4.47 4.47 0 0 0-1.205 3.058 4.504 4.504 0 0 0 4.502 4.503 4.49 4.49 0 0 0 3.94-2.336c-2.276.616-5.123-.193-6.417-2.043"/><path fill="#fff" d="M292.52 105.188a1.768 1.768 0 1 0-.001-3.535 1.768 1.768 0 0 0 .001 3.535"/><path stroke="#000" stroke-miterlimit="10" stroke-width=".325" d="M71.95 268v7.897M75.9 271.949H68M225.949 43v7.897M229.897 46.95H222"/><path fill="#59b8aa" stroke="#000" stroke-miterlimit="10" stroke-width=".325" d="M317.111 317.222a4.112 4.112 0 1 0-.001-8.223 4.112 4.112 0 0 0 .001 8.223Z"/><path fill="#fff" stroke="#000" stroke-miterlimit="10" stroke-width=".325" d="M150.5 44.784s12.159-1.486 12.159 13.716c0 0 0-14 12.841-13.755 0 0-11.048.462-12.841-14.245 0 0 .342 14-12.159 14.284ZM142.998 320.714s9.241-1.114 9.241 10.286c0 0 0-10.499 9.759-10.316 0 0-8.396.346-9.759-10.684 0 0 .26 10.499-9.241 10.712zM330 180.851s5.82-.712 5.82 6.575c0 0 0-6.713 6.149-6.595 0 0-5.291.221-6.149-6.831 0 0 .163 6.713-5.82 6.848z"/><g filter="url(#a)"><g clip-path="url(#b)"><g clip-path="url(#c)"><path fill="#74acdf" d="M295.799 53.2h-303.6v189.599h303.6z"/><path fill="#efefef" d="M295.799 116.402h-303.6v63.202h303.6z"/><path fill="#f6b40e" d="m142.801 148.496 10.798 23.508s.186.449.486.325.113-.573.113-.573l-9-24.252m-.258 9.146c-.131 3.575 2.07 5.541 1.782 8.734s1.467 4.998 1.874 6.239c.408 1.242-.44 1.984-.075 2.161.366.177 1.165-.804.905-2.569-.261-1.765-1.602-2.289-1.287-6.189s-1.596-4.807-1.131-8.364"/><path stroke="#85340a" stroke-width=".667" d="m142.801 148.496 10.798 23.508s.186.449.486.325.113-.573.113-.573l-9-24.252m-.258 9.146c-.131 3.575 2.07 5.541 1.782 8.734s1.467 4.998 1.874 6.239c.408 1.242-.44 1.984-.075 2.161.366.177 1.165-.804.905-2.569-.261-1.765-1.602-2.289-1.287-6.189s-1.596-4.807-1.131-8.364"/><path fill="#f6b40e" d="m142.702 147.999.973 25.847s0 .486.324.486c.325.001.325-.486.325-.486l.973-25.847m-3.741 8.351c-1.491 3.253-.211 5.911-1.699 8.75s-.558 5.179-.658 6.482-1.167 1.664-.897 1.967 1.384-.297 1.82-2.028c.435-1.73-.603-2.727 1.181-6.209s.367-5.052 2.159-8.16"/><path stroke="#85340a" stroke-width=".667" d="m142.702 147.999.973 25.847s0 .486.324.486c.325.001.325-.486.325-.486l.973-25.847m-3.741 8.351c-1.491 3.253-.211 5.911-1.699 8.75s-.558 5.179-.658 6.482-1.167 1.664-.897 1.967 1.384-.297 1.82-2.028c.435-1.73-.603-2.727 1.181-6.209s.367-5.052 2.159-8.16"/><path fill="#f6b40e" d="m142.8 147.502-9 24.252s-.187.449.113.574.486-.326.486-.326l10.798-23.507m-6.655 6.285c-2.623 2.435-2.458 5.38-4.921 7.434s-2.499 4.571-3.089 5.737c-.591 1.165-1.716 1.092-1.583 1.474.134.384 1.393.255 2.458-1.177 1.065-1.433.488-2.751 3.47-5.285s2.273-4.527 5.119-6.714"/><path stroke="#85340a" stroke-width=".667" d="m142.8 147.502-9 24.252s-.187.449.113.574.486-.326.486-.326l10.798-23.507m-6.655 6.285c-2.623 2.435-2.458 5.38-4.921 7.434s-2.499 4.571-3.089 5.737c-.591 1.165-1.716 1.092-1.583 1.474.134.384 1.393.255 2.458-1.177 1.065-1.433.488-2.751 3.47-5.285s2.273-4.527 5.119-6.714"/><path fill="#f6b40e" d="m143.08 147.087-17.602 18.964s-.345.344-.115.573c.229.23.573-.115.573-.115l18.98-17.589m-8.556 3.262c-3.356 1.247-4.332 4.031-7.394 4.987s-4.059 3.268-5.051 4.118c-.992.852-2.003.353-2.027.758-.023.405 1.19.768 2.722-.148 1.532-.917 1.504-2.355 5.23-3.556s3.834-3.314 7.301-4.245"/><path stroke="#85340a" stroke-width=".667" d="m143.08 147.087-17.602 18.964s-.345.344-.115.573c.229.23.573-.115.573-.115l18.98-17.589m-8.556 3.262c-3.356 1.247-4.332 4.031-7.394 4.987s-4.059 3.268-5.051 4.118c-.992.852-2.003.353-2.027.758-.023.405 1.19.768 2.722-.148 1.532-.917 1.504-2.355 5.23-3.556s3.834-3.314 7.301-4.245"/><path fill="#85340a" d="M145.636 157.255c.172 3.433 2.12 4.953 1.737 8.082.84-2.474-1.185-4.392-1.07-8.046m-2.903-9.009 7.396 16.145-6.197-16.642"/><path fill="#85340a" d="M141.966 157.178c-1.156 3.238.061 5.387-1.49 8.131 1.723-1.964.587-4.511 2.093-7.843m.768-9.433.649 17.744.649-17.745"/><path fill="#85340a" d="M138.606 155.705c-2.308 2.549-2.007 5.001-4.491 6.943 2.345-1.156 2.27-3.943 4.937-6.446m4.323-8.421-6.196 16.641 7.395-16.146"/><path fill="#85340a" d="M136.066 153.051c-3.108 1.472-3.768 3.853-6.808 4.697 2.61-.172 3.608-2.775 7.031-4.068m7.218-6.127-12.097 13.006 13.015-12.089"/><path fill="#f6b40e" d="m143.501 146.809-23.526 10.789s-.45.186-.326.486c.124.299.574.113.574.113l24.271-8.993m-9.153-.258c-3.578-.131-5.546 2.068-8.741 1.781s-5.002 1.466-6.244 1.873c-1.243.407-1.986-.44-2.163-.075s.805 1.164 2.572.903 2.29-1.6 6.193-1.285 4.811-1.595 8.371-1.13"/><path stroke="#85340a" stroke-width=".667" d="m143.501 146.809-23.526 10.789s-.45.186-.326.486c.124.299.574.113.574.113l24.271-8.993m-9.153-.258c-3.578-.131-5.546 2.068-8.741 1.781s-5.002 1.466-6.244 1.873c-1.243.407-1.986-.44-2.163-.075s.805 1.164 2.572.903 2.29-1.6 6.193-1.285 4.811-1.595 8.371-1.13"/><path fill="#f6b40e" d="m143.997 146.71-25.868.973s-.487-.001-.487.323c0 .325.487.325.487.325l25.868.972m-8.358-3.738c-3.256-1.49-5.916-.21-8.758-1.698s-5.182-.558-6.486-.657-1.666-1.166-1.969-.896.298 1.383 2.03 1.818 2.729-.603 6.214 1.181c3.485 1.783 5.056.366 8.166 2.156"/><path stroke="#85340a" stroke-width=".667" d="m143.997 146.71-25.868.973s-.487-.001-.487.323c0 .325.487.325.487.325l25.868.972m-8.358-3.738c-3.256-1.49-5.916-.21-8.758-1.698s-5.182-.558-6.486-.657-1.666-1.166-1.969-.896.298 1.383 2.03 1.818 2.729-.603 6.214 1.181c3.485 1.783 5.056.366 8.166 2.156"/><path fill="#f6b40e" d="m144.495 146.806-24.271-8.993s-.449-.186-.574.113c-.124.3.326.486.326.486l23.526 10.79m-6.29-6.65c-2.437-2.621-5.385-2.456-7.44-4.917-2.057-2.461-4.575-2.497-5.741-3.087-1.167-.59-1.093-1.714-1.476-1.581-.384.133-.255 1.392 1.178 2.456 1.434 1.064 2.753.487 5.289 3.467 2.537 2.979 4.531 2.271 6.719 5.115"/><path stroke="#85340a" stroke-width=".667" d="m144.495 146.806-24.271-8.993s-.449-.186-.574.113c-.124.3.326.486.326.486l23.526 10.79m-6.29-6.65c-2.437-2.621-5.385-2.456-7.44-4.917-2.057-2.461-4.575-2.497-5.741-3.087-1.167-.59-1.093-1.714-1.476-1.581-.384.133-.255 1.392 1.178 2.456 1.434 1.064 2.753.487 5.289 3.467 2.537 2.979 4.531 2.271 6.719 5.115"/><path fill="#f6b40e" d="m144.917 147.087-18.98-17.589s-.343-.344-.573-.115.115.573.115.573l17.603 18.965m-3.265-8.549c-1.247-3.353-4.034-4.328-4.99-7.388-.958-3.059-3.271-4.056-4.122-5.047-.852-.992-.353-2.002-.758-2.025-.406-.024-.768 1.188.148 2.719.917 1.531 2.357 1.503 3.559 5.226s3.316 3.831 4.248 7.295"/><path stroke="#85340a" stroke-width=".667" d="m144.917 147.087-18.98-17.589s-.343-.344-.573-.115.115.573.115.573l17.603 18.965m-3.265-8.549c-1.247-3.353-4.034-4.328-4.99-7.388-.958-3.059-3.271-4.056-4.122-5.047-.852-.992-.353-2.002-.758-2.025-.406-.024-.768 1.188.148 2.719.917 1.531 2.357 1.503 3.559 5.226s3.316 3.831 4.248 7.295"/><path fill="#85340a" d="M134.734 149.636c-3.436.172-4.958 2.118-8.089 1.736 2.476.839 4.396-1.184 8.053-1.069m9.016-2.901-16.158 7.39 16.655-6.192"/><path fill="#85340a" d="M134.813 145.975c-3.241-1.155-5.392.061-8.138-1.489 1.966 1.722 4.514.586 7.849 2.091m9.441.768-17.759.649 17.759.648"/><path fill="#85340a" d="M136.292 142.614c-2.551-2.306-5.004-2.005-6.948-4.488 1.157 2.343 3.946 2.269 6.451 4.934m8.428 4.319-16.655-6.191 16.159 7.389"/><path fill="#85340a" d="M138.941 140.075c-1.474-3.107-3.856-3.766-4.701-6.803.172 2.607 2.777 3.605 4.071 7.025m6.132 7.213-13.016-12.089 12.099 13.006"/><path fill="#f6b40e" d="m145.197 147.504-10.798-23.508s-.186-.449-.486-.325-.113.573-.113.573l9 24.252m.258-9.146c.131-3.575-2.07-5.541-1.782-8.734s-1.467-4.998-1.874-6.239c-.408-1.242.44-1.984.075-2.161-.366-.177-1.165.804-.905 2.569.261 1.765 1.602 2.289 1.287 6.189s1.596 4.807 1.131 8.364"/><path stroke="#85340a" stroke-width=".667" d="m145.197 147.504-10.798-23.508s-.186-.449-.486-.325-.113.573-.113.573l9 24.252m.258-9.146c.131-3.575-2.07-5.541-1.782-8.734s-1.467-4.998-1.874-6.239c-.408-1.242.44-1.984.075-2.161-.366-.177-1.165.804-.905 2.569.261 1.765 1.602 2.289 1.287 6.189s1.596 4.807 1.131 8.364"/><path fill="#f6b40e" d="m145.296 148.001-.973-25.847s0-.486-.324-.486c-.325-.001-.325.486-.325.486l-.973 25.847m3.741-8.351c1.491-3.253.211-5.911 1.699-8.75s.558-5.179.658-6.482 1.167-1.664.897-1.967-1.384.297-1.82 2.028c-.435 1.73.603 2.727-1.181 6.209s-.367 5.052-2.159 8.16"/><path stroke="#85340a" stroke-width=".667" d="m145.296 148.001-.973-25.847s0-.486-.324-.486c-.325-.001-.325.486-.325.486l-.973 25.847m3.741-8.351c1.491-3.253.211-5.911 1.699-8.75s.558-5.179.658-6.482 1.167-1.664.897-1.967-1.384.297-1.82 2.028c-.435 1.73.603 2.727-1.181 6.209s-.367 5.052-2.159 8.16"/><path fill="#f6b40e" d="m145.198 148.498 9-24.252s.187-.449-.113-.574-.486.326-.486.326l-10.798 23.507m6.655-6.285c2.623-2.435 2.458-5.38 4.921-7.434s2.499-4.571 3.089-5.737c.591-1.165 1.716-1.092 1.583-1.474-.134-.384-1.393-.255-2.458 1.177-1.065 1.433-.487 2.751-3.47 5.285s-2.273 4.527-5.119 6.714"/><path stroke="#85340a" stroke-width=".667" d="m145.198 148.498 9-24.252s.187-.449-.113-.574-.486.326-.486.326l-10.798 23.507m6.655-6.285c2.623-2.435 2.458-5.38 4.921-7.434s2.499-4.571 3.089-5.737c.591-1.165 1.716-1.092 1.583-1.474-.134-.384-1.393-.255-2.458 1.177-1.065 1.433-.487 2.751-3.47 5.285s-2.273 4.527-5.119 6.714"/><path fill="#f6b40e" d="m144.918 148.913 17.602-18.964s.345-.344.116-.573c-.23-.23-.574.115-.574.115l-18.98 17.589m8.556-3.262c3.356-1.247 4.332-4.031 7.394-4.987s4.059-3.268 5.051-4.118c.992-.852 2.003-.353 2.027-.758.023-.405-1.19-.768-2.722.148-1.532.917-1.504 2.355-5.23 3.556s-3.834 3.314-7.301 4.245"/><path stroke="#85340a" stroke-width=".667" d="m144.918 148.913 17.602-18.964s.345-.344.116-.573c-.23-.23-.574.115-.574.115l-18.98 17.589m8.556-3.262c3.356-1.247 4.332-4.031 7.394-4.987s4.059-3.268 5.051-4.118c.992-.852 2.003-.353 2.027-.758.023-.405-1.19-.768-2.722.148-1.532.917-1.504 2.355-5.23 3.556s-3.834 3.314-7.301 4.245"/><path fill="#85340a" d="M142.362 138.745c-.172-3.433-2.12-4.953-1.737-8.082-.84 2.474 1.185 4.392 1.07 8.046m2.903 9.009-7.396-16.145 6.197 16.642"/><path fill="#85340a" d="M146.032 138.822c1.156-3.238-.061-5.387 1.49-8.131-1.723 1.964-.587 4.511-2.093 7.843m-.768 9.433-.649-17.744-.649 17.745"/><path fill="#85340a" d="M149.392 140.295c2.308-2.549 2.007-5.001 4.491-6.943-2.345 1.156-2.27 3.943-4.937 6.446m-4.323 8.421 6.196-16.641-7.395 16.146"/><path fill="#85340a" d="M151.932 142.949c3.108-1.472 3.768-3.853 6.808-4.697-2.609.172-3.608 2.775-7.031 4.068m-7.218 6.127 12.098-13.006-13.016 12.089"/><path fill="#f6b40e" d="m144.497 149.191 23.526-10.789s.45-.186.326-.486c-.124-.299-.574-.113-.574-.113l-24.271 8.993m9.153.258c3.578.131 5.546-2.068 8.741-1.781s5.002-1.466 6.244-1.873c1.243-.407 1.986.44 2.163.075s-.805-1.164-2.571-.903-2.291 1.6-6.194 1.285-4.811 1.595-8.371 1.13"/><path stroke="#85340a" stroke-width=".667" d="m144.497 149.191 23.526-10.789s.45-.186.326-.486c-.124-.299-.574-.113-.574-.113l-24.271 8.993m9.153.258c3.578.131 5.546-2.068 8.741-1.781s5.002-1.466 6.244-1.873c1.243-.407 1.986.44 2.163.075s-.805-1.164-2.571-.903-2.291 1.6-6.194 1.285-4.811 1.595-8.371 1.13"/><path fill="#f6b40e" d="m144.002 149.29 25.867-.973s.487.001.487-.323c0-.325-.487-.325-.487-.325l-25.867-.972m8.358 3.738c3.255 1.49 5.915.21 8.757 1.698s5.182.558 6.486.657 1.666 1.166 1.969.896-.298-1.383-2.029-1.818c-1.732-.435-2.73.603-6.215-1.181-3.485-1.783-5.056-.366-8.166-2.156"/><path stroke="#85340a" stroke-width=".667" d="m144.002 149.29 25.867-.973s.487.001.487-.323c0-.325-.487-.325-.487-.325l-25.867-.972m8.358 3.738c3.255 1.49 5.915.21 8.757 1.698s5.182.558 6.486.657 1.666 1.166 1.969.896-.298-1.383-2.029-1.818c-1.732-.435-2.73.603-6.215-1.181-3.485-1.783-5.056-.366-8.166-2.156"/><path fill="#f6b40e" d="m143.503 149.194 24.271 8.993s.449.186.574-.113c.124-.3-.326-.486-.326-.486l-23.526-10.79m6.29 6.65c2.437 2.621 5.385 2.456 7.44 4.917 2.057 2.461 4.575 2.497 5.741 3.087 1.167.59 1.093 1.714 1.476 1.581.384-.133.255-1.392-1.178-2.456-1.434-1.064-2.753-.487-5.289-3.467-2.537-2.979-4.531-2.271-6.719-5.115"/><path stroke="#85340a" stroke-width=".667" d="m143.503 149.194 24.271 8.993s.449.186.574-.113c.124-.3-.326-.486-.326-.486l-23.526-10.79m6.29 6.65c2.437 2.621 5.385 2.456 7.44 4.917 2.057 2.461 4.575 2.497 5.741 3.087 1.167.59 1.093 1.714 1.476 1.581.384-.133.255-1.392-1.178-2.456-1.434-1.064-2.753-.487-5.289-3.467-2.537-2.979-4.531-2.271-6.719-5.115"/><path fill="#f6b40e" d="m143.081 148.913 18.98 17.589s.343.344.573.115-.115-.573-.115-.573l-17.603-18.965m3.265 8.549c1.247 3.353 4.034 4.328 4.991 7.388s3.27 4.056 4.121 5.047c.852.992.353 2.002.758 2.025.406.024.769-1.188-.148-2.719s-2.357-1.503-3.559-5.226-3.316-3.831-4.248-7.295"/><path stroke="#85340a" stroke-width=".667" d="m143.081 148.913 18.98 17.589s.343.344.573.115-.115-.573-.115-.573l-17.603-18.965m3.265 8.549c1.247 3.353 4.034 4.328 4.991 7.388s3.27 4.056 4.121 5.047c.852.992.353 2.002.758 2.025.406.024.769-1.188-.148-2.719s-2.357-1.503-3.559-5.226-3.316-3.831-4.248-7.295"/><path fill="#85340a" d="M153.264 146.364c3.436-.172 4.958-2.118 8.089-1.736-2.476-.839-4.396 1.184-8.053 1.069m-9.016 2.901 16.158-7.39-16.655 6.192"/><path fill="#85340a" d="M153.185 150.025c3.241 1.155 5.392-.061 8.138 1.489-1.966-1.722-4.514-.586-7.849-2.091m-9.44-.768 17.758-.649-17.759-.648"/><path fill="#85340a" d="M151.706 153.386c2.551 2.306 5.004 2.005 6.948 4.488-1.157-2.343-3.946-2.269-6.451-4.934m-8.428-4.319 16.655 6.191-16.159-7.389"/><path fill="#85340a" d="M149.057 155.925c1.474 3.107 3.856 3.766 4.701 6.803-.172-2.607-2.777-3.605-4.071-7.025m-6.132-7.213 13.016 12.089-12.099-13.006"/><path fill="#f6b40e" stroke="#85340a" stroke-width=".9" d="M143.999 158.536c5.822 0 10.542-4.716 10.542-10.534 0-5.817-4.72-10.533-10.542-10.533s-10.542 4.716-10.542 10.533c0 5.818 4.72 10.534 10.542 10.534Z"/><path fill="#843511" d="M147.592 145.75c-.72 0-1.409.312-1.815.96.811.729 2.602.808 3.819-.083a2.78 2.78 0 0 0-2.004-.877m-.012.166c.701-.013 1.355.309 1.447.628-.811.891-2.107.814-2.918.166.355-.567.926-.784 1.471-.794"/><path fill="#85340a" d="M147.73 145.242c-1.053 0-1.297.244-1.784.649s-.73.324-.811.405c-.08.081 0 .324.162.243s.487-.243.973-.648c.487-.406.973-.405 1.46-.405 1.459 0 2.27 1.215 2.432 1.134s-.811-1.378-2.432-1.378"/><path fill="#85340a" d="M150.648 145.729c-1.865-1.62-4.216-1.863-5.514-.648-.317.425-.521.88-.604 1.354-.164.923.125 1.919.848 2.941-.081 0-.244.081-.325.162-.644-1.23-.871-2.494-.66-3.696q.084-.472.254-.923c1.784-1.458 4.216-1.621 6 .81z"/><path fill="#85340a" d="M147.568 147.271a.73.73 0 1 0 0-1.458.73.73 0 0 0 0 1.458"/><path fill="#85340a" d="M149.676 147.029c-1.379 1.053-2.757.972-3.568.486s-.811-.648-.649-.648.324.162.973.486c.649.325 1.621.325 3.243-.324zM142.386 149.453a.73.73 0 1 0 .735 1.138c.281.211.67.233.878.237h.095c.208-.004.597-.026.877-.237a.72.72 0 0 0 .593.308.73.73 0 0 0 .143-1.446.489.489 0 0 1-.166.948.49.49 0 0 1-.487-.462c-.079.158-.392.628-1.008.652-.615-.024-.929-.494-1.008-.652a.485.485 0 0 1-.972-.024c0-.205.125-.393.32-.462M143.18 151.613c-.811 0-1.132.735-1.862 1.221.406-.162.725-.481 1.293-.806.568-.324 1.052.071 1.376.071h.012c.323 0 .807-.395 1.375-.071.568.325.899.644 1.305.806-.73-.486-1.063-1.221-1.874-1.221-.162 0-.483.088-.806.249h-.012c-.324-.162-.645-.249-.807-.249"/><path fill="#85340a" d="M142.907 152.575c-.321.014-.744.079-1.352.261 1.46-.324 1.782.166 2.431.166h.012c.649 0 .971-.49 2.431-.166-1.622-.486-1.945-.166-2.431-.166h-.012c-.304 0-.546-.119-1.079-.095"/><path fill="#85340a" d="M141.627 152.825c-.094.002-.197.002-.309.012 1.704.162.885 1.138 2.669 1.138h.012c1.783 0 .977-.976 2.68-1.138-1.784-.162-1.22.889-2.68.889h-.012c-1.369 0-.947-.918-2.36-.901"/><path fill="#85340a" d="M145.46 155.455a1.46 1.46 0 0 0-2.919 0 1.5 1.5 0 0 1 2.919 0M137.445 145.729c1.865-1.62 4.217-1.863 5.514-.648.318.425.522.88.605 1.354.163.923-.125 1.919-.849 2.941.082 0 .245.081.325.162.644-1.23.872-2.494.661-3.696a5.3 5.3 0 0 0-.254-.923c-1.784-1.458-4.217-1.621-6.001.81z"/><path fill="#85340a" d="M140.363 145.242c1.054 0 1.298.244 1.784.649.487.405.73.324.811.405s0 .324-.162.243-.487-.243-.972-.648c-.487-.406-.973-.405-1.46-.405-1.46 0-2.271 1.215-2.432 1.134s.81-1.378 2.432-1.378z"/><path fill="#843511" d="M140.314 145.75c-.719 0-1.409.312-1.814.96.811.729 2.602.808 3.819-.083a2.79 2.79 0 0 0-2.005-.877m-.011.166c.7-.013 1.355.309 1.446.628-.81.891-2.106.814-2.917.166.355-.567.926-.784 1.471-.794"/><path fill="#85340a" d="M140.409 147.271a.73.73 0 1 0 .001-1.459.73.73 0 0 0-.001 1.459"/><path fill="#85340a" d="M138.416 147.029c1.379 1.053 2.757.972 3.568.486s.811-.648.649-.648-.324.162-.973.486c-.649.325-1.621.325-3.243-.324z"/></g><path fill="#1b1b1b" d="M216 148c0 39.765-32.235 72-72 72s-72-32.235-72-72 32.235-72 72-72 72 32.235 72 72m-136.8 0c0 35.788 29.012 64.8 64.8 64.8s64.8-29.012 64.8-64.8-29.012-64.8-64.8-64.8-64.8 29.012-64.8 64.8"/><g opacity=".6" style="mix-blend-mode:hard-light"><circle cx="144" cy="148" r="71.1" stroke="url(#d)" stroke-width="1.8" style="mix-blend-mode:overlay"/></g><g opacity=".6" style="mix-blend-mode:hard-light"><circle cx="143.999" cy="147.999" r="63.9" stroke="url(#e)" stroke-width="1.8" style="mix-blend-mode:overlay"/></g><g opacity=".6" style="mix-blend-mode:hard-light"><circle cx="144" cy="147.998" r="57" stroke="url(#f)" stroke-width="1.2" style="mix-blend-mode:overlay"/></g><g opacity=".6" style="mix-blend-mode:hard-light"><circle cx="143.999" cy="147.999" r="52.2" stroke="url(#g)" stroke-width="1.2" style="mix-blend-mode:overlay"/></g><path fill="#1b1b1b" d="M201.6 147.998c0 31.812-25.788 57.6-57.6 57.6-31.811 0-57.6-25.788-57.6-57.6 0-31.811 25.789-57.6 57.6-57.6 31.812 0 57.6 25.789 57.6 57.6m-110.016 0c0 28.949 23.468 52.416 52.416 52.416 28.949 0 52.416-23.467 52.416-52.416S172.949 95.582 144 95.582s-52.416 23.468-52.416 52.416"/><path fill="#1b1b1b" fill-opacity=".6" d="M143.999 95.2c15.184 0 28.87 6.409 38.502 16.669-9.442-8.851-22.139-14.271-36.102-14.271-29.16 0-52.8 23.639-52.8 52.799 0 13.98 5.434 26.69 14.303 36.135-10.28-9.634-16.703-23.333-16.703-38.533 0-29.161 23.639-52.8 52.8-52.8" style="mix-blend-mode:multiply"/><path fill="#1b1b1b" fill-opacity=".6" d="M143.999 83.2c18.496 0 35.181 7.748 46.987 20.177-11.616-11.019-27.312-17.78-44.587-17.78-35.787 0-64.8 29.013-64.8 64.8 0 17.292 6.774 33.002 17.812 44.622C86.963 183.21 79.2 166.512 79.2 147.999c0-35.788 29.012-64.8 64.8-64.8" style="mix-blend-mode:multiply"/><path fill="#cacaca" d="M204.001 52.602h19.2l-67.2 190.2h-19.2zM190.8 52.602h7.2l-67.2 190.2h-7.2z"/></g></g><path fill="#f3b443" stroke="#000" stroke-miterlimit="10" stroke-width=".325" d="M67.99 50.98a3.99 3.99 0 1 0 0-7.98 3.99 3.99 0 0 0 0 7.98Z"/><path fill="#000" d="M65.757 47.179c-.553-.79-.795-1.794-.711-2.761A3.88 3.88 0 0 0 64 47.072a3.907 3.907 0 0 0 3.906 3.906c1.476 0 2.756-.82 3.418-2.026-1.975.534-4.445-.168-5.567-1.773"/><path fill="#fff" d="M69.657 46.634a1.534 1.534 0 1 0 0-3.068 1.534 1.534 0 0 0 0 3.068"/><g filter="url(#h)"><g clip-path="url(#i)"><path fill="#2775ca" d="M151 231c0-46.392 37.608-84 84-84s84 37.608 84 84-37.608 84-84 84-84-37.608-84-84"/><path fill="#fff" fill-rule="evenodd" d="M248.222 189.812c-1.305-.416-2.372.356-2.372 1.72v3.356c0 .916.692 1.957 1.554 2.272 13.851 5.053 23.762 18.314 23.762 33.839 0 15.526-9.911 28.786-23.762 33.84-.945.345-1.554 1.268-1.554 2.271v3.356c0 1.364 1.067 2.136 2.372 1.721 17.503-5.571 30.178-21.905 30.178-41.188s-12.675-35.617-30.178-41.187m-24.072 1.72c0-1.364-1.067-2.136-2.372-1.72-17.504 5.57-30.178 21.904-30.178 41.187s12.674 35.617 30.178 41.188c1.305.415 2.372-.357 2.372-1.721v-3.356c0-.915-.693-1.957-1.555-2.271-13.851-5.054-23.762-18.314-23.762-33.84 0-15.525 9.911-28.786 23.762-33.839.862-.315 1.555-1.356 1.555-2.272zm12.658 10.647h-3.617c-.998 0-1.808.806-1.808 1.801v5.581c-7.17 1.015-11.805 5.768-11.805 11.865 0 7.892 4.79 10.955 14.9 12.31 6.859 1.119 8.811 2.59 8.811 6.478s-3.313 6.479-7.982 6.479c-6.314 0-8.392-2.752-9.158-6.315-.182-.843-.908-1.46-1.774-1.46h-4.125c-1.039 0-1.852.932-1.673 1.952 1.051 5.995 4.916 10.395 12.806 11.461v5.687c0 .995.81 1.802 1.808 1.802h3.617c.999 0 1.808-.807 1.808-1.802v-5.69c7.469-1.182 12.241-6.361 12.241-12.762 0-8.422-5.144-11.249-15.079-12.603-7.331-1.061-8.749-2.769-8.749-6.185 0-3.239 2.482-5.537 7.272-5.537 4.332 0 6.824 1.506 7.853 4.979.23.775.926 1.323 1.738 1.323h3.804c1.06 0 1.886-.971 1.66-2.003-1.205-5.489-4.918-8.782-10.74-9.821v-5.739c0-.995-.809-1.801-1.808-1.801" clip-rule="evenodd"/><path fill="#1b1b1b" d="M319 231c0 46.392-37.608 84-84 84s-84-37.608-84-84 37.608-84 84-84 84 37.608 84 84m-159.6 0c0 41.753 33.847 75.6 75.6 75.6s75.6-33.847 75.6-75.6-33.847-75.6-75.6-75.6-75.6 33.847-75.6 75.6"/><g opacity=".6" style="mix-blend-mode:hard-light"><circle cx="235" cy="231" r="82.95" stroke="url(#j)" stroke-width="2.1" style="mix-blend-mode:overlay"/></g><g opacity=".6" style="mix-blend-mode:hard-light"><circle cx="235" cy="230.998" r="74.55" stroke="url(#k)" stroke-width="2.1" style="mix-blend-mode:overlay"/></g><g opacity=".6" style="mix-blend-mode:hard-light"><circle cx="235.001" cy="231.001" r="66.5" stroke="url(#l)" stroke-width="1.4" style="mix-blend-mode:overlay"/></g><g opacity=".6" style="mix-blend-mode:hard-light"><circle cx="235" cy="230.998" r="60.9" stroke="url(#m)" stroke-width="1.4" style="mix-blend-mode:overlay"/></g><path fill="#1b1b1b" d="M302.201 231.001c0 37.113-30.087 67.2-67.2 67.2s-67.2-30.087-67.2-67.2 30.086-67.2 67.2-67.2c37.113 0 67.2 30.086 67.2 67.2m-128.352 0c0 33.773 27.378 61.152 61.152 61.152s61.152-27.379 61.152-61.152c0-33.774-27.379-61.152-61.152-61.152-33.774 0-61.152 27.378-61.152 61.152"/><path fill="#1b1b1b" fill-opacity=".6" d="M235 169.402c17.731 0 33.711 7.492 44.95 19.482-11.019-10.344-25.845-16.681-42.151-16.681-34.021 0-61.6 27.579-61.6 61.6 0 16.29 6.324 31.102 16.65 42.118-11.971-11.238-19.449-27.205-19.449-44.919.001-34.02 27.58-61.599 61.6-61.6" style="mix-blend-mode:multiply"/><path fill="#1b1b1b" fill-opacity=".6" d="M235 155.402c21.597 0 41.078 9.057 54.854 23.578-13.556-12.876-31.883-20.777-52.055-20.777-41.753 0-75.6 33.847-75.6 75.6 0 20.155 7.888 38.468 20.745 52.021-14.501-13.774-23.544-33.242-23.544-54.822.001-41.752 33.848-75.599 75.6-75.6" style="mix-blend-mode:multiply"/><path fill="#cacaca" d="M305 119.699h22.4l-78.4 221.9h-22.4zM289.599 119.699h8.4l-78.4 221.9h-8.4z"/></g></g><defs><linearGradient id="d" x1="93" x2="194.7" y1="97" y2="198.7" gradientUnits="userSpaceOnUse"><stop stop-color="#fff"/><stop offset="1" stop-color="#404040"/></linearGradient><linearGradient id="e" x1="98.099" x2="189.629" y1="102.099" y2="193.629" gradientUnits="userSpaceOnUse"><stop stop-color="#404040"/><stop offset="1" stop-color="#fff"/></linearGradient><linearGradient id="f" x1="103.2" x2="184.56" y1="107.198" y2="188.558" gradientUnits="userSpaceOnUse"><stop stop-color="#fff"/><stop offset="1" stop-color="#404040"/></linearGradient><linearGradient id="g" x1="106.599" x2="181.179" y1="110.599" y2="185.179" gradientUnits="userSpaceOnUse"><stop stop-color="#404040"/><stop offset="1" stop-color="#fff"/></linearGradient><linearGradient id="j" x1="175.5" x2="294.15" y1="171.5" y2="290.15" gradientUnits="userSpaceOnUse"><stop stop-color="#fff"/><stop offset="1" stop-color="#404040"/></linearGradient><linearGradient id="k" x1="181.45" x2="288.235" y1="177.448" y2="284.233" gradientUnits="userSpaceOnUse"><stop stop-color="#404040"/><stop offset="1" stop-color="#fff"/></linearGradient><linearGradient id="l" x1="187.401" x2="282.321" y1="183.401" y2="278.321" gradientUnits="userSpaceOnUse"><stop stop-color="#fff"/><stop offset="1" stop-color="#404040"/></linearGradient><linearGradient id="m" x1="191.367" x2="278.377" y1="187.365" y2="274.375" gradientUnits="userSpaceOnUse"><stop stop-color="#404040"/><stop offset="1" stop-color="#fff"/></linearGradient><clipPath id="b"><path fill="#fff" d="M72 148c0-39.764 32.236-72 72-72s72 32.236 72 72-32.235 72-72 72-72-32.235-72-72"/></clipPath><clipPath id="c"><path fill="#fff" d="M-7.8 53.2h303.6v189.6H-7.8z"/></clipPath><clipPath id="i"><path fill="#fff" d="M151 231c0-46.392 37.608-84 84-84s84 37.608 84 84-37.608 84-84 84-84-37.608-84-84"/></clipPath><filter id="a" width="172.8" height="172.8" x="67.2" y="71.2" color-interpolation-filters="sRGB" filterUnits="userSpaceOnUse"><feFlood flood-opacity="0" result="BackgroundImageFix"/><feColorMatrix in="SourceAlpha" result="hardAlpha" values="0 0 0 0 0 0 0 0 0 0 0 0 0 0 0 0 0 0 127 0"/><feOffset dx="9.6" dy="9.6"/><feGaussianBlur stdDeviation="7.2"/><feComposite in2="hardAlpha" operator="out"/><feColorMatrix values="0 0 0 0 0 0 0 0 0 0 0 0 0 0 0 0 0 0 0.12 0"/><feBlend in2="BackgroundImageFix" result="effect1_dropShadow_15122_15302"/><feBlend in="SourceGraphic" in2="effect1_dropShadow_15122_15302" result="shape"/></filter><filter id="h" width="201.6" height="201.6" x="145.4" y="141.4" color-interpolation-filters="sRGB" filterUnits="userSpaceOnUse"><feFlood flood-opacity="0" result="BackgroundImageFix"/><feColorMatrix in="SourceAlpha" result="hardAlpha" values="0 0 0 0 0 0 0 0 0 0 0 0 0 0 0 0 0 0 127 0"/><feOffset dx="11.2" dy="11.2"/><feGaussianBlur stdDeviation="8.4"/><feComposite in2="hardAlpha" operator="out"/><feColorMatrix values="0 0 0 0 0 0 0 0 0 0 0 0 0 0 0 0 0 0 0.12 0"/><feBlend in2="BackgroundImageFix" result="effect1_dropShadow_15122_15302"/><feBlend in="SourceGraphic" in2="effect1_dropShadow_15122_15302" result="shape"/></filter></defs></svg>