<svg xmlns="http://www.w3.org/2000/svg" fill="none" viewBox="0 0 390 390"><path fill="#e0f8f3" fill-rule="evenodd" d="M193.394 300.472c-36.464 4.085-73.178-15.942-93.819-46.21-19.168-28.107-10.192-63.483-3.753-96.867 6.887-35.706 7.638-80.323 40.826-95.346 32.917-14.9 66.312 14.817 97.747 32.62 27.454 15.55 60.098 29.622 66.575 60.448 6.4 30.454-18.387 55.69-36.912 80.721-19.971 26.984-37.254 60.892-70.664 64.634" clip-rule="evenodd"/><path fill="#59b8aa" stroke="#000" stroke-miterlimit="10" stroke-width=".325" d="M40.941 200.883a5.941 5.941 0 1 0 0-11.883 5.941 5.941 0 0 0 0 11.883Z"/><path fill="#000" d="M37.616 195.224c-.824-1.176-1.183-2.671-1.059-4.111A5.78 5.78 0 0 0 35 195.065a5.82 5.82 0 0 0 5.817 5.817 5.8 5.8 0 0 0 5.09-3.018c-2.941.796-6.62-.249-8.291-2.64"/><path fill="#fff" d="M43.423 194.411a2.283 2.283 0 1 0 0-4.567 2.283 2.283 0 0 0 0 4.567"/><path fill="#59b8aa" stroke="#000" stroke-miterlimit="10" stroke-width=".325" d="M290.599 110.198a4.599 4.599 0 1 0 0-9.198 4.599 4.599 0 0 0 0 9.198Z"/><path fill="#000" d="M288.025 105.819c-.638-.911-.916-2.068-.82-3.182a4.47 4.47 0 0 0-1.205 3.058 4.504 4.504 0 0 0 4.502 4.503 4.49 4.49 0 0 0 3.94-2.336c-2.276.616-5.123-.193-6.417-2.043"/><path fill="#fff" d="M292.52 105.188a1.768 1.768 0 1 0-.001-3.535 1.768 1.768 0 0 0 .001 3.535"/><path stroke="#000" stroke-miterlimit="10" stroke-width=".325" d="M71.95 268v7.897M75.9 271.949H68M225.949 43v7.897M229.897 46.95H222"/><path fill="#59b8aa" stroke="#000" stroke-miterlimit="10" stroke-width=".325" d="M317.111 317.222a4.112 4.112 0 1 0-.001-8.223 4.112 4.112 0 0 0 .001 8.223Z"/><path fill="#fff" stroke="#000" stroke-miterlimit="10" stroke-width=".325" d="M150.5 44.784s12.159-1.486 12.159 13.716c0 0 0-14 12.841-13.755 0 0-11.048.462-12.841-14.245 0 0 .342 14-12.159 14.284ZM142.998 320.714s9.241-1.114 9.241 10.286c0 0 0-10.499 9.759-10.316 0 0-8.396.346-9.759-10.684 0 0 .26 10.499-9.241 10.712zM330 180.851s5.82-.712 5.82 6.575c0 0 0-6.713 6.149-6.595 0 0-5.291.221-6.149-6.831 0 0 .163 6.713-5.82 6.848z"/><path fill="#f3b443" stroke="#000" stroke-miterlimit="10" stroke-width=".325" d="M67.99 50.98a3.99 3.99 0 1 0 0-7.98 3.99 3.99 0 0 0 0 7.98Z"/><path fill="#000" d="M65.757 47.179c-.553-.79-.795-1.794-.711-2.761A3.88 3.88 0 0 0 64 47.072a3.907 3.907 0 0 0 3.906 3.906c1.476 0 2.756-.82 3.418-2.026-1.975.534-4.445-.168-5.567-1.773"/><path fill="#fff" d="M69.657 46.634a1.534 1.534 0 1 0 0-3.068 1.534 1.534 0 0 0 0 3.068"/></svg>