<svg xmlns="http://www.w3.org/2000/svg" fill="none" viewBox="58 58 390 390"><path fill="#f7f9f8" d="M253 223.5c16.292 0 29.5 13.208 29.5 29.5s-13.208 29.5-29.5 29.5-29.5-13.208-29.5-29.5 13.208-29.5 29.5-29.5"/><path stroke="#d7dad9" d="M253 223.5c16.292 0 29.5 13.208 29.5 29.5s-13.208 29.5-29.5 29.5-29.5-13.208-29.5-29.5 13.208-29.5 29.5-29.5Z"/><g clip-path="url(#a)"><g clip-path="url(#b)"><path fill="#00f" d="M239.249 241.423c0-.745 0-1.117.141-1.403.134-.274.355-.496.629-.63.287-.14.659-.14 1.403-.14h23.155c.744 0 1.116 0 1.402.14.274.135.496.356.63.63.14.286.14.658.14 1.403v23.155c0 .744 0 1.116-.14 1.402a1.37 1.37 0 0 1-.63.63c-.286.14-.658.14-1.402.14h-23.155c-.744 0-1.116 0-1.403-.14a1.38 1.38 0 0 1-.63-.63c-.14-.286-.14-.658-.14-1.402z"/></g></g><defs><clipPath id="a"><path fill="#fff" d="M228 228h50v50h-50z"/></clipPath><clipPath id="b"><path fill="#fff" d="M239.25 239.25h27.5v27.5h-27.5z"/></clipPath></defs></svg>