<svg xmlns="http://www.w3.org/2000/svg" fill="none" viewBox="0 0 390 390"><path fill="#e0f8f3" fill-rule="evenodd" d="M193.394 300.472c-36.464 4.085-73.178-15.942-93.819-46.21-19.168-28.107-10.192-63.483-3.753-96.867 6.887-35.706 7.638-80.323 40.826-95.346 32.917-14.9 66.312 14.817 97.747 32.62 27.454 15.55 60.098 29.622 66.575 60.448 6.4 30.454-18.387 55.69-36.912 80.721-19.971 26.984-37.254 60.892-70.664 64.634" clip-rule="evenodd"/><path fill="#59b8aa" stroke="#000" stroke-miterlimit="10" stroke-width=".325" d="M40.941 200.883a5.941 5.941 0 1 0 0-11.883 5.941 5.941 0 0 0 0 11.883Z"/><path fill="#000" d="M37.616 195.22c-.824-1.176-1.183-2.671-1.059-4.111A5.78 5.78 0 0 0 35 195.061a5.82 5.82 0 0 0 5.817 5.817 5.8 5.8 0 0 0 5.09-3.017c-2.941.795-6.62-.25-8.291-2.641"/><path fill="#fff" d="M43.423 194.411a2.283 2.283 0 1 0 0-4.567 2.283 2.283 0 0 0 0 4.567"/><path fill="#59b8aa" stroke="#000" stroke-miterlimit="10" stroke-width=".325" d="M290.599 110.198a4.599 4.599 0 1 0 0-9.198 4.599 4.599 0 0 0 0 9.198Z"/><path fill="#000" d="M288.025 105.819c-.638-.911-.916-2.068-.82-3.182a4.47 4.47 0 0 0-1.205 3.058 4.504 4.504 0 0 0 4.502 4.503 4.49 4.49 0 0 0 3.94-2.336c-2.276.616-5.123-.193-6.417-2.043"/><path fill="#fff" d="M292.52 105.188a1.768 1.768 0 1 0-.001-3.535 1.768 1.768 0 0 0 .001 3.535"/><path stroke="#000" stroke-miterlimit="10" stroke-width=".325" d="M71.95 268v7.897M75.9 271.953H68M225.949 43v7.897M229.897 46.95H222"/><path fill="#59b8aa" stroke="#000" stroke-miterlimit="10" stroke-width=".325" d="M317.111 317.222a4.112 4.112 0 1 0-.001-8.223 4.112 4.112 0 0 0 .001 8.223Z"/><path fill="#fff" stroke="#000" stroke-miterlimit="10" stroke-width=".325" d="M150.5 44.784s12.159-1.486 12.159 13.716c0 0 0-14 12.841-13.755 0 0-11.048.462-12.841-14.245 0 0 .342 14-12.159 14.284ZM142.998 320.714s9.241-1.114 9.241 10.286c0 0 0-10.499 9.759-10.316 0 0-8.396.346-9.759-10.684 0 0 .26 10.499-9.241 10.712zM330 180.851s5.82-.712 5.82 6.575c0 0 0-6.713 6.149-6.595 0 0-5.291.221-6.149-6.831 0 0 .163 6.713-5.82 6.848z"/><g filter="url(#a)"><circle cx="144" cy="148" r="72" fill="#009440"/><path fill="#004a20" d="M144.001 84.57c18.387 0 34.947 7.825 46.532 20.325-11.315-10.486-26.461-16.896-43.104-16.896-35.03 0-63.428 28.398-63.428 63.428 0 16.643 6.41 31.789 16.896 43.104-12.5-11.585-20.325-28.145-20.325-46.532 0-35.031 28.398-63.429 63.429-63.429"/><path fill="#d5ffe7" d="M144.245 211.68c-18.387 0-34.947-7.825-46.532-20.325 11.315 10.486 26.461 16.896 43.104 16.896 35.03 0 63.428-28.398 63.428-63.428 0-16.643-6.41-31.789-16.896-43.104 12.501 11.585 20.325 28.145 20.325 46.532 0 35.031-28.398 63.429-63.429 63.429" opacity=".8"/><path fill="#4fb37a" d="M214.286 148.001c0 38.817-31.468 70.285-70.285 70.285-38.818 0-70.286-31.468-70.286-70.285 0-38.818 31.468-70.286 70.286-70.286s70.285 31.468 70.285 70.286m-133.543 0c0 34.936 28.322 63.257 63.258 63.257s63.257-28.321 63.257-63.257-28.321-63.258-63.257-63.258-63.258 28.322-63.258 63.258"/><g opacity=".6" style="mix-blend-mode:hard-light"><circle cx="144" cy="148" r="70.95" stroke="url(#b)" stroke-width="2.1" style="mix-blend-mode:overlay"/></g><path fill="#ffcb00" d="m92.459 148.308 51.489 32.878 51.488-32.878-51.488-32.878z"/><path fill="#302681" d="M143.946 170.022c11.992 0 21.713-9.721 21.713-21.712 0-11.992-9.721-21.712-21.713-21.712-11.991 0-21.712 9.72-21.712 21.712s9.721 21.712 21.712 21.712"/><path fill="#fff" d="m126.223 143.478-.288.884.443.144"/><path fill="#fff" d="m126.223 143.478.288.884-.443.144"/><path fill="#fff" d="M127.108 144.127h-.931v.466"/><path fill="#fff" d="m127.108 144.127-.753.547-.273-.376"/><path fill="#fff" d="m125.34 144.127.753.547.273-.376"/><path fill="#fff" d="M125.34 144.127h.93v.466"/><path fill="#fff" d="m126.771 145.159-.288-.885-.443.144"/><path fill="#fff" d="m126.771 145.159-.753-.547.273-.376"/><path fill="#fff" d="m125.675 145.159.753-.547-.273-.376"/><path fill="#fff" d="m125.675 145.159.288-.885.443.144M128.145 152.612l-.288.885.443.144"/><path fill="#fff" d="m128.145 152.612.287.885-.442.144"/><path fill="#fff" d="M129.029 153.255h-.93v.465"/><path fill="#fff" d="m129.029 153.255-.752.547-.274-.376"/><path fill="#fff" d="m127.26 153.255.753.547.273-.376"/><path fill="#fff" d="M127.26 153.255h.93v.465"/><path fill="#fff" d="m128.692 154.294-.287-.885-.443.144"/><path fill="#fff" d="m128.692 154.294-.753-.547.274-.377"/><path fill="#fff" d="m127.597 154.301.753-.547-.274-.377"/><path fill="#fff" d="m127.597 154.301.288-.885.442.144M125.488 154.711l-.239.737.368.12"/><path fill="#fff" d="m125.488 154.711.24.737-.369.12"/><path fill="#fff" d="M126.223 155.247h-.775v.388"/><path fill="#fff" d="m126.223 155.247-.627.456-.228-.313"/><path fill="#fff" d="m124.75 155.24.627.456.228-.313"/><path fill="#fff" d="M124.75 155.24h.775v.388"/><path fill="#fff" d="m125.94 156.109-.239-.737-.369.12"/><path fill="#fff" d="m125.94 156.109-.627-.455.228-.314"/><path fill="#fff" d="m125.029 156.116.627-.455-.227-.314"/><path fill="#fff" d="m125.029 156.116.24-.737.368.12M130.271 151.765l-.137.421.211.068"/><path fill="#fff" d="m130.271 151.765.137.421-.211.068"/><path fill="#fff" d="M130.69 152.075h-.443v.222"/><path fill="#fff" d="m130.69 152.075-.359.261-.13-.179"/><path fill="#fff" d="m129.849 152.068.358.261.131-.179"/><path fill="#fff" d="M129.849 152.068h.443v.222"/><path fill="#fff" d="m130.531 152.577-.137-.421-.211.068"/><path fill="#fff" d="m130.531 152.577-.359-.26.131-.18"/><path fill="#fff" d="m130.01 152.563.358-.261-.13-.179"/><path fill="#fff" d="m130.01 152.563.137-.422.21.069M132.664 154.915l-.239.738.368.12"/><path fill="#fff" d="m132.664 154.915.24.738-.369.12"/><path fill="#fff" d="M133.401 155.466h-.776v.388"/><path fill="#fff" d="m133.401 155.466-.628.456-.227-.313"/><path fill="#fff" d="m131.926 155.445.627.456.228-.314"/><path fill="#fff" d="M131.926 155.445h.775v.388"/><path fill="#fff" d="m133.118 156.328-.239-.737-.369.12"/><path fill="#fff" d="m133.118 156.328-.627-.455.228-.314"/><path fill="#fff" d="m132.207 156.314.627-.456-.228-.313"/><path fill="#fff" d="m132.207 156.314.24-.737.368.12M132.011 157.233l-.192.59.295.095"/><path fill="#fff" d="m132.011 157.233.192.59-.295.095"/><path fill="#fff" d="M132.601 157.664h-.621v.31"/><path fill="#fff" d="m132.601 157.664-.502.364-.182-.251"/><path fill="#fff" d="m131.419 157.657.502.364.182-.251"/><path fill="#fff" d="M131.419 157.657h.621v.31"/><path fill="#fff" d="m132.376 158.356-.191-.59-.295.096"/><path fill="#fff" d="m132.376 158.356-.501-.365.182-.251"/><path fill="#fff" d="m131.647 158.356.502-.365-.182-.251"/><path fill="#fff" d="m131.647 158.356.192-.59.295.096M150.681 140.645l-.287.885.442.143"/><path fill="#fff" d="m150.681 140.645.288.885-.443.143"/><path fill="#fff" d="M151.566 141.287h-.93v.466"/><path fill="#fff" d="m151.566 141.287-.753.547-.273-.376"/><path fill="#fff" d="m149.795 141.287.752.547.274-.376"/><path fill="#fff" d="M149.795 141.287h.93v.466"/><path fill="#fff" d="m151.229 142.319-.288-.885-.442.144"/><path fill="#fff" d="m151.229 142.319-.753-.547.273-.376"/><path fill="#fff" d="m150.134 142.326.753-.547-.274-.376"/><path fill="#fff" d="m150.134 142.326.287-.885.443.144M159.163 155l-.288.885.443.144"/><path fill="#fff" d="m159.163 155 .287.885-.442.144"/><path fill="#fff" d="M160.047 155.643h-.93v.465"/><path fill="#fff" d="m160.047 155.643-.752.547-.274-.376"/><path fill="#fff" d="m158.276 155.643.753.547.273-.376"/><path fill="#fff" d="M158.276 155.643h.93v.465"/><path fill="#fff" d="m159.708 156.689-.287-.885-.443.143"/><path fill="#fff" d="m159.708 156.689-.752-.547.273-.377"/><path fill="#fff" d="m158.617 156.682.753-.547-.274-.377"/><path fill="#fff" d="m158.617 156.682.287-.885.443.143M162.172 155.523l-.192.59.295.096"/><path fill="#fff" d="m162.172 155.523.192.59-.295.096"/><path fill="#fff" d="M162.762 155.954h-.62v.31"/><path fill="#fff" d="m162.762 155.954-.502.365-.182-.251"/><path fill="#fff" d="m161.581 155.954.501.365.183-.251"/><path fill="#fff" d="M161.581 155.954h.62v.31"/><path fill="#fff" d="m162.538 156.639-.192-.59-.295.096"/><path fill="#fff" d="m162.538 156.639-.502-.364.182-.251"/><path fill="#fff" d="m161.808 156.639.502-.364-.182-.251"/><path fill="#fff" d="m161.808 156.639.192-.59.295.096M160.047 157.07l-.239.738.369.119"/><path fill="#fff" d="m160.047 157.07.24.738-.369.119"/><path fill="#fff" d="M160.784 157.6h-.775v.388"/><path fill="#fff" d="m160.784 157.6-.627.456-.228-.314"/><path fill="#fff" d="m159.307 157.607.628.456.228-.314"/><path fill="#fff" d="M159.307 157.607h.776v.388"/><path fill="#fff" d="m160.501 158.476-.239-.737-.369.119"/><path fill="#fff" d="m160.501 158.476-.627-.456.228-.313"/><path fill="#fff" d="m159.59 158.476.627-.456-.228-.313"/><path fill="#fff" d="m159.59 158.476.24-.737.368.119M154.82 161.62l-.24.737.369.12"/><path fill="#fff" d="m154.82 161.62.239.737-.369.12"/><path fill="#fff" d="M155.556 162.164h-.775v.388"/><path fill="#fff" d="m155.556 162.164-.627.456-.228-.314"/><path fill="#fff" d="m154.081 162.157.628.456.227-.314"/><path fill="#fff" d="M154.081 162.157h.776v.388"/><path fill="#fff" d="m155.275 163.026-.239-.738-.369.12"/><path fill="#fff" d="m155.275 163.026-.627-.456.228-.314"/><path fill="#fff" d="m154.364 163.026.627-.456-.228-.314"/><path fill="#fff" d="m154.364 163.026.239-.738.369.12M154.786 163.965l-.192.59.295.096"/><path fill="#fff" d="m154.786 163.965.192.59-.295.096"/><path fill="#fff" d="M155.376 164.403h-.62v.311"/><path fill="#fff" d="m155.376 164.403-.502.365-.182-.251"/><path fill="#fff" d="m154.193 164.389.501.365.183-.251"/><path fill="#fff" d="M154.193 164.389h.62v.31"/><path fill="#fff" d="m155.152 165.089-.192-.59-.295.096"/><path fill="#fff" d="m155.152 165.089-.502-.365.182-.251"/><path fill="#fff" d="m154.422 165.089.502-.365-.182-.251"/><path fill="#fff" d="m154.422 165.089.192-.59.295.096M156.976 160.073l-.192.59.295.096"/><path fill="#fff" d="m156.976 160.073.192.59-.295.096"/><path fill="#fff" d="M157.568 160.497h-.621v.31"/><path fill="#fff" d="m157.568 160.497-.502.364-.182-.251"/><path fill="#fff" d="m156.386 160.504.502.364.182-.251"/><path fill="#fff" d="M156.386 160.504h.62v.31"/><path fill="#fff" d="m157.342 161.189-.192-.59-.295.096"/><path fill="#fff" d="m157.342 161.189-.502-.365.182-.251"/><path fill="#fff" d="m156.612 161.189.502-.365-.182-.251"/><path fill="#fff" d="m156.612 161.189.192-.59.295.096M158.718 158.822l-.24.738.369.12"/><path fill="#fff" d="m158.718 158.822.239.738-.369.12"/><path fill="#fff" d="M159.456 159.366h-.776v.388"/><path fill="#fff" d="m159.456 159.366-.628.456-.227-.314"/><path fill="#fff" d="m157.983 159.352.627.456.228-.314"/><path fill="#fff" d="M157.983 159.352h.775v.388"/><path fill="#fff" d="m159.175 160.228-.24-.737-.368.119"/><path fill="#fff" d="m159.175 160.228-.627-.456.228-.313"/><path fill="#fff" d="m158.262 160.228.627-.456-.228-.313"/><path fill="#fff" d="m158.262 160.228.239-.737.369.119M154.731 159.656l-.191.59.294.096"/><path fill="#fff" d="m154.731 159.656.192.59-.295.096"/><path fill="#fff" d="M155.319 160.087h-.62v.31"/><path fill="#fff" d="m155.319 160.087-.502.364-.182-.25"/><path fill="#fff" d="m154.14 160.08.501.364.183-.251"/><path fill="#fff" d="M154.14 160.08h.62v.31"/><path fill="#fff" d="m155.095 160.772-.192-.59-.295.096"/><path fill="#fff" d="m155.095 160.772-.502-.365.182-.25"/><path fill="#fff" d="m154.366 160.779.501-.364-.182-.251"/><path fill="#fff" d="m154.366 160.779.191-.59.295.096M135.674 148.416l-.24.737.369.12"/><path fill="#fff" d="m135.674 148.416.24.737-.369.12"/><path fill="#fff" d="M136.412 148.96h-.775v.388"/><path fill="#fff" d="m136.412 148.96-.627.456-.228-.314"/><path fill="#fff" d="m134.937 148.953.628.456.228-.314"/><path fill="#fff" d="M134.937 148.953h.776v.387"/><path fill="#fff" d="m136.131 149.822-.239-.738-.369.12"/><path fill="#fff" d="m136.131 149.822-.627-.456.228-.314"/><path fill="#fff" d="m135.22 149.822.627-.456-.228-.314"/><path fill="#fff" d="m135.22 149.822.24-.738.368.12M149.856 146.6l-.191.59.295.096"/><path fill="#fff" d="m149.856 146.6.192.59-.295.096"/><path fill="#fff" d="M150.446 147.024h-.62v.31"/><path fill="#fff" d="m150.446 147.024-.501.365-.183-.251"/><path fill="#fff" d="m149.267 147.024.501.365.183-.251"/><path fill="#fff" d="M149.267 147.024h.62v.31"/><path fill="#fff" d="m150.222 147.716-.192-.59-.295.096"/><path fill="#fff" d="m150.222 147.716-.502-.364.183-.251"/><path fill="#fff" d="m149.493 147.716.502-.364-.183-.251"/><path fill="#fff" d="m149.493 147.716.191-.59.295.096M143.945 157.127l-.288.885.443.143"/><path fill="#fff" d="m143.945 157.127.288.885-.443.143"/><path fill="#fff" d="M144.832 157.77h-.931v.465"/><path fill="#fff" d="m144.832 157.77-.753.547-.274-.377"/><path fill="#fff" d="m143.06 157.77.753.547.273-.377"/><path fill="#fff" d="M143.06 157.77h.931v.465"/><path fill="#fff" d="m144.493 158.815-.288-.885-.442.144"/><path fill="#fff" d="m144.493 158.815-.753-.547.273-.376"/><path fill="#fff" d="m143.398 158.808.752-.547-.273-.376"/><path fill="#fff" d="m143.398 158.808.287-.885.443.144M146.458 152.966l-.239.737.368.12"/><path fill="#fff" d="m146.458 152.966.24.737-.369.12"/><path fill="#fff" d="M147.195 153.495h-.776v.388"/><path fill="#fff" d="m147.195 153.495-.628.456-.227-.313"/><path fill="#fff" d="m145.722 153.502.627.456.228-.313"/><path fill="#fff" d="M145.722 153.502h.775v.388"/><path fill="#fff" d="m146.914 154.371-.24-.737-.368.12"/><path fill="#fff" d="m146.914 154.371-.627-.455.228-.314"/><path fill="#fff" d="m146.004 154.357.628-.455-.228-.314"/><path fill="#fff" d="m146.004 154.357.24-.737.369.12M143.945 151.023l-.24.737.369.12"/><path fill="#fff" d="m143.945 151.023.24.737-.369.12"/><path fill="#fff" d="M144.685 151.567h-.775v.387"/><path fill="#fff" d="m144.685 151.567-.627.455-.228-.313"/><path fill="#fff" d="m143.207 151.553.627.455.228-.313"/><path fill="#fff" d="M143.207 151.553h.775v.387"/><path fill="#fff" d="m144.402 152.429-.239-.738-.369.12"/><path fill="#fff" d="m144.402 152.429-.627-.456.228-.314"/><path fill="#fff" d="m143.489 152.422.628-.456-.228-.314"/><path fill="#fff" d="m143.489 152.422.24-.738.369.12M141.758 153.128l-.191.59.295.096"/><path fill="#fff" d="m141.758 153.128.192.59-.295.096"/><path fill="#fff" d="M142.35 153.559h-.62v.31"/><path fill="#fff" d="m142.35 153.559-.502.365-.182-.251"/><path fill="#fff" d="m141.169 153.559.501.365.183-.251"/><path fill="#fff" d="M141.169 153.559h.62v.31"/><path fill="#fff" d="m142.124 154.244-.192-.59-.295.096"/><path fill="#fff" d="m142.124 154.244-.502-.364.183-.251"/><path fill="#fff" d="m141.395 154.251.502-.364-.183-.251"/><path fill="#fff" d="m141.395 154.251.191-.59.295.096M142.854 154.809l-.137.422.21.068"/><path fill="#fff" d="m142.854 154.809.136.422-.21.068"/><path fill="#fff" d="M143.276 155.113h-.443v.222"/><path fill="#fff" d="m143.276 155.113-.359.261-.13-.18"/><path fill="#fff" d="m142.433 155.113.359.261.13-.18"/><path fill="#fff" d="M142.433 155.113h.443v.222"/><path fill="#fff" d="m143.115 155.615-.137-.422-.211.069"/><path fill="#fff" d="m143.115 155.615-.359-.261.131-.179"/><path fill="#fff" d="m142.594 155.608.358-.261-.13-.179"/><path fill="#fff" d="m142.594 155.608.137-.422.211.069M150.443 162.157l-.24.737.369.12"/><path fill="#fff" d="m150.443 162.157.239.737-.368.12"/><path fill="#fff" d="M151.183 162.694h-.776v.387"/><path fill="#fff" d="m151.183 162.694-.627.456-.228-.314"/><path fill="#fff" d="m149.705 162.694.627.456.228-.314"/><path fill="#fff" d="M149.705 162.694h.775v.387"/><path fill="#fff" d="m150.9 163.556-.239-.738-.369.12"/><path fill="#fff" d="m150.9 163.556-.627-.456.228-.314"/><path fill="#fff" d="m149.991 163.556.627-.456-.228-.314"/><path fill="#fff" d="m149.991 163.556.239-.738.369.12M152.304 160.391l-.191.59.295.095"/><path fill="#fff" d="m152.304 160.391.192.59-.295.095"/><path fill="#fff" d="M152.896 160.815h-.62v.31"/><path fill="#fff" d="m152.896 160.815-.502.364-.182-.251"/><path fill="#fff" d="m151.715 160.829.501.364.183-.251"/><path fill="#fff" d="M151.715 160.829h.62v.31"/><path fill="#fff" d="m152.67 161.514-.192-.59-.295.096"/><path fill="#fff" d="m152.67 161.514-.502-.365.182-.251"/><path fill="#fff" d="m151.941 161.514.501-.365-.182-.251"/><path fill="#fff" d="m151.941 161.514.191-.59.295.096M148.731 159.861l-.191.59.295.096"/><path fill="#fff" d="m148.731 159.861.192.59-.295.096"/><path fill="#fff" d="M149.321 160.299h-.62v.31"/><path fill="#fff" d="m149.321 160.299-.502.364-.182-.251"/><path fill="#fff" d="m148.14 160.285.502.364.182-.251"/><path fill="#fff" d="M148.14 160.285h.62v.31"/><path fill="#fff" d="m149.099 160.984-.192-.59-.295.096"/><path fill="#fff" d="m149.099 160.984-.502-.365.182-.251"/><path fill="#fff" d="m148.369 160.977.502-.365-.182-.251"/><path fill="#fff" d="m148.369 160.977.192-.59.295.096M135.229 158.9l-.288.885.443.144"/><path fill="#fff" d="m135.229 158.9.287.885-.442.144"/><path fill="#fff" d="M136.115 159.543h-.93v.465"/><path fill="#fff" d="m136.115 159.543-.752.547-.274-.377"/><path fill="#fff" d="m134.346 159.536.753.547.273-.377"/><path fill="#fff" d="M134.346 159.536h.93v.465"/><path fill="#fff" d="m135.776 160.574-.287-.885-.443.144"/><path fill="#fff" d="m135.776 160.574-.752-.547.273-.376"/><path fill="#fff" d="m134.685 160.574.753-.547-.274-.376"/><path fill="#fff" d="m134.685 160.574.287-.885.443.144M143.949 164.986l-.096.295.147.048"/><path fill="#fff" d="m143.949 164.986.095.295-.147.048"/><path fill="#fff" d="M144.244 165.198h-.311v.155"/><path fill="#fff" d="m144.244 165.198-.251.183-.092-.126"/><path fill="#fff" d="m143.654 165.198.251.183.091-.126"/><path fill="#fff" d="M143.654 165.198h.31v.155"/><path fill="#fff" d="m144.13 165.551-.095-.295-.148.048"/><path fill="#fff" d="m144.13 165.551-.25-.182.091-.125"/><path fill="#fff" d="m143.767 165.551.251-.182-.092-.125"/><path fill="#fff" d="m143.767 165.551.095-.295.148.048M131.539 139.004a52.73 52.73 0 0 1 33.906 12.346 21.5 21.5 0 0 1-.771 3.438 49.63 49.63 0 0 0-41.75-11.928c.297-1.149.686-2.26 1.158-3.326a53 53 0 0 1 7.457-.53"/><path fill="#009440" d="M152.361 143.838c.226.099.4.293.482.54.046.137.061.284.047.431l-.381-.166a.7.7 0 0 0-.023-.124.5.5 0 0 0-.279-.329.51.51 0 0 0-.43.02.72.72 0 0 0-.33.359.7.7 0 0 0-.037.484.51.51 0 0 0 .279.33.51.51 0 0 0 .43-.021.7.7 0 0 0 .16-.117l-.312-.136.118-.271.717.312-.002.006.001.001-.001.003.002.001-.412.948-.271-.118.113-.261a.88.88 0 0 1-.682.01l-.027-.012a.9.9 0 0 1-.47-.533c-.078-.235-.068-.5.027-.742l.033-.075c.112-.234.298-.422.524-.524a.88.88 0 0 1 .724-.016"/><path fill="#009440" fill-rule="evenodd" d="M125.429 141.959a.89.89 0 0 0 .616-.38c.15-.214.215-.487.182-.759a1.1 1.1 0 0 0-.36-.693.89.89 0 0 0-.69-.22.89.89 0 0 0-.616.381c-.15.213-.215.486-.181.759.033.272.162.521.359.692s.445.25.69.22m-.047-.381a.5.5 0 0 0 .361-.236.7.7 0 0 0 .103-.475.72.72 0 0 0-.215-.437.5.5 0 0 0-.407-.142.5.5 0 0 0-.36.236.72.72 0 0 0-.103.476.7.7 0 0 0 .215.436c.116.109.263.16.406.142M127.114 141.765l.383-.027-.053-.766.825-.057a.65.65 0 1 0-.091-1.297L127 139.7zm.303-1.176.796-.055a.267.267 0 0 0 .246-.284.264.264 0 0 0-.283-.247l-.796.056z" clip-rule="evenodd"/><path fill="#009440" d="M128.868 141.642c-.021-.295-.066-.943-.508-.912l-.56.039c.648-.045.694.603.714.898"/><path fill="#009440" fill-rule="evenodd" d="m129.735 141.607.975-.017a.88.88 0 0 0 .622-.27.898.898 0 0 0 .248-.631l-.005-.295a.89.89 0 0 0-.901-.871l-.975.017zm.377-.39.561-.01a.56.56 0 0 0 .552-.571l-.003-.177a.563.563 0 0 0-.571-.552l-.561.01z" clip-rule="evenodd"/><path fill="#009440" d="m132.359 141.578 1.86.065.013-.384-1.505-.052.018-.532 1.181.042.012-.355-1.18-.041.014-.413 1.417.049.013-.383-1.771-.062zM134.983 141.692l.353.031.124-1.413.288 1.449.324.028.536-1.376-.124 1.412.353.031.18-2.06-.515-.045-.535 1.376-.289-1.448-.515-.045zM139.267 142.172l1.529.263.06-.349-1.179-.203.08-.466.96.165.061-.349-.961-.165.055-.32 1.143.196.06-.349-1.493-.257z"/><path fill="#009440" fill-rule="evenodd" d="m143.194 142.941.372.096.192-.744.801.207a.645.645 0 0 0 .792-.466.65.65 0 0 0-.069-.493.65.65 0 0 0-.398-.299l-1.144-.296zm.66-1.019.773.199a.26.26 0 0 0 .323-.191.267.267 0 0 0-.19-.324l-.773-.199zM145.734 143.624l.366.116.231-.733.789.249a.65.65 0 0 0 .496-.043.655.655 0 0 0 .276-.877.65.65 0 0 0-.381-.319l-1.127-.356zm.713-.983.76.24a.265.265 0 0 0 .334-.174.26.26 0 0 0-.018-.202.26.26 0 0 0-.156-.131l-.76-.24z" clip-rule="evenodd"/><path fill="#009440" d="M147.409 144.149c.089-.282.284-.902-.138-1.035l-.535-.169c.619.196.424.815.335 1.097"/><path fill="#009440" fill-rule="evenodd" d="M149.101 144.756a.9.9 0 0 0 .723-.053c.231-.121.415-.333.511-.59s.096-.537.001-.78a.89.89 0 0 0-.51-.514.9.9 0 0 0-.723.053 1.1 1.1 0 0 0-.511.589 1.1 1.1 0 0 0-.001.781.9.9 0 0 0 .51.514m.135-.36c.136.051.29.035.428-.043a.7.7 0 0 0 .311-.374.7.7 0 0 0 .011-.487.5.5 0 0 0-.295-.313.5.5 0 0 0-.429.043.72.72 0 0 0-.31.374.7.7 0 0 0-.011.486.5.5 0 0 0 .295.314M153.083 146.436l.343.171.343-.687.74.369a.65.65 0 0 0 .496.034.65.65 0 0 0 .41-.822.65.65 0 0 0-.326-.376l-1.057-.527zm.857-.86.714.356a.264.264 0 0 0 .371-.323.27.27 0 0 0-.134-.153l-.713-.356z" clip-rule="evenodd"/><path fill="#009440" d="M154.655 147.221c.132-.264.422-.846.026-1.043l-.503-.251c.582.29.292.872.16 1.136M155.423 147.62l1.619.917.189-.335-1.311-.741.262-.463 1.028.582.175-.309-1.028-.582.203-.36 1.234.699.189-.335-1.542-.872zM158.44 148.637c-.111.175.001.369.25.528.25.158.419.153.491.041.226-.355-1.082-.873-.679-1.492.348-.532.942-.118 1.167.025.224.143.584.512.304.938l-.38-.242c.119-.187-.012-.366-.211-.493-.193-.123-.35-.18-.465.001-.193.289 1.089.834.696 1.45-.29.455-.794.257-1.13.042-.287-.182-.715-.613-.436-1.048zM160.657 150.107c-.12.168-.018.368.223.539.24.172.41.175.487.067.245-.343-1.034-.928-.599-1.525.375-.513.947-.069 1.163.086.217.154.557.542.255.953l-.367-.262c.129-.18.008-.367-.185-.504-.186-.133-.34-.197-.464-.023-.208.279 1.044.89.619 1.485-.313.439-.806.214-1.131-.017-.276-.197-.681-.65-.38-1.07z"/><path fill="#009440" fill-rule="evenodd" d="M162.756 152.483a.88.88 0 0 0 .703.173c.258-.043.498-.188.669-.403.17-.214.257-.481.242-.742a.89.89 0 0 0-.327-.646.88.88 0 0 0-.703-.173 1.1 1.1 0 0 0-.669.403 1.1 1.1 0 0 0-.242.741.89.89 0 0 0 .327.647m.239-.3c.113.09.265.123.421.091a.7.7 0 0 0 .411-.26.72.72 0 0 0 .161-.459.51.51 0 0 0-.184-.39.5.5 0 0 0-.421-.091.7.7 0 0 0-.411.26.7.7 0 0 0-.161.459c.004.159.07.299.184.39" clip-rule="evenodd"/><path fill="#c2dfe7" d="M194.385 96.566a72.3 72.3 0 0 1 13.063 17.371l-35.482 100.427a71.6 71.6 0 0 1-21.075 5.307zM184.136 88.215a72 72 0 0 1 5.696 4.254l-45.055 127.525q-.389.005-.777.005-3.2-.001-6.328-.276z" opacity=".2"/></g><path fill="#f3b443" stroke="#000" stroke-miterlimit="10" stroke-width=".325" d="M67.99 50.98a3.99 3.99 0 1 0 0-7.98 3.99 3.99 0 0 0 0 7.98Z"/><path fill="#000" d="M65.757 47.179c-.553-.79-.795-1.794-.711-2.761A3.88 3.88 0 0 0 64 47.072a3.907 3.907 0 0 0 3.906 3.906c1.476 0 2.756-.82 3.418-2.026-1.975.534-4.445-.168-5.567-1.773"/><path fill="#fff" d="M69.657 46.634a1.534 1.534 0 1 0 0-3.068 1.534 1.534 0 0 0 0 3.068"/><g filter="url(#c)"><circle cx="235" cy="231" r="84" fill="#2775ca"/><path fill="#08386b" d="M235 157c21.452 0 40.771 9.128 54.287 23.712C276.087 168.479 258.417 161 239 161c-40.869 0-74 33.131-74 74 0 19.417 7.479 37.087 19.712 50.287C170.128 271.771 161 252.452 161 231c0-40.869 33.131-74 74-74"/><path fill="#f1f8ff" d="M235.287 305.289c-21.452 0-40.771-9.128-54.287-23.712 13.2 12.234 30.87 19.712 50.287 19.712 40.869 0 74-33.131 74-74 0-19.417-7.478-37.087-19.712-50.287 14.584 13.516 23.712 32.835 23.712 54.287 0 40.869-33.131 74-74 74" opacity=".8"/><path fill="#488cd6" d="M317 231c0 45.287-36.713 82-82 82s-82-36.713-82-82 36.713-82 82-82 82 36.713 82 82m-155.8 0c0 40.759 33.041 73.8 73.8 73.8s73.8-33.041 73.8-73.8-33.041-73.8-73.8-73.8-73.8 33.041-73.8 73.8"/><g opacity=".6" style="mix-blend-mode:hard-light"><circle cx="235" cy="231" r="82.95" stroke="url(#d)" stroke-width="2.1" style="mix-blend-mode:overlay"/></g><path fill="#fff" fill-rule="evenodd" d="M248.622 190.112c-1.305-.415-2.372.357-2.372 1.721v3.356c0 .915.692 1.957 1.555 2.272 13.85 5.053 23.762 18.314 23.762 33.839s-9.912 28.786-23.762 33.839c-.946.346-1.555 1.268-1.555 2.272v3.356c0 1.364 1.067 2.136 2.372 1.721 17.503-5.571 30.178-21.905 30.178-41.188s-12.675-35.617-30.178-41.188m-24.072 1.721c0-1.364-1.067-2.136-2.372-1.721C204.675 195.683 192 212.017 192 231.3s12.675 35.617 30.178 41.188c1.305.415 2.372-.357 2.372-1.721v-3.356c0-.915-.692-1.957-1.555-2.272-13.85-5.053-23.762-18.314-23.762-33.839s9.912-28.786 23.762-33.839c.863-.315 1.555-1.357 1.555-2.272zm12.658 10.647h-3.616c-.999 0-1.809.806-1.809 1.801v5.58c-7.169 1.016-11.804 5.769-11.804 11.866 0 7.892 4.789 10.954 14.899 12.31 6.859 1.119 8.811 2.59 8.811 6.478s-3.312 6.479-7.982 6.479c-6.314 0-8.392-2.753-9.158-6.315-.182-.844-.907-1.46-1.774-1.46h-4.125c-1.039 0-1.851.932-1.673 1.951 1.051 5.996 4.917 10.395 12.806 11.462v5.687c0 .995.81 1.801 1.809 1.801h3.616c.999 0 1.809-.806 1.809-1.801v-5.69c7.469-1.182 12.241-6.361 12.241-12.762 0-8.422-5.145-11.25-15.079-12.604-7.332-1.06-8.75-2.768-8.75-6.184 0-3.239 2.483-5.537 7.273-5.537 4.332 0 6.823 1.506 7.853 4.979a1.82 1.82 0 0 0 1.737 1.323h3.804c1.061 0 1.887-.971 1.66-2.004-1.204-5.488-4.918-8.781-10.739-9.82v-5.739c0-.995-.81-1.801-1.809-1.801" clip-rule="evenodd"/><path fill="#c2dfe7" d="M293.782 171a84.3 84.3 0 0 1 15.24 20.266l-41.395 117.165a83.5 83.5 0 0 1-24.588 6.191zM281.825 161.25a84 84 0 0 1 6.646 4.963l-52.565 148.779a85.028 85.028 0 0 1-8.289-.315z" opacity=".2"/></g><defs><linearGradient id="b" x1="93" x2="194.7" y1="97" y2="198.7" gradientUnits="userSpaceOnUse"><stop stop-color="#fff"/><stop offset="1" stop-color="#404040"/></linearGradient><linearGradient id="d" x1="175.5" x2="294.15" y1="171.5" y2="290.15" gradientUnits="userSpaceOnUse"><stop stop-color="#fff"/><stop offset="1" stop-color="#404040"/></linearGradient><filter id="a" width="177.6" height="177.6" x="66.4" y="70.4" color-interpolation-filters="sRGB" filterUnits="userSpaceOnUse"><feFlood flood-opacity="0" result="BackgroundImageFix"/><feColorMatrix in="SourceAlpha" result="hardAlpha" values="0 0 0 0 0 0 0 0 0 0 0 0 0 0 0 0 0 0 127 0"/><feOffset dx="11.2" dy="11.2"/><feGaussianBlur stdDeviation="8.4"/><feComposite in2="hardAlpha" operator="out"/><feColorMatrix values="0 0 0 0 0 0 0 0 0 0 0 0 0 0 0 0 0 0 0.12 0"/><feBlend in2="BackgroundImageFix" result="effect1_dropShadow_15122_18137"/><feBlend in="SourceGraphic" in2="effect1_dropShadow_15122_18137" result="shape"/></filter><filter id="c" width="201.6" height="201.6" x="145.4" y="141.4" color-interpolation-filters="sRGB" filterUnits="userSpaceOnUse"><feFlood flood-opacity="0" result="BackgroundImageFix"/><feColorMatrix in="SourceAlpha" result="hardAlpha" values="0 0 0 0 0 0 0 0 0 0 0 0 0 0 0 0 0 0 127 0"/><feOffset dx="11.2" dy="11.2"/><feGaussianBlur stdDeviation="8.4"/><feComposite in2="hardAlpha" operator="out"/><feColorMatrix values="0 0 0 0 0 0 0 0 0 0 0 0 0 0 0 0 0 0 0.12 0"/><feBlend in2="BackgroundImageFix" result="effect1_dropShadow_15122_18137"/><feBlend in="SourceGraphic" in2="effect1_dropShadow_15122_18137" result="shape"/></filter></defs></svg>