<svg xmlns="http://www.w3.org/2000/svg" fill="none" viewBox="0 0 390 390"><g filter="url(#a)"><circle cx="144" cy="148" r="72" fill="#009440"/><path fill="#004a20" d="M144 84.57c18.387 0 34.947 7.825 46.532 20.325-11.315-10.486-26.461-16.896-43.104-16.896-35.03 0-63.428 28.398-63.428 63.428 0 16.643 6.41 31.789 16.896 43.104-12.5-11.585-20.325-28.145-20.325-46.532 0-35.031 28.398-63.429 63.429-63.429"/><path fill="#d5ffe7" d="M144.246 211.676c-18.387 0-34.947-7.824-46.532-20.325 11.315 10.486 26.461 16.896 43.104 16.896 35.03 0 63.428-28.398 63.428-63.428 0-16.643-6.41-31.789-16.896-43.104 12.501 11.585 20.325 28.145 20.325 46.532 0 35.031-28.398 63.429-63.429 63.429" opacity=".8"/><path fill="#4fb37a" d="M214.285 148.001c0 38.817-31.468 70.285-70.285 70.285-38.818 0-70.286-31.468-70.286-70.285 0-38.818 31.468-70.286 70.286-70.286s70.285 31.468 70.285 70.286m-133.543 0c0 34.936 28.322 63.257 63.258 63.257s63.257-28.321 63.257-63.257S178.936 84.743 144 84.743s-63.258 28.322-63.258 63.258"/><g opacity=".6" style="mix-blend-mode:hard-light"><circle cx="144" cy="148" r="70.95" stroke="url(#b)" stroke-width="2.1" style="mix-blend-mode:overlay"/></g><path fill="#ffcb00" d="m92.458 148.308 51.489 32.878 51.488-32.878-51.488-32.878z"/><path fill="#302681" d="M143.946 170.022c11.992 0 21.713-9.721 21.713-21.712 0-11.992-9.721-21.712-21.713-21.712-11.991 0-21.712 9.72-21.712 21.712s9.721 21.712 21.712 21.712"/><path fill="#fff" d="m126.222 143.478-.288.884.443.144"/><path fill="#fff" d="m126.222 143.478.288.884-.443.144"/><path fill="#fff" d="M127.107 144.127h-.931v.466"/><path fill="#fff" d="m127.107 144.127-.753.547-.273-.376"/><path fill="#fff" d="m125.339 144.127.753.547.273-.376"/><path fill="#fff" d="M125.339 144.127h.93v.466"/><path fill="#fff" d="m126.77 145.159-.288-.885-.442.144"/><path fill="#fff" d="m126.77 145.159-.753-.547.273-.376"/><path fill="#fff" d="m125.675 145.159.752-.547-.273-.376"/><path fill="#fff" d="m125.675 145.159.287-.885.443.144M128.144 152.612l-.288.885.443.144"/><path fill="#fff" d="m128.144 152.612.287.885-.442.144"/><path fill="#fff" d="M129.029 153.255h-.931v.465"/><path fill="#fff" d="m129.029 153.255-.753.547-.274-.376"/><path fill="#fff" d="m127.259 153.255.753.547.273-.376"/><path fill="#fff" d="M127.259 153.255h.93v.465"/><path fill="#fff" d="m128.691 154.294-.287-.885-.443.144"/><path fill="#fff" d="m128.691 154.294-.753-.547.274-.377"/><path fill="#fff" d="m127.596 154.301.753-.547-.274-.377"/><path fill="#fff" d="m127.596 154.301.288-.885.442.144M125.487 154.711l-.239.737.368.12"/><path fill="#fff" d="m125.487 154.711.24.737-.369.12"/><path fill="#fff" d="M126.222 155.247h-.775v.388"/><path fill="#fff" d="m126.222 155.247-.627.456-.228-.313"/><path fill="#fff" d="m124.749 155.24.627.456.228-.313"/><path fill="#fff" d="M124.749 155.24h.775v.388"/><path fill="#fff" d="m125.939 156.109-.239-.737-.369.12"/><path fill="#fff" d="m125.939 156.109-.627-.455.228-.314"/><path fill="#fff" d="m125.028 156.116.627-.455-.227-.314"/><path fill="#fff" d="m125.028 156.116.24-.737.368.12M130.27 151.765l-.137.421.211.068"/><path fill="#fff" d="m130.27 151.765.137.421-.211.068"/><path fill="#fff" d="M130.689 152.075h-.443v.222"/><path fill="#fff" d="m130.689 152.075-.359.261-.13-.179"/><path fill="#fff" d="m129.848 152.068.359.261.13-.179"/><path fill="#fff" d="M129.848 152.068h.443v.222"/><path fill="#fff" d="m130.53 152.577-.137-.421-.211.068"/><path fill="#fff" d="m130.53 152.577-.359-.26.131-.18"/><path fill="#fff" d="m130.009 152.563.358-.261-.13-.179"/><path fill="#fff" d="m130.009 152.563.137-.422.21.069M132.663 154.915l-.239.738.368.12"/><path fill="#fff" d="m132.663 154.915.24.738-.369.12"/><path fill="#fff" d="M133.4 155.466h-.776v.388"/><path fill="#fff" d="m133.4 155.466-.627.456-.228-.313"/><path fill="#fff" d="m131.925 155.445.627.456.228-.314"/><path fill="#fff" d="M131.925 155.445h.776v.388"/><path fill="#fff" d="m133.117 156.328-.239-.737-.369.12"/><path fill="#fff" d="m133.117 156.328-.627-.455.228-.314"/><path fill="#fff" d="m132.206 156.314.627-.456-.228-.313"/><path fill="#fff" d="m132.206 156.314.24-.737.368.12M132.01 157.233l-.192.59.295.095"/><path fill="#fff" d="m132.01 157.233.192.59-.295.095"/><path fill="#fff" d="M132.6 157.664h-.621v.31"/><path fill="#fff" d="m132.6 157.664-.502.364-.182-.251"/><path fill="#fff" d="m131.418 157.657.502.364.182-.251"/><path fill="#fff" d="M131.418 157.657h.621v.31"/><path fill="#fff" d="m132.375 158.356-.191-.59-.295.096"/><path fill="#fff" d="m132.375 158.356-.501-.365.182-.251"/><path fill="#fff" d="m131.646 158.356.502-.365-.182-.251"/><path fill="#fff" d="m131.646 158.356.192-.59.295.096M150.68 140.645l-.287.885.442.143"/><path fill="#fff" d="m150.68 140.645.288.885-.443.143"/><path fill="#fff" d="M151.565 141.287h-.93v.466"/><path fill="#fff" d="m151.565 141.287-.753.547-.273-.376"/><path fill="#fff" d="m149.794 141.287.753.547.273-.376"/><path fill="#fff" d="M149.794 141.287h.93v.466"/><path fill="#fff" d="m151.228 142.319-.288-.885-.442.144"/><path fill="#fff" d="m151.228 142.319-.753-.547.274-.376"/><path fill="#fff" d="m150.133 142.326.753-.547-.274-.376"/><path fill="#fff" d="m150.133 142.326.287-.885.443.144M159.162 155l-.288.885.443.144"/><path fill="#fff" d="m159.162 155 .287.885-.442.144"/><path fill="#fff" d="M160.046 155.643h-.93v.465"/><path fill="#fff" d="m160.046 155.643-.752.547-.274-.376"/><path fill="#fff" d="m158.275 155.643.753.547.273-.376"/><path fill="#fff" d="M158.275 155.643h.93v.465"/><path fill="#fff" d="m159.707 156.689-.287-.885-.443.143"/><path fill="#fff" d="m159.707 156.689-.752-.547.273-.377"/><path fill="#fff" d="m158.616 156.682.753-.547-.274-.377"/><path fill="#fff" d="m158.616 156.682.287-.885.443.143M162.171 155.523l-.191.59.295.096"/><path fill="#fff" d="m162.171 155.523.192.59-.295.096"/><path fill="#fff" d="M162.761 155.954h-.62v.31"/><path fill="#fff" d="m162.761 155.954-.502.365-.182-.251"/><path fill="#fff" d="m161.58 155.954.501.365.183-.251"/><path fill="#fff" d="M161.58 155.954h.62v.31"/><path fill="#fff" d="m162.537 156.639-.192-.59-.295.096"/><path fill="#fff" d="m162.537 156.639-.502-.364.182-.251"/><path fill="#fff" d="m161.807 156.639.502-.364-.182-.251"/><path fill="#fff" d="m161.807 156.639.192-.59.295.096M160.046 157.07l-.239.738.369.119"/><path fill="#fff" d="m160.046 157.07.24.738-.369.119"/><path fill="#fff" d="M160.783 157.6h-.775v.388"/><path fill="#fff" d="m160.783 157.6-.627.456-.228-.314"/><path fill="#fff" d="m159.306 157.607.628.456.228-.314"/><path fill="#fff" d="M159.306 157.607h.776v.388"/><path fill="#fff" d="m160.5 158.476-.239-.737-.369.119"/><path fill="#fff" d="m160.5 158.476-.627-.456.228-.313"/><path fill="#fff" d="m159.589 158.476.627-.456-.228-.313"/><path fill="#fff" d="m159.589 158.476.24-.737.368.119M154.819 161.62l-.24.737.369.12"/><path fill="#fff" d="m154.819 161.62.239.737-.369.12"/><path fill="#fff" d="M155.555 162.164h-.775v.388"/><path fill="#fff" d="m155.555 162.164-.627.456-.228-.314"/><path fill="#fff" d="m154.08 162.157.628.456.227-.314"/><path fill="#fff" d="M154.08 162.157h.776v.388"/><path fill="#fff" d="m155.274 163.026-.239-.738-.369.12"/><path fill="#fff" d="m155.274 163.026-.627-.456.228-.314"/><path fill="#fff" d="m154.363 163.026.627-.456-.228-.314"/><path fill="#fff" d="m154.363 163.026.239-.738.369.12M154.785 163.965l-.192.59.295.096"/><path fill="#fff" d="m154.785 163.965.192.59-.295.096"/><path fill="#fff" d="M155.375 164.403h-.62v.311"/><path fill="#fff" d="m155.375 164.403-.502.365-.182-.251"/><path fill="#fff" d="m154.192 164.389.501.365.183-.251"/><path fill="#fff" d="M154.192 164.389h.62v.31"/><path fill="#fff" d="m155.151 165.089-.192-.59-.295.096"/><path fill="#fff" d="m155.151 165.089-.502-.365.182-.251"/><path fill="#fff" d="m154.421 165.089.502-.365-.182-.251"/><path fill="#fff" d="m154.421 165.089.192-.59.295.096M156.975 160.073l-.192.59.295.096"/><path fill="#fff" d="m156.975 160.073.192.59-.295.096"/><path fill="#fff" d="M157.567 160.497h-.621v.31"/><path fill="#fff" d="m157.567 160.497-.502.364-.182-.251"/><path fill="#fff" d="m156.385 160.504.502.364.182-.251"/><path fill="#fff" d="M156.385 160.504h.62v.31"/><path fill="#fff" d="m157.341 161.189-.192-.59-.295.096"/><path fill="#fff" d="m157.341 161.189-.502-.365.182-.251"/><path fill="#fff" d="m156.611 161.189.502-.365-.182-.251"/><path fill="#fff" d="m156.611 161.189.192-.59.295.096M158.717 158.822l-.24.738.369.12"/><path fill="#fff" d="m158.717 158.822.239.738-.369.12"/><path fill="#fff" d="M159.455 159.366h-.776v.388"/><path fill="#fff" d="m159.455 159.366-.628.456-.227-.314"/><path fill="#fff" d="m157.982 159.352.627.456.228-.314"/><path fill="#fff" d="M157.982 159.352h.775v.388"/><path fill="#fff" d="m159.174 160.228-.24-.737-.368.119"/><path fill="#fff" d="m159.174 160.228-.627-.456.228-.313"/><path fill="#fff" d="m158.261 160.228.627-.456-.228-.313"/><path fill="#fff" d="m158.261 160.228.239-.737.369.119M154.73 159.656l-.191.59.295.096"/><path fill="#fff" d="m154.73 159.656.192.59-.295.096"/><path fill="#fff" d="M155.318 160.087h-.62v.31"/><path fill="#fff" d="m155.318 160.087-.502.364-.182-.25"/><path fill="#fff" d="m154.139 160.08.501.364.183-.251"/><path fill="#fff" d="M154.139 160.08h.62v.31"/><path fill="#fff" d="m155.094 160.772-.192-.59-.295.096"/><path fill="#fff" d="m155.094 160.772-.502-.365.183-.25"/><path fill="#fff" d="m154.365 160.779.501-.364-.182-.251"/><path fill="#fff" d="m154.365 160.779.191-.59.295.096M135.673 148.416l-.24.737.369.12"/><path fill="#fff" d="m135.673 148.416.24.737-.369.12"/><path fill="#fff" d="M136.411 148.96h-.775v.388"/><path fill="#fff" d="m136.411 148.96-.627.456-.228-.314"/><path fill="#fff" d="m134.936 148.953.628.456.228-.314"/><path fill="#fff" d="M134.936 148.953h.776v.387"/><path fill="#fff" d="m136.13 149.822-.239-.738-.369.12"/><path fill="#fff" d="m136.13 149.822-.627-.456.228-.314"/><path fill="#fff" d="m135.219 149.822.627-.456-.228-.314"/><path fill="#fff" d="m135.219 149.822.24-.738.368.12M149.856 146.6l-.192.59.295.096"/><path fill="#fff" d="m149.856 146.6.191.59-.295.096"/><path fill="#fff" d="M150.445 147.024h-.62v.31"/><path fill="#fff" d="m150.445 147.024-.501.365-.183-.251"/><path fill="#fff" d="m149.266 147.024.501.365.183-.251"/><path fill="#fff" d="M149.266 147.024h.62v.31"/><path fill="#fff" d="m150.221 147.716-.192-.59-.295.096"/><path fill="#fff" d="m150.221 147.716-.502-.364.183-.251"/><path fill="#fff" d="m149.492 147.716.502-.364-.183-.251"/><path fill="#fff" d="m149.492 147.716.191-.59.295.096M143.944 157.127l-.287.885.442.143"/><path fill="#fff" d="m143.944 157.127.288.885-.443.143"/><path fill="#fff" d="M144.831 157.77h-.931v.465"/><path fill="#fff" d="m144.831 157.77-.753.547-.274-.377"/><path fill="#fff" d="m143.059 157.77.753.547.273-.377"/><path fill="#fff" d="M143.059 157.77h.931v.465"/><path fill="#fff" d="m144.492 158.815-.288-.885-.442.144"/><path fill="#fff" d="m144.492 158.815-.753-.547.273-.376"/><path fill="#fff" d="m143.397 158.808.752-.547-.273-.376"/><path fill="#fff" d="m143.397 158.808.287-.885.443.144M146.457 152.966l-.239.737.368.12"/><path fill="#fff" d="m146.457 152.966.24.737-.369.12"/><path fill="#fff" d="M147.194 153.495h-.776v.388"/><path fill="#fff" d="m147.194 153.495-.627.456-.228-.313"/><path fill="#fff" d="m145.721 153.502.627.456.228-.313"/><path fill="#fff" d="M145.721 153.502h.775v.388"/><path fill="#fff" d="m146.913 154.371-.24-.737-.368.12"/><path fill="#fff" d="m146.913 154.371-.627-.455.228-.314"/><path fill="#fff" d="m146.003 154.357.628-.455-.228-.314"/><path fill="#fff" d="m146.003 154.357.24-.737.369.12M143.944 151.023l-.24.737.369.12"/><path fill="#fff" d="m143.944 151.023.24.737-.369.12"/><path fill="#fff" d="M144.684 151.567h-.775v.387"/><path fill="#fff" d="m144.684 151.567-.627.455-.228-.313"/><path fill="#fff" d="m143.206 151.553.627.455.228-.313"/><path fill="#fff" d="M143.206 151.553h.775v.387"/><path fill="#fff" d="m144.402 152.429-.24-.738-.369.12"/><path fill="#fff" d="m144.402 152.429-.628-.456.228-.314"/><path fill="#fff" d="m143.488 152.422.628-.456-.228-.314"/><path fill="#fff" d="m143.488 152.422.24-.738.369.12M141.758 153.128l-.192.59.295.096"/><path fill="#fff" d="m141.758 153.128.191.59-.295.096"/><path fill="#fff" d="M142.349 153.559h-.62v.31"/><path fill="#fff" d="m142.349 153.559-.502.365-.182-.251"/><path fill="#fff" d="m141.168 153.559.501.365.183-.251"/><path fill="#fff" d="M141.168 153.559h.62v.31"/><path fill="#fff" d="m142.123 154.244-.192-.59-.295.096"/><path fill="#fff" d="m142.123 154.244-.502-.364.183-.251"/><path fill="#fff" d="m141.394 154.251.502-.364-.183-.251"/><path fill="#fff" d="m141.394 154.251.191-.59.295.096M142.853 154.809l-.137.422.21.068"/><path fill="#fff" d="m142.853 154.809.136.422-.21.068"/><path fill="#fff" d="M143.275 155.113h-.443v.222"/><path fill="#fff" d="m143.275 155.113-.359.261-.13-.18"/><path fill="#fff" d="m142.432 155.113.359.261.13-.18"/><path fill="#fff" d="M142.432 155.113h.443v.222"/><path fill="#fff" d="m143.114 155.615-.137-.422-.211.069"/><path fill="#fff" d="m143.114 155.615-.359-.261.131-.179"/><path fill="#fff" d="m142.593 155.608.358-.261-.13-.179"/><path fill="#fff" d="m142.593 155.608.137-.422.211.069M150.442 162.157l-.24.737.369.12"/><path fill="#fff" d="m150.442 162.157.24.737-.369.12"/><path fill="#fff" d="M151.182 162.694h-.775v.387"/><path fill="#fff" d="m151.182 162.694-.627.456-.228-.314"/><path fill="#fff" d="m149.704 162.694.627.456.228-.314"/><path fill="#fff" d="M149.704 162.694h.775v.387"/><path fill="#fff" d="m150.899 163.556-.239-.738-.369.12"/><path fill="#fff" d="m150.899 163.556-.627-.456.228-.314"/><path fill="#fff" d="m149.99 163.556.627-.456-.228-.314"/><path fill="#fff" d="m149.99 163.556.239-.738.369.12M152.303 160.391l-.191.59.295.095"/><path fill="#fff" d="m152.303 160.391.192.59-.295.095"/><path fill="#fff" d="M152.895 160.815h-.62v.31"/><path fill="#fff" d="m152.895 160.815-.502.364-.182-.251"/><path fill="#fff" d="m151.714 160.829.501.364.183-.251"/><path fill="#fff" d="M151.714 160.829h.62v.31"/><path fill="#fff" d="m152.669 161.514-.192-.59-.295.096"/><path fill="#fff" d="m152.669 161.514-.502-.365.183-.251"/><path fill="#fff" d="m151.94 161.514.501-.365-.182-.251"/><path fill="#fff" d="m151.94 161.514.191-.59.295.096M148.73 159.861l-.191.59.295.096"/><path fill="#fff" d="m148.73 159.861.192.59-.295.096"/><path fill="#fff" d="M149.32 160.299h-.62v.31"/><path fill="#fff" d="m149.32 160.299-.502.364-.182-.251"/><path fill="#fff" d="m148.139 160.285.502.364.182-.251"/><path fill="#fff" d="M148.139 160.285h.62v.31"/><path fill="#fff" d="m149.098 160.984-.192-.59-.295.096"/><path fill="#fff" d="m149.098 160.984-.502-.365.182-.251"/><path fill="#fff" d="m148.368 160.977.502-.365-.182-.251"/><path fill="#fff" d="m148.368 160.977.192-.59.295.096M135.228 158.9l-.288.885.443.144"/><path fill="#fff" d="m135.228 158.9.287.885-.442.144"/><path fill="#fff" d="M136.115 159.543h-.931v.465"/><path fill="#fff" d="m136.115 159.543-.753.547-.274-.377"/><path fill="#fff" d="m134.345 159.536.753.547.273-.377"/><path fill="#fff" d="M134.345 159.536h.93v.465"/><path fill="#fff" d="m135.775 160.574-.287-.885-.443.144"/><path fill="#fff" d="m135.775 160.574-.752-.547.273-.376"/><path fill="#fff" d="m134.684 160.574.753-.547-.274-.376"/><path fill="#fff" d="m134.684 160.574.287-.885.443.144M143.948 164.986l-.096.295.147.048"/><path fill="#fff" d="m143.948 164.986.095.295-.147.048"/><path fill="#fff" d="M144.243 165.198h-.311v.155"/><path fill="#fff" d="m144.243 165.198-.251.183-.092-.126"/><path fill="#fff" d="m143.653 165.198.251.183.091-.126"/><path fill="#fff" d="M143.653 165.198h.31v.155"/><path fill="#fff" d="m144.13 165.551-.096-.295-.148.048"/><path fill="#fff" d="m144.13 165.551-.251-.182.091-.125"/><path fill="#fff" d="m143.766 165.551.251-.182-.092-.125"/><path fill="#fff" d="m143.766 165.551.096-.295.147.048M131.539 139.004a52.73 52.73 0 0 1 33.906 12.346 21.5 21.5 0 0 1-.771 3.438 49.63 49.63 0 0 0-41.75-11.928c.297-1.149.686-2.26 1.158-3.326a53 53 0 0 1 7.457-.53"/><path fill="#009440" d="M152.36 143.838c.226.099.4.293.482.54.046.137.061.284.047.431l-.381-.166a.6.6 0 0 0-.023-.124.51.51 0 0 0-.278-.329.51.51 0 0 0-.431.02.72.72 0 0 0-.33.359.7.7 0 0 0-.036.484.5.5 0 0 0 .278.33.51.51 0 0 0 .43-.021.7.7 0 0 0 .16-.117l-.312-.136.118-.271.717.312-.002.006.001.001-.001.003.002.001-.412.948-.271-.118.113-.261a.88.88 0 0 1-.682.01l-.027-.012a.9.9 0 0 1-.47-.533c-.078-.235-.068-.5.027-.742l.033-.075c.112-.234.298-.422.524-.524a.88.88 0 0 1 .724-.016"/><path fill="#009440" fill-rule="evenodd" d="M125.428 141.959a.89.89 0 0 0 .616-.38c.15-.214.215-.487.182-.759a1.1 1.1 0 0 0-.36-.693.89.89 0 0 0-.69-.22.89.89 0 0 0-.616.381 1.1 1.1 0 0 0-.181.759c.033.272.162.521.359.692s.445.25.69.22m-.047-.381a.5.5 0 0 0 .361-.236.7.7 0 0 0 .103-.475.72.72 0 0 0-.215-.437.5.5 0 0 0-.407-.142.5.5 0 0 0-.36.236.72.72 0 0 0-.103.476.7.7 0 0 0 .215.436c.116.109.263.16.406.142M127.113 141.765l.383-.027-.053-.766.825-.057a.65.65 0 1 0-.091-1.297l-1.178.082zm.303-1.176.796-.055a.267.267 0 0 0 .246-.284.264.264 0 0 0-.283-.247l-.796.056z" clip-rule="evenodd"/><path fill="#009440" d="M128.867 141.642c-.021-.295-.066-.943-.508-.912l-.56.039c.649-.045.694.603.714.898"/><path fill="#009440" fill-rule="evenodd" d="m129.734 141.607.975-.017a.88.88 0 0 0 .622-.27.898.898 0 0 0 .248-.631l-.005-.295a.89.89 0 0 0-.901-.871l-.975.017zm.377-.39.561-.01a.56.56 0 0 0 .552-.571l-.003-.177a.563.563 0 0 0-.571-.552l-.561.01z" clip-rule="evenodd"/><path fill="#009440" d="m132.358 141.578 1.86.065.013-.384-1.505-.052.018-.532 1.181.042.012-.355-1.18-.041.014-.413 1.417.049.014-.383-1.772-.062zM134.982 141.692l.353.031.124-1.413.288 1.449.324.028.536-1.376-.124 1.412.353.031.18-2.06-.515-.045-.535 1.376-.289-1.448-.515-.045zM139.266 142.172l1.529.263.06-.349-1.179-.203.08-.466.961.165.06-.349-.961-.165.055-.32 1.143.196.06-.349-1.492-.257z"/><path fill="#009440" fill-rule="evenodd" d="m143.193 142.941.372.096.192-.744.801.207a.645.645 0 0 0 .792-.466.65.65 0 0 0-.069-.493.65.65 0 0 0-.398-.299l-1.144-.296zm.66-1.019.773.199a.267.267 0 0 0 .133-.515l-.772-.199zM145.733 143.624l.366.116.231-.733.789.249a.648.648 0 0 0 .772-.92.65.65 0 0 0-.381-.319l-1.127-.356zm.713-.983.76.24a.265.265 0 0 0 .334-.174.26.26 0 0 0-.018-.202.26.26 0 0 0-.156-.131l-.76-.24z" clip-rule="evenodd"/><path fill="#009440" d="M147.408 144.149c.089-.282.284-.902-.138-1.035l-.535-.169c.619.196.424.815.335 1.097"/><path fill="#009440" fill-rule="evenodd" d="M149.1 144.756a.9.9 0 0 0 .723-.053c.231-.121.415-.333.511-.59s.096-.537.001-.78a.89.89 0 0 0-.51-.514.9.9 0 0 0-.723.053 1.1 1.1 0 0 0-.511.589 1.1 1.1 0 0 0-.001.781.9.9 0 0 0 .51.514m.135-.36c.136.051.29.035.428-.043a.7.7 0 0 0 .311-.374.7.7 0 0 0 .011-.487.5.5 0 0 0-.295-.313.5.5 0 0 0-.429.043.72.72 0 0 0-.31.374.7.7 0 0 0-.011.486.5.5 0 0 0 .295.314M153.082 146.436l.343.171.343-.687.74.369a.65.65 0 0 0 .496.034.65.65 0 0 0 .41-.822.65.65 0 0 0-.326-.376l-1.057-.527zm.857-.86.714.356a.264.264 0 0 0 .371-.323.27.27 0 0 0-.134-.153l-.713-.356z" clip-rule="evenodd"/><path fill="#009440" d="M154.654 147.221c.132-.264.422-.846.026-1.043l-.503-.251c.582.29.292.872.16 1.136M155.422 147.62l1.619.917.189-.335-1.311-.741.262-.463 1.028.582.175-.309-1.028-.582.203-.36 1.234.699.189-.335-1.542-.872zM158.439 148.637c-.111.175.001.369.25.528.25.158.419.153.491.041.226-.355-1.082-.873-.678-1.492.347-.532.942-.118 1.166.025s.584.512.304.938l-.38-.242c.119-.187-.012-.366-.211-.493-.193-.123-.35-.18-.465.001-.193.289 1.089.834.696 1.45-.29.455-.794.257-1.13.042-.287-.182-.715-.613-.436-1.048zM160.656 150.107c-.12.168-.018.368.223.539.24.172.41.175.487.067.245-.343-1.034-.928-.599-1.525.375-.513.947-.069 1.163.086.217.154.557.542.255.953l-.367-.262c.129-.18.008-.367-.184-.504-.187-.133-.341-.197-.465-.023-.208.279 1.044.89.619 1.485-.313.439-.806.214-1.131-.017-.276-.197-.681-.65-.38-1.07z"/><path fill="#009440" fill-rule="evenodd" d="M162.755 152.483a.88.88 0 0 0 .703.173c.258-.043.498-.188.669-.403.17-.214.257-.481.242-.742a.89.89 0 0 0-.327-.646.88.88 0 0 0-.703-.173 1.1 1.1 0 0 0-.669.403 1.1 1.1 0 0 0-.242.741.89.89 0 0 0 .327.647m.239-.3c.113.09.265.123.421.091a.7.7 0 0 0 .411-.26.72.72 0 0 0 .161-.459.51.51 0 0 0-.184-.39.5.5 0 0 0-.421-.091.7.7 0 0 0-.411.26.72.72 0 0 0-.161.459.51.51 0 0 0 .184.39" clip-rule="evenodd"/><path fill="#c2dfe7" d="M194.385 96.566a72.3 72.3 0 0 1 13.063 17.371l-35.482 100.427a71.6 71.6 0 0 1-21.075 5.307zM184.136 88.215a72 72 0 0 1 5.696 4.254l-45.055 127.525q-.389.005-.777.005-3.2-.001-6.328-.276z" opacity=".2"/></g><defs><linearGradient id="b" x1="93" x2="194.7" y1="97" y2="198.7" gradientUnits="userSpaceOnUse"><stop stop-color="#fff"/><stop offset="1" stop-color="#404040"/></linearGradient><filter id="a" width="177.6" height="177.6" x="66.4" y="70.4" color-interpolation-filters="sRGB" filterUnits="userSpaceOnUse"><feFlood flood-opacity="0" result="BackgroundImageFix"/><feColorMatrix in="SourceAlpha" result="hardAlpha" values="0 0 0 0 0 0 0 0 0 0 0 0 0 0 0 0 0 0 127 0"/><feOffset dx="11.2" dy="11.2"/><feGaussianBlur stdDeviation="8.4"/><feComposite in2="hardAlpha" operator="out"/><feColorMatrix values="0 0 0 0 0 0 0 0 0 0 0 0 0 0 0 0 0 0 0.12 0"/><feBlend in2="BackgroundImageFix" result="effect1_dropShadow_16831_13704"/><feBlend in="SourceGraphic" in2="effect1_dropShadow_16831_13704" result="shape"/></filter></defs></svg>