<svg xmlns="http://www.w3.org/2000/svg" fill="none" viewBox="0 0 390 216"><g clip-path="url(#a)"><path fill="#fff" stroke="#000" stroke-miterlimit="10" stroke-width=".325" d="m141.114 66.06.097 98.278c.056 4.106 3.436 7.402 7.573 7.382l97.422-4.285c4.107-.02 8.262.483 8.313-3.595l1.19-96.25c.051-4.144-3.303-7.542-7.479-7.572l-96.577-.854c-4.219-.03-10.597 2.709-10.541 6.896z"/><path fill="#E0E0E0" stroke="#000" stroke-miterlimit="10" stroke-width=".325" d="m141.269 89.578-.117 74.821c.354 4.492 4.143 7.921 8.629 7.806l30.917-2.088-31.143-81.3z"/><path fill="#217C6F" stroke="#000" stroke-miterlimit="10" stroke-width=".325" d="m142.617 90.747-1.503-.062V69.561c0-1.485-.196-3.199.239-4.612.524-1.704 1.814-2.762 3.248-3.69a11.7 11.7 0 0 1 4.051-1.655c.221-.046.478-.125.705-.12s.218-.053.198.159c-.018.173-.181.378-.226.567a8 8 0 0 0-.064.289l-.163.735-1.03 4.694q-.714 3.254-1.429 6.51l-1.541 7.02-1.368 6.225q-.453 2.061-.906 4.123l-.206.938z"/><path fill="#fff" stroke="#000" stroke-miterlimit="10" stroke-width=".325" d="m142.241 67.108 1.308 97.486c.056 4.106 3.435 7.402 7.573 7.382l97.422-4.285c4.107-.02 8.262.483 8.313-3.595l1.19-96.25c.051-4.144-3.303-7.542-7.479-7.572l-100.745-.739c-4.22-.03-7.64 3.386-7.584 7.573z"/><path fill="#E0E0E0" d="m142.617 90.748.71 74.057c.491 4.479 4.384 7.79 8.862 7.537l27.794-1.569L149.41 89"/><path stroke="#000" stroke-miterlimit="10" stroke-width=".325" d="m142.617 90.748.71 74.057c.491 4.479 4.384 7.79 8.862 7.537l27.794-1.569L149.41 89"/><path fill="#217C6F" stroke="#000" stroke-miterlimit="10" stroke-width=".325" d="M144.173 90.82h-1.505l-.682-23.434s.171-4.888 2.671-6.265 4.793-1.484 4.793-1.484z"/><path fill="#fff" stroke="#000" stroke-miterlimit="10" stroke-width=".325" d="m143.335 67.39 2.853 98.148c.806 3.669 4.196 6.962 7.691 7.309l94.636-4.389c4.107-.087 10.974-1.16 10.961-5.266l-.336-96.942a7.53 7.53 0 0 0-7.598-7.504l-100.743.895c-4.219.038-7.586 3.533-7.462 7.749z"/><path fill="#E0E0E0" d="m144.013 90.747 2.175 74.789c.49 4.478 4.384 7.79 8.862 7.537l27.794-1.569-30.573-81.773-9.603 1.093"/><path stroke="#000" stroke-miterlimit="10" stroke-width=".325" d="m144.013 90.747 2.175 74.789c.49 4.478 4.384 7.79 8.862 7.537l27.794-1.569-30.573-81.773-9.603 1.093"/><path fill="#217C6F" stroke="#000" stroke-miterlimit="10" stroke-width=".325" d="M145.521 90.823h-1.505l-.682-23.434s.17-4.887 2.67-6.264 5.247-1.906 5.247-1.906l-5.73 31.607z"/><path fill="#fff" stroke="#000" stroke-miterlimit="10" stroke-width=".325" d="m144.352 67.102 4.86 98.549c.206 4.152 3.705 7.361 7.838 7.187l98.161-4.126c4.105-.174 7.314-3.616 7.215-7.742l-2.319-97.392c-.1-4.195-3.579-7.506-7.752-7.383L151.65 59.163c-4.216.126-7.509 3.705-7.301 7.939z"/><path fill="#27A394" stroke="#000" stroke-miterlimit="10" stroke-width=".325" d="m260.756 86.554-.547-22.954c-.099-4.195-3.678-7.782-7.851-7.66l-100.605 3.245c-4.217.125-7.792 3.516-7.302 7.939l1.071 23.444z"/><path fill="#000" d="M239.825 69.056a2.12 2.12 0 0 0 2.116-2.126 2.12 2.12 0 0 0-2.116-2.125 2.12 2.12 0 0 0-2.116 2.125 2.12 2.12 0 0 0 2.116 2.126"/><path fill="#B8BCBA" stroke="#000" stroke-miterlimit="10" stroke-width=".325" d="M241.053 68.05a10 10 0 0 1-2.037-.21 1.158 1.158 0 0 1-.867-1.51c.191-.549.758-.86 1.325-.743a7.8 7.8 0 0 0 1.579.161c4.583 0 8.311-4.04 8.311-9.004s-3.728-9.003-8.311-9.003c-4.582 0-8.308 3.735-8.308 8.7l-2.294.091c0-6.231 4.756-11.09 10.6-11.09s10.6 5.071 10.6 11.303c0 6.231-4.756 11.303-10.6 11.303z"/><path fill="#fff" d="M242.795 47.942s-.033-1.709 1.635-1.91c0 0 3.164 1.502 4.199 2.817 0 0-1.826.118-1.404 1.873 0 0-2.563-2.808-4.43-2.78"/><path stroke="#000" stroke-miterlimit="10" stroke-width=".325" d="M241.053 68.05a10 10 0 0 1-2.037-.21 1.158 1.158 0 0 1-.867-1.51c.191-.549.758-.86 1.325-.743a7.8 7.8 0 0 0 1.579.161c4.583 0 8.311-4.04 8.311-9.004s-3.728-9.003-8.311-9.003c-4.582 0-8.308 3.735-8.308 8.7l-2.294.091c0-6.231 4.756-11.09 10.6-11.09s10.6 5.071 10.6 11.303c0 6.231-4.756 11.303-10.6 11.303z"/><path fill="#000" d="M220.803 69.564a2.12 2.12 0 0 0 2.116-2.126 2.12 2.12 0 0 0-2.116-2.126 2.12 2.12 0 0 0-2.115 2.126 2.12 2.12 0 0 0 2.115 2.126"/><path fill="#B8BCBA" stroke="#000" stroke-miterlimit="10" stroke-width=".325" d="M222.055 68.64a10 10 0 0 1-2.037-.21 1.158 1.158 0 0 1-.867-1.51c.191-.549.758-.86 1.325-.743q.776.16 1.579.16c4.583 0 8.311-4.039 8.311-9.003s-3.728-9.003-8.311-9.003c-4.582 0-8.308 3.735-8.308 8.7l-2.294.091c0-6.231 4.756-11.09 10.6-11.09s10.599 5.07 10.599 11.302-4.755 11.303-10.599 11.303z"/><path fill="#fff" d="M223.797 48.532s-.033-1.71 1.635-1.91c0 0 3.164 1.501 4.199 2.817 0 0-1.826.118-1.404 1.873 0 0-2.563-2.808-4.43-2.78"/><path stroke="#000" stroke-miterlimit="10" stroke-width=".325" d="M222.055 68.64a10 10 0 0 1-2.037-.21 1.158 1.158 0 0 1-.867-1.51c.191-.549.758-.86 1.325-.743q.776.16 1.579.16c4.583 0 8.311-4.039 8.311-9.003s-3.728-9.003-8.311-9.003c-4.582 0-8.308 3.735-8.308 8.7l-2.294.091c0-6.231 4.756-11.09 10.6-11.09s10.599 5.07 10.599 11.302-4.755 11.303-10.599 11.303z"/><path fill="#000" d="M201.905 70.33a2.12 2.12 0 0 0 2.116-2.126 2.12 2.12 0 0 0-2.116-2.126 2.12 2.12 0 0 0-2.116 2.126 2.12 2.12 0 0 0 2.116 2.126"/><path fill="#B8BCBA" stroke="#000" stroke-miterlimit="10" stroke-width=".325" d="M203.341 69.304a10 10 0 0 1-2.038-.21c-.668-.14-1.096-.845-.867-1.51.191-.549.758-.86 1.325-.743a7.8 7.8 0 0 0 1.58.161c4.582 0 8.31-4.04 8.31-9.004s-3.728-9.003-8.31-9.003-8.309 3.735-8.309 8.7l-2.294.091c0-6.231 4.756-11.09 10.6-11.09s10.6 5.07 10.6 11.302-4.756 11.303-10.6 11.303z"/><path fill="#fff" d="M205.082 49.196s-.033-1.709 1.635-1.91c0 0 3.164 1.502 4.199 2.817 0 0-1.826.118-1.404 1.873 0 0-2.563-2.808-4.43-2.78"/><path stroke="#000" stroke-miterlimit="10" stroke-width=".325" d="M203.341 69.304a10 10 0 0 1-2.038-.21c-.668-.14-1.096-.845-.867-1.51.191-.549.758-.86 1.325-.743a7.8 7.8 0 0 0 1.58.161c4.582 0 8.31-4.04 8.31-9.004s-3.728-9.003-8.31-9.003-8.309 3.735-8.309 8.7l-2.294.091c0-6.231 4.756-11.09 10.6-11.09s10.6 5.07 10.6 11.302-4.756 11.303-10.6 11.303z"/><path fill="#000" d="M183.069 70.33a2.12 2.12 0 0 0 2.116-2.126 2.12 2.12 0 0 0-2.116-2.126 2.12 2.12 0 0 0-2.116 2.126 2.12 2.12 0 0 0 2.116 2.126"/><path fill="#B8BCBA" stroke="#000" stroke-miterlimit="10" stroke-width=".325" d="M184.485 69.304a10 10 0 0 1-2.037-.21c-.669-.14-1.096-.845-.867-1.51.191-.549.758-.86 1.325-.743a7.8 7.8 0 0 0 1.579.161c4.583 0 8.311-4.04 8.311-9.004s-3.728-9.003-8.311-9.003-8.308 3.735-8.308 8.7l-2.294.091c0-6.231 4.755-11.09 10.599-11.09s10.6 5.07 10.6 11.302-4.755 11.303-10.6 11.303z"/><path fill="#fff" d="M186.227 49.196s-.033-1.709 1.635-1.91c0 0 3.163 1.502 4.199 2.817 0 0-1.826.118-1.404 1.873 0 0-2.564-2.808-4.43-2.78"/><path stroke="#000" stroke-miterlimit="10" stroke-width=".325" d="M184.485 69.304a10 10 0 0 1-2.037-.21c-.669-.14-1.096-.845-.867-1.51.191-.549.758-.86 1.325-.743a7.8 7.8 0 0 0 1.579.161c4.583 0 8.311-4.04 8.311-9.004s-3.728-9.003-8.311-9.003-8.308 3.735-8.308 8.7l-2.294.091c0-6.231 4.755-11.09 10.599-11.09s10.6 5.07 10.6 11.302-4.755 11.303-10.6 11.303z"/><path fill="#000" d="M164.155 71.435a2.12 2.12 0 0 0 2.116-2.126 2.12 2.12 0 0 0-2.116-2.125 2.12 2.12 0 0 0-2.116 2.125 2.12 2.12 0 0 0 2.116 2.126"/><path fill="#B8BCBA" stroke="#000" stroke-miterlimit="10" stroke-width=".325" d="M165.544 70.585a10 10 0 0 1-2.037-.21c-.669-.14-1.096-.845-.868-1.51.191-.549.758-.86 1.325-.743q.777.162 1.58.161c4.582 0 8.311-4.04 8.311-9.003 0-4.965-3.729-9.004-8.311-9.004-4.583 0-8.309 3.735-8.309 8.7l-2.294.092c0-6.232 4.756-11.091 10.6-11.091s10.6 5.071 10.6 11.303c0 6.231-4.756 11.303-10.6 11.303z"/><path fill="#fff" d="M167.285 50.478s-.033-1.71 1.635-1.912c0 0 3.164 1.503 4.199 2.819 0 0-1.826.117-1.404 1.872 0 0-2.563-2.808-4.43-2.78"/><path stroke="#000" stroke-miterlimit="10" stroke-width=".325" d="M165.544 70.585a10 10 0 0 1-2.037-.21c-.669-.14-1.096-.845-.868-1.51.191-.549.758-.86 1.325-.743q.777.162 1.58.161c4.582 0 8.311-4.04 8.311-9.003 0-4.965-3.729-9.004-8.311-9.004-4.583 0-8.309 3.735-8.309 8.7l-2.294.092c0-6.232 4.756-11.091 10.6-11.091s10.6 5.071 10.6 11.303c0 6.231-4.756 11.303-10.6 11.303z"/><path fill="#A4DED2" stroke="#000" stroke-miterlimit="10" stroke-width=".325" d="m159.107 116.996 13.722-.493 1.419-1.658-1.981-14.121-13.542-.204-1.577 1.704.626 13.607c.031.672.626 1.191 1.333 1.165Z"/><path fill="#A4DED2" stroke="#000" stroke-miterlimit="10" stroke-width=".325" d="m160.208 115.347 14.038-.506-.486-13.635a1.23 1.23 0 0 0-1.266-1.186l-13.771.496.658 14.141c.018.397.387.706.827.688z"/><path fill="#A4DED2" d="m161.705 109.247 2.859 3.122 6.701-9.369"/><path stroke="#000" stroke-miterlimit="10" stroke-width=".325" d="m161.705 109.247 2.859 3.122 6.701-9.369"/><path fill="#A4DED2" stroke="#000" stroke-miterlimit="10" stroke-width=".325" d="m178.099 116.422 13.722-.493 1.42-1.658-1.982-14.121-13.542-.205-1.576 1.704.625 13.608c.031.672.626 1.191 1.333 1.165Z"/><path fill="#A4DED2" stroke="#000" stroke-miterlimit="10" stroke-width=".325" d="m179.2 114.777 14.038-.506-.486-13.636a1.23 1.23 0 0 0-1.266-1.185l-13.771.496.659 14.141c.017.396.386.705.826.687z"/><path fill="#A4DED2" d="m180.697 108.674 2.859 3.125 6.698-9.369"/><path stroke="#000" stroke-miterlimit="10" stroke-width=".325" d="m180.697 108.674 2.859 3.125 6.698-9.369"/><path fill="#A4DED2" stroke="#000" stroke-miterlimit="10" stroke-width=".325" d="m196.796 115.403 13.723-.494 1.419-1.658-1.981-14.12-13.542-.205-1.577 1.704.625 13.608c.031.671.626 1.19 1.333 1.165Z"/><path fill="#A4DED2" stroke="#000" stroke-miterlimit="10" stroke-width=".325" d="m197.897 113.757 14.038-.505-.485-13.636a1.23 1.23 0 0 0-1.267-1.186l-13.771.496.659 14.142c.018.396.386.705.826.687z"/><path fill="#A4DED2" d="m199.396 107.654 2.859 3.125 6.699-9.369"/><path stroke="#000" stroke-miterlimit="10" stroke-width=".325" d="m199.396 107.654 2.859 3.125 6.699-9.369"/><path fill="#A4DED2" stroke="#000" stroke-miterlimit="10" stroke-width=".325" d="m215.4 114.582 13.722-.493 1.419-1.658-1.981-14.121-13.542-.204-1.577 1.704.626 13.607c.031.672.626 1.191 1.333 1.165Z"/><path fill="#A4DED2" stroke="#000" stroke-miterlimit="10" stroke-width=".325" d="m216.505 112.933 14.038-.506-.486-13.635a1.23 1.23 0 0 0-1.267-1.186l-13.77.496.658 14.141c.018.396.387.706.827.688z"/><path fill="#A4DED2" d="m218.002 106.834 2.856 3.125 6.701-9.369"/><path stroke="#000" stroke-miterlimit="10" stroke-width=".325" d="m218.002 106.834 2.856 3.125 6.701-9.369"/><path fill="#A4DED2" stroke="#000" stroke-miterlimit="10" stroke-width=".325" d="m233.888 113.758 13.723-.493 1.419-1.658-1.982-14.121-13.542-.205-1.576 1.704.625 13.608c.031.672.626 1.191 1.333 1.165Z"/><path fill="#A4DED2" stroke="#000" stroke-miterlimit="10" stroke-width=".325" d="m234.989 112.109 14.038-.506-.486-13.635a1.23 1.23 0 0 0-1.266-1.186l-13.771.496.659 14.141c.017.396.386.705.826.687z"/><path fill="#A4DED2" d="m236.488 106.009 2.859 3.124 6.701-9.371"/><path stroke="#000" stroke-miterlimit="10" stroke-width=".325" d="m236.488 106.009 2.859 3.124 6.701-9.371"/><path fill="#A4DED2" stroke="#000" stroke-miterlimit="10" stroke-width=".325" d="m160.167 136.637 13.723-.493 1.419-1.658-1.981-14.121-13.542-.205-1.577 1.704.626 13.608c.03.672.625 1.191 1.332 1.165Z"/><path fill="#A4DED2" stroke="#000" stroke-miterlimit="10" stroke-width=".325" d="m161.27 134.988 14.038-.506-.485-13.636a1.23 1.23 0 0 0-1.267-1.185l-13.771.496.659 14.141c.018.396.386.705.826.687z"/><path fill="#A4DED2" d="m162.77 128.887 2.855 3.125 6.702-9.371"/><path stroke="#000" stroke-miterlimit="10" stroke-width=".325" d="m162.77 128.887 2.855 3.125 6.702-9.371"/><path fill="#A4DED2" stroke="#000" stroke-miterlimit="10" stroke-width=".325" d="m179.159 136.063 13.723-.493 1.419-1.659-1.981-14.121-13.542-.204-1.577 1.704.626 13.608c.03.672.625 1.19 1.332 1.165Z"/><path fill="#A4DED2" stroke="#000" stroke-miterlimit="10" stroke-width=".325" d="m180.261 134.418 14.038-.506-.486-13.636a1.23 1.23 0 0 0-1.267-1.185l-13.771.495.659 14.142c.018.396.387.705.827.687z"/><path fill="#A4DED2" d="m181.758 128.315 2.858 3.124 6.701-9.369"/><path stroke="#000" stroke-miterlimit="10" stroke-width=".325" d="m181.758 128.315 2.858 3.124 6.701-9.369"/><path fill="#A4DED2" stroke="#000" stroke-miterlimit="10" stroke-width=".325" d="m197.857 135.043 13.722-.493 1.419-1.658-1.981-14.121-13.542-.205-1.577 1.705.626 13.607c.031.672.626 1.191 1.333 1.165Z"/><path fill="#A4DED2" stroke="#000" stroke-miterlimit="10" stroke-width=".325" d="m198.962 133.398 14.038-.506-.486-13.635a1.23 1.23 0 0 0-1.266-1.186l-13.771.496.658 14.141c.018.396.387.705.827.688z"/><path fill="#A4DED2" d="m200.459 127.295 2.856 3.125 6.701-9.369"/><path stroke="#000" stroke-miterlimit="10" stroke-width=".325" d="m200.459 127.295 2.856 3.125 6.701-9.369"/><path fill="#A4DED2" stroke="#000" stroke-miterlimit="10" stroke-width=".325" d="m216.464 134.219 13.723-.493 1.419-1.658-1.981-14.121-13.542-.205-1.577 1.704.625 13.608c.031.672.626 1.191 1.333 1.165Z"/><path fill="#A4DED2" stroke="#000" stroke-miterlimit="10" stroke-width=".325" d="m217.565 132.574 14.038-.506-.486-13.636a1.23 1.23 0 0 0-1.266-1.185l-13.771.495.659 14.142c.018.396.386.705.826.687z"/><path fill="#A4DED2" d="m219.064 126.471 2.859 3.125 6.698-9.369"/><path stroke="#000" stroke-miterlimit="10" stroke-width=".325" d="m219.064 126.471 2.859 3.125 6.698-9.369"/><path fill="#A4DED2" stroke="#000" stroke-miterlimit="10" stroke-width=".325" d="m234.946 133.399 13.723-.493 1.419-1.659-1.981-14.121-13.542-.204-1.577 1.704.626 13.608c.03.672.625 1.19 1.332 1.165Z"/><path fill="#A4DED2" stroke="#000" stroke-miterlimit="10" stroke-width=".325" d="m236.052 131.75 14.038-.506-.486-13.636a1.23 1.23 0 0 0-1.267-1.185l-13.771.495.659 14.142c.018.396.387.705.827.687z"/><path fill="#A4DED2" d="m237.549 125.649 2.856 3.125 6.701-9.372"/><path stroke="#000" stroke-miterlimit="10" stroke-width=".325" d="m237.549 125.649 2.856 3.125 6.701-9.372"/><path fill="#A4DED2" stroke="#000" stroke-miterlimit="10" stroke-width=".325" d="m161.257 156.278 13.723-.494 1.419-1.658-1.981-14.121-13.542-.204-1.577 1.704.625 13.608c.031.671.626 1.19 1.333 1.165Z"/><path fill="#A4DED2" stroke="#000" stroke-miterlimit="10" stroke-width=".325" d="m162.358 154.632 14.038-.505-.486-13.636a1.23 1.23 0 0 0-1.266-1.186l-13.771.496.659 14.142c.018.396.386.705.826.687z"/><path fill="#A4DED2" d="m163.855 148.529 2.859 3.125 6.698-9.369"/><path stroke="#000" stroke-miterlimit="10" stroke-width=".325" d="m163.855 148.529 2.859 3.125 6.698-9.369"/><path fill="#A4DED2" stroke="#000" stroke-miterlimit="10" stroke-width=".325" d="m180.245 155.715 13.723-.493 1.419-1.658-1.981-14.121-13.542-.205-1.577 1.704.626 13.608c.03.672.625 1.191 1.332 1.165Z"/><path fill="#A4DED2" stroke="#000" stroke-miterlimit="10" stroke-width=".325" d="m181.348 154.066 14.038-.506-.485-13.636a1.23 1.23 0 0 0-1.267-1.185l-13.771.496.659 14.141c.018.396.386.705.826.688z"/><path fill="#A4DED2" d="m182.848 147.966 2.856 3.124 6.701-9.371"/><path stroke="#000" stroke-miterlimit="10" stroke-width=".325" d="m182.848 147.966 2.856 3.124 6.701-9.371"/><path fill="#A4DED2" stroke="#000" stroke-miterlimit="10" stroke-width=".325" d="m198.943 154.692 13.722-.493 1.419-1.659-1.981-14.121-13.542-.204-1.577 1.704.626 13.608c.031.672.626 1.19 1.333 1.165Z"/><path fill="#A4DED2" stroke="#000" stroke-miterlimit="10" stroke-width=".325" d="m200.048 153.043 14.038-.506-.486-13.636a1.23 1.23 0 0 0-1.267-1.185l-13.771.495.659 14.142c.018.396.387.705.827.687z"/><path fill="#A4DED2" d="m201.545 146.942 2.858 3.125 6.699-9.372"/><path stroke="#000" stroke-miterlimit="10" stroke-width=".325" d="m201.545 146.942 2.858 3.125 6.699-9.372"/><path fill="#A4DED2" stroke="#000" stroke-miterlimit="10" stroke-width=".325" d="m217.55 153.867 13.723-.493 1.419-1.658-1.981-14.121-13.542-.204-1.577 1.704.625 13.607c.031.672.626 1.191 1.333 1.165Z"/><path fill="#A4DED2" stroke="#000" stroke-miterlimit="10" stroke-width=".325" d="m218.651 152.222 14.038-.506-.486-13.635a1.23 1.23 0 0 0-1.266-1.186l-13.771.496.659 14.141c.017.397.386.706.826.688z"/><path fill="#A4DED2" d="m220.15 146.119 2.859 3.125 6.698-9.369"/><path stroke="#000" stroke-miterlimit="10" stroke-width=".325" d="m220.15 146.119 2.859 3.125 6.698-9.369"/><path fill="#A4DED2" stroke="#000" stroke-miterlimit="10" stroke-width=".325" d="m236.034 153.043 13.723-.493 1.419-1.658-1.981-14.121-13.542-.205-1.577 1.705.626 13.607c.03.672.625 1.191 1.332 1.165Z"/><path fill="#A4DED2" stroke="#000" stroke-miterlimit="10" stroke-width=".325" d="m237.136 151.398 14.038-.506-.486-13.635a1.23 1.23 0 0 0-1.267-1.186l-13.771.496.659 14.141c.018.396.387.705.827.688z"/><path fill="#A4DED2" d="m238.635 145.295 2.858 3.125 6.699-9.369"/><path stroke="#000" stroke-miterlimit="10" stroke-width=".325" d="m238.635 145.295 2.858 3.125 6.699-9.369"/><path fill="#113D38" stroke="#000" stroke-miterlimit="10" stroke-width=".325" d="M250.091 133.18s-28.243 10.983-28.243 36.939l28.243-1.188z" opacity=".25"/><path fill="#F3B443" stroke="#000" stroke-miterlimit="10" stroke-width=".325" d="M258.051 181.79c13.72 0 24.843-11.175 24.843-24.96s-11.123-24.959-24.843-24.959-24.844 11.175-24.844 24.959c0 13.785 11.123 24.96 24.844 24.96Z"/><path fill="#FFDD7D" stroke="#000" stroke-miterlimit="10" stroke-width=".325" d="M260.472 181.79c12.385 0 22.425-11.175 22.425-24.96s-10.04-24.959-22.425-24.959-22.425 11.175-22.425 24.959c0 13.785 10.04 24.96 22.425 24.96Z"/><path fill="#fff" stroke="#000" stroke-miterlimit="10" stroke-width=".325" d="M260.474 179.366c11.182 0 20.246-10.089 20.246-22.535s-9.064-22.534-20.246-22.534-20.245 10.089-20.245 22.534c0 12.446 9.064 22.535 20.245 22.535Z"/><path fill="#A4DED2" stroke="#000" stroke-miterlimit="10" stroke-width=".325" d="m262.785 141.866-1.666-2.807-1.668 2.7v16.045h3.334z"/><path fill="#27A394" stroke="#000" stroke-miterlimit="10" stroke-width=".325" d="m268.354 167.441 2.866.347-.455-2.662-7.288-7.325-2.358 2.368z"/><path fill="#B8BCBA" stroke="#000" stroke-miterlimit="10" stroke-width=".325" d="M261.119 160.88a3.07 3.07 0 0 0 3.065-3.079c0-1.7-1.372-3.078-3.065-3.078a3.07 3.07 0 0 0-3.064 3.078 3.07 3.07 0 0 0 3.064 3.079Z"/><path fill="#59B8AA" stroke="#000" stroke-miterlimit="10" stroke-width=".325" d="M208.021 26.16a3.03 3.03 0 0 0 3.021-3.035 3.03 3.03 0 0 0-3.021-3.035A3.03 3.03 0 0 0 205 23.125a3.03 3.03 0 0 0 3.021 3.035Z"/><path stroke="#000" stroke-miterlimit="10" stroke-width=".325" d="M241.654-5.586v5.83M120.605 165.031v5.831M123.508 167.945h-5.803"/><path fill="#59B8AA" stroke="#000" stroke-miterlimit="10" stroke-width=".325" d="M318.742 114.274c2.411 0 4.366-1.964 4.366-4.387s-1.955-4.387-4.366-4.387c-2.412 0-4.367 1.964-4.367 4.387s1.955 4.387 4.367 4.387Z"/><path fill="#000" d="M316.298 110.098c-.606-.869-.87-1.973-.779-3.036a4.28 4.28 0 0 0-1.144 2.918c0 2.371 1.915 4.295 4.275 4.295a4.26 4.26 0 0 0 3.741-2.228c-2.162.588-4.865-.184-6.093-1.949"/><path fill="#fff" d="M320.565 109.498c.927 0 1.679-.755 1.679-1.687 0-.931-.752-1.686-1.679-1.686s-1.678.755-1.678 1.686c0 .932.751 1.687 1.678 1.687"/><path fill="#F3B443" stroke="#000" stroke-miterlimit="10" stroke-width=".325" d="M80.773 91.687a3.44 3.44 0 0 0 3.433-3.449 3.44 3.44 0 0 0-3.433-3.449 3.44 3.44 0 0 0-3.433 3.45 3.44 3.44 0 0 0 3.433 3.448Z"/><path fill="#000" d="M78.852 88.402c-.476-.683-.684-1.55-.612-2.386a3.36 3.36 0 0 0-.9 2.294 3.37 3.37 0 0 0 3.361 3.377 3.35 3.35 0 0 0 2.941-1.752c-1.7.462-3.825-.145-4.79-1.533"/><path fill="#fff" d="M82.206 87.933c.73 0 1.32-.594 1.32-1.326s-.59-1.326-1.32-1.326c-.728 0-1.32.594-1.32 1.326s.592 1.326 1.32 1.326"/><path fill="#F3B443" stroke="#000" stroke-miterlimit="10" stroke-width=".325" d="M202.314 194.398a2.167 2.167 0 0 0 2.162-2.172 2.167 2.167 0 0 0-2.162-2.171 2.167 2.167 0 0 0-2.162 2.171c0 1.2.968 2.172 2.162 2.172Z"/><path fill="#000" d="M201.104 192.331c-.3-.43-.43-.977-.385-1.503a2.12 2.12 0 0 0-.567 1.445c0 1.173.948 2.126 2.117 2.126.799 0 1.493-.447 1.852-1.103-1.071.291-2.409-.091-3.017-.965"/><path fill="#fff" d="M203.216 192.033a.833.833 0 0 0 .831-.835.833.833 0 0 0-.831-.835.833.833 0 0 0-.831.835c0 .461.372.835.831.835"/><path fill="#F3B443" stroke="#000" stroke-miterlimit="10" stroke-width=".325" d="m310.51 71.378 3.054 3.076s4.883.455 10.918-6.607 4.969-11.428 4.969-11.428l-2.866-3.278s-14.73 8.426-16.075 18.24z"/><path fill="#FFDB7F" stroke="#000" stroke-miterlimit="10" stroke-width=".325" d="M322.007 65.196c4.356-5.07 6.407-10.465 4.581-12.05-1.827-1.583-6.839 1.243-11.196 6.314s-6.407 10.465-4.581 12.049c1.827 1.584 6.839-1.243 11.196-6.313Z"/><path fill="#FFDB7F" stroke="#000" stroke-miterlimit="10" stroke-width=".325" d="M320.735 63.833c3.448-4.013 5.249-8.128 4.024-9.19-1.226-1.064-5.015 1.328-8.463 5.34-3.448 4.014-5.249 8.129-4.024 9.192 1.226 1.063 5.015-1.328 8.463-5.342Z"/><path fill="#000" d="m326.98 64.497-2.505-2.578s3.227-5.17 2.718-8.08l2.256 2.581s.592 3.214-2.472 8.076z" opacity=".49"/><path fill="#F3B443" stroke="#000" stroke-miterlimit="10" stroke-width=".325" d="m95.08 169.628-4.285 4.315s-6.85.637-15.314-9.269c-8.466-9.905-6.97-16.032-6.97-16.032l4.02-4.599s20.66 11.819 22.55 25.585Z"/><path fill="#FFDB7F" stroke="#000" stroke-miterlimit="10" stroke-width=".325" d="M94.658 169.795c2.561-2.221-.316-9.787-6.426-16.899s-13.14-11.076-15.702-8.855.316 9.787 6.426 16.899c6.11 7.111 13.14 11.076 15.702 8.855Z"/><path fill="#FFDB7F" stroke="#000" stroke-miterlimit="10" stroke-width=".325" d="M92.61 166.524c1.72-1.492-.806-7.265-5.643-12.894s-10.151-8.983-11.872-7.491c-1.72 1.491.806 7.264 5.643 12.893s10.152 8.984 11.872 7.492Z"/><path fill="#000" d="m71.976 159.971 3.512-3.618s-4.526-7.248-3.812-11.333l-3.166 3.62s-.832 4.509 3.466 11.328z" opacity=".49"/><path fill="#F3B443" stroke="#000" stroke-miterlimit="10" stroke-width=".325" d="M129.984 73.583c-.376.28-3.71 2.71-4.113 2.932-6.044 3.334-14.851.364-20.339-7.116-5.426-7.393-5.704-16.596-.918-21.456.379-.385 3.731-2.922 4.171-3.248 6.026-4.464 12.711.566 18.565 8.544s8.659 15.881 2.634 20.344Z"/><path fill="#000" d="M108.79 44.613c-.441.327-3.795 2.864-4.171 3.248-3.663 3.721-4.356 9.987-2.046 16.038a47 47 0 0 1 2.544-2.365 33 33 0 0 1 4.584-3.853c-.204-4.05 1.475-9.68-.911-13.068" opacity=".49"/><path fill="#FFDB7F" stroke="#000" stroke-miterlimit="10" stroke-width=".325" d="M129.984 73.579c6.025-4.463 6.163-14.548.309-22.526s-15.485-10.827-21.51-6.364-6.164 14.548-.31 22.525c5.855 7.978 15.485 10.827 21.511 6.365Z"/><path fill="#FFDB7F" stroke="#000" stroke-miterlimit="10" stroke-width=".325" d="M129.084 71.688c5.411-4.008 5.535-13.064.277-20.229-5.257-7.164-13.906-9.723-19.316-5.715-5.411 4.007-5.535 13.064-.277 20.228 5.257 7.165 13.906 9.724 19.316 5.716Z"/><g fill="#fff" opacity=".29"><path d="m134.641 64.766-30.267-12.423v-.002c.419-3.33 2.335-5.607 2.335-5.607l27.049 11.197c.883 1.515.883 6.835.883 6.835M133.95 67.612 104.371 55.75s.066-.091-.053-.128c0 .206-.026.416 0 .62.072.569.197 1.079.206 1.654 0 .039.02.171.014.206.052.12.029.282.089.414l28.294 11.474c.411-.517.926-1.861 1.029-2.378"/></g><path fill="#fff" stroke="#000" stroke-miterlimit="10" stroke-width=".325" d="M100.529 121.545s9.895-1.221 9.895 11.262c0 0 0-11.497 10.45-11.296 0 0-8.991.38-10.45-11.699 0 0 .278 11.498-9.895 11.731zM271.002 102.311s4.947-.609 4.947 5.632c0 0 0-5.748 5.225-5.649 0 0-4.495.189-5.225-5.849 0 0 .138 5.748-4.947 5.866ZM276.002 36.274s11.144-1.37 11.144 12.644c0 0 0-12.907 11.769-12.68 0 0-10.124.426-11.769-13.132 0 0 .313 12.907-11.144 13.168Z"/></g><defs><clipPath id="a"><path fill="#fff" d="M0 0h390v216H0z"/></clipPath></defs></svg>