<svg fill="none" viewBox="0 0 199 96"><g clip-path="url(#a)"><path fill="#fcfdfd" d="M110.46 45.32H88.52a1.2 1.2 0 0 0-1.22 1.2v3.63c0 .67.54 1.2 1.22 1.2h21.94a1.2 1.2 0 0 0 1.22-1.2v-3.62c0-.67-.55-1.21-1.22-1.21m6.11-15.09H82.42a1.2 1.2 0 0 0-1.22 1.2v6.65c0 .67.55 1.2 1.22 1.2h3.66a1.2 1.2 0 0 0 1.22-1.2v-1.81h24.38v1.8c0 .68.54 1.21 1.22 1.21h3.66a1.2 1.2 0 0 0 1.22-1.2v-6.65c0-.67-.55-1.2-1.22-1.2m.02 27.17h-3.66a1.2 1.2 0 0 0-1.22 1.2v1.82H87.3V58.6a1.2 1.2 0 0 0-1.21-1.21h-3.66a1.2 1.2 0 0 0-1.22 1.2v6.65c0 .67.54 1.2 1.22 1.2h34.14a1.2 1.2 0 0 0 1.22-1.2V58.6c0-.67-.54-1.21-1.22-1.21"/><path fill="url(#b)" d="M7.32 11.14c-.68 0-1.22-.54-1.22-1.21V6.3c0-.67.54-1.2 1.22-1.2h21.94c.68 0 1.22.53 1.22 1.2v3.63c0 .67-.54 1.2-1.22 1.2zM35.36-10H1.22A1.2 1.2 0 0 0 0-8.8v6.65c0 .67.54 1.2 1.22 1.2h3.66a1.2 1.2 0 0 0 1.22-1.2v-1.81h24.38v1.81c0 .67.54 1.2 1.22 1.2h3.66a1.2 1.2 0 0 0 1.22-1.2v-6.64c0-.67-.55-1.21-1.22-1.21m0 27.17h-3.65c-.68 0-1.22.54-1.22 1.21v1.81H6.09v-1.8c0-.68-.54-1.22-1.21-1.22H1.22c-.68 0-1.22.54-1.22 1.21v6.65c0 .67.54 1.2 1.22 1.2h34.14a1.2 1.2 0 0 0 1.22-1.2v-6.65c0-.67-.54-1.2-1.22-1.2m34.5-6.03c.68 0 1.23-.54 1.23-1.21V6.3c0-.67-.55-1.2-1.22-1.2H47.92a1.2 1.2 0 0 0-1.22 1.2v3.63c0 .67.55 1.2 1.22 1.2zM75.97-10H41.82a1.2 1.2 0 0 0-1.22 1.2v6.65c0 .67.54 1.2 1.22 1.2h3.66a1.2 1.2 0 0 0 1.22-1.2v-1.81h24.38v1.81c0 .67.54 1.2 1.22 1.2h3.66a1.2 1.2 0 0 0 1.22-1.2v-6.64c0-.67-.55-1.21-1.22-1.21m0 27.17h-3.65c-.68 0-1.22.54-1.22 1.21v1.81H46.7v-1.8c0-.68-.54-1.22-1.22-1.22h-3.65c-.68 0-1.22.54-1.22 1.21v6.65c0 .67.54 1.2 1.22 1.2h34.14a1.2 1.2 0 0 0 1.22-1.2v-6.65c0-.67-.54-1.2-1.22-1.2m34.52-6.03c.67 0 1.22-.54 1.22-1.21V6.3c0-.67-.55-1.2-1.22-1.2H88.53a1.2 1.2 0 0 0-1.22 1.2v3.63c0 .67.55 1.2 1.22 1.2zm6.1-21.14H82.42a1.2 1.2 0 0 0-1.22 1.2v6.65c0 .67.54 1.2 1.22 1.2h3.65a1.2 1.2 0 0 0 1.22-1.2v-1.81h24.39v1.81c0 .67.54 1.2 1.22 1.2h3.65a1.2 1.2 0 0 0 1.22-1.2v-6.64c0-.67-.54-1.21-1.22-1.21zm0 27.17h-3.66c-.68 0-1.22.54-1.22 1.21v1.81H87.3v-1.8c0-.68-.54-1.22-1.22-1.22h-3.65c-.68 0-1.22.54-1.22 1.21v6.65c0 .67.54 1.2 1.22 1.2h34.14a1.2 1.2 0 0 0 1.22-1.2v-6.65c0-.67-.54-1.2-1.22-1.2m34.5-6.03c.67 0 1.22-.54 1.22-1.21V6.3c0-.67-.55-1.2-1.22-1.2h-21.95a1.2 1.2 0 0 0-1.22 1.2v3.63c0 .67.55 1.2 1.22 1.2zm6.1-21.14h-34.15a1.2 1.2 0 0 0-1.22 1.2v6.65c0 .67.54 1.2 1.22 1.2h3.66a1.2 1.2 0 0 0 1.21-1.2v-1.81h24.39v1.81c0 .67.54 1.2 1.22 1.2h3.65a1.2 1.2 0 0 0 1.22-1.2v-6.64c0-.67-.54-1.21-1.22-1.21zm0 27.17h-3.67a1.2 1.2 0 0 0-1.21 1.21v1.81H127.9v-1.8c0-.68-.54-1.22-1.22-1.22h-3.65a1.2 1.2 0 0 0-1.22 1.21v6.65c0 .67.54 1.2 1.22 1.2h34.14a1.2 1.2 0 0 0 1.22-1.2V18.4c0-.67-.54-1.2-1.22-1.2m34.5-6.03c.68 0 1.22-.54 1.22-1.21V6.3c0-.67-.54-1.2-1.22-1.2h-21.94a1.2 1.2 0 0 0-1.22 1.2v3.63c0 .67.54 1.2 1.22 1.2zm6.1-21.14h-34.14a1.2 1.2 0 0 0-1.22 1.2v6.65c0 .67.54 1.2 1.22 1.2h3.65a1.2 1.2 0 0 0 1.22-1.2v-1.81h24.39v1.81c0 .67.54 1.2 1.22 1.2h3.65a1.2 1.2 0 0 0 1.22-1.2v-6.64c0-.67-.54-1.21-1.22-1.21zm0 27.17h-3.66c-.67 0-1.22.54-1.22 1.21v1.81h-24.38v-1.8c0-.68-.54-1.22-1.22-1.22h-3.66a1.2 1.2 0 0 0-1.21 1.21v6.65c0 .67.54 1.2 1.21 1.2h34.15a1.2 1.2 0 0 0 1.22-1.2v-6.65c0-.67-.54-1.2-1.22-1.2M29.27 51.37c.67 0 1.22-.54 1.22-1.21v-3.63c0-.67-.55-1.2-1.22-1.2H7.32a1.2 1.2 0 0 0-1.22 1.2v3.63c0 .67.54 1.2 1.22 1.2zm6.1-21.14H1.21a1.2 1.2 0 0 0-1.22 1.2v6.65c0 .67.54 1.2 1.22 1.2h3.66a1.2 1.2 0 0 0 1.22-1.2v-1.81h24.38v1.8c0 .68.54 1.22 1.22 1.22h3.66c.67 0 1.22-.54 1.22-1.21v-6.64c0-.67-.55-1.21-1.22-1.21m0 27.17H31.7c-.68 0-1.22.54-1.22 1.21v1.81H6.09v-1.8c0-.68-.54-1.22-1.21-1.22H1.22c-.68 0-1.22.54-1.22 1.21v6.64c0 .67.54 1.21 1.22 1.21h34.14a1.2 1.2 0 0 0 1.22-1.2V58.6c0-.67-.54-1.2-1.22-1.2m34.5-6.04a1.2 1.2 0 0 0 1.22-1.2v-3.63c0-.67-.55-1.2-1.22-1.2H47.92a1.2 1.2 0 0 0-1.22 1.2v3.63c0 .67.55 1.2 1.22 1.2zm6.1-21.13H41.81a1.2 1.2 0 0 0-1.22 1.2v6.65c0 .67.54 1.2 1.22 1.2h3.66a1.2 1.2 0 0 0 1.22-1.2v-1.81h24.38v1.8c0 .68.54 1.22 1.22 1.22h3.66c.67 0 1.22-.54 1.22-1.21v-6.64c0-.67-.55-1.21-1.22-1.21m0 27.17H72.3c-.68 0-1.22.54-1.22 1.21v1.81H46.7v-1.8c0-.68-.54-1.22-1.22-1.22h-3.65c-.68 0-1.22.54-1.22 1.21v6.64c0 .67.54 1.21 1.22 1.21h34.14a1.2 1.2 0 0 0 1.22-1.2V58.6c0-.67-.54-1.2-1.22-1.2m75.1-6.04c.68 0 1.23-.53 1.23-1.2v-3.63c0-.67-.55-1.2-1.22-1.2h-21.95a1.2 1.2 0 0 0-1.22 1.2v3.63c0 .67.55 1.2 1.22 1.2zm6.1-21.13h-34.14a1.2 1.2 0 0 0-1.22 1.2v6.65c0 .67.54 1.2 1.22 1.2h3.66a1.2 1.2 0 0 0 1.21-1.2v-1.81h24.39v1.8c0 .68.54 1.22 1.22 1.22h3.65a1.2 1.2 0 0 0 1.22-1.21v-6.64c0-.67-.54-1.21-1.22-1.21zm0 27.17h-3.66a1.2 1.2 0 0 0-1.21 1.21v1.81h-24.4v-1.8c0-.68-.54-1.22-1.22-1.22h-3.65a1.2 1.2 0 0 0-1.22 1.21v6.64c0 .67.54 1.21 1.22 1.21h34.14a1.2 1.2 0 0 0 1.22-1.2V58.6c0-.67-.54-1.2-1.22-1.2m34.52-6.04a1.2 1.2 0 0 0 1.21-1.2v-3.63c0-.67-.54-1.2-1.22-1.2h-21.94a1.2 1.2 0 0 0-1.22 1.2v3.63c0 .67.54 1.2 1.22 1.2zm6.1-21.13h-34.15a1.2 1.2 0 0 0-1.22 1.2v6.65c0 .67.54 1.2 1.22 1.2h3.65a1.2 1.2 0 0 0 1.22-1.2v-1.81h24.39v1.8c0 .68.54 1.22 1.22 1.22h3.65c.68 0 1.22-.54 1.22-1.21v-6.64c0-.67-.54-1.21-1.22-1.21zm0 27.17h-3.67c-.67 0-1.22.54-1.22 1.21v1.81h-24.38v-1.8c0-.68-.54-1.22-1.22-1.22h-3.66a1.2 1.2 0 0 0-1.21 1.21v6.64c0 .67.54 1.21 1.21 1.21h34.15a1.2 1.2 0 0 0 1.22-1.2V58.6c0-.67-.54-1.2-1.22-1.2M29.26 91.6c.67 0 1.22-.54 1.22-1.21v-3.63c0-.67-.55-1.2-1.22-1.2H7.32a1.2 1.2 0 0 0-1.22 1.2v3.63c0 .67.54 1.2 1.22 1.2zm6.1-21.14H1.21a1.2 1.2 0 0 0-1.22 1.2v6.65c0 .67.54 1.2 1.22 1.2h3.66a1.2 1.2 0 0 0 1.22-1.2V76.5h24.38v1.81c0 .67.54 1.2 1.22 1.2h3.66a1.2 1.2 0 0 0 1.22-1.2v-6.64c0-.67-.55-1.21-1.22-1.21m0 27.18H31.7c-.68 0-1.22.54-1.22 1.21v1.81H6.09v-1.81c0-.67-.54-1.2-1.21-1.2H1.22A1.2 1.2 0 0 0 0 98.85v6.64c0 .67.54 1.21 1.22 1.21h34.14a1.2 1.2 0 0 0 1.22-1.2v-6.65c0-.67-.54-1.2-1.22-1.2m34.5-6.04c.67 0 1.22-.54 1.22-1.21v-3.63c0-.67-.55-1.2-1.22-1.2H47.92a1.2 1.2 0 0 0-1.22 1.2v3.63c0 .67.55 1.2 1.22 1.2zm6.1-21.14H41.81a1.2 1.2 0 0 0-1.22 1.2v6.65c0 .67.54 1.2 1.22 1.2h3.66a1.2 1.2 0 0 0 1.22-1.2v-1.81h24.38v1.81c0 .67.54 1.2 1.22 1.2h3.66a1.2 1.2 0 0 0 1.22-1.2v-6.64c0-.67-.55-1.21-1.22-1.21m0 27.18H72.3c-.68 0-1.22.54-1.22 1.21v1.81H46.7v-1.81c0-.67-.54-1.2-1.22-1.2h-3.65a1.2 1.2 0 0 0-1.22 1.2v6.64c0 .67.54 1.21 1.22 1.21h34.14a1.2 1.2 0 0 0 1.22-1.2v-6.65c0-.67-.54-1.2-1.22-1.2m34.5-6.04c.68 0 1.23-.54 1.23-1.21v-3.63c0-.67-.55-1.2-1.22-1.2H88.53a1.2 1.2 0 0 0-1.22 1.2v3.63c0 .67.55 1.2 1.22 1.2zm6.1-21.14H82.43a1.2 1.2 0 0 0-1.22 1.2v6.65c0 .67.54 1.2 1.22 1.2h3.65a1.2 1.2 0 0 0 1.22-1.2v-1.81h24.39v1.81c0 .67.54 1.2 1.22 1.2h3.65a1.2 1.2 0 0 0 1.22-1.2v-6.64c0-.67-.54-1.21-1.22-1.21zm0 27.18h-3.65c-.68 0-1.22.54-1.22 1.21v1.81H87.3v-1.81c0-.67-.54-1.2-1.22-1.2h-3.65a1.2 1.2 0 0 0-1.22 1.2v6.64c0 .67.54 1.21 1.22 1.21h34.14a1.2 1.2 0 0 0 1.22-1.2v-6.65c0-.67-.54-1.2-1.22-1.2m34.5-6.04c.68 0 1.23-.54 1.23-1.21v-3.63c0-.67-.55-1.2-1.22-1.2h-21.95a1.2 1.2 0 0 0-1.22 1.2v3.63c0 .67.55 1.2 1.22 1.2zm6.1-21.14h-34.14a1.2 1.2 0 0 0-1.22 1.2v6.65c0 .67.54 1.2 1.22 1.2h3.66a1.2 1.2 0 0 0 1.21-1.2v-1.81h24.39v1.81c0 .67.54 1.2 1.22 1.2h3.65a1.2 1.2 0 0 0 1.22-1.2V71.7c0-.67-.54-1.21-1.22-1.21zm0 27.18h-3.66a1.2 1.2 0 0 0-1.21 1.21v1.81h-24.4v-1.81c0-.67-.54-1.2-1.22-1.2h-3.65a1.2 1.2 0 0 0-1.22 1.2v6.64c0 .67.54 1.21 1.22 1.21h34.14a1.2 1.2 0 0 0 1.22-1.2v-6.65c0-.67-.54-1.2-1.22-1.2m34.52-6.04a1.2 1.2 0 0 0 1.21-1.21V86.8c0-.67-.54-1.2-1.22-1.2h-21.94a1.2 1.2 0 0 0-1.22 1.2v3.63c0 .67.54 1.2 1.22 1.2zm6.1-21.14h-34.15a1.2 1.2 0 0 0-1.22 1.2v6.65c0 .67.54 1.2 1.22 1.2h3.65a1.2 1.2 0 0 0 1.22-1.2v-1.81h24.39v1.81c0 .67.54 1.2 1.22 1.2h3.65a1.2 1.2 0 0 0 1.22-1.2v-6.64c0-.67-.54-1.21-1.22-1.21zm0 27.18h-3.67c-.67 0-1.22.54-1.22 1.21v1.81h-24.38v-1.81c0-.67-.54-1.2-1.22-1.2h-3.66a1.2 1.2 0 0 0-1.21 1.2v6.64c0 .67.54 1.21 1.21 1.21h34.15a1.2 1.2 0 0 0 1.22-1.2v-6.65c0-.67-.54-1.2-1.22-1.2"/></g><defs><radialGradient id="b" cx="0" cy="0" r="1" gradientTransform="matrix(109.658 0 0 74.9569 99.5 48.36)" gradientUnits="userSpaceOnUse"><stop stop-color="#fcfdfd"/><stop offset=".03" stop-color="#e9eaea" stop-opacity=".96"/><stop offset=".13" stop-color="#b6b6b7" stop-opacity=".85"/><stop offset=".22" stop-color="#8b8b8c" stop-opacity=".76"/><stop offset=".31" stop-color="#6a6a6b" stop-opacity=".69"/><stop offset=".39" stop-color="#525253" stop-opacity=".64"/><stop offset=".46" stop-color="#444445" stop-opacity=".61"/><stop offset=".52" stop-color="#3f3f40" stop-opacity=".6"/><stop offset=".85" stop-color="#1a181a"/></radialGradient><clipPath id="a"><path fill="#fff" d="M0 0h199v96H0z"/></clipPath></defs></svg>