<svg xmlns="http://www.w3.org/2000/svg" fill="none" viewBox="0 0 230 160">
  <path fill="#1a211e" d="M0 0h230v160H0z"/>
  <g clip-path="url(#a)">
    <path fill="#fcfdfd" d="M127.68 76.48H102.3c-.77 0-1.4.63-1.4 1.4v4.23c0 .78.62 1.4 1.4 1.4h25.37c.77 0 1.4-.62 1.4-1.4V77.9c0-.78-.62-1.4-1.4-1.4m7.05-17.6H95.27a1.4 1.4 0 0 0-1.41 1.4v7.74c0 .79.63 1.41 1.4 1.41h4.23a1.4 1.4 0 0 0 1.41-1.4v-2.12h28.19v2.11c0 .79.62 1.41 1.4 1.41h4.23a1.4 1.4 0 0 0 1.41-1.4V60.3c0-.78-.63-1.4-1.4-1.4zm0 31.67h-4.23c-.78 0-1.4.62-1.4 1.4v2.12H100.9v-2.12c0-.78-.62-1.4-1.4-1.4h-4.23a1.4 1.4 0 0 0-1.41 1.4v7.75c0 .78.63 1.4 1.4 1.4h39.47a1.4 1.4 0 0 0 1.41-1.4v-7.75c0-.78-.63-1.4-1.4-1.4z"/>
    <path fill="url(#b)" d="M8.46 36.63a1.4 1.4 0 0 1-1.42-1.4V31c0-.78.63-1.4 1.41-1.4h25.37c.78 0 1.4.62 1.4 1.4v4.23c0 .78-.62 1.4-1.4 1.4zM40.86 12H1.41A1.4 1.4 0 0 0 0 13.4v7.75c0 .78.63 1.4 1.41 1.4h4.23a1.4 1.4 0 0 0 1.4-1.4v-2.11h28.19v2.11c0 .78.63 1.4 1.4 1.4h4.23a1.4 1.4 0 0 0 1.41-1.4v-7.74a1.4 1.4 0 0 0-1.4-1.41zm0 31.67h-4.22a1.4 1.4 0 0 0-1.41 1.4v2.12H7.04v-2.11c0-.78-.62-1.4-1.4-1.4H1.4c-.78 0-1.4.62-1.4 1.4v7.74c0 .78.62 1.4 1.4 1.4h39.46a1.4 1.4 0 0 0 1.41-1.4v-7.74c0-.78-.62-1.4-1.4-1.4m39.87-7.04a1.4 1.4 0 0 0 1.41-1.41V31c0-.78-.62-1.4-1.4-1.4H55.38a1.4 1.4 0 0 0-1.41 1.4v4.23c0 .78.63 1.4 1.41 1.4zM87.8 12H48.33a1.4 1.4 0 0 0-1.4 1.4v7.75c0 .78.62 1.4 1.4 1.4h4.23a1.4 1.4 0 0 0 1.41-1.4v-2.11h28.18v2.11c0 .78.63 1.4 1.41 1.4h4.23a1.4 1.4 0 0 0 1.4-1.4v-7.74a1.4 1.4 0 0 0-1.4-1.41zm0 31.67h-4.23a1.4 1.4 0 0 0-1.41 1.4v2.12H53.98v-2.11c0-.78-.63-1.4-1.41-1.4h-4.23c-.78 0-1.4.62-1.4 1.4v7.74c0 .78.62 1.4 1.4 1.4h39.47c.78 0 1.4-.62 1.4-1.4v-7.74c0-.78-.62-1.4-1.4-1.4zm39.89-7.04c.78 0 1.4-.62 1.4-1.4V31c0-.78-.62-1.4-1.4-1.4h-25.37c-.78 0-1.4.62-1.4 1.4v4.23c0 .78.62 1.4 1.4 1.4zM134.73 12H95.27a1.4 1.4 0 0 0-1.41 1.4v7.75c0 .78.63 1.4 1.4 1.4h4.23a1.4 1.4 0 0 0 1.41-1.4v-2.11h28.19v2.11c0 .78.62 1.4 1.4 1.4h4.23a1.4 1.4 0 0 0 1.41-1.4v-7.74a1.4 1.4 0 0 0-1.4-1.41m0 31.67h-4.22a1.4 1.4 0 0 0-1.41 1.4v2.12h-28.2v-2.11c0-.78-.62-1.4-1.4-1.4h-4.23a1.4 1.4 0 0 0-1.41 1.4v7.74c0 .78.63 1.4 1.4 1.4h39.47a1.4 1.4 0 0 0 1.41-1.4v-7.74c0-.78-.63-1.4-1.4-1.4zm39.88-7.04a1.4 1.4 0 0 0 1.41-1.4V31c0-.78-.63-1.4-1.4-1.4h-25.37a1.4 1.4 0 0 0-1.41 1.4v4.23c0 .78.63 1.4 1.4 1.4zM181.66 12h-39.47a1.4 1.4 0 0 0-1.4 1.4v7.75c0 .78.62 1.4 1.4 1.4h4.23c.78 0 1.4-.62 1.4-1.4v-2.11h28.2v2.11c0 .78.62 1.4 1.4 1.4h4.23c.78 0 1.4-.62 1.4-1.4v-7.74a1.4 1.4 0 0 0-1.4-1.41zm0 31.67h-4.23a1.4 1.4 0 0 0-1.41 1.4v2.12h-28.18v-2.11c0-.78-.63-1.4-1.41-1.4h-4.23c-.78 0-1.4.62-1.4 1.4v7.74c0 .78.62 1.4 1.4 1.4h39.47c.78 0 1.4-.62 1.4-1.4v-7.74c0-.78-.62-1.4-1.4-1.4zm39.89-7.04a1.4 1.4 0 0 0 1.4-1.4V31c0-.78-.62-1.4-1.4-1.4h-25.37c-.78 0-1.4.62-1.4 1.4v4.23c0 .78.62 1.4 1.4 1.4zM228.59 12h-39.46a1.4 1.4 0 0 0-1.41 1.4v7.75c0 .78.63 1.4 1.4 1.4h4.23a1.4 1.4 0 0 0 1.41-1.4v-2.11h28.19v2.11c0 .78.62 1.4 1.4 1.4h4.23a1.4 1.4 0 0 0 1.41-1.4v-7.74a1.4 1.4 0 0 0-1.4-1.41m0 31.67h-4.23c-.78 0-1.4.63-1.4 1.4v2.12h-28.19v-2.11c0-.78-.62-1.4-1.4-1.4h-4.23a1.4 1.4 0 0 0-1.41 1.4v7.74c0 .78.63 1.4 1.4 1.4h39.47a1.4 1.4 0 0 0 1.41-1.4v-7.74c0-.78-.63-1.4-1.4-1.4zM33.83 83.52c.78 0 1.4-.63 1.4-1.4v-4.23c0-.78-.62-1.4-1.4-1.4H8.46a1.4 1.4 0 0 0-1.41 1.4v4.22c0 .78.62 1.41 1.4 1.41zm7.04-24.63H1.41c-.78 0-1.4.62-1.4 1.4v7.75c0 .78.62 1.4 1.4 1.4h4.23a1.4 1.4 0 0 0 1.4-1.4v-2.12h28.19v2.12c0 .78.63 1.4 1.4 1.4h4.23a1.4 1.4 0 0 0 1.41-1.4v-7.75c0-.78-.62-1.4-1.4-1.4m0 31.67h-4.22a1.4 1.4 0 0 0-1.41 1.4v2.12H7.04v-2.11a1.4 1.4 0 0 0-1.4-1.41H1.4c-.78 0-1.4.62-1.4 1.4v7.75c0 .78.62 1.4 1.4 1.4h39.46a1.4 1.4 0 0 0 1.41-1.4v-7.74a1.4 1.4 0 0 0-1.4-1.41m39.87-7.04a1.4 1.4 0 0 0 1.41-1.4v-4.23c0-.78-.62-1.4-1.4-1.4H55.38a1.4 1.4 0 0 0-1.41 1.4v4.22c0 .78.63 1.41 1.41 1.41zm7.05-24.63H48.33a1.4 1.4 0 0 0-1.4 1.4v7.75c0 .78.62 1.4 1.4 1.4h4.23a1.4 1.4 0 0 0 1.41-1.4v-2.12h28.18v2.12c0 .78.63 1.4 1.41 1.4h4.23a1.4 1.4 0 0 0 1.4-1.4v-7.75c0-.78-.62-1.4-1.4-1.4m0 31.67h-4.23a1.4 1.4 0 0 0-1.41 1.4v2.12H53.98v-2.11a1.4 1.4 0 0 0-1.41-1.41h-4.23c-.78 0-1.4.62-1.4 1.4v7.75c0 .78.62 1.4 1.4 1.4h39.47c.78 0 1.4-.62 1.4-1.4v-7.74a1.4 1.4 0 0 0-1.4-1.41zm86.81-7.04a1.4 1.4 0 0 0 1.41-1.4v-4.23c0-.78-.63-1.4-1.4-1.4h-25.37a1.4 1.4 0 0 0-1.41 1.4v4.22c0 .78.63 1.41 1.4 1.41zm7.05-24.63h-39.47a1.4 1.4 0 0 0-1.4 1.4v7.75c0 .78.62 1.4 1.4 1.4h4.23a1.4 1.4 0 0 0 1.41-1.4v-2.12H176v2.12c0 .78.63 1.4 1.41 1.4h4.23c.78 0 1.4-.62 1.4-1.4v-7.75c0-.78-.62-1.4-1.4-1.4zm0 31.67h-4.23c-.78 0-1.4.62-1.4 1.4v2.12h-28.19v-2.11a1.4 1.4 0 0 0-1.41-1.41h-4.23c-.78 0-1.4.62-1.4 1.4v7.75c0 .78.62 1.4 1.4 1.4h39.47c.78 0 1.4-.62 1.4-1.4v-7.74a1.4 1.4 0 0 0-1.4-1.41zm39.89-7.04a1.4 1.4 0 0 0 1.4-1.4v-4.23c0-.78-.62-1.4-1.4-1.4h-25.37c-.78 0-1.4.62-1.4 1.4v4.22c0 .78.62 1.41 1.4 1.41zm7.04-24.63h-39.46a1.4 1.4 0 0 0-1.41 1.4v7.75c0 .78.63 1.4 1.4 1.4h4.24c.78 0 1.4-.62 1.4-1.4v-2.12h28.19v2.12c0 .78.62 1.4 1.4 1.4h4.23a1.4 1.4 0 0 0 1.41-1.4v-7.75c0-.78-.63-1.4-1.4-1.4m0 31.67h-4.22a1.4 1.4 0 0 0-1.41 1.4v2.12h-28.19v-2.11a1.4 1.4 0 0 0-1.4-1.41h-4.23a1.4 1.4 0 0 0-1.41 1.4v7.75c0 .78.63 1.4 1.4 1.4h39.47a1.4 1.4 0 0 0 1.41-1.4v-7.74a1.4 1.4 0 0 0-1.4-1.41zM33.83 130.4c.78 0 1.4-.63 1.4-1.41v-4.23c0-.78-.62-1.4-1.4-1.4H8.46a1.4 1.4 0 0 0-1.41 1.4V129c0 .78.62 1.4 1.4 1.4zm7.04-24.63H1.41c-.78 0-1.4.63-1.4 1.4v7.75c0 .78.62 1.4 1.4 1.4h4.23a1.4 1.4 0 0 0 1.4-1.4v-2.11h28.19v2.11c0 .78.63 1.4 1.4 1.4h4.23a1.4 1.4 0 0 0 1.41-1.4v-7.74c0-.78-.62-1.4-1.4-1.4zm0 31.68h-4.22a1.4 1.4 0 0 0-1.41 1.41v2.11H7.04v-2.11c0-.78-.62-1.4-1.4-1.4H1.4c-.78 0-1.4.62-1.4 1.4v7.74c0 .77.62 1.4 1.4 1.4h39.46a1.4 1.4 0 0 0 1.41-1.4v-7.75c0-.78-.63-1.4-1.4-1.4m39.87-7.05a1.4 1.4 0 0 0 1.41-1.41v-4.23c0-.78-.63-1.4-1.4-1.4H55.38a1.4 1.4 0 0 0-1.41 1.4V129c0 .78.63 1.4 1.41 1.4zm7.05-24.64H48.33a1.4 1.4 0 0 0-1.4 1.4v7.75c0 .78.62 1.4 1.4 1.4h4.23a1.4 1.4 0 0 0 1.41-1.4v-2.11h28.18v2.11c0 .78.63 1.4 1.41 1.4h4.23a1.4 1.4 0 0 0 1.4-1.4v-7.74c0-.78-.62-1.4-1.4-1.4zm0 31.68h-4.23a1.4 1.4 0 0 0-1.41 1.41v2.11H53.98v-2.11c0-.78-.63-1.4-1.41-1.4h-4.23c-.78 0-1.4.62-1.4 1.4v7.74c0 .78.62 1.41 1.4 1.41h39.47c.78 0 1.4-.63 1.4-1.4v-7.75c0-.78-.62-1.4-1.4-1.4zm39.89-7.04c.78 0 1.4-.63 1.4-1.41v-4.23c0-.78-.62-1.4-1.4-1.4h-25.37c-.78 0-1.4.62-1.4 1.4V129c0 .78.62 1.4 1.4 1.4zm7.04-24.64H95.27a1.4 1.4 0 0 0-1.41 1.4v7.75c0 .78.63 1.4 1.4 1.4h4.23a1.4 1.4 0 0 0 1.41-1.4v-2.11h28.19v2.11c0 .78.62 1.4 1.4 1.4h4.23a1.4 1.4 0 0 0 1.41-1.4v-7.74c0-.78-.63-1.4-1.4-1.4zm0 31.68h-4.22a1.4 1.4 0 0 0-1.41 1.41v2.11H100.9v-2.11c0-.78-.62-1.4-1.4-1.4h-4.23a1.4 1.4 0 0 0-1.41 1.4v7.74c0 .78.63 1.41 1.4 1.41h39.47a1.4 1.4 0 0 0 1.41-1.4v-7.75c0-.78-.63-1.4-1.4-1.4zm39.88-7.04a1.4 1.4 0 0 0 1.41-1.41v-4.23c0-.78-.63-1.4-1.4-1.4h-25.37a1.4 1.4 0 0 0-1.41 1.4V129c0 .78.63 1.4 1.4 1.4zm7.05-24.64h-39.47a1.4 1.4 0 0 0-1.4 1.4v7.75c0 .78.62 1.4 1.4 1.4h4.23c.78 0 1.4-.62 1.4-1.4v-2.11h28.2v2.11c0 .78.62 1.4 1.4 1.4h4.23c.78 0 1.4-.62 1.4-1.4v-7.74c0-.78-.62-1.4-1.4-1.4zm0 31.68h-4.23a1.4 1.4 0 0 0-1.41 1.41v2.11h-28.18v-2.11c0-.78-.63-1.4-1.41-1.4h-4.23c-.78 0-1.4.62-1.4 1.4v7.74c0 .78.62 1.41 1.4 1.41h39.47c.78 0 1.4-.63 1.4-1.4v-7.75c0-.78-.62-1.4-1.4-1.4zm39.88-7.04a1.4 1.4 0 0 0 1.41-1.41v-4.23c0-.78-.62-1.4-1.4-1.4h-25.37c-.78 0-1.4.62-1.4 1.4V129c0 .78.62 1.4 1.4 1.4zm7.05-24.64h-39.46a1.4 1.4 0 0 0-1.41 1.4v7.75c0 .78.62 1.4 1.4 1.4h4.23a1.4 1.4 0 0 0 1.41-1.4v-2.11h28.18v2.11c0 .78.63 1.4 1.41 1.4h4.23a1.4 1.4 0 0 0 1.41-1.4v-7.74c0-.78-.63-1.4-1.4-1.4zm0 31.68h-4.23c-.78 0-1.4.63-1.4 1.41v2.11h-28.19v-2.11c0-.78-.63-1.4-1.4-1.4h-4.23a1.4 1.4 0 0 0-1.41 1.4v7.74c0 .78.63 1.41 1.4 1.41h39.47a1.4 1.4 0 0 0 1.41-1.4v-7.75c0-.78-.63-1.4-1.4-1.4z"/>
  </g>
  <g clip-path="url(#c)">
    <path fill="#1a211e" stroke="#1a211e" stroke-miterlimit="10" stroke-width="2" d="M211.63 48.42a2.6 2.6 0 0 0-1.11-1.21 3.6 3.6 0 0 0-3.43.08l-.16.13a1 1 0 0 0-.56-.51q-.14-.05-.38-.08a3 3 0 0 0-1.37.19 1 1 0 0 0-.42-.09h-.72a1 1 0 0 0-.7.29 1 1 0 0 0-.7-.29h-4.14q-.25 0-.5.12-.21-.11-.45-.12h-.47v-.12c0-.29-.13-.57-.35-.76a1 1 0 0 0-.8-.23l-.76.11a1 1 0 0 0-.86.99v.16q-.3.08-.52.31a3 3 0 0 0-2-.58q-.62 0-1.18.17a4 4 0 0 0-.95.44 1 1 0 0 0-.34.45q-.15-.23-.35-.41a2.7 2.7 0 0 0-1.9-.66q-.48 0-.98.17l-.24.09a1 1 0 0 0-.51-.14h-.72q-.14.01-.26.05a1 1 0 0 0-.45-.12h-.27l-.56.05q-.29.05-.54.15l-.22-.09a3.4 3.4 0 0 0-2.53.17q-.4.23-.71.57-.02-.12-.07-.23.2-.34.2-.73c0-.4-.15-.78-.46-1.05-.56-.5-1.48-.5-2.03.02q-.14.14-.23.29-.07-.1-.17-.2a3 3 0 0 0-.9-.45 4.4 4.4 0 0 0-2.92.06q-.75.3-1.21.92a2.6 2.6 0 0 0-.48 1.58q0 .72.26 1.25.27.53.75.88.4.28.89.46c.09.02-.11.36-.33.16a1.06 1.06 0 0 0-1.38.08 1 1 0 0 0-.27.74l.04.84q.04.49.42.76.5.36 1.24.56.7.2 1.39.19 1.47 0 2.36-.7l.22-.21c.1.45.48.79.96.79h.68l.02.32a1 1 0 0 0 .5.81q.5.27 1.24.4.68.13 1.42.13 1.55 0 2.39-.48.75-.45 1-1.18h4.13a1 1 0 0 0 .85-.5 2.4 2.4 0 0 0 1.73.62q.64 0 1.15-.22.2.1.43.1h.72a1 1 0 0 0 .99-.93q.2.34.42.52.65.53 1.64.53a3 3 0 0 0 1.37-.29 1 1 0 0 0 .34-.3q.7.58 1.79.58.48 0 .98-.16l.25-.09q.23.14.5.14h.72q.43-.01.7-.29a1 1 0 0 0 .7.29h4.5q.45.12.96.12.85 0 1.46-.22.63-.22.97-.52.3-.27.35-.66l.07-.69q.03-.37-.2-.68a1 1 0 0 0 .29-.52q.03-.14.04-.35v-.26q0-.85-.3-1.53zm-28.57 2.71v.06l-.03-.02z"/>
    <path fill="#1a211e" stroke="#1a211e" stroke-miterlimit="10" stroke-width="4" d="M207.74 19.17a1 1 0 0 0-.98-.8h-4.48l-.25.02-.08-.02h-10.23a14 14 0 0 0-6.43 0h-39.07a1 1 0 0 0-.98.79l-.12.59a1 1 0 0 0 .77 1.18 21 21 0 0 1 4.9 1.62c.45.24.55.32.77 1.15l4.18 16.18a1 1 0 0 0 .97.75h23.32c1.05.19 2.2.3 3.3.32q1.68 0 3.13-.32H211a1 1 0 0 0 .98-1.2l-4.23-20.27z"/>
    <path fill="url(#d)" d="M178.15 38.54c1.16.43 3.08.83 5.18.85 5.18 0 8.54-2.5 8.56-6.37 0-2.86-2.36-4.1-4.45-5.2-1.57-.82-2.92-1.53-2.9-2.85.03-.88.75-1.99 2.73-2.25.63-.08 2.54-.21 4.83.68l.67-3.13c-1.02-.34-2.45-.7-4.24-.7-4.86 0-8.26 2.52-8.3 6.14-.02 2.6 2.43 4.1 4.28 5 1.98.96 3.05 1.73 3.04 3.03-.02 1.72-1.87 2.52-3.7 2.55h-.21c-2.2 0-3.67-.54-4.78-1.04zm28.46.53h3.69l-4-19.14h-4.01c-.76 0-1.41.44-1.71 1.14l-7.54 18h4.25l1.09-3.03h7.59zm-37.25 0h4.08l4.09-19.14h-4.08zm-12.22 0h4.73l8.02-19.13h-4.27l-6.04 15.27L157 21.54c-.2-.97-.92-1.6-1.86-1.6h-6.84c1.17.34 2.36.77 3.23 1.24.97.53 1.26 1.09 1.53 2.14zm48.2-6.04h-5.85l3.72-10.25z"/>
    <path fill="url(#e)" d="M178.86 35.25c1.1.5 2.59 1.04 4.78 1.04h.2c1.84-.03 3.69-.83 3.7-2.55.02-1.3-1.05-2.07-3.03-3.03-1.85-.9-4.3-2.4-4.27-5 .03-3.61 3.44-6.14 8.29-6.14 1.79 0 3.23.36 4.24.7l.66-.37a14 14 0 0 0-4.9-.9c-5.18 0-8.83 2.76-8.86 6.7-.03 2.92 2.6 4.55 4.59 5.52 2.04.99 2.73 1.63 2.72 2.52-.01 1.36-1.63 1.96-3.14 1.99-2.64.04-4.17-.71-5.4-1.28l.42.81z"/>
    <path fill="url(#f)" d="m178.15 38.54.7-3.29-.41-.81-.95 4.44zm-18.38-5.37 5.46-13.8.39.57-6.04 15.27zm-2.63 5.9-4.07-15.75c-.27-1.05-.55-1.61-1.53-2.14-.87-.47-2.06-.9-3.23-1.24l-2.1-.57-.11.59a22 22 0 0 1 5.17 1.72c.77.42.99.78 1.25 1.78l4.18 16.18zm11.5.57L173 19.37l.46.57-4.1 19.14-.7.57zm38.13-20.27h-4.48c-1 0-1.86.59-2.23 1.49l-7.87 18.79.86-.57 7.54-18c.29-.7.95-1.14 1.7-1.14h4.03zm-1.42 13.66-2.14-10.25-.15 2.08 1.59 7.61zm1.26 6.04-.63-3.03-.46.57.63 3.03z"/>
    <path fill="url(#g)" d="m203.2 22.77-3.71 10.25.8-.57 2.77-7.61.15-2.08zm-9.77-2.87-.92 4.3-.41-.79.67-3.13.66-.37zM211 39.64l-4.23-20.27-.46.57 3.99 19.14zm-37.56-.57 4.09-19.14.7-.57-4.34 20.27-.46-.57zm-2.7-19.7-8.5 20.27-.38-.57 8.03-19.13zm26.95 20.27 1.09-3.03-.4-.57-1.1 3.03z"/>
    <path fill="url(#h)" d="M205.98 36.05h-7.6l.4.57h6.74zm-8.3 3.59h-5.5l.87-.57h4.25l.4.57zm13.32 0h-4.85l.46-.57h3.69zm-54.3 0h5.55l-.38-.57h-4.73zm12.66-.57h4.08l.46.57h-5.24z"/>
    <path fill="url(#i)" d="M148.3 19.94h6.85c.94 0 1.67.63 1.86 1.6l2.57 13.67.19-2.04-2.21-11.73a2.45 2.45 0 0 0-2.42-2.07h-8.92zm29.2 18.94a16 16 0 0 0 5.83 1.08c5.5 0 9.1-2.72 9.13-6.94.02-5.35-7.4-5.64-7.35-8.03 0-.73.7-1.5 2.22-1.7a10 10 0 0 1 5.17.91l-.41-.79a10 10 0 0 0-4.83-.68c-1.98.26-2.7 1.37-2.72 2.25-.03 1.31 1.33 2.02 2.89 2.85 2.09 1.1 4.47 2.34 4.45 5.2-.02 3.87-3.38 6.37-8.56 6.37-2.1-.02-4.02-.42-5.18-.85l-.65.34z"/>
    <path fill="url(#j)" d="M204.65 32.46h-4.35l-.81.57h5.86zm-33.91-13.09h-5.51l.39.57h4.27zm6.79.57h-4.08l-.46-.57h5.24z"/>
    <path fill="#aeafb2" d="M171.26 47.93q0-.6.29-.99c.29-.39.45-.45.78-.59q.49-.2 1.07-.2.7 0 1.13.15t.63.31l.06.82h-.03q-.2-.17-.5-.31c-.3-.14-.4-.17-.64-.23q-.35-.09-.7-.09-.57 0-.96.21-.38.21-.38.74 0 .4.19.63.18.22.53.36.34.13.8.27.44.12.8.25.38.12.68.32.28.2.45.51t.17.82q0 .95-.62 1.43-.63.5-1.75.49a4 4 0 0 1-2.06-.57l-.04-.84h.03q.41.35.99.55c.58.2.76.2 1.15.2q1.5 0 1.5-1.09 0-.4-.17-.62a1 1 0 0 0-.53-.38q-.36-.14-.87-.29a8 8 0 0 1-.77-.24q-.36-.14-.65-.33c-.3-.19-.33-.3-.44-.51s-.16-.48-.16-.8zm5.46-1.17q0-.18.13-.31c.13-.13.2-.12.34-.12s.25.04.34.12.14.19.14.31-.05.24-.14.32-.2.12-.34.12-.25-.04-.34-.12a.4.4 0 0 1-.13-.32m.85 1.18v4.8h-.76v-4.8zm4.33 4.05q.74 0 1 .27c.27.27.29.44.29.79q0 .64-.62 1c-.62.36-1.04.35-1.9.35q-.64 0-1.24-.11t-.93-.3l-.04-.68q.27.2.83.38.57.18 1.38.18.98 0 1.39-.18.42-.18.42-.55 0-.27-.14-.36-.15-.1-.53-.1h-1.96q-.52 0-.82-.2t-.31-.65q0-.33.24-.56c.24-.23.38-.24.65-.28v-.02a1.6 1.6 0 0 1-.6-.59 2 2 0 0 1-.2-.85q0-.48.23-.87c.23-.39.37-.46.65-.61s.6-.23 1-.23q.4 0 .73.11t.57.32h.03q.08-.13.26-.22c.18-.09.26-.1.4-.12q.21-.04.39-.04h.27l-.07.66-1.1-.09v.02q.39.43.39 1.06 0 .5-.23.88c-.23.38-.37.46-.65.61s-.61.22-1 .22q-.23 0-.44-.02l-.28-.02q-.3 0-.5.1c-.2.1-.18.17-.18.31s.05.25.16.3q.16.08.4.08h2.04zm-1.2-3.62q-.56 0-.86.3-.31.3-.31.86c0 .56.1.68.3.87q.32.3.87.29c.55-.01.65-.1.86-.29q.3-.3.3-.87c0-.57-.1-.66-.3-.86s-.5-.3-.86-.3m5.83-.55q.78 0 1.22.4c.44.4.44.68.44 1.25v3.27h-.75v-3.06q-.01-.6-.26-.91-.27-.3-.94-.3-.4 0-.73.16c-.33.16-.4.26-.52.46s-.2.43-.2.7v2.94h-.75v-4.8h.72v1.02h.04a1.6 1.6 0 0 1 1.03-1.03q.34-.11.68-.11zM189.6 49l.08-.74q.27-.18.68-.31c.4-.13.57-.13.89-.13q.93 0 1.38.36.45.37.45 1.21v3.35h-.72v-.92h-.03q-.19.54-.58.79c-.4.25-.6.25-.98.25q-.4 0-.73-.15t-.54-.45q-.2-.3-.2-.77c0-.47.07-.56.2-.75s.3-.34.55-.44.52-.18.85-.24q.6-.1.95-.19.36-.09.5-.23v-.22q0-.53-.23-.76-.24-.24-.9-.24-.42 0-.84.14-.4.15-.74.43h-.02zm2.73 2.12v-.99q-.14.12-.48.21t-.85.18q-.44.07-.7.25c-.26.18-.27.35-.27.66q0 .43.25.64t.69.21a1.4 1.4 0 0 0 1.2-.63q.15-.27.16-.54zm3.19.32q0 .46.2.62c.2.16.3.16.5.16q.3 0 .5-.05c.2-.05.27-.07.36-.12h.03l-.07.64q-.14.07-.38.12c-.24.05-.34.05-.52.05q-.63 0-1-.3-.36-.3-.36-.99v-3h-.88l.1-.5.78-.11v-1.03l.76-.11v1.12H197l-.1.63h-1.37zm4.36.76q.39 0 .72-.16c.33-.16.39-.26.52-.46s.2-.43.2-.7v-2.95h.76v4.8h-.72v-1.01h-.03q-.15.4-.42.66-.28.25-.61.36c-.33.11-.45.11-.67.11q-.78 0-1.23-.41t-.45-1.26v-3.25h.76v3.08q0 .62.25.9c.25.28.48.28.93.28zm5.55-3.6q-.56 0-.88.35c-.32.35-.31.59-.31 1.07v2.72h-.76v-4.8h.72v1h.04q.15-.63.55-.87c.4-.24.54-.25.85-.25l.23.01q.12 0 .17.03l-.1.82h-.02l-.2-.06q-.14-.03-.3-.03zm3.57 3.64q.64 0 1.05-.16c.4-.16.5-.25.73-.42h.02l-.07.69q-.21.18-.66.34c-.45.16-.67.16-1.12.16q-.74 0-1.28-.32-.55-.33-.85-.89c-.3-.56-.31-.81-.31-1.3s.1-.92.3-1.3.48-.68.82-.9.74-.33 1.18-.33q.75 0 1.23.27.47.27.69.75c.22.48.22.69.22 1.12v.2q0 .12-.03.21h-3.63v.04q.01.86.48 1.35.45.5 1.25.49zm-.2-3.85q-.63 0-1.02.39c-.4.39-.42.62-.48 1.09h2.9v-.08q0-.42-.13-.73a1 1 0 0 0-.43-.48q-.3-.17-.84-.17z"/>
  </g>
  <defs>
    <linearGradient id="d" x1="178.75" x2="178.75" y1="18.8" y2="38.73" gradientUnits="userSpaceOnUse">
      <stop stop-color="#6e6f71"/>
      <stop offset=".12" stop-color="#9d9e9f"/>
      <stop offset=".23" stop-color="#c3c4c4"/>
      <stop offset=".34" stop-color="#dededf"/>
      <stop offset=".43" stop-color="#efefef"/>
      <stop offset=".5" stop-color="#f5f5f5"/>
      <stop offset=".6" stop-color="#f1f1f1"/>
      <stop offset=".68" stop-color="#e7e7e8"/>
      <stop offset=".76" stop-color="#d6d7d7"/>
      <stop offset=".83" stop-color="#bfbfc0"/>
      <stop offset=".9" stop-color="#a0a0a2"/>
      <stop offset=".96" stop-color="#7b7b7e"/>
      <stop offset="1" stop-color="#636467"/>
    </linearGradient>
    <linearGradient id="e" x1="177.26" x2="192.2" y1="28.55" y2="28.55" gradientUnits="userSpaceOnUse">
      <stop stop-color="#f2f2f2"/>
      <stop offset=".5" stop-color="#bbbdbf"/>
      <stop offset="1" stop-color="#dbdddd"/>
    </linearGradient>
    <linearGradient id="f" x1="176.93" x2="176.93" y1="20.05" y2="40.27" gradientUnits="userSpaceOnUse">
      <stop stop-color="#f2f2f2"/>
      <stop offset=".5" stop-color="#929497"/>
      <stop offset="1" stop-color="#dbdddd"/>
    </linearGradient>
    <linearGradient id="g" x1="186.34" x2="186.34" y1="39.47" y2="19.25" gradientUnits="userSpaceOnUse">
      <stop stop-color="#636467"/>
      <stop offset=".03" stop-color="#717275"/>
      <stop offset=".11" stop-color="#909193"/>
      <stop offset=".19" stop-color="#a7a8ab"/>
      <stop offset=".28" stop-color="#b8b9bb"/>
      <stop offset=".38" stop-color="#c2c3c5"/>
      <stop offset=".5" stop-color="#c6c7c9"/>
      <stop offset=".62" stop-color="#c2c3c5"/>
      <stop offset=".72" stop-color="#b8b9bb"/>
      <stop offset=".81" stop-color="#a7a8ab"/>
      <stop offset=".89" stop-color="#909193"/>
      <stop offset=".97" stop-color="#717275"/>
      <stop offset="1" stop-color="#636467"/>
    </linearGradient>
    <linearGradient id="h" x1="155.63" x2="209.79" y1="38.53" y2="38.53" gradientUnits="userSpaceOnUse">
      <stop stop-color="#f2f2f2"/>
      <stop offset=".5" stop-color="#e6e7e7"/>
      <stop offset="1" stop-color="#dbdddd"/>
    </linearGradient>
    <linearGradient id="i" x1="169.66" x2="169.66" y1="19.93" y2="40.47" gradientUnits="userSpaceOnUse">
      <stop stop-color="#929497"/>
      <stop offset=".13" stop-color="#95979a"/>
      <stop offset=".23" stop-color="#9fa1a3"/>
      <stop offset=".33" stop-color="#b0b1b3"/>
      <stop offset=".42" stop-color="#c7c9ca"/>
      <stop offset=".5" stop-color="#e6e7e7"/>
      <stop offset="1" stop-color="#929497"/>
    </linearGradient>
    <linearGradient id="j" x1="163.74" x2="204.08" y1="27.3" y2="27.3" gradientUnits="userSpaceOnUse">
      <stop stop-color="#f2f2f2"/>
      <stop offset=".5" stop-color="#e6e7e7"/>
      <stop offset="1" stop-color="#dbdddd"/>
    </linearGradient>
    <clipPath id="a">
      <path fill="#fff" d="M0 12h230v136H0z"/>
    </clipPath>
    <clipPath id="c">
      <path fill="#fff" d="M143.1 16H214v40.4h-70.9z"/>
    </clipPath>
    <radialGradient id="b" cx="0" cy="0" r="1" gradientTransform="matrix(127 0 0 87 115 80.02)" gradientUnits="userSpaceOnUse">
      <stop stop-color="#fcfdfd"/>
      <stop offset=".03" stop-color="#e9eaea" stop-opacity=".96"/>
      <stop offset=".13" stop-color="#b6b6b7" stop-opacity=".85"/>
      <stop offset=".22" stop-color="#8b8b8c" stop-opacity=".76"/>
      <stop offset=".31" stop-color="#6a6a6b" stop-opacity=".69"/>
      <stop offset=".39" stop-color="#525253" stop-opacity=".64"/>
      <stop offset=".46" stop-color="#444445" stop-opacity=".61"/>
      <stop offset=".52" stop-color="#3f3f40" stop-opacity=".6"/>
      <stop offset=".85" stop-color="#1a211e"/>
    </radialGradient>
  </defs>
</svg>
