<svg xmlns="http://www.w3.org/2000/svg" fill="none" viewBox="0 0 230 160"><g clip-path="url(#a)"><path fill="#00f" d="M0 0h230v160H0z"/><g clip-path="url(#b)"><path fill="#fcfdfd" d="M127.679 76.477h-25.364c-.778 0-1.409.63-1.409 1.407v4.223c0 .778.631 1.408 1.409 1.408h25.364c.778 0 1.409-.63 1.409-1.408v-4.223c0-.777-.631-1.407-1.409-1.407M134.733 58.883H95.269c-.782 0-1.41.627-1.41 1.407v7.742c0 .781.628 1.408 1.41 1.408h4.227c.781 0 1.409-.627 1.409-1.408v-2.111h28.182v2.111c0 .781.627 1.408 1.409 1.408h4.227c.782 0 1.409-.627 1.409-1.408V60.29c0-.78-.627-1.407-1.409-1.407zM134.733 90.555h-4.228c-.781 0-1.409.626-1.409 1.407v2.112h-28.181v-2.112c0-.78-.628-1.407-1.41-1.407h-4.227c-.782 0-1.409.626-1.409 1.407v7.742c0 .781.627 1.408 1.41 1.408h39.463c.782 0 1.409-.627 1.409-1.408v-7.742c0-.78-.627-1.407-1.409-1.407z"/><path fill="url(#c)" d="M8.455 36.634c-.782 0-1.41-.627-1.41-1.408v-4.223c0-.781.628-1.408 1.41-1.408h25.363c.782 0 1.41.627 1.41 1.408v4.223c0 .78-.628 1.407-1.41 1.407zM40.873 12H1.41C.627 12 0 12.627 0 13.408v7.742c0 .78.627 1.407 1.41 1.407h4.226c.782 0 1.41-.626 1.41-1.407v-2.112h28.181v2.112c0 .78.628 1.407 1.41 1.407h4.227c.781 0 1.409-.626 1.409-1.407v-7.742c0-.781-.628-1.408-1.41-1.408zm0 31.672h-4.227c-.782 0-1.41.626-1.41 1.407v2.112H7.047v-2.112c0-.78-.628-1.407-1.41-1.407H1.41c-.782 0-1.409.626-1.409 1.407v7.742c0 .781.627 1.408 1.41 1.408h39.463c.782 0 1.41-.627 1.41-1.408V45.08c0-.78-.628-1.407-1.41-1.407m39.88-7.038c.781 0 1.409-.627 1.409-1.408v-4.223c0-.781-.628-1.408-1.41-1.408H55.39c-.782 0-1.41.627-1.41 1.408v4.223c0 .78.628 1.407 1.41 1.407zM87.797 12H48.334c-.782 0-1.41.627-1.41 1.408v7.742c0 .78.628 1.407 1.41 1.407h4.227c.782 0 1.409-.626 1.409-1.407v-2.112h28.182v2.112c0 .78.627 1.407 1.409 1.407h4.227c.782 0 1.41-.626 1.41-1.407v-7.742c0-.781-.628-1.408-1.41-1.408zm0 31.672H83.57c-.782 0-1.41.626-1.41 1.407v2.112H53.98v-2.112c0-.78-.628-1.407-1.41-1.407h-4.227c-.781 0-1.409.626-1.409 1.407v7.742c0 .781.628 1.408 1.41 1.408h39.464c.781 0 1.409-.627 1.409-1.408V45.08c0-.78-.628-1.407-1.41-1.407zm39.889-7.038c.781 0 1.409-.627 1.409-1.408v-4.223c0-.781-.628-1.408-1.409-1.408h-25.364c-.782 0-1.409.627-1.409 1.408v4.223c0 .78.627 1.407 1.409 1.407zM134.732 12H95.268c-.782 0-1.41.627-1.41 1.408v7.742c0 .78.628 1.407 1.41 1.407h4.227c.782 0 1.409-.626 1.409-1.407v-2.112h28.182v2.112c0 .78.627 1.407 1.409 1.407h4.227c.782 0 1.41-.626 1.41-1.407v-7.742c0-.781-.628-1.408-1.41-1.408zm0 31.672h-4.227c-.782 0-1.409.626-1.409 1.407v2.112h-28.182v-2.112c0-.78-.627-1.407-1.41-1.407h-4.226c-.782 0-1.41.626-1.41 1.407v7.742c0 .781.628 1.408 1.41 1.408h39.464c.781 0 1.409-.627 1.409-1.408V45.08c0-.78-.628-1.407-1.409-1.407zm39.879-7.038c.782 0 1.409-.627 1.409-1.408v-4.223c0-.781-.627-1.408-1.409-1.408h-25.363c-.782 0-1.409.627-1.409 1.408v4.223c0 .78.627 1.407 1.409 1.407zM181.657 12h-39.464c-.782 0-1.41.627-1.41 1.408v7.742c0 .78.628 1.407 1.41 1.407h4.227c.782 0 1.409-.626 1.409-1.407v-2.112h28.182v2.112c0 .78.627 1.407 1.409 1.407h4.227c.782 0 1.409-.626 1.409-1.407v-7.742c0-.781-.627-1.408-1.409-1.408zm0 31.672h-4.228c-.781 0-1.409.626-1.409 1.407v2.112h-28.181v-2.112c0-.78-.628-1.407-1.41-1.407h-4.227c-.782 0-1.409.626-1.409 1.407v7.742c0 .781.627 1.408 1.409 1.408h39.464c.782 0 1.409-.627 1.409-1.408V45.08c0-.78-.627-1.407-1.409-1.407zm39.888-7.038c.782 0 1.41-.627 1.41-1.408v-4.223c0-.781-.628-1.408-1.41-1.408h-25.363c-.782 0-1.409.627-1.409 1.408v4.223c0 .78.627 1.407 1.409 1.407zM228.591 12h-39.464c-.782 0-1.409.627-1.409 1.408v7.742c0 .78.627 1.407 1.409 1.407h4.227c.782 0 1.409-.626 1.409-1.407v-2.112h28.182v2.112c0 .78.627 1.407 1.409 1.407h4.227c.782 0 1.409-.626 1.409-1.407v-7.742c0-.781-.627-1.408-1.409-1.408zm0 31.672h-4.227c-.782 0-1.409.626-1.409 1.407v2.112h-28.182v-2.112c0-.78-.628-1.407-1.409-1.407h-4.228c-.781 0-1.409.626-1.409 1.407v7.742c0 .781.628 1.408 1.409 1.408h39.465c.781 0 1.409-.627 1.409-1.408V45.08c0-.78-.628-1.407-1.409-1.407zM33.828 83.519c.781 0 1.409-.627 1.409-1.408V77.89c0-.781-.628-1.408-1.41-1.408H8.456c-.782 0-1.41.627-1.41 1.408v4.222c0 .781.628 1.408 1.41 1.408h25.373m7.045-24.633H1.41c-.782 0-1.409.626-1.409 1.407v7.742c0 .781.627 1.408 1.41 1.408h4.226c.782 0 1.41-.627 1.41-1.408v-2.111h28.181v2.111c0 .781.628 1.408 1.41 1.408h4.227c.781 0 1.409-.627 1.409-1.408v-7.742c0-.78-.628-1.407-1.41-1.407zm0 31.671h-4.227c-.782 0-1.41.627-1.41 1.408v2.111H7.047v-2.111c0-.781-.628-1.408-1.41-1.408H1.41c-.782 0-1.409.627-1.409 1.408v7.742c0 .781.627 1.407 1.41 1.407h39.463c.782 0 1.41-.626 1.41-1.407v-7.742c0-.781-.628-1.408-1.41-1.408m39.88-7.038c.781 0 1.409-.627 1.409-1.408V77.89c0-.781-.628-1.408-1.41-1.408H55.39c-.782 0-1.41.627-1.41 1.408v4.222c0 .781.628 1.408 1.41 1.408zm7.045-24.633H48.334c-.782 0-1.41.626-1.41 1.407v7.742c0 .781.628 1.408 1.41 1.408h4.227c.782 0 1.409-.627 1.409-1.408v-2.111h28.182v2.111c0 .781.627 1.408 1.409 1.408h4.227c.782 0 1.41-.627 1.41-1.408v-7.742c0-.78-.628-1.407-1.41-1.407zm0 31.671H83.57c-.782 0-1.41.627-1.41 1.408v2.111H53.98v-2.111c0-.781-.628-1.408-1.41-1.408h-4.227c-.781 0-1.409.627-1.409 1.408v7.742c0 .781.628 1.407 1.41 1.407h39.464c.781 0 1.409-.626 1.409-1.407v-7.742c0-.781-.628-1.408-1.41-1.408zm86.813-7.038c.782 0 1.409-.627 1.409-1.408V77.89c0-.781-.627-1.408-1.409-1.408h-25.363c-.782 0-1.409.627-1.409 1.408v4.222c0 .781.627 1.408 1.409 1.408zm7.046-24.633h-39.464c-.782 0-1.41.626-1.41 1.407v7.742c0 .781.628 1.408 1.41 1.408h4.227c.782 0 1.409-.627 1.409-1.408v-2.111h28.182v2.111c0 .781.627 1.408 1.409 1.408h4.227c.782 0 1.409-.627 1.409-1.408v-7.742c0-.78-.627-1.407-1.409-1.407zm0 31.671h-4.228c-.781 0-1.409.627-1.409 1.408v2.111h-28.181v-2.111c0-.781-.628-1.408-1.41-1.408h-4.227c-.782 0-1.409.627-1.409 1.408v7.742c0 .781.627 1.407 1.409 1.407h39.464c.782 0 1.409-.626 1.409-1.407v-7.742c0-.781-.627-1.408-1.409-1.408zm39.888-7.038c.782 0 1.41-.627 1.41-1.408V77.89c0-.781-.628-1.408-1.41-1.408h-25.363c-.782 0-1.409.627-1.409 1.408v4.222c0 .781.627 1.408 1.409 1.408zm7.046-24.633h-39.464c-.782 0-1.409.626-1.409 1.407v7.742c0 .781.627 1.408 1.409 1.408h4.227c.782 0 1.409-.627 1.409-1.408v-2.111h28.182v2.111c0 .781.627 1.408 1.409 1.408h4.227c.782 0 1.409-.627 1.409-1.408v-7.742c0-.78-.627-1.407-1.409-1.407zm0 31.671h-4.227c-.782 0-1.409.627-1.409 1.408v2.111h-28.182v-2.111c0-.781-.628-1.408-1.409-1.408h-4.228c-.781 0-1.409.627-1.409 1.408v7.742c0 .781.628 1.407 1.409 1.407h39.465c.781 0 1.409-.626 1.409-1.407v-7.742c0-.781-.628-1.408-1.409-1.408zM33.828 130.395c.781 0 1.409-.627 1.409-1.408v-4.223c0-.78-.628-1.407-1.41-1.407H8.456c-.782 0-1.41.627-1.41 1.407v4.223c0 .781.628 1.408 1.41 1.408h25.373m7.045-24.633H1.41c-.782 0-1.409.626-1.409 1.407v7.742c0 .781.627 1.408 1.41 1.408h4.226c.782 0 1.41-.627 1.41-1.408V112.8h28.181v2.111c0 .781.628 1.408 1.41 1.408h4.227c.781 0 1.409-.627 1.409-1.408v-7.742c0-.781-.628-1.407-1.41-1.407zm0 31.681h-4.227c-.782 0-1.41.626-1.41 1.407v2.112H7.047v-2.112c0-.781-.628-1.407-1.41-1.407H1.41c-.782 0-1.409.626-1.409 1.407v7.742C0 147.373.627 148 1.41 148h39.463c.782 0 1.41-.627 1.41-1.408v-7.742c0-.781-.628-1.407-1.41-1.407m39.88-7.048c.781 0 1.409-.627 1.409-1.408v-4.223c0-.78-.628-1.407-1.41-1.407H55.39c-.782 0-1.41.627-1.41 1.407v4.223c0 .781.628 1.408 1.41 1.408zm7.045-24.633H48.334c-.782 0-1.41.626-1.41 1.407v7.742c0 .781.628 1.408 1.41 1.408h4.227c.782 0 1.409-.627 1.409-1.408V112.8h28.182v2.111c0 .781.627 1.408 1.409 1.408h4.227c.782 0 1.41-.627 1.41-1.408v-7.742c0-.781-.628-1.407-1.41-1.407zm0 31.681H83.57c-.782 0-1.41.626-1.41 1.407v2.112H53.98v-2.112c0-.781-.628-1.407-1.41-1.407h-4.227c-.781 0-1.409.626-1.409 1.407v7.742c0 .781.628 1.408 1.41 1.408h39.464c.781 0 1.409-.627 1.409-1.408v-7.742c0-.781-.628-1.407-1.41-1.407zm39.889-7.048c.781 0 1.409-.627 1.409-1.408v-4.223c0-.78-.628-1.407-1.409-1.407h-25.364c-.782 0-1.409.627-1.409 1.407v4.223c0 .781.627 1.408 1.409 1.408zm7.045-24.633H95.268c-.782 0-1.41.626-1.41 1.407v7.742c0 .781.628 1.408 1.41 1.408h4.227c.782 0 1.409-.627 1.409-1.408V112.8h28.182v2.111c0 .781.627 1.408 1.409 1.408h4.227c.782 0 1.41-.627 1.41-1.408v-7.742c0-.781-.628-1.407-1.41-1.407zm0 31.681h-4.227c-.782 0-1.409.626-1.409 1.407v2.112h-28.182v-2.112c0-.781-.627-1.407-1.41-1.407h-4.226c-.782 0-1.41.626-1.41 1.407v7.742c0 .781.628 1.408 1.41 1.408h39.464c.781 0 1.409-.627 1.409-1.408v-7.742c0-.781-.628-1.407-1.409-1.407zm39.879-7.048c.782 0 1.409-.627 1.409-1.408v-4.223c0-.78-.627-1.407-1.409-1.407h-25.363c-.782 0-1.409.627-1.409 1.407v4.223c0 .781.627 1.408 1.409 1.408zm7.046-24.633h-39.464c-.782 0-1.41.626-1.41 1.407v7.742c0 .781.628 1.408 1.41 1.408h4.227c.782 0 1.409-.627 1.409-1.408V112.8h28.182v2.111c0 .781.627 1.408 1.409 1.408h4.227c.782 0 1.409-.627 1.409-1.408v-7.742c0-.781-.627-1.407-1.409-1.407zm0 31.681h-4.228c-.781 0-1.409.626-1.409 1.407v2.112h-28.181v-2.112c0-.781-.628-1.407-1.41-1.407h-4.227c-.782 0-1.409.626-1.409 1.407v7.742c0 .781.627 1.408 1.409 1.408h39.464c.782 0 1.409-.627 1.409-1.408v-7.742c0-.781-.627-1.407-1.409-1.407zm39.888-7.048c.782 0 1.41-.627 1.41-1.408v-4.223c0-.78-.628-1.407-1.41-1.407h-25.363c-.782 0-1.409.627-1.409 1.407v4.223c0 .781.627 1.408 1.409 1.408zm7.046-24.633h-39.464c-.782 0-1.409.626-1.409 1.407v7.742c0 .781.627 1.408 1.409 1.408h4.227c.782 0 1.409-.627 1.409-1.408V112.8h28.182v2.111c0 .781.627 1.408 1.409 1.408h4.227c.782 0 1.409-.627 1.409-1.408v-7.742c0-.781-.627-1.407-1.409-1.407zm0 31.681h-4.227c-.782 0-1.409.626-1.409 1.407v2.112h-28.182v-2.112c0-.781-.628-1.407-1.409-1.407h-4.228c-.781 0-1.409.626-1.409 1.407v7.742c0 .781.628 1.408 1.409 1.408h39.465c.781 0 1.409-.627 1.409-1.408v-7.742c0-.781-.628-1.407-1.409-1.407z"/></g><g fill="#fff" clip-path="url(#d)"><path d="m170.739 19.903-8.497 20.27h-5.545l-4.18-16.178c-.255-.996-.475-1.362-1.247-1.78-1.259-.685-3.341-1.326-5.172-1.724l.124-.59h8.923c1.138 0 2.16.756 2.418 2.066l2.208 11.73 5.457-13.795zm21.722 13.652c.021-5.35-7.4-5.646-7.348-8.035.015-.729.709-1.501 2.223-1.699.753-.098 2.822-.173 5.172.908l.92-4.3c-1.261-.46-2.887-.9-4.905-.9-5.183 0-8.831 2.757-8.862 6.702-.033 2.917 2.604 4.546 4.591 5.517 2.042.993 2.728 1.63 2.721 2.518-.015 1.36-1.631 1.96-3.138 1.984-2.637.044-4.168-.71-5.389-1.28l-.95 4.442c1.225.563 3.485 1.051 5.834 1.077 5.506 0 9.11-2.722 9.129-6.937m13.687 6.622h4.85l-4.23-20.271h-4.479a2.39 2.39 0 0 0-2.232 1.486l-7.867 18.785h5.504l1.095-3.027h6.727zm-5.849-7.183 2.761-7.613 1.587 7.613zm-22.065-13.088-4.336 20.27h-5.243l4.336-20.27zM171.256 47.394q0-.594.288-.986a1.76 1.76 0 0 1 .777-.585q.487-.196 1.075-.196.704 0 1.133.153.43.152.632.306l.06.822h-.025a2.2 2.2 0 0 0-.493-.308 3.5 3.5 0 0 0-.645-.226 3 3 0 0 0-.687-.085q-.587 0-.969.213t-.381.74q0 .406.187.632.187.224.53.356t.812.267q.424.12.802.247.38.126.667.322t.454.514q.165.318.165.818 0 .943-.624 1.432-.623.488-1.746.488-.56 0-1.128-.156a3 3 0 0 1-.927-.413l-.043-.84h.025q.425.349.991.548.564.198 1.15.199 1.513 0 1.512-1.087 0-.393-.178-.624a1.26 1.26 0 0 0-.53-.379 8 8 0 0 0-.87-.289 10 10 0 0 1-.773-.242 2.7 2.7 0 0 1-.645-.331 1.35 1.35 0 0 1-.437-.513q-.157-.314-.157-.798zM176.716 46.232q0-.186.132-.31a.47.47 0 0 1 .336-.124.5.5 0 0 1 .34.124q.135.123.135.31a.42.42 0 0 1-.135.32.5.5 0 0 1-.34.123.47.47 0 0 1-.336-.124.42.42 0 0 1-.132-.32m.849 1.172V52.2h-.756v-4.797zM181.896 51.453q.73 0 1.014.273.285.272.285.789 0 .645-.616.998-.615.353-1.898.353-.646 0-1.24-.11-.595-.11-.934-.297l-.043-.68h.009q.263.196.831.379.569.183 1.384.184.977 0 1.393-.184.417-.182.416-.548 0-.262-.144-.366-.145-.102-.527-.102h-1.962q-.52 0-.824-.204-.305-.204-.306-.653 0-.332.242-.557.243-.225.649-.276v-.016a1.56 1.56 0 0 1-.594-.596 1.7 1.7 0 0 1-.212-.85c0-.317.077-.61.23-.87q.23-.386.649-.611.421-.225.998-.226.399 0 .73.114.33.117.569.32h.025a.54.54 0 0 1 .265-.22q.186-.085.404-.123.216-.04.386-.039h.271l-.068.663-1.087-.085-.009.016q.39.434.391 1.062 0 .494-.229.879a1.6 1.6 0 0 1-.65.607q-.42.22-.998.22-.23.001-.438-.016a4 4 0 0 0-.284-.017q-.305-.001-.493.103a.33.33 0 0 0-.187.313c0 .141.053.247.157.297q.156.075.403.076h2.042m-1.197-3.616q-.554 0-.862.297-.31.297-.31.857c0 .373.104.676.31.87q.31.294.862.294c.368 0 .647-.098.858-.294q.313-.292.313-.87c0-.386-.105-.66-.313-.857q-.314-.298-.858-.297M186.533 47.284q.782-.001 1.223.4.442.4.442 1.247v3.27h-.747v-3.056q0-.604-.258-.906-.259-.3-.939-.301-.399 0-.726.161-.326.163-.518.46a1.27 1.27 0 0 0-.192.705v2.938h-.756v-4.797h.722v1.018h.042q.135-.407.413-.658.276-.25.619-.367a2.1 2.1 0 0 1 .675-.114M189.598 48.463l.085-.74q.27-.186.68-.313.406-.126.891-.126.925 0 1.376.366.45.365.45 1.205v3.346h-.722v-.918h-.034q-.187.535-.577.786-.392.25-.977.25-.399 0-.736-.15-.334-.148-.539-.45-.204-.301-.203-.769 0-.466.196-.75.194-.286.548-.437a3.7 3.7 0 0 1 .845-.238q.602-.101.955-.187.352-.083.505-.229v-.221q0-.526-.242-.765-.243-.236-.905-.237-.425 0-.836.144a2.3 2.3 0 0 0-.742.432h-.018zm2.735 2.124v-.994q-.136.12-.479.208-.344.088-.854.183a1.66 1.66 0 0 0-.701.255q-.269.188-.268.663c0 .29.084.501.251.641q.25.209.692.208c.294 0 .528-.06.731-.178q.304-.18.468-.447a1.04 1.04 0 0 0 .162-.54zM195.518 50.909q0 .46.196.616.195.158.509.157.287 0 .501-.05a1.6 1.6 0 0 0 .349-.12h.026l-.068.637a1.5 1.5 0 0 1-.382.119q-.255.05-.518.05-.638 0-1.002-.301-.366-.302-.366-.99V48.03h-.883l.102-.5.781-.112V46.39l.756-.11v1.121h1.469l-.092.63h-1.377v2.878zM199.883 51.665q.391 0 .717-.162a1.24 1.24 0 0 0 .719-1.155v-2.946h.756V52.2h-.724v-1.012h-.032a1.6 1.6 0 0 1-.418.66 1.66 1.66 0 0 1-.611.36q-.34.111-.672.11-.781 0-1.231-.406t-.449-1.258v-3.252h.755v3.083q0 .611.256.895.254.285.934.284zM205.43 48.065q-.562 0-.876.354-.315.352-.314 1.064v2.718h-.756v-4.798h.722v1.002h.043q.162-.628.553-.874.39-.247.849-.247.119 0 .233.012.115.014.166.031l-.093.823h-.027a1.6 1.6 0 0 0-.499-.085zM208.995 51.708q.647 0 1.05-.156.404-.157.726-.42h.017l-.067.687q-.213.179-.664.34-.45.163-1.121.162-.73 0-1.279-.322a2.24 2.24 0 0 1-.852-.893 2.7 2.7 0 0 1-.306-1.297q0-.73.301-1.3.302-.568.823-.895a2.17 2.17 0 0 1 1.176-.327q.755 0 1.227.267a1.6 1.6 0 0 1 .689.747q.217.48.217 1.117a3 3 0 0 1-.036.416h-3.626s0 .012.004.016q.003.009-.004.018.017.858.476 1.351.459.492 1.248.492zm-.185-3.848q-.638 0-1.029.39-.39.393-.476 1.088h2.896v-.085q0-.425-.126-.735a.98.98 0 0 0-.429-.484q-.302-.174-.836-.174"/></g></g><defs><clipPath id="a"><path fill="#fff" d="M0 0h230v160H0z"/></clipPath><clipPath id="b"><path fill="#fff" d="M0 12h230v136H0z"/></clipPath><clipPath id="d"><path fill="#fff" d="M146.098 19.531h64.9v34.335h-64.9z"/></clipPath><radialGradient id="c" cx="0" cy="0" r="1" gradientTransform="matrix(126.75 0 0 87.3652 115.004 80.016)" gradientUnits="userSpaceOnUse"><stop stop-color="#fbfdfc"/><stop offset=".433" stop-color="#7c7cff" stop-opacity=".96"/><stop offset=".803" stop-color="#00f"/></radialGradient></defs></svg>