<svg xmlns="http://www.w3.org/2000/svg" fill="none" viewBox="0 0 199 96"><g clip-path="url(#a)"><path fill="#fbfdfc" d="M88.525 44.87h21.948a1.22 1.22 0 0 1 1.218 1.22v3.659a1.22 1.22 0 0 1-1.218 1.22H88.525a1.22 1.22 0 0 1-1.22-1.22v-3.66c0-.672.547-1.219 1.22-1.219M116.57 29.621H82.428a1.22 1.22 0 0 0-1.219 1.22v6.709c0 .674.546 1.22 1.219 1.22h3.658a1.22 1.22 0 0 0 1.219-1.22v-1.83h24.387v1.83c0 .674.546 1.22 1.219 1.22h3.658a1.22 1.22 0 0 0 1.219-1.22v-6.71c0-.674-.546-1.219-1.219-1.219zM116.57 57.067h-3.658a1.22 1.22 0 0 0-1.219 1.22v1.83H87.306v-1.83c0-.675-.546-1.22-1.22-1.22H82.43a1.22 1.22 0 0 0-1.219 1.22v6.709c0 .674.546 1.22 1.219 1.22h34.142a1.22 1.22 0 0 0 1.219-1.22v-6.71c0-.674-.546-1.219-1.219-1.219z"/><path fill="url(#b)" d="M7.316 10.347a1.22 1.22 0 0 1-1.219-1.22V5.469c0-.674.546-1.22 1.219-1.22h21.948a1.22 1.22 0 0 1 1.219 1.22v3.66c0 .674-.546 1.22-1.219 1.22zM35.361-11H1.22A1.22 1.22 0 0 0 0-9.78v6.709c0 .674.546 1.219 1.219 1.219h3.658a1.22 1.22 0 0 0 1.219-1.22v-1.83h24.387v1.83c0 .675.546 1.22 1.219 1.22h3.658a1.22 1.22 0 0 0 1.219-1.22V-9.78c0-.674-.547-1.219-1.22-1.219zm0 27.447h-3.658a1.22 1.22 0 0 0-1.219 1.22v1.83H6.096v-1.83c0-.675-.546-1.22-1.22-1.22H1.22A1.22 1.22 0 0 0 0 17.667v6.708c0 .675.546 1.22 1.219 1.22H35.36a1.22 1.22 0 0 0 1.219-1.22v-6.709c0-.674-.546-1.22-1.219-1.22m34.508-6.1a1.22 1.22 0 0 0 1.219-1.22V5.469c0-.674-.547-1.22-1.22-1.22H47.922c-.674 0-1.22.547-1.22 1.22v3.66c0 .674.547 1.22 1.22 1.22zM75.966-11H41.824a1.22 1.22 0 0 0-1.22 1.22v6.709c0 .674.547 1.219 1.22 1.219h3.658a1.22 1.22 0 0 0 1.218-1.22v-1.83h24.388v1.83c0 .675.546 1.22 1.218 1.22h3.658a1.22 1.22 0 0 0 1.22-1.22V-9.78c0-.674-.547-1.219-1.22-1.219zm0 27.447h-3.658a1.22 1.22 0 0 0-1.22 1.22v1.83H46.703v-1.83c0-.675-.546-1.22-1.22-1.22h-3.657a1.22 1.22 0 0 0-1.219 1.22v6.708c0 .675.546 1.22 1.219 1.22h34.142a1.22 1.22 0 0 0 1.219-1.22v-6.709c0-.674-.546-1.22-1.219-1.22zm34.507-6.1a1.22 1.22 0 0 0 1.219-1.22V5.469c0-.674-.546-1.22-1.219-1.22H88.525c-.674 0-1.219.547-1.219 1.22v3.66c0 .674.547 1.22 1.22 1.22zM116.57-11H82.428a1.22 1.22 0 0 0-1.219 1.22v6.709c0 .674.546 1.219 1.22 1.219h3.657a1.22 1.22 0 0 0 1.22-1.22v-1.83h24.386v1.83c0 .675.546 1.22 1.219 1.22h3.658a1.22 1.22 0 0 0 1.219-1.22V-9.78c0-.674-.546-1.219-1.219-1.219zm0 27.447h-3.658a1.22 1.22 0 0 0-1.218 1.22v1.83H87.306v-1.83c0-.675-.546-1.22-1.218-1.22H82.43a1.22 1.22 0 0 0-1.22 1.22v6.708c0 .675.547 1.22 1.22 1.22h34.142a1.22 1.22 0 0 0 1.219-1.22v-6.709c0-.674-.546-1.22-1.219-1.22zm34.508-6.1a1.22 1.22 0 0 0 1.219-1.22V5.469c0-.674-.546-1.22-1.219-1.22H129.13c-.674 0-1.219.547-1.219 1.22v3.66c0 .674.546 1.22 1.219 1.22zM157.175-11h-34.142a1.22 1.22 0 0 0-1.219 1.22v6.709c0 .674.546 1.219 1.219 1.219h3.658a1.22 1.22 0 0 0 1.219-1.22v-1.83h24.387v1.83c0 .675.546 1.22 1.219 1.22h3.658a1.22 1.22 0 0 0 1.219-1.22V-9.78c0-.674-.546-1.219-1.219-1.219zm0 27.447h-3.658a1.22 1.22 0 0 0-1.219 1.22v1.83h-24.387v-1.83c0-.675-.546-1.22-1.219-1.22h-3.658a1.22 1.22 0 0 0-1.219 1.22v6.708c0 .675.546 1.22 1.219 1.22h34.142a1.22 1.22 0 0 0 1.219-1.22v-6.709c0-.674-.546-1.22-1.219-1.22zm34.508-6.1a1.22 1.22 0 0 0 1.219-1.22V5.469a1.22 1.22 0 0 0-1.219-1.22h-21.948c-.674 0-1.219.547-1.219 1.22v3.66c0 .674.546 1.22 1.219 1.22zM197.78-11h-34.142a1.22 1.22 0 0 0-1.219 1.22v6.709c0 .674.546 1.219 1.219 1.219h3.658a1.22 1.22 0 0 0 1.219-1.22v-1.83h24.387v1.83c0 .675.546 1.22 1.218 1.22h3.658a1.22 1.22 0 0 0 1.219-1.22V-9.78c0-.674-.546-1.219-1.219-1.219zm0 27.447h-3.658a1.22 1.22 0 0 0-1.219 1.22v1.83h-24.387v-1.83c0-.675-.546-1.22-1.219-1.22h-3.658a1.22 1.22 0 0 0-1.219 1.22v6.708c0 .675.546 1.22 1.219 1.22h34.142a1.22 1.22 0 0 0 1.219-1.22v-6.709c0-.674-.546-1.22-1.219-1.22zM29.264 50.969a1.22 1.22 0 0 0 1.219-1.219v-3.66c0-.674-.546-1.219-1.219-1.219H7.316c-.674 0-1.219.547-1.219 1.22v3.66c0 .673.546 1.218 1.219 1.218zm6.097-21.348H1.22A1.22 1.22 0 0 0 0 30.841v6.709c0 .674.546 1.219 1.219 1.219h3.658a1.22 1.22 0 0 0 1.219-1.22v-1.83h24.387v1.83c0 .675.546 1.22 1.219 1.22h3.658a1.22 1.22 0 0 0 1.219-1.22V30.84c0-.674-.547-1.219-1.22-1.219zm0 27.447h-3.658a1.22 1.22 0 0 0-1.219 1.22v1.83H6.096v-1.83c0-.675-.546-1.22-1.22-1.22H1.22A1.22 1.22 0 0 0 0 58.288v6.708c0 .675.546 1.22 1.219 1.22H35.36a1.22 1.22 0 0 0 1.219-1.22v-6.709c0-.674-.546-1.22-1.219-1.22m34.508-6.099a1.22 1.22 0 0 0 1.219-1.219v-3.66c0-.674-.547-1.219-1.22-1.219H47.922c-.674 0-1.22.547-1.22 1.22v3.66c0 .673.547 1.218 1.22 1.218zm6.097-21.348H41.824a1.22 1.22 0 0 0-1.22 1.22v6.709c0 .674.547 1.219 1.22 1.219h3.658a1.22 1.22 0 0 0 1.218-1.22v-1.83h24.388v1.83c0 .675.546 1.22 1.218 1.22h3.658a1.22 1.22 0 0 0 1.22-1.22V30.84c0-.674-.547-1.219-1.22-1.219zm0 27.447h-3.658a1.22 1.22 0 0 0-1.22 1.22v1.83H46.703v-1.83c0-.675-.546-1.22-1.22-1.22h-3.657a1.22 1.22 0 0 0-1.219 1.22v6.708c0 .675.546 1.22 1.219 1.22h34.142a1.22 1.22 0 0 0 1.219-1.22v-6.709c0-.674-.546-1.22-1.219-1.22zm75.112-6.099a1.22 1.22 0 0 0 1.219-1.219v-3.66c0-.674-.546-1.219-1.219-1.219H129.13c-.674 0-1.219.547-1.219 1.22v3.66c0 .673.546 1.218 1.219 1.218zm6.097-21.348h-34.142a1.22 1.22 0 0 0-1.219 1.22v6.709c0 .674.546 1.219 1.219 1.219h3.658a1.22 1.22 0 0 0 1.219-1.22v-1.83h24.387v1.83c0 .675.546 1.22 1.219 1.22h3.658a1.22 1.22 0 0 0 1.219-1.22V30.84c0-.674-.546-1.219-1.219-1.219zm0 27.447h-3.658a1.22 1.22 0 0 0-1.219 1.22v1.83h-24.387v-1.83c0-.675-.546-1.22-1.219-1.22h-3.658a1.22 1.22 0 0 0-1.219 1.22v6.708c0 .675.546 1.22 1.219 1.22h34.142a1.22 1.22 0 0 0 1.219-1.22v-6.709c0-.674-.546-1.22-1.219-1.22zm34.508-6.099a1.22 1.22 0 0 0 1.219-1.219v-3.66a1.22 1.22 0 0 0-1.219-1.219h-21.948c-.674 0-1.219.547-1.219 1.22v3.66c0 .673.546 1.218 1.219 1.218zm6.097-21.348h-34.142a1.22 1.22 0 0 0-1.219 1.22v6.709c0 .674.546 1.219 1.219 1.219h3.658a1.22 1.22 0 0 0 1.219-1.22v-1.83h24.387v1.83c0 .675.546 1.22 1.218 1.22h3.658a1.22 1.22 0 0 0 1.219-1.22V30.84c0-.674-.546-1.219-1.219-1.219zm0 27.447h-3.658a1.22 1.22 0 0 0-1.219 1.22v1.83h-24.387v-1.83c0-.675-.546-1.22-1.219-1.22h-3.658a1.22 1.22 0 0 0-1.219 1.22v6.708c0 .675.546 1.22 1.219 1.22h34.142a1.22 1.22 0 0 0 1.219-1.22v-6.709c0-.674-.546-1.22-1.219-1.22zM29.264 91.59a1.22 1.22 0 0 0 1.219-1.22v-3.66c0-.674-.546-1.219-1.219-1.219H7.316c-.674 0-1.219.547-1.219 1.22v3.66c0 .674.546 1.219 1.219 1.219zm6.097-21.349H1.22A1.22 1.22 0 0 0 0 71.462v6.709c0 .674.546 1.22 1.219 1.22h3.658a1.22 1.22 0 0 0 1.219-1.22v-1.83h24.387v1.83c0 .674.546 1.22 1.219 1.22h3.658a1.22 1.22 0 0 0 1.219-1.22v-6.71c0-.674-.547-1.219-1.22-1.219zm0 27.447h-3.658a1.22 1.22 0 0 0-1.219 1.22v1.83H6.096v-1.83c0-.675-.546-1.22-1.22-1.22H1.22A1.22 1.22 0 0 0 0 98.909v6.708c0 .675.546 1.22 1.219 1.22H35.36a1.22 1.22 0 0 0 1.219-1.22v-6.709c0-.674-.546-1.22-1.219-1.22M69.87 91.59a1.22 1.22 0 0 0 1.219-1.22v-3.66c0-.674-.547-1.219-1.22-1.219H47.922c-.674 0-1.22.547-1.22 1.22v3.66c0 .674.547 1.219 1.22 1.219zm6.097-21.349H41.824a1.22 1.22 0 0 0-1.22 1.22v6.709c0 .674.547 1.22 1.22 1.22h3.658a1.22 1.22 0 0 0 1.218-1.22v-1.83h24.388v1.83c0 .674.546 1.22 1.218 1.22h3.658a1.22 1.22 0 0 0 1.22-1.22v-6.71c0-.674-.547-1.219-1.22-1.219zm0 27.447h-3.658a1.22 1.22 0 0 0-1.22 1.22v1.83H46.703v-1.83c0-.675-.546-1.22-1.22-1.22h-3.657a1.22 1.22 0 0 0-1.219 1.22v6.708c0 .675.546 1.22 1.219 1.22h34.142a1.22 1.22 0 0 0 1.219-1.22v-6.709c0-.674-.546-1.22-1.219-1.22zm34.507-6.098a1.22 1.22 0 0 0 1.219-1.22v-3.66c0-.674-.546-1.219-1.219-1.219H88.525c-.674 0-1.219.547-1.219 1.22v3.66c0 .674.547 1.219 1.22 1.219zm6.097-21.349H82.428a1.22 1.22 0 0 0-1.219 1.22v6.709c0 .674.546 1.22 1.22 1.22h3.657a1.22 1.22 0 0 0 1.22-1.22v-1.83h24.386v1.83c0 .674.546 1.22 1.219 1.22h3.658a1.22 1.22 0 0 0 1.219-1.22v-6.71c0-.674-.546-1.219-1.219-1.219zm0 27.447h-3.658a1.22 1.22 0 0 0-1.218 1.22v1.83H87.306v-1.83c0-.675-.546-1.22-1.218-1.22H82.43a1.22 1.22 0 0 0-1.22 1.22v6.708c0 .675.547 1.22 1.22 1.22h34.142a1.22 1.22 0 0 0 1.219-1.22v-6.709c0-.674-.546-1.22-1.219-1.22zm34.508-6.098a1.22 1.22 0 0 0 1.219-1.22v-3.66c0-.674-.546-1.219-1.219-1.219H129.13c-.674 0-1.219.547-1.219 1.22v3.66c0 .674.546 1.219 1.219 1.219zm6.097-21.349h-34.142a1.22 1.22 0 0 0-1.219 1.22v6.709c0 .674.546 1.22 1.219 1.22h3.658a1.22 1.22 0 0 0 1.219-1.22v-1.83h24.387v1.83c0 .674.546 1.22 1.219 1.22h3.658a1.22 1.22 0 0 0 1.219-1.22v-6.71c0-.674-.546-1.219-1.219-1.219zm0 27.447h-3.658a1.22 1.22 0 0 0-1.219 1.22v1.83h-24.387v-1.83c0-.675-.546-1.22-1.219-1.22h-3.658a1.22 1.22 0 0 0-1.219 1.22v6.708c0 .675.546 1.22 1.219 1.22h34.142a1.22 1.22 0 0 0 1.219-1.22v-6.709c0-.674-.546-1.22-1.219-1.22zm34.508-6.098a1.22 1.22 0 0 0 1.219-1.22v-3.66a1.22 1.22 0 0 0-1.219-1.219h-21.948c-.674 0-1.219.547-1.219 1.22v3.66c0 .674.546 1.219 1.219 1.219zm6.097-21.349h-34.142a1.22 1.22 0 0 0-1.219 1.22v6.709c0 .674.546 1.22 1.219 1.22h3.658a1.22 1.22 0 0 0 1.219-1.22v-1.83h24.387v1.83c0 .674.546 1.22 1.218 1.22h3.658a1.22 1.22 0 0 0 1.219-1.22v-6.71c0-.674-.546-1.219-1.219-1.219zm0 27.447h-3.658a1.22 1.22 0 0 0-1.219 1.22v1.83h-24.387v-1.83c0-.675-.546-1.22-1.219-1.22h-3.658a1.22 1.22 0 0 0-1.219 1.22v6.708c0 .675.546 1.22 1.219 1.22h34.142a1.22 1.22 0 0 0 1.219-1.22v-6.709c0-.674-.546-1.22-1.219-1.22z"/></g><defs><radialGradient id="b" cx="0" cy="0" r="1" gradientTransform="matrix(109.662 0 0 75.6973 99.5 47.932)" gradientUnits="userSpaceOnUse"><stop stop-color="#fbfdfc"/><stop offset=".433" stop-color="#7c7cff" stop-opacity=".96"/><stop offset=".803" stop-color="#00f"/></radialGradient><clipPath id="a"><path fill="#fff" d="M0 0h199v96H0z"/></clipPath></defs></svg>