<svg xmlns="http://www.w3.org/2000/svg" fill="none" viewBox="0 0 390 390"><path fill="#59B8AA" stroke="#000" stroke-miterlimit="10" stroke-width=".325" d="M76.406 124.961a5.941 5.941 0 1 0 0-11.883 5.941 5.941 0 0 0 0 11.883Z"/><path fill="#000" d="M73.08 119.306c-.823-1.176-1.183-2.671-1.058-4.111a5.78 5.78 0 0 0-1.557 3.952 5.82 5.82 0 0 0 5.817 5.817 5.8 5.8 0 0 0 5.09-3.018c-2.942.796-6.62-.249-8.291-2.64"/><path fill="#fff" d="M78.887 118.49a2.284 2.284 0 1 0 0-4.568 2.284 2.284 0 0 0 0 4.568"/><path fill="#59B8AA" stroke="#000" stroke-miterlimit="10" stroke-width=".325" d="M297.673 118.639a4.599 4.599 0 1 0 0-9.198 4.599 4.599 0 0 0 0 9.198Z"/><path fill="#000" d="M295.099 114.26c-.637-.911-.916-2.068-.82-3.182a4.47 4.47 0 0 0-1.205 3.059 4.504 4.504 0 0 0 4.503 4.502c1.7 0 3.176-.945 3.94-2.335-2.277.616-5.124-.193-6.418-2.044"/><path fill="#fff" d="M299.594 113.629a1.768 1.768 0 1 0 0-3.536 1.768 1.768 0 0 0 0 3.536"/><path fill="#F3B443" stroke="#000" stroke-miterlimit="10" stroke-width=".325" d="M145.152 302.202a3.99 3.99 0 1 0 0-7.98 3.99 3.99 0 0 0 0 7.98Z"/><path fill="#000" d="M142.919 298.401c-.553-.79-.795-1.794-.711-2.76a3.88 3.88 0 0 0-1.046 2.653 3.907 3.907 0 0 0 3.906 3.906c1.476 0 2.756-.82 3.418-2.026-1.975.535-4.445-.167-5.567-1.773"/><path fill="#fff" d="M146.819 297.856a1.533 1.533 0 1 0 0-3.065 1.533 1.533 0 0 0 0 3.065"/><path stroke="#000" stroke-miterlimit="10" stroke-width=".325" d="M79.973 240.523v7.897M83.925 244.469h-7.9M258.275 69.938v7.896M262.225 73.887h-7.897"/><path fill="#59B8AA" stroke="#000" stroke-miterlimit="10" stroke-width=".325" d="M295.849 238.987a4.11 4.11 0 1 0 0-8.221 4.11 4.11 0 1 0 0 8.221Z"/><rect width="57.6" height="96" x="177.074" y="144.166" stroke="#83CDC1" stroke-width="19.2" rx="28.8" transform="rotate(45 177.074 144.166)"/><mask id="a" width="99" height="105" x="111" y="146" maskUnits="userSpaceOnUse" style="mask-type:alpha"><path fill="#83CDC1" d="m163.498 225.621 27.152-27.153c7.498-7.498 7.499-19.654.001-27.152s-19.655-7.498-27.153 0l-27.153 27.152c-7.498 7.498-7.498 19.655 0 27.153l-13.576 13.577-.692-.71c-14.301-15.044-14.07-38.835.692-53.596l27.152-27.153c14.996-14.996 39.31-14.996 54.306 0l.692.71c14.301 15.044-11.539 37.289-26.3 52.051l-1.545 28.697c-14.996 14.996-39.309 14.997-54.305.001l13.576-13.577c7.498 7.498 19.655 7.498 27.153 0"/></mask><g mask="url(#a)"><rect width="57.6" height="96" x="227.078" y="110.225" stroke="#008573" stroke-width="19.2" opacity=".3" rx="28.8" transform="rotate(45 227.078 110.225)"/></g><rect width="57.6" height="96" x="233.078" y="110.225" stroke="#12A594" stroke-width="19.2" rx="28.8" transform="rotate(45 233.078 110.225)"/><path fill="#E0F8F3" d="M177.51 168.489c1.256.425 1.918 1.786 1.604 3.074a27.6 27.6 0 0 0 3.399 21.161 27.6 27.6 0 0 0 8.508 8.614 27.6 27.6 0 0 0 9.012 3.734c1.295.283 2.227 1.475 2.057 2.79s-1.375 2.252-2.673 1.986a32.4 32.4 0 0 1-20.976-14.582 32.4 32.4 0 0 1-3.89-25.247c.331-1.284 1.703-1.956 2.959-1.53" opacity=".6"/><mask id="b" width="98" height="100" x="174" y="117" maskUnits="userSpaceOnUse" style="mask-type:alpha"><path fill="#12A594" d="m219.505 191.685 27.153-27.153c7.498-7.498 7.498-19.655 0-27.153s-19.655-7.498-27.153 0l-27.153 27.153c-7.498 7.498-7.498 19.655 0 27.153l-13.577 13.576c-10.621-10.621 2.093-26.016 9.473-34.651.707-1.838 1.962-3.533 3.409-5.371l.692-.71 27.153-27.153c14.996-14.996 25.736-28.57 40.732-13.574s14.996 39.31 0 54.306l-27.153 27.153c-14.996 14.996-39.31 14.996-54.306 0l13.577-13.576c7.498 7.498 19.655 7.498 27.153 0"/></mask><g mask="url(#b)"><path fill="#008573" d="m159.259 221.383 27.153-27.153c7.498-7.498 7.498-19.655 0-27.153s-19.654-7.498-27.153 0l-27.152 27.153c-7.498 7.498-7.498 19.655 0 27.153l-13.577 13.576c-14.762-14.761-14.992-38.551-.692-53.595l.692-.711 27.153-27.152c14.996-14.997 39.31-14.997 54.306 0s14.996 39.309 0 54.305l-27.153 27.153c-14.996 14.996-39.31 14.996-54.306 0l13.577-13.576c7.498 7.498 19.654 7.498 27.152 0" opacity=".7"/><path fill="#83CDC1" d="m163.502 225.625 27.153-27.153c7.498-7.498 7.498-19.655 0-27.153s-19.655-7.498-27.153 0l-27.153 27.153c-7.498 7.498-7.498 19.655 0 27.153l-13.577 13.576c-14.761-14.761-14.992-38.551-.692-53.595l.692-.71 27.153-27.153c14.996-14.996 39.31-14.996 54.306 0s14.996 39.309 0 54.306l-27.153 27.152c-14.996 14.997-39.31 14.997-54.306 0l13.577-13.576c7.498 7.498 19.655 7.498 27.153 0"/></g><path fill="#C6E9E3" d="M159.273 241.57c-.425-1.256-1.786-1.918-3.074-1.604a27.58 27.58 0 0 1-21.161-3.399 27.6 27.6 0 0 1-12.348-17.52c-.283-1.295-1.476-2.227-2.79-2.057s-2.252 1.375-1.986 2.673a32.4 32.4 0 0 0 14.582 20.976 32.4 32.4 0 0 0 25.247 3.89c1.283-.331 1.955-1.703 1.53-2.959"/><path fill="#83CDC1" d="M260.774 131.931a1.17 1.17 0 0 1 1.651.321 34.8 34.8 0 0 1 4.556 26.543 1.17 1.17 0 0 1-1.45.853c-.64-.171-1.017-.828-.87-1.474a32.4 32.4 0 0 0-4.216-24.562 1.235 1.235 0 0 1 .329-1.681"/><path fill="#113D38" d="M147.98 107.647c-1.398-.197-9.886 11.917-26.769 21.001l11.765-17.129z" opacity=".48"/><path fill="#F3B443" stroke="#000" stroke-miterlimit="10" stroke-width=".325" d="M127.778 116.696c14.564 0 26.371-11.807 26.371-26.372s-11.807-26.37-26.371-26.37c-14.565 0-26.372 11.806-26.372 26.37s11.807 26.372 26.372 26.372Z"/><path fill="#FFDB7F" stroke="#000" stroke-miterlimit="10" stroke-width=".325" d="m147.125 87.654-26.562-16.752-12.92 21.818c-1.419 2.412 3.491 7.927 10.962 12.319 7.471 4.394 14.679 6 16.094 3.588q.097-.168.152-.356l.045.024 12.229-20.648z"/><path fill="#CC963E" stroke="#000" stroke-miterlimit="10" stroke-width=".325" d="M147.221 87.203c1.418-2.412-3.489-7.928-10.96-12.32s-14.678-5.998-16.096-3.586 3.489 7.928 10.961 12.32c7.471 4.392 14.677 5.997 16.095 3.585Z"/><path fill="#FFDB7F" stroke="#000" stroke-miterlimit="10" stroke-width=".325" d="M141.743 65.665c-4.606-2.727-10.568-1.2-13.295 3.405l-2.91 4.914a1.935 1.935 0 0 0 .457 2.955c.92.547 2.107.242 2.654-.678l3.1-5.236a5.875 5.875 0 0 1 8.042-2.059 5.874 5.874 0 0 1 2.059 8.042l-2.91 4.914a1.935 1.935 0 0 0 .457 2.955c.92.547 2.107.242 2.654-.678l3.1-5.236c2.727-4.605 1.201-10.568-3.405-13.294z"/><g fill="#fff" opacity=".15"><path d="M121.913 106.813c-8.485-5.318-8.571-23.724-8.571-23.724l5.872-9.917c-1.208 21.561 10.461 36.576 10.461 36.576-1.9.003-7.762-2.935-7.762-2.935M138.927 101.488c-6.598-7.007-6.879-17.34-6.879-17.34v-.003l8.495 4.007c-.602 2.567 1.931 7.35 1.931 7.35z"/></g><path fill="#fff" d="M144.1 73.78c-.038-2.755-1.799-5.45-4.36-6.516-.325-.135-.557-.426-.453-.8.086-.307.474-.588.799-.453 3.111 1.294 5.267 4.381 5.312 7.769.01.837-1.288.834-1.298 0M143.941 77.302c.834 0 .837-1.297 0-1.297-.838 0-.838 1.297 0 1.297"/><path fill="#000" d="M126.999 93.513a2.678 2.678 0 1 0 0-5.357 2.678 2.678 0 0 0 0 5.357"/><path fill="#000" d="m125.644 90.688-4.242 5.515a.544.544 0 0 0 .152.8l2.467 1.46c.273.163.63.055.768-.232l2.99-6.277z"/><path fill="#113D38" d="M273.662 280.617c-3.801 10.046-9.006 18.929-16.594 25.675-5.604-3.757-12.39-10.675-14.186-20.027-2.924-15.226 0-23.531 0-23.531z" opacity=".48"/><path fill="#FFDB7F" stroke="#000" stroke-miterlimit="10" stroke-width=".325" d="M264.819 294.119c12.871 0 23.305-10.435 23.305-23.306s-10.434-23.305-23.305-23.305-23.305 10.434-23.305 23.305 10.434 23.306 23.305 23.306Z"/><path fill="#FFBE1A" stroke="#000" stroke-width=".3" d="M264.744 272.045v-8.832l7.68-4.608v8.844z"/><path fill="#C78F00" stroke="#000" stroke-width=".3" d="M264.744 272.045v-8.832l-8.064-4.608v8.832z"/><path fill="#FFDB7F" stroke="#000" stroke-width=".3" d="m272.424 258.608-7.68 4.608-8.064-4.608 7.872-4.608z"/><path fill="#FFBE1A" stroke="#000" stroke-width=".3" d="M257.064 285.487v-8.832l7.68-4.608v8.843z"/><path fill="#C78F00" stroke="#000" stroke-width=".3" d="M257.064 285.487v-8.832L249 272.047v8.832z"/><path fill="#FFDB7F" stroke="#000" stroke-width=".3" d="m264.744 272.046-7.68 4.608-8.064-4.608 7.68-4.608z"/><path fill="#FFBE1A" stroke="#000" stroke-width=".3" d="M272.906 285.487v-8.832l7.68-4.608v8.843z"/><path fill="#C78F00" stroke="#000" stroke-width=".3" d="M272.906 285.487v-8.832l-8.064-4.608v8.832z"/><path fill="#FFDB7F" stroke="#000" stroke-width=".3" d="m280.586 272.046-7.68 4.608-8.064-4.608 7.68-4.608z"/><path fill="#fff" stroke="#000" stroke-miterlimit="10" stroke-width=".325" d="M178.967 65.7s18.18-2.224 18.18 20.538c0 0 0-20.963 19.202-20.596 0 0-16.52.692-19.202-21.33 0 0 .513 20.963-18.18 21.389ZM185.047 273.347s12.267-1.502 12.267 13.855c0 0 0-14.142 12.955-13.896 0 0-11.145.467-12.955-14.392 0 0 .346 14.142-12.267 14.43zM310.031 150.625s5.821-.713 5.821 6.575c0 0 0-6.713 6.149-6.596 0 0-5.291.222-6.149-6.831 0 0 .162 6.714-5.821 6.848z"/></svg>