<svg xmlns="http://www.w3.org/2000/svg" fill="none" viewBox="0 0 172 142"><path fill="#E0F8F3" d="M25 28C25 8.118 41.118-8 61-8S97 8.118 97 28 80.882 64 61 64 25 47.882 25 28"/><path fill="#E0F8F3" d="M64.385 29.23a.923.923 0 0 1 1.661-.553l3.877 5.17h-5.538z"/><path fill="#12A594" d="M41.77 38.461a4.615 4.615 0 0 1 4.615-4.615H70c3.474 0 6.78 1.488 9.083 4.088l.617.697c.342.386.531.884.531 1.4v1.098a1.947 1.947 0 0 1-1.947 1.948h-31.9a4.615 4.615 0 0 1-4.614-4.616"/><path fill="#868E8B" d="M51.77 29.538a1.23 1.23 0 0 1 2.461 0v4.308H51.77z"/><path fill="#12A594" d="M56.846 33.385a2.615 2.615 0 0 0-2.616-2.615v3.076h2.616z"/><path fill="#008573" d="M44.385 33.846A2.615 2.615 0 0 1 47 31.23h4.77v2.615zM53.154 39.385h16v3.692h-16z"/><path fill="#5F6563" d="M41.923 39.385h4.461v3.692h-.769a3.69 3.69 0 0 1-3.692-3.692M75.923 39.385h4.154v3.692h-4.154z"/><path fill="#1A211E" d="M41.154 40.308v-3.693a3.385 3.385 0 0 1 3.385-3.384H70c3.65 0 7.124 1.564 9.544 4.296l.617.696.04.047c.417.492.646 1.116.646 1.762V42c0 .935-.758 1.692-1.693 1.692H44.54a3.385 3.385 0 0 1-3.385-3.384m1.231 0c0 1.19.964 2.154 2.154 2.154h34.615a.46.46 0 0 0 .462-.462v-1.968c0-.343-.118-.675-.332-.94l-.044-.053-.618-.696A11.52 11.52 0 0 0 70 34.462H44.54c-1.19 0-2.154.964-2.154 2.153z"/><path fill="#1A211E" d="M51.77 30.616h.031a.615.615 0 0 1 .584.615v2.615c0 .34-.276.616-.615.616h-7.385a.615.615 0 0 1-.615-.616 3.23 3.23 0 0 1 3.23-3.23zM47 31.846c-.89 0-1.644.581-1.903 1.385h6.057v-1.385zM54.231 30.154H54.2a.615.615 0 0 0-.583.615v3.077c0 .34.275.616.615.616h2.616c.34 0 .615-.276.615-.616v-1.23A2.46 2.46 0 0 0 55 30.153zm2 3.077h-1.384v-1.846H55c.68 0 1.23.55 1.23 1.23z"/><path fill="#1A211E" d="M52.385 28.923v4.308h1.23v-4.308zm2.462 4.923c0 .34-.276.616-.616.616H51.77a.615.615 0 0 1-.616-.616v-4.923c0-.68.551-1.23 1.231-1.23h1.23c.68 0 1.232.55 1.232 1.23zM67.231 38.77a.615.615 0 1 1 0 1.23H55.308a.615.615 0 0 1 0-1.23zM80.231 45.077h.032a.615.615 0 0 1 0 1.23H41.77a.615.615 0 1 1 0-1.23zM47.308 38.77h.032a.615.615 0 0 1 0 1.23h-5.57a.615.615 0 1 1 0-1.23zM80.077 38.77h.032a.615.615 0 0 1 0 1.23h-5.108a.615.615 0 1 1 0-1.23zM65.462 27.692c.387 0 .752.183.985.493l3.969 5.292a.616.616 0 0 1-.492.985h-5.539a.615.615 0 0 1-.615-.616v-4.923c0-.68.55-1.23 1.23-1.23zM65 33.231h3.693l-3.231-4.308H65z"/><circle cx="49.923" cy="42" r="3.692" fill="#868E8B"/><circle cx="72.385" cy="42" r="3.692" fill="#868E8B"/><circle cx="49.923" cy="42" r="1.231" fill="#008573"/><circle cx="72.385" cy="42" r="1.231" fill="#008573"/><path fill="#1A211E" d="M50.538 42a.615.615 0 1 0-1.23 0 .615.615 0 0 0 1.23 0m1.231 0a1.846 1.846 0 1 1-3.692 0 1.846 1.846 0 0 1 3.692 0"/><path fill="#1A211E" d="M53 42a3.077 3.077 0 1 0-6.154 0A3.077 3.077 0 0 0 53 42m1.23 0a4.308 4.308 0 1 1-8.615 0 4.308 4.308 0 0 1 8.616 0M73 42a.615.615 0 1 0-1.231 0 .615.615 0 0 0 1.23 0m1.23 0a1.846 1.846 0 1 1-3.692 0 1.846 1.846 0 0 1 3.693 0"/><path fill="#1A211E" d="M75.461 42a3.077 3.077 0 1 0-6.153 0 3.077 3.077 0 0 0 6.153 0m1.231 0a4.308 4.308 0 1 1-8.615 0 4.308 4.308 0 0 1 8.615 0"/><circle cx="59.615" cy="17.077" r="6.923" fill="#F3B359"/><path fill="#FFDFA5" d="M59.77 9.692a6.923 6.923 0 0 1 6.298 9.8 6.923 6.923 0 0 1-11.982-6.83 6.92 6.92 0 0 1 5.684-2.97"/><path fill="#1A211E" d="M65.923 17.077a6.308 6.308 0 1 0-12.615 0 6.308 6.308 0 0 0 12.615 0m1.231 0a7.538 7.538 0 1 1-15.077 0 7.538 7.538 0 0 1 15.077 0"/><path fill="#1A211E" d="M59.624 12.769c.34.002.613.28.61.62v.053c.551.108.974.36 1.277.688.367.396.525.867.56 1.228l.005.07v.032a.615.615 0 0 1-1.227.065l-.002-.032-.005-.049a.93.93 0 0 0-.234-.479c-.155-.167-.44-.35-.993-.35-.403 0-.659.098-.823.207-.18.12-.301.348-.305.639a.96.96 0 0 0 .308.734l.032.026c.168.132.414.24.788.24.642 0 1.154.195 1.544.498l.076.063c.51.434.748 1.08.74 1.686-.008.61-.267 1.259-.856 1.65-.25.165-.545.287-.886.353l-.002.216-.001.032a.615.615 0 0 1-1.23-.01v-.031l.002-.206c-.554-.107-.978-.36-1.282-.689a2.15 2.15 0 0 1-.56-1.228l-.005-.07v-.032a.615.615 0 0 1 1.227-.065l.002.032.005.049a.93.93 0 0 0 .235.479c.154.167.44.35.992.35.403 0 .66-.098.823-.207.181-.12.301-.347.305-.639s-.114-.57-.307-.734l-.033-.026c-.168-.132-.414-.24-.788-.24-.641 0-1.154-.195-1.544-.498l-.076-.063c-.51-.434-.748-1.08-.74-1.686.008-.61.268-1.259.856-1.65.251-.166.548-.288.891-.354v-.062l.002-.031a.615.615 0 0 1 .619-.58M60.231 30.077v.031a.615.615 0 0 1-1.23 0V24a.615.615 0 0 1 1.23 0z"/><path fill="#1A211E" d="m60.063 30.443-.02.024a.615.615 0 0 1-.963-.764l.019-.025 1.88-2.369.021-.024a.615.615 0 0 1 .944.79z"/><path fill="#1A211E" d="m59.168 30.443.02.024a.615.615 0 0 0 .963-.764l-.019-.025-1.88-2.369-.02-.024a.615.615 0 0 0-.944.79z"/><path fill="#E0F8F3" d="M12 114c0-19.882 16.118-36 36-36s36 16.118 36 36-16.118 36-36 36-36-16.118-36-36"/><circle cx="37.459" cy="103.962" r="9.969" fill="#BD5F0F"/><path fill="#F09242" d="M37.68 93.33c5.507 0 9.97 4.463 9.97 9.968a9.9 9.9 0 0 1-.9 4.143 9.96 9.96 0 0 1-8.183 4.276c-5.506 0-9.97-4.464-9.97-9.969a9.9 9.9 0 0 1 .9-4.143 9.96 9.96 0 0 1 8.184-4.276"/><path fill="#1A211E" d="M46.542 103.962a9.083 9.083 0 1 0-18.166 0 9.083 9.083 0 0 0 18.166 0m1.772 0c0 5.995-4.86 10.855-10.855 10.855s-10.856-4.86-10.856-10.855c0-5.996 4.86-10.856 10.856-10.856s10.855 4.86 10.855 10.856"/><path fill="#FBFDFC" d="M41.205 101.644c-.131-1.38-1.316-1.843-2.815-1.984v-1.9h-1.158v1.864h-.926V97.76h-1.15v1.913h-2.35v1.245s.856-.015.843 0a.6.6 0 0 1 .658.512v5.237a.41.41 0 0 1-.279.365.4.4 0 0 1-.16.021c.016.013-.842 0-.842 0l-.22 1.39h2.329v1.944h1.158v-1.915h.926v1.907h1.16v-1.922c1.957-.119 3.322-.604 3.493-2.445.139-1.481-.555-2.142-1.663-2.409.674-.333 1.09-.95.996-1.959m-1.623 4.139c0 1.446-2.466 1.281-3.252 1.281v-2.566c.786.002 3.252-.225 3.252 1.285m-.538-3.615c0 1.323-2.058 1.162-2.712 1.162v-2.332c.654 0 2.712-.207 2.712 1.17"/><circle cx="58.504" cy="124.639" r="9.969" fill="#1D5796"/><path fill="#2775CA" d="M58.726 114.006c5.505 0 9.969 4.463 9.969 9.969a9.9 9.9 0 0 1-.9 4.142 9.96 9.96 0 0 1-8.183 4.277c-5.506 0-9.97-4.464-9.97-9.97 0-1.478.322-2.881.9-4.142a9.96 9.96 0 0 1 8.184-4.276"/><path fill="#1A211E" d="M67.588 124.639a9.083 9.083 0 1 0-18.167-.001 9.083 9.083 0 0 0 18.167.001m1.772 0c0 5.995-4.86 10.855-10.855 10.855s-10.856-4.86-10.856-10.855c0-5.996 4.86-10.856 10.856-10.856s10.855 4.86 10.855 10.856"/><path fill="#FBFDFC" fill-rule="evenodd" d="M60.53 118.455c-.2-.064-.364.054-.364.263v.513c0 .14.106.299.238.347 2.121.773 3.639 2.8 3.639 5.173s-1.518 4.401-3.639 5.174a.37.37 0 0 0-.238.347v.513c0 .209.164.326.363.263 2.68-.852 4.622-3.349 4.622-6.297s-1.941-5.445-4.622-6.296m-3.687.263c0-.209-.163-.327-.363-.263-2.68.851-4.622 3.348-4.622 6.296s1.941 5.445 4.622 6.297c.2.063.363-.054.363-.263v-.513a.4.4 0 0 0-.238-.347c-2.121-.773-3.639-2.8-3.639-5.174 0-2.373 1.518-4.4 3.639-5.173a.4.4 0 0 0 .238-.347zm1.938 1.627h-.553a.277.277 0 0 0-.277.276v.853c-1.098.155-1.808.882-1.808 1.814 0 1.206.733 1.675 2.282 1.882 1.05.171 1.349.396 1.349.99s-.507.991-1.222.991c-.967 0-1.285-.421-1.403-.966a.28.28 0 0 0-.272-.223h-.631a.257.257 0 0 0-.256.298c.16.917.752 1.589 1.96 1.752v.87c0 .152.125.275.278.275h.553a.276.276 0 0 0 .277-.275v-.87c1.144-.181 1.875-.972 1.875-1.951 0-1.287-.788-1.72-2.31-1.927-1.122-.162-1.34-.423-1.34-.945 0-.495.381-.847 1.115-.847.663 0 1.045.231 1.202.761a.28.28 0 0 0 .266.203h.583a.257.257 0 0 0 .254-.307c-.184-.839-.753-1.342-1.645-1.501v-.877a.277.277 0 0 0-.276-.276" clip-rule="evenodd"/><path fill="#FFD33B" fill-rule="evenodd" d="M32.173 120.655c.242.517.857.741 1.373.5l.266-.124a6.36 6.36 0 0 0 .435 4.059l.002.003a5.94 5.94 0 0 0 3.347 3.068 5.9 5.9 0 0 0 4.526-.198c.516-.241.738-.856.496-1.373a1.033 1.033 0 0 0-1.373-.501 3.85 3.85 0 0 1-2.948.129 3.87 3.87 0 0 1-2.179-1.996 4.3 4.3 0 0 1-.364-2.317l.03.066c.243.518.857.742 1.373.501.516-.242.738-.857.496-1.374l-1.153-2.466a1.03 1.03 0 0 0-1.372-.5l-2.459 1.149a1.033 1.033 0 0 0-.495 1.374" clip-rule="evenodd"/><path fill="#000" d="M32.743 125.797a7.6 7.6 0 0 0 4.283 3.924c1.891.69 3.977.599 5.8-.253a2.694 2.694 0 0 0 1.297-3.582 2.694 2.694 0 0 0-3.582-1.302 2.201 2.201 0 0 1-2.644-.625 2.694 2.694 0 0 0 1.261-3.565l-1.153-2.466a2.694 2.694 0 0 0-3.581-1.302l-2.458 1.15a2.693 2.693 0 0 0 .035 4.898 8 8 0 0 0 .738 3.114zm1.504-.707a6.36 6.36 0 0 1-.435-4.06l-.266.125a1.033 1.033 0 0 1-1.373-.501 1.03 1.03 0 0 1 .496-1.373l2.459-1.15a1.033 1.033 0 0 1 1.372.5l1.153 2.466a1.033 1.033 0 1 1-1.869.874l-.03-.067a4.3 4.3 0 0 0 .364 2.317 3.87 3.87 0 0 0 2.18 1.996 3.85 3.85 0 0 0 2.947-.128 1.033 1.033 0 0 1 1.372.5c.242.518.02 1.133-.496 1.374a5.9 5.9 0 0 1-4.525.197 5.94 5.94 0 0 1-3.347-3.067z"/><path fill="#FFE36B" fill-rule="evenodd" d="M62.242 108.237a1.033 1.033 0 0 0-1.335-.594l-.274.106a6.35 6.35 0 0 0-.154-4.079l-.002-.004a5.95 5.95 0 0 0-3.127-3.291 5.9 5.9 0 0 0-4.529-.115 1.033 1.033 0 0 0-.59 1.337c.206.533.804.799 1.335.593a3.85 3.85 0 0 1 2.95.075 3.87 3.87 0 0 1 2.036 2.142c.286.75.354 1.56.204 2.336l-.026-.068a1.033 1.033 0 0 0-1.335-.594 1.033 1.033 0 0 0-.59 1.337l.98 2.539c.207.533.804.799 1.335.594l2.532-.977c.532-.206.795-.804.59-1.337" clip-rule="evenodd"/><path fill="#000" d="M62.027 103.067a7.6 7.6 0 0 0-4.002-4.21 7.57 7.57 0 0 0-5.802-.147 2.695 2.695 0 0 0-1.541 3.485 2.695 2.695 0 0 0 3.482 1.545 2.19 2.19 0 0 1 1.677.043c.372.166.69.431.918.763a2.693 2.693 0 0 0-1.504 3.469l.98 2.54a2.693 2.693 0 0 0 3.484 1.545l2.532-.977a2.694 2.694 0 0 0 .302-4.889 8 8 0 0 0-.522-3.157zm-1.548.602a6.36 6.36 0 0 1 .154 4.08l.274-.106a1.033 1.033 0 0 1 1.335.594 1.03 1.03 0 0 1-.59 1.336l-2.532.977a1.033 1.033 0 0 1-1.334-.593l-.98-2.54a1.032 1.032 0 1 1 1.924-.743l.026.069a4.3 4.3 0 0 0-.203-2.337 3.87 3.87 0 0 0-2.037-2.141 3.85 3.85 0 0 0-2.95-.075 1.033 1.033 0 0 1-1.335-.594 1.03 1.03 0 0 1 .59-1.336 5.9 5.9 0 0 1 4.529.115 5.94 5.94 0 0 1 3.127 3.29z"/><path fill="#E0F8F3" d="M88 83c0-19.882 16.118-36 36-36s36 16.118 36 36-16.118 36-36 36-36-16.118-36-36"/><path fill="#F3FBF9" d="M110.154 99.539V79.385l14.923-9 15 9v20.154z"/><path fill="#12A594" d="M121.692 89a3.385 3.385 0 0 1 6.77 0v10.615h-6.77z"/><rect width="7.077" height="2.923" x="132.154" y="63.77" fill="#83CDC1" rx="1.462"/><rect width="38.462" height="2.615" x="105.846" y="99.615" fill="#868E8B" rx="1.308"/><path fill="#12A594" d="M143.472 77.377a1.692 1.692 0 1 1-1.743 2.9l-16.384-9.844a.52.52 0 0 0-.536 0l-16.385 9.845a1.692 1.692 0 1 1-1.743-2.902L123.952 67a2.19 2.19 0 0 1 2.25 0z"/><path fill="#83CDC1" d="m138.154 74.18-4.924-2.957v-4.53h4.924z"/><circle cx="125.077" cy="77.77" r="4.308" fill="#83CDC1"/><path fill="#E0F8F3" d="M140.077 79.384v20.154h-3.615V77.215z"/><path fill="#008573" d="M126.692 85.615c.978 0 1.77.792 1.77 1.77v12.23h-1.77z"/><path fill="#12A594" d="M136.462 63.77h1.308a1.461 1.461 0 0 1 0 2.923h-1.308z"/><path fill="#5F6563" d="M136.462 99.615H143a1.308 1.308 0 1 1 0 2.616h-6.538z"/><path fill="#008573" d="M143.473 77.377a1.693 1.693 0 0 1-1.743 2.901l-2.899-1.742a.13.13 0 0 1-.061-.108v-3.573c0-.134.145-.217.26-.148z"/><path fill="#12A594" d="m138.154 74.18-1.692-1.016v-6.472h1.692z"/><path fill="#1A211E" d="M138.615 64.539c0-.08-.06-.145-.138-.153h-5.554a.154.154 0 0 0-.154.153v1.385c0 .084.069.153.154.153h5.538a.154.154 0 0 0 .154-.153zm1.231 1.385c0 .764-.62 1.384-1.385 1.384h-5.538c-.765 0-1.385-.62-1.385-1.385V64.54c0-.765.62-1.385 1.385-1.385h5.538l.071.002a1.385 1.385 0 0 1 1.314 1.383zM143.692 101.462v-1.077a.154.154 0 0 0-.154-.154h-36.923a.154.154 0 0 0-.154.154v1.077c0 .085.069.154.154.154h7.231a.615.615 0 1 1 0 1.231h-7.231c-.765 0-1.385-.62-1.385-1.385v-1.077c0-.765.62-1.385 1.385-1.385h36.923c.765 0 1.385.62 1.385 1.385v1.077c0 .765-.62 1.385-1.385 1.385h-26a.615.615 0 0 1 0-1.231h26a.154.154 0 0 0 .154-.154M123.635 66.472a2.8 2.8 0 0 1 2.883 0l17.271 10.378a2.31 2.31 0 0 1 .82 3.115l-.03.051a2.31 2.31 0 0 1-3.167.79l-16.335-9.816-16.336 9.816a2.307 2.307 0 0 1-3.135-.74l-.031-.05a2.307 2.307 0 0 1 .789-3.166l5.857-3.52a.616.616 0 0 1 .634 1.055l-5.857 3.52c-.51.306-.675.967-.368 1.477l.029.047c.318.473.954.618 1.448.322l16.385-9.845.034-.02c.342-.19.759-.19 1.102 0l.034.02 16.384 9.845c.51.306 1.171.141 1.478-.369l.027-.048a1.077 1.077 0 0 0-.396-1.43l-17.27-10.377a1.57 1.57 0 0 0-1.616 0l-8.183 4.917a.616.616 0 0 1-.634-1.055z"/><path fill="#1A211E" d="m138.154 66.077.031.001a.616.616 0 0 1 .584.615v7.488a.615.615 0 0 1-.932.528l-4.924-2.958a.62.62 0 0 1-.298-.528v-4.53l.001-.032a.615.615 0 0 1 .614-.584zm-4.308 4.798 3.692 2.218v-5.785h-3.692zM128.769 77.77a3.692 3.692 0 1 0-7.384 0 3.692 3.692 0 0 0 7.384 0m1.231 0a4.923 4.923 0 1 1-9.846 0 4.923 4.923 0 0 1 9.846 0"/><path fill="#1A211E" d="m129.384 77.154.032.001a.616.616 0 0 1 0 1.23h-8.647a.615.615 0 0 1 0-1.23z"/><path fill="#1A211E" d="m125.693 82.079-.001.031a.615.615 0 0 1-1.229 0l-.001-.031v-8.616a.616.616 0 0 1 1.231 0zM110.769 79.462v20.23h-1.231v-20.23zM139.538 85.616v-6.154h1.231v6.154a.616.616 0 0 1-1.231 0M139.538 89.308a.616.616 0 0 1 1.23-.032l.001.032v10.23h-1.231zM128.461 86.385a.154.154 0 0 0-.154-.154h-6.461a.154.154 0 0 0-.154.154V99h6.769zm1.231 13.23c0 .34-.276.616-.615.616h-8a.616.616 0 0 1-.616-.615v-13.23c0-.766.62-1.385 1.385-1.385h6.461c.765 0 1.385.62 1.385 1.384z"/><path fill="#1A211E" d="M123.846 92.539a.616.616 0 1 1-1.232 0 .616.616 0 0 1 1.232 0"/><path fill="#12A594" d="M138 94.385a4.923 4.923 0 0 1 4.913 5.23h-1.531a4.923 4.923 0 0 0-5.549-4.729 4.9 4.9 0 0 1 2.167-.501M113.725 95c2.361 0 4.275 1.945 4.275 4.344q0 .137-.008.271h-1.236c-.172-2.238-2.014-4-4.261-4-.433 0-.851.066-1.245.187a4.2 4.2 0 0 1 2.475-.802"/><path fill="#83CDC1" d="M138 94.385a4.923 4.923 0 0 1 4.913 5.23h-12.746a3.69 3.69 0 0 1 3.679-3.384c.189 0 .37-.078.496-.218A4.9 4.9 0 0 1 138 94.385M113.725 95c2.361 0 4.275 1.945 4.275 4.344q0 .137-.009.271h-11.068c.136-1.672 1.514-2.986 3.195-2.986.163 0 .32-.068.429-.19A4.23 4.23 0 0 1 113.725 95"/><path fill="#1A211E" d="M138 93.77a5.54 5.54 0 0 1 5.528 5.883l-.036.578h-13.993l.055-.666.01-.103a4.307 4.307 0 0 1 4.283-3.846c.02 0 .033-.009.038-.015l.096-.104A5.53 5.53 0 0 1 138 93.77m0 1.23c-1.23 0-2.34.516-3.126 1.344l-.075.081a1.28 1.28 0 0 1-.952.422A3.08 3.08 0 0 0 130.911 99h11.386A4.31 4.31 0 0 0 138 95M113.725 94.385c2.71 0 4.891 2.23 4.891 4.96q0 .158-.01.308l-.035.578h-12.315l.054-.665c.16-1.975 1.787-3.544 3.792-3.552a4.85 4.85 0 0 1 3.623-1.63m0 1.23a3.62 3.62 0 0 0-2.717 1.232 1.2 1.2 0 0 1-.89.398c-1.12 0-2.083.728-2.441 1.755h9.692c-.17-1.905-1.745-3.384-3.644-3.384"/><circle cx="112.154" cy="88.846" r="6.923" fill="#F3B359"/><path fill="#FFDFA5" d="M112.308 81.462a6.923 6.923 0 0 1 6.298 9.8 6.923 6.923 0 0 1-11.982-6.83 6.92 6.92 0 0 1 5.684-2.97"/><path fill="#1A211E" d="M118.461 88.846a6.307 6.307 0 1 0-12.615 0 6.307 6.307 0 0 0 12.615 0m1.231 0a7.538 7.538 0 1 1-15.077 0 7.539 7.539 0 0 1 15.077 0"/><path fill="#1A211E" d="M112.162 84.538c.34.003.613.28.611.62l-.001.053c.552.108.974.36 1.278.689.366.396.524.866.559 1.228l.005.07.001.032a.615.615 0 0 1-1.228.064l-.002-.031-.005-.049a.94.94 0 0 0-.234-.48c-.155-.166-.441-.35-.993-.35-.402 0-.659.099-.823.207-.181.12-.301.348-.305.64a.96.96 0 0 0 .308.733l.032.027c.168.132.414.24.788.24h.001c.641 0 1.154.194 1.543.498l.076.062c.51.435.748 1.08.74 1.687-.008.609-.267 1.259-.856 1.649-.25.165-.545.287-.886.354l-.002.216-.001.032a.615.615 0 0 1-1.229-.01l-.001-.032.002-.205c-.554-.108-.978-.36-1.282-.69a2.15 2.15 0 0 1-.559-1.228l-.006-.07-.001-.032a.616.616 0 0 1 1.228-.064l.002.031.005.05a.94.94 0 0 0 .235.478c.154.167.44.35.992.35.403 0 .659-.097.823-.206.181-.12.302-.348.305-.639.004-.293-.114-.57-.307-.734l-.033-.027c-.168-.131-.413-.24-.788-.24h-.001c-.64 0-1.153-.194-1.542-.498l-.077-.062c-.509-.434-.747-1.08-.74-1.687.008-.609.268-1.258.856-1.649.252-.166.548-.289.891-.355l.001-.061.001-.032a.615.615 0 0 1 .619-.579"/></svg>