<svg xmlns="http://www.w3.org/2000/svg" fill="none" viewBox="0 0 390 390"><path fill="#59B8AA" stroke="#000" stroke-miterlimit="10" stroke-width=".325" d="M156.938 53.883A5.941 5.941 0 1 0 156.939 42a5.941 5.941 0 0 0-.001 11.883Z"/><path fill="#000" d="M153.613 48.228c-.823-1.176-1.183-2.671-1.059-4.11a5.78 5.78 0 0 0-1.557 3.95 5.82 5.82 0 0 0 5.817 5.818 5.8 5.8 0 0 0 5.09-3.018c-2.941.796-6.62-.249-8.291-2.64"/><path fill="#fff" d="M159.42 47.411a2.283 2.283 0 1 0 0-4.566 2.283 2.283 0 0 0 0 4.566"/><path fill="#59B8AA" stroke="#000" stroke-miterlimit="10" stroke-width=".325" d="M297.673 118.639a4.599 4.599 0 1 0 0-9.198 4.599 4.599 0 0 0 0 9.198Z"/><path fill="#000" d="M295.099 114.26c-.637-.911-.916-2.068-.82-3.182a4.47 4.47 0 0 0-1.205 3.059 4.504 4.504 0 0 0 4.503 4.502c1.7 0 3.176-.945 3.94-2.335-2.277.616-5.124-.193-6.418-2.044"/><path fill="#fff" d="M299.594 113.629a1.768 1.768 0 1 0 0-3.536 1.768 1.768 0 0 0 0 3.536"/><path fill="#F3B443" stroke="#000" stroke-miterlimit="10" stroke-width=".325" d="M145.153 302.202a3.99 3.99 0 1 0 0-7.98 3.99 3.99 0 0 0 0 7.98Z"/><path fill="#000" d="M142.92 298.401c-.553-.79-.795-1.794-.711-2.76a3.88 3.88 0 0 0-1.046 2.653 3.907 3.907 0 0 0 3.906 3.906c1.476 0 2.756-.82 3.418-2.026-1.975.535-4.445-.167-5.567-1.773"/><path fill="#fff" d="M146.82 297.856a1.533 1.533 0 1 0 0-3.065 1.533 1.533 0 0 0 0 3.065"/><path stroke="#000" stroke-miterlimit="10" stroke-width=".325" d="M69.945 241v7.897M73.897 244.945h-7.9M258.277 69.938v7.896M262.227 73.887h-7.897"/><path fill="#59B8AA" stroke="#000" stroke-miterlimit="10" stroke-width=".325" d="M319.108 234.222a4.112 4.112 0 1 0-.001-8.223 4.112 4.112 0 0 0 .001 8.223Z"/><path fill="#fff" stroke="#000" stroke-miterlimit="10" stroke-width=".325" d="M32.998 175.794S45.157 174.255 45.157 190c0 0 0-14.5 12.841-14.246 0 0-11.048.478-12.841-14.754 0 0 .342 14.5-12.159 14.794ZM218.998 316.433s12.267-1.502 12.267 13.855c0 0 0-14.142 12.955-13.896 0 0-11.145.467-12.955-14.392 0 0 .346 14.142-12.267 14.43zM310.031 150.625s5.821-.713 5.821 6.575c0 0 0-6.713 6.149-6.596 0 0-5.291.222-6.149-6.831 0 0 .162 6.714-5.821 6.848z"/><path stroke="#868E8B" stroke-width=".24" d="M196.598 128.93v51.6M196.598 211.73v51.6M254.798 162.523l-44.687 25.8M183.092 203.922l-44.687 25.8M254.798 229.723l-44.687-25.8M183.092 188.324l-44.687-25.8M262.188 158.199v76.661l-66.39 38.331-66.391-38.331v-76.661l66.391-38.331z"/><rect width="51.2" height="51.2" x="170.998" y="170.93" fill="#1A211E" rx="6.4"/><g fill="#FBFDFC" clip-path="url(#a)"><path d="M209.018 186.328v2.713H184.15v-2.713zM205.289 195.82v2.713h-17.295v-2.713zM209.018 205.312v2.713H184.15v-2.713z"/><path d="M186.411 187.227v2.712h-2.261v-2.712zM190.255 195.246v3.843h-2.261v-3.843zM205.398 195.246v3.843h-2.26v-3.843zM186.411 204.406v2.713h-2.261v-2.713zM209.017 204.406v2.713h-2.261v-2.713zM209.017 187.227v2.712h-2.261v-2.712z"/></g><path fill="#59B8AA" d="M196.602 144.531v-18.4l16-9.6v18.424z"/><path fill="#27A394" d="M196.602 144.531v-18.4l-16.8-9.6v18.4z"/><path fill="#E0F8F3" d="m212.601 116.534-16 9.6-16.8-9.6 16.4-9.6z"/><path fill="#59B8AA" d="M129.396 252.531v-18.4l16-9.6v18.424z"/><path fill="#27A394" d="M129.396 252.531v-18.4l-16.8-9.6v18.4z"/><path fill="#E0F8F3" d="m145.397 224.534-16 9.6-16.8-9.6 16.4-9.6z"/><path fill="#59B8AA" d="M129.287 179.922v-13.015l11.317-6.79v13.032z"/><path fill="#27A394" d="M129.287 179.922v-13.015l-11.883-6.79v13.015z"/><path fill="#E0F8F3" d="m140.6 160.114-11.317 6.791-11.883-6.791 11.6-6.79z"/><path fill="#59B8AA" d="M261.287 169.531v-13.014l11.317-6.79v13.031z"/><path fill="#27A394" d="M261.287 169.531v-13.014l-11.883-6.79v13.014z"/><path fill="#E0F8F3" d="m272.6 149.724-11.317 6.79-11.883-6.79 11.6-6.79z"/><path fill="#59B8AA" d="M196.483 282.328v-13.014l11.317-6.791v13.032z"/><path fill="#27A394" d="M196.483 282.328v-13.014l-11.883-6.791v13.015z"/><path fill="#E0F8F3" d="m207.796 262.521-11.317 6.79-11.883-6.79 11.6-6.791z"/><path fill="#59B8AA" d="M261.396 248.73v-18.4l16-9.6v18.424z"/><path fill="#27A394" d="M261.396 248.73v-18.4l-16.8-9.6v18.4z"/><path fill="#E0F8F3" d="m277.397 220.729-16 9.6-16.8-9.6 16.4-9.6z"/><g clip-path="url(#b)"><path fill="#ECEFF0" d="M311 308c8.837 0 16-7.163 16-16s-7.163-16-16-16-16 7.163-16 16 7.163 16 16 16"/><path fill="#2F3030" d="M311.498 280v8.87l7.497 3.35z"/><path fill="#828384" d="M311.498 280 304 292.22l7.498-3.35z"/><path fill="#2F3030" d="M311.498 297.969v6.027L319 293.617z"/><path fill="#828384" d="M311.498 303.996v-6.028L304 293.617z"/><path fill="#131313" d="m311.498 296.572 7.497-4.353-7.497-3.348z"/><path fill="#343535" d="m304 292.219 7.498 4.353v-7.701z"/></g><g clip-path="url(#c)"><path fill="#fff" d="M97.89 114.379c7.451 0 13.491-6.04 13.491-13.49s-6.04-13.49-13.49-13.49-13.49 6.04-13.49 13.49 6.04 13.49 13.49 13.49"/><path fill="#2775CA" fill-rule="evenodd" d="M98 85c8.837 0 16 7.163 16 16s-7.163 16-16 16-16-7.163-16-16 7.163-16 16-16m3.656 4.734c-.361-.115-.656.099-.656.477v.932c0 .254.191.543.43.63 3.83 1.403 6.57 5.084 6.57 9.394 0 4.309-2.74 7.99-6.57 9.393a.67.67 0 0 0-.43.63v.932c0 .379.295.593.656.478 4.839-1.547 8.344-6.081 8.344-11.433 0-5.353-3.505-9.887-8.344-11.433M95 90.21c0-.378-.295-.593-.656-.477C89.504 91.28 86 95.814 86 101.167s3.504 9.886 8.344 11.433c.361.115.656-.099.656-.478v-.932c0-.254-.191-.543-.43-.63-3.83-1.403-6.57-5.084-6.57-9.393s2.74-7.99 6.57-9.394c.239-.087.43-.376.43-.63zm3.5 2.956h-1a.5.5 0 0 0-.5.5v1.549c-1.982.282-3.264 1.6-3.264 3.293 0 2.191 1.324 3.041 4.12 3.417 1.896.311 2.436.719 2.436 1.799 0 1.079-.916 1.798-2.207 1.798-1.746 0-2.32-.764-2.532-1.753a.504.504 0 0 0-.49-.405h-1.141a.467.467 0 0 0-.463.542c.29 1.664 1.36 2.885 3.541 3.181v1.579a.5.5 0 0 0 .5.5h1a.5.5 0 0 0 .5-.5v-1.58c2.065-.328 3.385-1.765 3.385-3.542 0-2.338-1.423-3.123-4.17-3.499-2.027-.294-2.419-.768-2.419-1.717 0-.899.686-1.536 2.01-1.536 1.199 0 1.888.418 2.172 1.382a.504.504 0 0 0 .481.367h1.051c.294 0 .522-.27.459-.556-.333-1.524-1.359-2.438-2.969-2.726v-1.593a.5.5 0 0 0-.5-.5" clip-rule="evenodd"/></g><g clip-path="url(#d)"><circle cx="301" cy="62" r="16" fill="#fff"/><path fill="#282138" d="M300.997 78a16.002 16.002 0 0 1-11.311-27.314A16 16 0 1 1 300.997 78m0-30.752a14.743 14.743 0 1 0 .024 29.486 14.743 14.743 0 0 0-.024-29.486"/><path fill="#5A5564" d="M291.792 70.392a12.44 12.44 0 0 1 0-16.779l-.879-.879a13.7 13.7 0 0 0 0 18.566zM309.391 71.203a12.44 12.44 0 0 1-16.788 0l-.878.879a13.695 13.695 0 0 0 18.565 0zM311.093 52.716l-.879.878a12.44 12.44 0 0 1 0 16.788l.879.879a13.7 13.7 0 0 0 0-18.566zM292.615 52.794a12.44 12.44 0 0 1 16.788 0l.878-.879a13.695 13.695 0 0 0-18.565 0z"/><path fill="#F09242" d="M306.547 59.067c-.175-1.834-1.757-2.449-3.757-2.636v-2.525h-1.547v2.478h-1.236v-2.478h-1.534v2.542h-3.137v1.655s1.142-.02 1.125 0a.8.8 0 0 1 .878.68v6.959a.54.54 0 0 1-.187.377.54.54 0 0 1-.399.135c.021.018-1.124 0-1.124 0l-.293 1.848h3.107v2.583h1.547V68.14h1.236v2.534h1.549V68.12c2.613-.159 4.434-.803 4.663-3.248.184-1.968-.741-2.847-2.22-3.202.899-.442 1.455-1.262 1.329-2.603m-2.167 5.5c0 1.921-3.292 1.702-4.34 1.702v-3.41c1.048.003 4.34-.298 4.34 1.708m-.718-4.803c0 1.757-2.747 1.543-3.619 1.543V58.21c.872 0 3.619-.276 3.619 1.555"/></g><defs><clipPath id="a"><path fill="#fff" d="M184.148 186.297h24.898v21.76h-24.898z"/></clipPath><clipPath id="b"><path fill="#fff" d="M295 276h32v32h-32z"/></clipPath><clipPath id="c"><path fill="#fff" d="M82 85h32v32H82z"/></clipPath><clipPath id="d"><path fill="#fff" d="M285 46h32v32h-32z"/></clipPath></defs></svg>