<svg xmlns="http://www.w3.org/2000/svg" fill="none" viewBox="0 0 390 390"><path fill="#59b8aa" stroke="#000" stroke-miterlimit="10" stroke-width=".325" d="M48.941 192.883a5.941 5.941 0 1 0 0-11.883 5.941 5.941 0 0 0 0 11.883Z"/><path fill="#000" d="M45.616 187.224c-.824-1.176-1.183-2.671-1.059-4.111A5.78 5.78 0 0 0 43 187.065a5.82 5.82 0 0 0 5.817 5.817 5.8 5.8 0 0 0 5.09-3.018c-2.941.796-6.62-.249-8.291-2.64"/><path fill="#fff" d="M51.423 186.411a2.283 2.283 0 1 0 0-4.567 2.283 2.283 0 0 0 0 4.567"/><path fill="#59b8aa" stroke="#000" stroke-miterlimit="10" stroke-width=".325" d="M281.599 100.198a4.6 4.6 0 1 0 0-9.198 4.6 4.6 0 0 0 0 9.198Z"/><path fill="#000" d="M279.025 95.819c-.638-.911-.916-2.068-.82-3.182A4.47 4.47 0 0 0 277 95.695a4.504 4.504 0 0 0 4.502 4.503 4.49 4.49 0 0 0 3.94-2.336c-2.276.616-5.123-.193-6.417-2.043"/><path fill="#fff" d="M283.52 95.188a1.767 1.767 0 1 0 0-3.535 1.767 1.767 0 0 0 0 3.535"/><path fill="#f3b443" stroke="#000" stroke-miterlimit="10" stroke-width=".325" d="M183.99 279.98a3.99 3.99 0 1 0-.002-7.982 3.99 3.99 0 0 0 .002 7.982Z"/><path fill="#000" d="M181.757 276.179c-.553-.791-.795-1.794-.711-2.761a3.88 3.88 0 0 0-1.046 2.654 3.91 3.91 0 0 0 3.906 3.906 3.9 3.9 0 0 0 3.418-2.027c-1.975.535-4.445-.167-5.567-1.772"/><path fill="#fff" d="M185.657 275.634a1.533 1.533 0 1 0 0-3.067 1.533 1.533 0 0 0 0 3.067"/><path stroke="#000" stroke-miterlimit="10" stroke-width=".325" d="M225.947 59v7.897M229.897 62.95H222"/><path fill="#59b8aa" stroke="#000" stroke-miterlimit="10" stroke-width=".325" d="M309.111 301.222a4.112 4.112 0 1 0-.001-8.223 4.112 4.112 0 0 0 .001 8.223Z"/><path fill="#fff" stroke="#000" stroke-miterlimit="10" stroke-width=".325" d="M148.998 77.284S161.157 75.798 161.157 91c0 0 0-14 12.841-13.755 0 0-11.048.462-12.841-14.245 0 0 .342 14-12.159 14.284ZM142.998 336.714s9.241-1.114 9.241 10.286c0 0 0-10.499 9.759-10.316 0 0-8.396.346-9.759-10.684 0 0 .26 10.499-9.241 10.712zM315.998 218.851s5.82-.712 5.82 6.575c0 0 0-6.713 6.149-6.595 0 0-5.29.221-6.149-6.831 0 0 .163 6.713-5.82 6.848z"/><path fill="#ffdb7f" stroke="#000" stroke-miterlimit="10" stroke-width=".281" d="m104.885 271.846-25.999-16.397-12.647 21.356c-1.389 2.36 3.417 7.759 10.73 12.058 7.313 4.301 14.368 5.873 15.753 3.512.065-.108.112-.227.15-.349l.043.024 11.97-20.211z"/><path fill="#cc963e" stroke="#000" stroke-miterlimit="10" stroke-width=".281" d="M104.983 271.407c1.388-2.361-3.416-7.76-10.729-12.059s-14.367-5.87-15.755-3.509c-1.388 2.36 3.416 7.759 10.729 12.059s14.367 5.87 15.755 3.509Z"/><path fill="#ffdb7f" stroke="#000" stroke-miterlimit="10" stroke-width=".281" d="M99.618 250.324c-4.508-2.669-10.344-1.175-13.013 3.333l-2.849 4.81a1.895 1.895 0 1 0 3.045 2.228l3.035-5.124a5.75 5.75 0 0 1 7.871-2.016 5.75 5.75 0 0 1 2.016 7.872l-2.849 4.809a1.895 1.895 0 1 0 3.045 2.229l3.035-5.124c2.669-4.509 1.175-10.345-3.333-13.014z"/><g fill="#fff" opacity=".15"><path d="M80.208 290.605c-8.305-5.206-8.39-23.222-8.39-23.222l5.748-9.707c-1.182 21.105 10.24 35.801 10.24 35.801-1.86.003-7.598-2.872-7.598-2.872M96.862 285.392c-6.459-6.859-6.733-16.972-6.733-16.972v-.004l8.315 3.922c-.59 2.514 1.89 7.194 1.89 7.194z"/></g><path fill="#fff" d="M101.927 258.271c-.037-2.696-1.761-5.335-4.267-6.378-.319-.132-.546-.417-.444-.782.085-.302.464-.576.782-.444 3.045 1.267 5.155 4.288 5.199 7.604.011.819-1.26.816-1.27 0M101.771 261.719c.817 0 .82-1.27 0-1.27-.819 0-.819 1.27 0 1.27"/><path fill="#000" d="M85.18 277.579a2.622 2.622 0 1 0 0-5.243 2.622 2.622 0 0 0 0 5.243"/><path fill="#000" d="m83.858 274.812-4.152 5.399a.534.534 0 0 0 .149.783l2.415 1.429a.534.534 0 0 0 .752-.227l2.926-6.144z"/><path fill="#f3b443" stroke="#000" stroke-miterlimit="10" stroke-width=".219" d="m97.063 75.395 3.111 3.119s4.974.46 11.122-6.7 5.062-11.588 5.062-11.588l-2.92-3.324s-15.005 8.544-16.376 18.495z"/><path fill="#ffdb7f" stroke="#000" stroke-miterlimit="10" stroke-width=".219" d="M108.774 69.124c4.438-5.141 6.527-10.611 4.667-12.217-1.861-1.607-6.967 1.26-11.405 6.4-4.438 5.142-6.528 10.612-4.667 12.218 1.861 1.607 6.967-1.26 11.405-6.4Z"/><path fill="#ffdb7f" stroke="#000" stroke-miterlimit="10" stroke-width=".219" d="M107.482 67.743c3.512-4.07 5.347-8.242 4.098-9.32-1.248-1.078-5.108 1.347-8.621 5.416-3.512 4.07-5.347 8.242-4.098 9.32s5.108-1.347 8.621-5.416Z"/><path fill="#000" d="m113.839 68.415-2.552-2.614s3.288-5.24 2.77-8.192l2.297 2.617s.604 3.259-2.518 8.189z" opacity=".49"/><path fill="#f3b443" stroke="#000" stroke-miterlimit="10" stroke-width=".219" d="M326.427 183.332c-.474.349-4.671 3.396-5.179 3.673-7.608 4.179-18.696.456-25.606-8.917-6.831-9.264-7.181-20.798-1.155-26.888.477-.482 4.697-3.661 5.251-4.07 7.586-5.594 16.003.709 23.373 10.707 7.371 9.997 10.902 19.901 3.316 25.495Z"/><path fill="#000" d="M299.747 147.027c-.554.41-4.777 3.588-5.251 4.07-4.611 4.663-5.484 12.516-2.575 20.099a59 59 0 0 1 3.202-2.964 42 42 0 0 1 5.772-4.829c-.257-5.074 1.857-12.13-1.148-16.376" opacity=".49"/><path fill="#ffdb7f" stroke="#000" stroke-miterlimit="10" stroke-width=".219" d="M326.427 183.327c7.586-5.593 7.76-18.231.389-28.228s-19.495-13.568-27.081-7.976c-7.586 5.593-7.76 18.231-.389 28.229s19.495 13.568 27.081 7.975Z"/><path fill="#ffdb7f" stroke="#000" stroke-miterlimit="10" stroke-width=".219" d="M325.297 180.95c6.811-5.022 6.968-16.371.348-25.349-6.619-8.978-17.507-12.185-24.319-7.163s-6.968 16.371-.349 25.35c6.62 8.978 17.508 12.185 24.32 7.162Z"/><g fill="#fff" opacity=".29"><path d="m332.288 172.287-38.106-15.567v-.003c.528-4.173 2.94-7.026 2.94-7.026l34.055 14.031c1.111 1.899 1.111 8.565 1.111 8.565M331.418 175.855l-37.239-14.866s.083-.114-.067-.16c0 .259-.032.521 0 .777.09.713.248 1.352.259 2.072 0 .05.026.215.018.259.065.151.037.353.112.519l35.621 14.378c.518-.648 1.166-2.332 1.296-2.979"/></g><rect width="161.28" height="25.2" x="129.393" y="227.441" fill="#83cdc1" rx="12.6" transform="rotate(-45 129.393 227.441)"/><rect width="161.28" height="25.2" x="243.436" y="245.262" fill="#12a594" rx="12.6" transform="rotate(-135 243.436 245.262)"/><path fill="#008573" d="m175.723 181.113 1.782-1.782 17.819 17.82-1.782 1.781z"/><path stroke="#83cdc1" stroke-linecap="round" stroke-width="2.52" d="M153.448 124.982a8.818 8.818 0 0 0-14.639 3.562M153.449 124.984l3.564 3.564M160.574 132.109l.891.891M242.545 214.078l5.346 5.346"/><path stroke="#008573" stroke-linecap="round" stroke-width="2.52" d="m166.814 220.316-7.127 7.128"/></svg>