<svg xmlns="http://www.w3.org/2000/svg" fill="none" viewBox="0 0 390 390"><path fill="#f3fbf9" fill-rule="evenodd" d="M204.394 66.528c-36.464-4.085-73.178 15.942-93.819 46.21-19.168 28.107-10.192 63.483-3.753 96.867 6.887 35.706 7.638 80.323 40.826 95.346 32.917 14.9 66.312-14.817 97.747-32.621 27.454-15.549 60.098-29.621 66.575-60.447 6.4-30.454-18.387-55.69-36.912-80.721-19.971-26.984-37.254-60.892-70.664-64.634" clip-rule="evenodd"/><path fill="#59b8aa" stroke="#000" stroke-miterlimit="10" stroke-width=".325" d="M48.941 192.883a5.941 5.941 0 1 0 0-11.883 5.941 5.941 0 0 0 0 11.883Z"/><path fill="#000" d="M45.616 187.224c-.824-1.176-1.183-2.671-1.059-4.111A5.78 5.78 0 0 0 43 187.065a5.82 5.82 0 0 0 5.817 5.817 5.8 5.8 0 0 0 5.09-3.018c-2.941.796-6.62-.249-8.291-2.64"/><path fill="#fff" d="M51.423 186.411a2.283 2.283 0 1 0 0-4.567 2.283 2.283 0 0 0 0 4.567"/><path fill="#59b8aa" stroke="#000" stroke-miterlimit="10" stroke-width=".325" d="M281.599 100.198a4.6 4.6 0 1 0 0-9.198 4.6 4.6 0 0 0 0 9.198Z"/><path fill="#000" d="M279.025 95.819c-.638-.911-.916-2.068-.82-3.182A4.47 4.47 0 0 0 277 95.695a4.504 4.504 0 0 0 4.502 4.503 4.49 4.49 0 0 0 3.94-2.336c-2.276.616-5.123-.193-6.417-2.043"/><path fill="#fff" d="M283.52 95.188a1.767 1.767 0 1 0 0-3.535 1.767 1.767 0 0 0 0 3.535"/><path fill="#f3b443" stroke="#000" stroke-miterlimit="10" stroke-width=".325" d="M162.99 292.98a3.99 3.99 0 1 0-.002-7.982 3.99 3.99 0 0 0 .002 7.982Z"/><path fill="#000" d="M160.757 289.179c-.553-.791-.795-1.794-.711-2.761a3.88 3.88 0 0 0-1.046 2.654 3.91 3.91 0 0 0 3.906 3.906 3.9 3.9 0 0 0 3.418-2.027c-1.975.535-4.445-.167-5.567-1.772"/><path fill="#fff" d="M164.657 288.634a1.533 1.533 0 1 0 0-3.067 1.533 1.533 0 0 0 0 3.067"/><path stroke="#000" stroke-miterlimit="10" stroke-width=".325" d="M225.947 59v7.897M229.897 62.95H222"/><path fill="#59b8aa" stroke="#000" stroke-miterlimit="10" stroke-width=".325" d="M309.111 301.222a4.112 4.112 0 1 0-.001-8.223 4.112 4.112 0 0 0 .001 8.223Z"/><path fill="#fff" stroke="#000" stroke-miterlimit="10" stroke-width=".325" d="M142.998 336.714s9.241-1.114 9.241 10.286c0 0 0-10.499 9.759-10.316 0 0-8.396.346-9.759-10.684 0 0 .26 10.499-9.241 10.712zM315.998 218.851s5.82-.712 5.82 6.575c0 0 0-6.713 6.149-6.595 0 0-5.29.221-6.149-6.831 0 0 .163 6.713-5.82 6.848z"/><g clip-path="url(#a)"><path fill="#3e479b" d="m185.432 88.877-77.723 131.109a1.63 1.63 0 0 0 .57 2.231l96.296 57.085a1.627 1.627 0 0 0 2.231-.57l77.723-131.109a1.63 1.63 0 0 0-.57-2.231l-96.296-57.085a1.63 1.63 0 0 0-2.231.57" opacity=".14"/><path fill="#f3b443" d="m182.931 83.617-77.724 131.11a1.63 1.63 0 0 0 .57 2.23l96.296 57.086a1.63 1.63 0 0 0 2.231-.571l77.723-131.109a1.63 1.63 0 0 0-.57-2.231l-96.296-57.085a1.627 1.627 0 0 0-2.23.57"/><path fill="#3e479b" d="M229.728 272.444 119.64 252.151a1.635 1.635 0 0 1-1.311-1.901l27.641-149.882a1.636 1.636 0 0 1 1.9-1.31l110.088 20.292a1.637 1.637 0 0 1 1.312 1.901l-27.632 149.89a1.636 1.636 0 0 1-1.901 1.311z" opacity=".14"/><path fill="#fff" d="m143.892 94.544-28.208 153.095 113.293 20.875 28.209-153.095z"/><path fill="#f7f9f8" d="m143.597 96.145-27.618 149.893a1.627 1.627 0 0 0 1.306 1.896l110.091 20.285a1.63 1.63 0 0 0 1.896-1.306l27.619-149.893a1.63 1.63 0 0 0-1.306-1.896L145.493 94.839a1.63 1.63 0 0 0-1.896 1.306" opacity=".39"/><path fill="#5f6563" d="M240.061 133.466c-.053 0-.106 0-.159-.018l-27.552-5.078a.877.877 0 1 1 .325-1.724l27.553 5.077a.879.879 0 0 1-.158 1.743zM238.432 142.266c-.053 0-.106 0-.159-.017l-27.552-5.078a.877.877 0 0 1 .316-1.725l27.553 5.078a.879.879 0 0 1-.158 1.742M236.67 151.831c-.053 0-.105 0-.158-.018l-27.553-5.077a.88.88 0 0 1-.704-1.021.874.874 0 0 1 1.021-.704l27.553 5.077a.879.879 0 0 1-.159 1.743"/><path fill="#3e479b" d="m154.758 98.433-9.357 50.783a1.76 1.76 0 0 0 1.412 2.05l47.218 8.7a1.76 1.76 0 0 0 2.05-1.412l9.357-50.783a1.76 1.76 0 0 0-1.412-2.05l-47.218-8.7a1.76 1.76 0 0 0-2.05 1.412" opacity=".14"/><path fill="#27a394" d="m154.725 98.594-8.859 48.083a1.76 1.76 0 0 0 1.412 2.05l45.02 8.295a1.76 1.76 0 0 0 2.049-1.412l8.86-48.083a1.76 1.76 0 0 0-1.412-2.05l-45.02-8.295a1.76 1.76 0 0 0-2.05 1.412"/><path fill="#ecf1f7" d="m202.378 112.074-48.48-8.932.845-4.585a1.706 1.706 0 0 1 1.998-1.373l45.17 8.325a1.647 1.647 0 0 1 1.32 1.919z" opacity=".07"/><path fill="#a4ded2" d="M167.46 127.042c-.343 0-.686-.036-1.038-.097l-.669-.123c-3.564-.66-5.931-4.092-5.271-7.656l1.689-9.188a1.32 1.32 0 0 1 1.54-1.056 1.315 1.315 0 0 1 1.056 1.54l-1.689 9.188a3.94 3.94 0 0 0 3.15 4.584l.669.124a3.063 3.063 0 0 0 3.564-2.456l4.285-23.25a3.16 3.16 0 0 0-2.534-3.678l-1.144-.21a3.36 3.36 0 0 0-3.907 2.683l-.106.572a1.32 1.32 0 1 1-2.596-.484l.106-.572a6 6 0 0 1 6.978-4.805l1.144.212a5.8 5.8 0 0 1 4.647 6.75l-4.286 23.249a5.706 5.706 0 0 1-5.606 4.664z"/><path fill="#5f6563" d="M225.829 198.454c-.052 0-.105 0-.158-.017l-84.198-15.524a.877.877 0 0 1 .316-1.724l84.199 15.523a.882.882 0 0 1-.159 1.751zM219.812 231.122c-.053 0-.106 0-.159-.018l-84.198-15.523a.883.883 0 0 1-.704-1.03.87.87 0 0 1 1.021-.704l84.198 15.523a.883.883 0 0 1-.158 1.752M178.426 206.605c-.053 0-.106 0-.159-.018l-39.802-7.339a.88.88 0 0 1-.704-1.021.87.87 0 0 1 1.021-.704l39.802 7.339a.883.883 0 0 1-.158 1.751zM183.908 176.85c-.053 0-.106 0-.158-.017l-39.803-7.34a.878.878 0 0 1 .317-1.724l39.802 7.339a.882.882 0 0 1-.158 1.751zM222.846 214.663c-.053 0-.106 0-.158-.017l-37.928-6.988a.881.881 0 1 1 .325-1.733l37.928 6.987a.883.883 0 0 1-.158 1.751z"/><mask id="b" width="87" height="86" x="151" y="138" maskUnits="userSpaceOnUse" style="mask-type:luminance"><path fill="#fff" d="M224.624 211.146c16.667-16.667 16.667-43.691 0-60.359s-43.691-16.667-60.359 0-16.667 43.692 0 60.359 43.691 16.668 60.359 0"/></mask><g mask="url(#b)"><path fill="#3e479b" d="M212.145 319.798 92.025 248.58a2.03 2.03 0 0 1-.713-2.781l96.967-163.548a2.03 2.03 0 0 1 2.781-.713l120.12 71.219a2.03 2.03 0 0 1 .713 2.781l-96.967 163.548a2.03 2.03 0 0 1-2.781.712" opacity=".14"/><path fill="#fbfdfc" d="m209.023 313.242-120.112-71.21a2.03 2.03 0 0 1-.712-2.781l96.967-163.556a2.03 2.03 0 0 1 2.781-.713l120.12 71.218a2.03 2.03 0 0 1 .712 2.781l-96.967 163.548a2.03 2.03 0 0 1-2.781.713z"/><path fill="#3e479b" d="m243.529 311.245-137.324-25.318a2.035 2.035 0 0 1-1.628-2.367l34.46-186.982a2.037 2.037 0 0 1 2.368-1.628l137.324 25.317a2.037 2.037 0 0 1 1.628 2.368l-34.47 186.982a2.036 2.036 0 0 1-2.367 1.628z" opacity=".14"/><path fill="#fff" d="m136.452 89.311-35.19 190.984 141.325 26.04 35.19-190.984z"/><path fill="#fbfdfc" d="m240.597 305.981-137.324-25.317a2.037 2.037 0 0 1-1.628-2.368l34.461-186.982a2.036 2.036 0 0 1 2.367-1.628l137.324 25.318a2.036 2.036 0 0 1 1.628 2.367l-34.47 186.982a2.035 2.035 0 0 1-2.367 1.628z" opacity=".39"/><path fill="#fff" d="M254.387 148.847c-.062 0-.132 0-.202-.017l-34.373-6.336a1.096 1.096 0 0 1 .396-2.156l34.373 6.336c.598.105.994.686.88 1.276a1.095 1.095 0 0 1-1.083.897z"/><path fill="#5f6563" d="M252.186 160.785c-.062 0-.132 0-.203-.018l-34.372-6.336a1.09 1.09 0 0 1-.88-1.276 1.093 1.093 0 0 1 1.276-.88l34.372 6.336c.599.106.995.687.88 1.276a1.1 1.1 0 0 1-1.082.898z"/><path fill="#3e479b" d="m149.999 94.175-11.671 63.341a2.2 2.2 0 0 0 1.765 2.562l58.902 10.853a2.2 2.2 0 0 0 2.562-1.765l11.671-63.341a2.2 2.2 0 0 0-1.765-2.562L152.562 92.41a2.2 2.2 0 0 0-2.563 1.765" opacity=".14"/><path fill="#27a394" d="M149.959 94.384 138.91 154.35a2.2 2.2 0 0 0 1.765 2.562l56.15 10.346a2.2 2.2 0 0 0 2.562-1.765l11.049-59.966a2.2 2.2 0 0 0-1.765-2.562l-56.149-10.346a2.2 2.2 0 0 0-2.563 1.765"/><path fill="#5f6563" d="M238.668 218.942c-.061 0-.132 0-.202-.018l-105.037-19.36a1.087 1.087 0 0 1-.88-1.276 1.09 1.09 0 0 1 1.276-.88l105.037 19.36c.598.106.994.678.88 1.276a1.096 1.096 0 0 1-1.083.898z"/><path fill="#fff" d="M179.526 229.105c-.061 0-.132 0-.202-.018l-49.659-9.152a1.087 1.087 0 0 1-.88-1.276 1.09 1.09 0 0 1 1.276-.88l49.659 9.152c.598.106.994.678.88 1.276a1.1 1.1 0 0 1-1.083.898z"/><path fill="#5f6563" d="M186.372 191.987c-.062 0-.132 0-.203-.017l-49.658-9.152a1.097 1.097 0 0 1 .396-2.156l49.658 9.152c.599.105.995.677.88 1.276a1.09 1.09 0 0 1-1.082.897z"/></g><path fill="#fff" d="M224.624 211.132c16.667-16.667 16.667-43.691 0-60.358-16.668-16.668-43.691-16.668-60.359 0s-16.667 43.691 0 60.358c16.668 16.668 43.691 16.668 60.359 0" opacity=".21"/><path fill="#fff" d="M161.002 184.023a2.7 2.7 0 0 1-2.701-2.702c0-21.534 17.512-39.046 39.045-39.046a2.702 2.702 0 0 1 0 5.404c-18.559 0-33.651 15.092-33.651 33.651a2.7 2.7 0 0 1-2.701 2.701z" opacity=".76"/><path fill="#f3b443" d="M194.44 224.975c-24.279 0-44.026-19.748-44.026-44.027s19.747-44.026 44.026-44.026 44.027 19.747 44.027 44.026-19.747 44.027-44.027 44.027m0-85.352c-22.792 0-41.333 18.542-41.333 41.334s18.541 41.334 41.333 41.334 41.334-18.542 41.334-41.334-18.542-41.334-41.334-41.334" opacity=".58"/><path fill="#f3b443" d="M233.669 211.53c.062-.062.132-.115.203-.168a49.54 49.54 0 0 0 10.375-30.412c0-27.509-22.299-49.8-49.799-49.8s-49.8 22.3-49.8 49.8 22.3 49.799 49.8 49.799c11.404 0 21.903-3.846 30.307-10.296l5.764-5.764 3.159-3.159zm-39.23 12.1c-23.567 0-42.68-19.105-42.68-42.68 0-23.576 19.105-42.68 42.68-42.68s42.68 19.104 42.68 42.68c0 23.575-19.105 42.68-42.68 42.68"/><path fill="#f3b443" d="M194.44 231.426c-27.835 0-50.477-22.642-50.477-50.477s22.642-50.476 50.477-50.476 50.477 22.642 50.477 50.476c0 11.264-3.635 21.921-10.517 30.827l-.123.123c-.07.053-.105.07-.132.106l-8.993 8.984c-8.888 6.829-19.51 10.437-30.712 10.437m0-99.607c-27.087 0-49.131 22.035-49.131 49.13s22.035 49.131 49.131 49.131c10.885 0 21.216-3.503 29.858-10.138l8.897-8.897c.062-.061.132-.123.202-.176 6.662-8.65 10.182-18.999 10.182-29.928 0-27.087-22.035-49.131-49.131-49.131zm0 92.488c-23.901 0-43.349-19.448-43.349-43.349s19.448-43.349 43.349-43.349 43.348 19.448 43.348 43.349-19.448 43.349-43.348 43.349m0-85.36c-23.162 0-42.003 18.841-42.003 42.002s18.841 42.003 42.003 42.003 42.002-18.841 42.002-42.003-18.841-42.002-42.002-42.002"/><path fill="#ffdb7f" d="m232.439 219.316-1.936-1.936a1.91 1.91 0 0 1 0-2.692l-5.764 5.764-.097.096a1.913 1.913 0 0 0 0 2.693l2.341 2.341c.774-1.294 3.036-3.837 5.447-6.266z"/><path fill="#ffdb7f" d="M230.511 214.698a1.913 1.913 0 0 0 0 2.693l1.936 1.936c2.332-2.359 4.788-4.611 6.169-5.544l-2.244-2.244a1.9 1.9 0 0 0-2.49-.167 2 2 0 0 0-.203.167l-3.159 3.159z"/><path fill="#f3b443" d="M230.511 214.698a1.913 1.913 0 0 0 0 2.693l1.936 1.936c2.332-2.359 4.788-4.611 6.169-5.544l-2.244-2.244a1.9 1.9 0 0 0-2.49-.167 2 2 0 0 0-.203.167l-3.159 3.159z" opacity=".43"/><path fill="#27a394" d="m274.741 248.816-35.068-35.456c-.123-.123-.51.044-1.065.414-1.381.933-3.837 3.186-6.169 5.544-2.411 2.438-4.672 4.972-5.447 6.266-.255.422-.352.712-.237.827l35.068 35.455a9.05 9.05 0 0 0 12.909 0c3.564-3.608 3.564-9.451 0-13.05z"/><path fill="#217c6f" d="m274.74 248.814-35.068-35.455c-.475-.475-4.471 3.106-7.903 6.644-2.921 3.01 39.407 45.47 42.971 41.862s3.564-9.452 0-13.051" opacity=".14"/></g><path fill="#ffdb7f" stroke="#000" stroke-miterlimit="10" stroke-width=".281" d="m87.885 297.846-25.999-16.397-12.647 21.356c-1.389 2.36 3.418 7.759 10.73 12.058 7.313 4.301 14.368 5.873 15.753 3.512.065-.108.112-.227.15-.349l.043.024 11.97-20.211z"/><path fill="#cc963e" stroke="#000" stroke-miterlimit="10" stroke-width=".281" d="M87.983 297.407c1.388-2.361-3.416-7.76-10.729-12.059s-14.367-5.87-15.755-3.509c-1.388 2.36 3.416 7.759 10.729 12.059s14.367 5.87 15.755 3.509Z"/><path fill="#ffdb7f" stroke="#000" stroke-miterlimit="10" stroke-width=".281" d="M82.618 276.324c-4.508-2.669-10.344-1.175-13.013 3.333l-2.849 4.81a1.895 1.895 0 1 0 3.045 2.228l3.035-5.124a5.75 5.75 0 0 1 7.871-2.016 5.75 5.75 0 0 1 2.016 7.872l-2.849 4.809a1.895 1.895 0 1 0 3.045 2.229l3.035-5.124c2.669-4.509 1.175-10.345-3.333-13.014z"/><g fill="#fff" opacity=".15"><path d="M63.208 316.605c-8.305-5.206-8.39-23.222-8.39-23.222l5.748-9.707c-1.182 21.105 10.24 35.801 10.24 35.801-1.86.003-7.598-2.872-7.598-2.872M79.862 311.392c-6.459-6.859-6.733-16.972-6.733-16.972v-.004l8.315 3.922c-.59 2.514 1.89 7.194 1.89 7.194z"/></g><path fill="#fff" d="M84.927 284.271c-.037-2.696-1.76-5.335-4.267-6.378-.319-.132-.546-.417-.444-.782.085-.302.464-.576.782-.444 3.045 1.267 5.155 4.288 5.2 7.604.01.819-1.26.816-1.27 0M84.771 287.719c.817 0 .82-1.27 0-1.27s-.82 1.27 0 1.27"/><path fill="#000" d="M68.18 303.579a2.622 2.622 0 1 0 0-5.243 2.622 2.622 0 0 0 0 5.243"/><path fill="#000" d="m66.858 300.812-4.152 5.399a.534.534 0 0 0 .149.783l2.415 1.429a.534.534 0 0 0 .752-.227l2.926-6.144z"/><path fill="#f3b443" stroke="#000" stroke-miterlimit="10" stroke-width=".219" d="m78.063 68.397 3.11 3.119s4.975.46 11.123-6.7 5.062-11.588 5.062-11.588l-2.92-3.324S79.433 58.448 78.062 68.4z"/><path fill="#ffdb7f" stroke="#000" stroke-miterlimit="10" stroke-width=".219" d="M89.774 62.126c4.438-5.141 6.527-10.611 4.667-12.218s-6.967 1.26-11.405 6.402c-4.438 5.141-6.528 10.611-4.667 12.217s6.967-1.26 11.405-6.4Z"/><path fill="#ffdb7f" stroke="#000" stroke-miterlimit="10" stroke-width=".219" d="M88.482 60.745c3.512-4.07 5.347-8.242 4.098-9.32-1.248-1.078-5.108 1.347-8.62 5.416-3.513 4.07-5.348 8.242-4.1 9.32 1.25 1.078 5.11-1.347 8.622-5.416Z"/><path fill="#000" d="m94.839 61.417-2.552-2.614s3.288-5.24 2.77-8.192l2.297 2.617s.604 3.259-2.518 8.189z" opacity=".49"/><path fill="#f3b443" stroke="#000" stroke-miterlimit="10" stroke-width=".219" d="M345.427 153.335c-.474.35-4.671 3.397-5.179 3.674-7.608 4.179-18.696.456-25.606-8.917-6.831-9.264-7.181-20.798-1.155-26.889.477-.481 4.697-3.66 5.251-4.07 7.586-5.593 16.003.71 23.373 10.708 7.371 9.997 10.902 19.901 3.316 25.494Z"/><path fill="#000" d="M318.747 117.031c-.554.41-4.777 3.588-5.251 4.07-4.611 4.663-5.484 12.516-2.575 20.099a59 59 0 0 1 3.202-2.964 42 42 0 0 1 5.772-4.829c-.257-5.074 1.857-12.13-1.148-16.376" opacity=".49"/><path fill="#ffdb7f" stroke="#000" stroke-miterlimit="10" stroke-width=".219" d="M345.427 153.331c7.586-5.593 7.76-18.231.389-28.228s-19.495-13.568-27.081-7.976c-7.586 5.593-7.76 18.231-.389 28.229s19.495 13.568 27.081 7.975Z"/><path fill="#ffdb7f" stroke="#000" stroke-miterlimit="10" stroke-width=".219" d="M344.297 150.954c6.811-5.022 6.968-16.371.348-25.349-6.619-8.978-17.507-12.185-24.319-7.163s-6.968 16.371-.349 25.349c6.62 8.979 17.508 12.185 24.32 7.163Z"/><g fill="#fff" opacity=".29"><path d="m351.288 142.291-38.106-15.567v-.003c.528-4.173 2.94-7.026 2.94-7.026l34.055 14.031c1.111 1.899 1.111 8.565 1.111 8.565M350.418 145.858l-37.239-14.865s.083-.114-.067-.16c0 .259-.032.521 0 .777.09.713.248 1.352.259 2.072 0 .05.026.215.018.259.065.151.037.353.112.518l35.621 14.379c.518-.648 1.166-2.332 1.296-2.98"/></g><defs><clipPath id="a"><path fill="#fff" d="M104.717 81.742h180.4v198.88h-180.4z"/></clipPath></defs></svg>