<svg xmlns="http://www.w3.org/2000/svg" fill="none" viewBox="0 0 390 390"><g filter="url(#a)"><circle cx="144" cy="148" r="72" fill="#039"/><path fill="#08386b" d="M144 84.57c18.387 0 34.947 7.825 46.532 20.325-11.315-10.486-26.461-16.896-43.104-16.896-35.03 0-63.428 28.398-63.428 63.428 0 16.643 6.41 31.789 16.896 43.104-12.5-11.585-20.325-28.145-20.325-46.532 0-35.031 28.398-63.429 63.429-63.429"/><path fill="#789eeb" d="M144.246 211.676c-18.387 0-34.947-7.824-46.532-20.325 11.315 10.486 26.461 16.896 43.104 16.896 35.03 0 63.428-28.398 63.428-63.428 0-16.643-6.41-31.789-16.896-43.104 12.501 11.585 20.325 28.145 20.325 46.532 0 35.031-28.398 63.429-63.429 63.429" opacity=".8"/><path fill="#164fc3" d="M214.285 148.001c0 38.817-31.468 70.285-70.285 70.285-38.818 0-70.286-31.468-70.286-70.285 0-38.818 31.468-70.286 70.286-70.286s70.285 31.468 70.285 70.286m-133.543 0c0 34.936 28.322 63.257 63.258 63.257s63.257-28.321 63.257-63.257S178.936 84.743 144 84.743s-63.258 28.322-63.258 63.258"/><g opacity=".6" style="mix-blend-mode:hard-light"><circle cx="144" cy="148" r="70.95" stroke="url(#b)" stroke-width="2.1" style="mix-blend-mode:overlay"/></g><path fill="#c2dfe7" d="M194.385 96.566a72.3 72.3 0 0 1 13.063 17.371l-35.482 100.427a71.6 71.6 0 0 1-21.075 5.307zM184.136 88.215a72 72 0 0 1 5.696 4.254l-45.055 127.525q-.389.005-.777.005-3.2-.001-6.328-.276z" opacity=".2"/><path fill="#fc0" d="m144.133 112.932 3.736 2.715-1.427-4.392 3.736-2.714h-4.618l-1.427-4.393-1.428 4.393h-4.617l3.736 2.714-1.427 4.392zM163.102 118.018l3.735 2.714-1.427-4.391 3.736-2.714h-4.618l-1.427-4.393-1.427 4.393h-4.617l3.735 2.714-1.426 4.392zM177.085 132.003l3.736 2.714-1.427-4.392 3.736-2.714h-4.618l-1.427-4.392-1.428 4.392h-4.617l3.736 2.714-1.427 4.392zM182.17 151.073l3.736 2.714-1.427-4.391 3.736-2.715h-4.618l-1.427-4.392-1.428 4.392h-4.617l3.736 2.714-1.427 4.392zM177.085 170.139l3.736 2.715-1.427-4.392 3.736-2.714h-4.618l-1.427-4.393-1.428 4.393h-4.617l3.736 2.714-1.427 4.392zM163.102 184.124l3.736 2.714-1.427-4.392 3.736-2.714h-4.618l-1.427-4.392-1.427 4.392h-4.617l3.735 2.714-1.427 4.392zM144.033 189.206l3.736 2.714-1.427-4.392 3.736-2.714h-4.618l-1.427-4.392-1.427 4.392h-4.618l3.736 2.714-1.427 4.392zM124.966 184.124l3.736 2.714-1.427-4.392 3.736-2.714h-4.618l-1.427-4.392-1.428 4.392h-4.617l3.736 2.714-1.427 4.392zM110.982 170.139l3.736 2.715-1.427-4.392 3.736-2.714h-4.618l-1.427-4.393-1.427 4.393h-4.617l3.735 2.714-1.427 4.392zM106.109 151.069l3.736 2.714-1.427-4.391 3.736-2.715h-4.618l-1.427-4.392-1.427 4.392h-4.618l3.736 2.715-1.427 4.391zM111.193 132.003l3.736 2.714-1.427-4.392 3.736-2.714h-4.618l-1.427-4.392-1.427 4.392h-4.618l3.736 2.714-1.427 4.392zM124.966 118.014l3.736 2.715-1.427-4.392 3.736-2.714h-4.618l-1.427-4.393-1.428 4.393h-4.617l3.736 2.714-1.427 4.392z"/></g><defs><linearGradient id="b" x1="93" x2="194.7" y1="97" y2="198.7" gradientUnits="userSpaceOnUse"><stop stop-color="#fff"/><stop offset="1" stop-color="#404040"/></linearGradient><filter id="a" width="177.6" height="177.6" x="66.4" y="70.4" color-interpolation-filters="sRGB" filterUnits="userSpaceOnUse"><feFlood flood-opacity="0" result="BackgroundImageFix"/><feColorMatrix in="SourceAlpha" result="hardAlpha" values="0 0 0 0 0 0 0 0 0 0 0 0 0 0 0 0 0 0 127 0"/><feOffset dx="11.2" dy="11.2"/><feGaussianBlur stdDeviation="8.4"/><feComposite in2="hardAlpha" operator="out"/><feColorMatrix values="0 0 0 0 0 0 0 0 0 0 0 0 0 0 0 0 0 0 0.12 0"/><feBlend in2="BackgroundImageFix" result="effect1_dropShadow_16831_13742"/><feBlend in="SourceGraphic" in2="effect1_dropShadow_16831_13742" result="shape"/></filter></defs></svg>