<svg xmlns="http://www.w3.org/2000/svg" fill="none" viewBox="0 0 20 20"><path fill="#fbfdfc" d="M16.934 2H3.066C2.477 2 2 2.477 2 3.066v13.868C2 17.523 2.477 18 3.066 18h13.868c.589 0 1.066-.477 1.066-1.066V3.066C18 2.477 17.523 2 16.934 2"/><path fill="#19181a" d="M6.808 9.113h6.383c.195 0 .354.16.354.354v1.064a.355.355 0 0 1-.354.354H6.808a.355.355 0 0 1-.354-.354V9.467c0-.195.159-.354.354-.354M14.963 4.68h-9.93a.354.354 0 0 0-.353.354v1.95c0 .197.159.355.354.355h1.063a.354.354 0 0 0 .354-.354v-.532h7.092v.532c0 .196.16.354.354.354h1.064a.354.354 0 0 0 .354-.354V5.034a.354.354 0 0 0-.354-.354zM14.964 12.66H13.9a.354.354 0 0 0-.354.354v.532H6.454v-.532a.354.354 0 0 0-.354-.354H5.037a.354.354 0 0 0-.354.354v1.951c0 .197.159.354.354.354h9.93a.354.354 0 0 0 .353-.354v-1.95a.354.354 0 0 0-.354-.355z"/></svg>