<svg xmlns="http://www.w3.org/2000/svg" fill="none" preserveAspectRatio="xMinYMid meet" viewBox="0 0 55.5 21.1">
  <path fill="#fbfdfc" d="M0 0h16.1v4.3H6.3v4.1h9v4h-9v4.4h9.8v4.3H0zm23.3 11.8-5.7-9.2h7L28 9.3l3-6.7h7l-5.7 9.2 5.9 9.3H31l-3.4-6.8-3.3 6.8h-7zM42.5 21q-1.4-.3-2.3-1a4 4 0 0 1-1.5-1.7q-.5-1.2-.5-2.8t.5-2.7a4 4 0 0 1 1.4-1.7q1-.6 2.3-1l3.3-.2h5.7v-.6q0-1-.4-1.6t-1-.9-2-.3q-.8 0-1.5.3l-1.3.7q-.5.6-.8 1.5l-6-1.7Q38.7 6 39.6 5A7 7 0 0 1 42 3.5q1.3-.6 2.9-.9l3.2-.2q3.2 0 5.4.7 2.1.7 3.2 2.3t1.1 4.2v11.5h-5.2l-.5-2-.9.8-1.4.7-1.8.5q-1 .2-2.2.2zm6.5-4 1.5-.5 1-.8v-2.6H46l-.8.4-.5.6q-.2.4-.2 1t.2 1 .5.7l.9.3 1 .1q1 0 1.8-.2"/>
</svg>
