<svg data-themed="" xmlns="http://www.w3.org/2000/svg" fill="none" viewBox="0 0 216 216"><path fill="#59b8aa" stroke="#000000" stroke-miterlimit="10" stroke-width=".228" d="M67.336 31.954a2.77 2.77 0 1 0 0-5.54 2.77 2.77 0 0 0 0 5.54Z"/><path stroke="#000000" stroke-miterlimit="10" stroke-width=".228" d="M43.164 25.4v5.32M45.823 28.06h-5.321M167.01 197.218v5.321M169.67 199.878h-5.32"/><path fill="#59b8aa" stroke="#000000" stroke-miterlimit="10" stroke-width=".228" d="M66.222 202.877a4.004 4.004 0 1 0-.001-8.008 4.004 4.004 0 0 0 .001 8.008Z"/><path fill="#000000" d="M63.981 199.064c-.555-.792-.797-1.8-.713-2.77-.65.7-1.05 1.633-1.05 2.663a3.92 3.92 0 0 0 3.92 3.92 3.91 3.91 0 0 0 3.43-2.034c-1.982.537-4.46-.167-5.587-1.779"/><path fill="#ffffff" d="M67.894 198.517a1.539 1.539 0 1 0 0-3.078 1.539 1.539 0 0 0 0 3.078"/><path fill="#f3b443" stroke="#000000" stroke-miterlimit="10" stroke-width=".228" d="M37.472 77.687a3.148 3.148 0 1 0 0-6.295 3.148 3.148 0 0 0 0 6.295Z"/><path fill="#000000" d="M35.71 74.689c-.436-.624-.627-1.416-.56-2.178a3.06 3.06 0 0 0-.826 2.093 3.083 3.083 0 0 0 3.082 3.082 3.07 3.07 0 0 0 2.697-1.599c-1.559.422-3.507-.132-4.393-1.398"/><path fill="#ffffff" d="M38.786 74.259a1.21 1.21 0 1 0 0-2.42 1.21 1.21 0 0 0 0 2.42"/><path fill="#f3b443" stroke="#000000" stroke-miterlimit="10" stroke-width=".228" d="M162.222 31.552a1.982 1.982 0 1 0 0-3.964 1.982 1.982 0 0 0 0 3.964Z"/><path fill="#000000" d="M161.113 29.664a2.1 2.1 0 0 1-.353-1.371c-.322.346-.52.808-.52 1.318a1.94 1.94 0 0 0 1.941 1.94c.732 0 1.368-.407 1.697-1.006-.981.265-2.208-.083-2.765-.88"/><path fill="#ffffff" d="M163.049 29.394a.762.762 0 1 0 0-1.524.762.762 0 0 0 0 1.524"/><path fill="#f3b443" stroke="#000000" stroke-miterlimit="10" stroke-width=".228" d="m6.275 60.346 2.8 2.807s4.477.415 10.01-6.03c5.533-6.444 4.556-10.428 4.556-10.428l-2.628-2.992S7.51 51.393 6.275 60.348z"/><path fill="#ffdb7f" stroke="#000000" stroke-miterlimit="10" stroke-width=".228" d="M16.818 54.702c3.994-4.628 5.875-9.55 4.2-10.996s-6.27 1.133-10.264 5.76c-3.995 4.628-5.875 9.551-4.2 10.997s6.27-1.134 10.264-5.761Z"/><path fill="#ffdb7f" stroke="#000000" stroke-miterlimit="10" stroke-width=".228" d="M15.651 53.46c3.162-3.663 4.813-7.418 3.69-8.388-1.125-.97-4.599 1.212-7.76 4.874s-4.812 7.418-3.689 8.388 4.598-1.213 7.76-4.875Z"/><path fill="#000000" d="m21.377 54.064-2.297-2.352s2.959-4.717 2.493-7.373l2.068 2.355s.543 2.933-2.267 7.37z" opacity=".49"/><path fill="#f3b443" stroke="#000000" stroke-miterlimit="10" stroke-width=".228" d="m196.905 111.544-3.929 3.939s-6.281.58-14.04-8.46c-7.762-9.04-6.391-14.63-6.391-14.63l3.686-4.197s18.942 10.786 20.674 23.348Z"/><path fill="#ffdb7f" stroke="#000000" stroke-miterlimit="10" stroke-width=".228" d="M196.518 111.696c2.348-2.027-.29-8.931-5.892-15.422-5.602-6.49-12.047-10.108-14.396-8.08-2.348 2.026.29 8.93 5.892 15.421s12.047 10.108 14.396 8.081Z"/><path fill="#ffdb7f" stroke="#000000" stroke-miterlimit="10" stroke-width=".228" d="M194.64 108.711c1.577-1.362-.739-6.63-5.173-11.767s-9.307-8.198-10.885-6.836c-1.577 1.361.739 6.63 5.173 11.766s9.308 8.198 10.885 6.837Z"/><path fill="#000000" d="m175.722 102.731 3.22-3.301s-4.151-6.615-3.495-10.343l-2.903 3.304s-.763 4.115 3.178 10.338z" opacity=".49"/><path fill="#ffffff" stroke="#000000" stroke-miterlimit="10" stroke-width=".228" d="M18.195 155.686s9.072-1.114 9.072 10.277c0 0 0-10.492 9.581-10.308 0 0-8.243.347-9.581-10.676 0 0 .255 10.492-9.072 10.705zM153.764 51.833s10.217-1.25 10.217 11.539c0 0 0-11.78 10.79-11.572 0 0-9.282.39-10.79-11.985 0 0 .287 11.78-10.217 12.018Z"/><path fill="#7c5c22" stroke="#000000" stroke-width=".6" d="M56.994 69.494c2.91-19.373 20.924-32.697 40.233-29.761l13.764 2.091c19.309 2.936 32.605 21.02 29.695 40.393l-7.666 51.027c-2.91 19.372-20.924 32.695-40.233 29.76l-13.764-2.092c-19.31-2.935-32.605-21.019-29.695-40.392zm39.29-7.612C87.31 60.518 78.94 66.71 77.587 75.711l-6.759 44.992c-1.352 9 4.825 17.404 13.8 18.768l9.103 1.384c8.975 1.364 17.345-4.828 18.697-13.829l6.759-44.992c1.353-9-4.824-17.404-13.798-18.769z"/><path fill="#ffdb7f" stroke="#000000" stroke-width=".6" d="M54.058 65.972c2.91-19.373 20.924-32.697 40.234-29.761l13.763 2.091c19.31 2.936 32.606 21.02 29.695 40.393l-7.665 51.027c-2.911 19.373-20.925 32.695-40.234 29.76l-13.763-2.091c-19.31-2.936-32.606-21.02-29.695-40.393zM93.35 58.36c-8.974-1.364-17.346 4.828-18.698 13.829l-6.76 44.992c-1.351 9 4.826 17.404 13.8 18.768l9.104 1.384c8.974 1.364 17.345-4.828 18.697-13.829l6.759-44.992c1.352-9-4.825-17.404-13.799-18.769z"/><path fill="#83cdc1" stroke="#000000" stroke-width=".6" d="M146.771 143.601q3.086.368 5.462 2.118c1.601 1.131 2.788 2.727 3.564 4.772h-.001c.831 2.015 1.068 4.433.733 7.238-.492 4.121-1.959 7.186-4.44 9.142-2.42 1.949-5.219 2.735-8.378 2.358-3.155-.377-5.716-1.754-7.665-4.131l-.005-.004.236-.186-.235.185c-1.915-2.438-2.589-5.808-2.081-10.059.492-4.12 1.934-7.168 4.367-9.085 2.463-1.942 5.284-2.725 8.443-2.348Zm9.223-23.539-.369.427-38.801 44.987-.105.121-8.69-1.037.369-.428 38.801-44.986.104-.122zm-10.042 29.831c-1.145-.136-2.042.245-2.731 1.158-.703.933-1.217 2.573-1.504 4.977-.262 2.196-.142 3.833.321 4.944.452 1.084 1.233 1.679 2.374 1.815 1.146.137 2.069-.243 2.804-1.157l.005-.006c.785-.921 1.334-2.485 1.604-4.747.259-2.169.119-3.826-.382-5l-.005-.012c-.225-.599-.543-1.052-.949-1.373s-.913-.524-1.537-.599Zm-25.891-34.666c2.058.246 3.883.952 5.467 2.121h-.001c1.639 1.133 2.848 2.704 3.631 4.701l.148.384c.712 1.941.899 4.255.579 6.93-.492 4.121-1.96 7.186-4.44 9.141l.001.001c-2.421 1.95-5.244 2.732-8.446 2.349-3.155-.376-5.696-1.751-7.601-4.124l-.001-.003c-1.914-2.438-2.589-5.808-2.081-10.059.497-4.164 1.942-7.235 4.375-9.153 2.415-1.903 5.211-2.665 8.369-2.288Zm-.753 6.3c-1.143-.137-2.064.24-2.797 1.149l-.13.183c-.638.956-1.104 2.517-1.368 4.728-.265 2.218-.14 3.872.332 4.995.462 1.097 1.259 1.699 2.424 1.838 1.146.137 2.069-.242 2.803-1.156.744-.927 1.274-2.518 1.55-4.828.268-2.241.139-3.912-.343-5.047-.471-1.109-1.283-1.72-2.471-1.862Z"/><path fill="#f3fbf9" stroke="#000000" stroke-width=".6" d="M144.578 141.489q3.086.368 5.462 2.118c1.6 1.131 2.787 2.727 3.564 4.772h-.001c.83 2.015 1.068 4.433.733 7.238-.493 4.121-1.96 7.186-4.44 9.142-2.42 1.949-5.219 2.735-8.379 2.358-3.155-.377-5.716-1.754-7.665-4.13l-.004-.005.236-.186-.236.185c-1.914-2.438-2.588-5.808-2.081-10.059.493-4.12 1.935-7.168 4.367-9.085 2.464-1.942 5.285-2.725 8.444-2.348Zm9.222-23.539-.368.427-38.801 44.987-.105.122-8.69-1.038.369-.427 38.801-44.987.104-.122zm-10.041 29.831c-1.146-.136-2.043.245-2.731 1.158-.704.933-1.217 2.573-1.504 4.977-.263 2.197-.142 3.834.321 4.944.452 1.085 1.233 1.679 2.374 1.815 1.146.137 2.069-.243 2.803-1.157l.006-.006c.785-.921 1.333-2.484 1.603-4.747.259-2.169.12-3.826-.381-4.999l-.006-.013c-.224-.599-.543-1.052-.948-1.373s-.914-.524-1.537-.599Zm-25.892-34.666q3.089.368 5.468 2.122l-.001-.001c1.638 1.133 2.848 2.704 3.63 4.701l.149.384c.711 1.941.898 4.256.579 6.93-.492 4.121-1.96 7.186-4.441 9.141l.001.002c-2.421 1.949-5.243 2.731-8.445 2.349-3.155-.377-5.696-1.752-7.601-4.125l-.002-.003c-1.914-2.438-2.588-5.808-2.08-10.059.497-4.164 1.941-7.235 4.375-9.152 2.415-1.904 5.211-2.666 8.368-2.289Zm-.752 6.3c-1.143-.136-2.065.24-2.798 1.149l-.13.183c-.637.956-1.103 2.517-1.367 4.728-.265 2.218-.141 3.872.332 4.996.461 1.096 1.259 1.698 2.423 1.837 1.146.137 2.069-.242 2.804-1.156.744-.927 1.274-2.518 1.55-4.828.267-2.241.138-3.912-.344-5.047-.471-1.109-1.283-1.72-2.47-1.862Z"/></svg>