<svg fill="none" viewBox="0 0 50 20"><path fill="#fcfdfd" d="M0 0h13.76v4H5.4v3.9h7.71v3.82H5.4v4.08h8.36v4H0zm19.9 11.1L15 2.4h6.02l2.77 6.33 2.66-6.33h5.96l-4.93 8.7 5.01 8.7h-6.03l-2.89-6.34-2.78 6.33h-5.96zm16.4 8.63a5 5 0 0 1-2.02-.9 4 4 0 0 1-1.24-1.68 7 7 0 0 1-.41-2.6q0-1.47.38-2.47a3.6 3.6 0 0 1 1.19-1.62q.8-.62 2-.9 1.2-.3 2.8-.29h4.9v-.52q0-.98-.33-1.55a2 2 0 0 0-1-.8 4.5 4.5 0 0 0-2.82-.04q-.62.21-1.07.73-.45.5-.67 1.42l-5.2-1.62q.3-1.3 1.08-2.18a6 6 0 0 1 1.9-1.43 10 10 0 0 1 2.44-.8A15 15 0 0 1 41 2.25q2.72 0 4.55.67a5.5 5.5 0 0 1 2.79 2.16q.93 1.5.94 3.98V19.8h-4.43l-.47-1.88q-.25.4-.74.77-.5.38-1.21.66a9 9 0 0 1-3.41.65q-1.55 0-2.74-.27zm5.43-3.65q.72-.2 1.27-.52.56-.33.82-.72v-2.43h-3.56q-.52 0-.96.08-.42.08-.72.27a1.2 1.2 0 0 0-.43.57q-.15.37-.14 1 0 .6.15.96.15.37.45.58.3.22.7.3.41.1.9.1.8 0 1.51-.2z"/></svg>