<svg width="390" height="390" viewBox="0 0 390 390" fill="none" xmlns="http://www.w3.org/2000/svg">
<path d="M48.9414 192.883C52.2228 192.883 54.8828 190.223 54.8828 186.941C54.8828 183.66 52.2228 181 48.9414 181C45.6601 181 43 183.66 43 186.941C43 190.223 45.6601 192.883 48.9414 192.883Z" fill="#59B8AA" stroke="black" stroke-width="0.325" stroke-miterlimit="10"/>
<path d="M45.616 187.224C44.7925 186.048 44.4326 184.553 44.5572 183.113C43.5917 184.151 43 185.536 43 187.065C43 190.276 45.6056 192.882 48.8168 192.882C51.0142 192.882 52.9208 191.66 53.907 189.864C50.9657 190.66 47.2874 189.615 45.616 187.224Z" fill="black"/>
<path d="M51.4225 186.411C52.6838 186.411 53.7063 185.389 53.7063 184.128C53.7063 182.866 52.6838 181.844 51.4225 181.844C50.1612 181.844 49.1387 182.866 49.1387 184.128C49.1387 185.389 50.1612 186.411 51.4225 186.411Z" fill="white"/>
<path d="M281.599 100.198C284.139 100.198 286.198 98.1386 286.198 95.5988C286.198 93.059 284.139 91 281.599 91C279.059 91 277 93.059 277 95.5988C277 98.1386 279.059 100.198 281.599 100.198Z" fill="#59B8AA" stroke="black" stroke-width="0.325" stroke-miterlimit="10"/>
<path d="M279.025 95.8186C278.387 94.908 278.109 93.7509 278.205 92.6367C277.458 93.4402 277 94.5116 277 95.6954C277 98.181 279.017 100.198 281.502 100.198C283.203 100.198 284.679 99.2523 285.442 97.8623C283.166 98.4783 280.319 97.6694 279.025 95.8186Z" fill="black"/>
<path d="M283.52 95.1878C284.496 95.1878 285.287 94.3964 285.287 93.4201C285.287 92.4438 284.496 91.6523 283.52 91.6523C282.543 91.6523 281.752 92.4438 281.752 93.4201C281.752 94.3964 282.543 95.1878 283.52 95.1878Z" fill="white"/>
<path d="M183.99 279.98C186.193 279.98 187.98 278.193 187.98 275.99C187.98 273.786 186.193 272 183.99 272C181.786 272 180 273.786 180 275.99C180 278.193 181.786 279.98 183.99 279.98Z" fill="#F3B443" stroke="black" stroke-width="0.325" stroke-miterlimit="10"/>
<path d="M181.757 276.179C181.204 275.388 180.962 274.385 181.046 273.418C180.397 274.115 180 275.045 180 276.072C180 278.228 181.75 279.978 183.906 279.978C185.382 279.978 186.662 279.157 187.324 277.951C185.349 278.486 182.879 277.784 181.757 276.179Z" fill="black"/>
<path d="M185.657 275.634C186.504 275.634 187.19 274.947 187.19 274.1C187.19 273.253 186.504 272.566 185.657 272.566C184.81 272.566 184.123 273.253 184.123 274.1C184.123 274.947 184.81 275.634 185.657 275.634Z" fill="white"/>
<path d="M225.947 59V66.8965" stroke="black" stroke-width="0.325" stroke-miterlimit="10"/>
<path d="M229.897 62.9492H222" stroke="black" stroke-width="0.325" stroke-miterlimit="10"/>
<path d="M309.111 301.222C311.381 301.222 313.222 299.381 313.222 297.111C313.222 294.841 311.381 293 309.111 293C306.841 293 305 294.841 305 297.111C305 299.381 306.841 301.222 309.111 301.222Z" fill="#59B8AA" stroke="black" stroke-width="0.325" stroke-miterlimit="10"/>
<path d="M148.998 77.2843C148.998 77.2843 161.157 75.7983 161.157 91C161.157 91 161.157 77 173.998 77.245C173.998 77.245 162.95 77.7072 161.157 63C161.157 63 161.499 77 148.998 77.2843Z" fill="white" stroke="black" stroke-width="0.325" stroke-miterlimit="10"/>
<path d="M142.998 336.714C142.998 336.714 152.239 335.6 152.239 347C152.239 347 152.239 336.501 161.998 336.684C161.998 336.684 153.602 337.03 152.239 326C152.239 326 152.499 336.499 142.998 336.712V336.714Z" fill="white" stroke="black" stroke-width="0.325" stroke-miterlimit="10"/>
<path d="M315.998 218.851C315.998 218.851 321.818 218.139 321.818 225.426C321.818 225.426 321.818 218.713 327.967 218.831C327.967 218.831 322.677 219.052 321.818 212C321.818 212 321.981 218.713 315.998 218.848V218.851Z" fill="white" stroke="black" stroke-width="0.325" stroke-miterlimit="10"/>
<path d="M146.565 194.948C148.374 194.948 149.852 196.426 149.852 198.234V213.885C149.852 220.298 155.07 225.506 161.485 225.506H175.981C177.79 225.506 179.268 226.983 179.268 228.792C179.267 230.601 177.79 232.077 175.981 232.077H161.485C151.454 232.077 143.28 223.917 143.28 213.885V198.234C143.28 196.426 144.757 194.948 146.565 194.948ZM243.267 196.104C245.075 196.104 246.553 197.58 246.553 199.389V213.885C246.553 223.917 238.392 232.077 228.348 232.077H212.696C210.888 232.077 209.411 230.601 209.411 228.792C209.411 226.983 210.888 225.506 212.696 225.506H228.348C234.762 225.506 239.981 220.286 239.981 213.885V199.389C239.982 197.58 241.458 196.104 243.267 196.104ZM210.778 191.668C211.42 189.973 213.325 189.12 215.017 189.761C216.708 190.401 217.563 192.29 216.923 193.983C216.773 194.383 215.02 198.897 211.104 203.653C207.337 208.229 201.536 213.065 193.21 214.638L193.434 214.861H191.696C190.1 214.861 188.704 213.695 188.457 212.07V212.071C188.178 210.277 189.412 208.603 191.2 208.324H191.202C198.103 207.264 202.98 203.16 206.158 199.255C207.745 197.305 208.898 195.415 209.657 194.006C210.415 192.599 210.773 191.683 210.775 191.677L210.778 191.668ZM194.429 162.005C196.237 162.005 197.715 163.482 197.715 165.291V185.06C197.715 189.088 194.441 192.36 190.413 192.36H187.515C185.706 192.36 184.229 190.883 184.229 189.074C184.229 187.266 185.706 185.789 187.515 185.789H190.413C190.811 185.789 191.143 185.457 191.144 185.06V165.291C191.144 163.482 192.62 162.005 194.429 162.005ZM174.544 160.838C176.353 160.838 177.83 162.314 177.83 164.123V175.951C177.83 177.76 176.353 179.237 174.544 179.237C172.735 179.237 171.259 177.76 171.259 175.951V164.123C171.259 162.314 172.735 160.838 174.544 160.838ZM213.852 160.838C215.66 160.838 217.137 162.314 217.137 164.123V175.951C217.137 177.76 215.66 179.237 213.852 179.237C212.043 179.237 210.565 177.76 210.565 175.951V164.123C210.566 162.314 212.043 160.838 213.852 160.838ZM228.348 130.28C238.379 130.28 246.553 138.44 246.553 148.485V164.136C246.553 165.944 245.076 167.422 243.268 167.422C241.459 167.422 239.981 165.945 239.981 164.136V148.485C239.981 142.071 234.762 136.852 228.348 136.852H213.852C212.043 136.852 210.565 135.374 210.565 133.565C210.566 131.757 212.043 130.28 213.852 130.28H228.348ZM177.136 130.28C178.944 130.28 180.422 131.757 180.422 133.565C180.422 135.374 178.945 136.852 177.136 136.852H161.485C155.071 136.852 149.852 142.071 149.852 148.485V162.981C149.852 164.79 148.374 166.268 146.565 166.268C144.757 166.267 143.28 164.79 143.28 162.981V148.485C143.28 138.454 151.44 130.28 161.485 130.28H177.136Z" fill="#12A594" stroke="#12A594" stroke-width="1.44" stroke-miterlimit="10"/>
<path d="M104.885 271.846L78.8862 255.449L66.2389 276.805C64.8503 279.165 69.6565 284.564 76.9691 288.863C84.2818 293.164 91.3371 294.736 92.7224 292.375C92.7867 292.267 92.8341 292.148 92.8714 292.026L92.9154 292.05L104.885 271.839V271.846Z" fill="#FFDB7F" stroke="black" stroke-width="0.280961" stroke-miterlimit="10"/>
<path d="M104.983 271.407C106.371 269.046 101.567 263.647 94.254 259.348C86.9408 255.049 79.8872 253.478 78.4993 255.839C77.1114 258.199 81.9148 263.598 89.228 267.898C96.5412 272.197 103.595 273.768 104.983 271.407Z" fill="#CC963E" stroke="black" stroke-width="0.280961" stroke-miterlimit="10"/>
<path d="M99.6178 250.324C95.1096 247.655 89.2737 249.149 86.6047 253.657L83.7562 258.467C83.6749 258.558 83.6038 258.653 83.5394 258.761C83.0043 259.662 83.3023 260.824 84.2033 261.359C85.1042 261.894 86.266 261.596 86.8012 260.695L89.836 255.571C91.4516 252.844 94.9809 251.94 97.7075 253.555C100.434 255.171 101.338 258.7 99.7228 261.427L96.8743 266.236C96.793 266.328 96.7218 266.423 96.6575 266.531C96.1223 267.432 96.4204 268.594 97.3214 269.129C98.2223 269.664 99.3841 269.366 99.9192 268.465L102.954 263.341C105.623 258.832 104.129 252.996 99.6212 250.327L99.6178 250.324Z" fill="#FFDB7F" stroke="black" stroke-width="0.280961" stroke-miterlimit="10"/>
<g opacity="0.15">
<path d="M80.2081 290.605C71.903 285.399 71.8184 267.383 71.8184 267.383L77.5662 257.676C76.3841 278.781 87.8053 293.477 87.8053 293.477C85.9458 293.48 80.2081 290.605 80.2081 290.605Z" fill="white"/>
<path d="M96.8621 285.392C90.403 278.533 90.1287 268.42 90.1287 268.42V268.416L98.4439 272.338C97.8545 274.852 100.334 279.532 100.334 279.532L96.8621 285.392Z" fill="white"/>
</g>
<path d="M101.927 258.271C101.89 255.575 100.166 252.936 97.6596 251.893C97.3413 251.761 97.1143 251.476 97.2159 251.111C97.3006 250.809 97.68 250.535 97.9983 250.667C101.043 251.934 103.153 254.955 103.197 258.271C103.208 259.09 101.937 259.087 101.927 258.271Z" fill="white"/>
<path d="M101.771 261.719C102.588 261.719 102.591 260.449 101.771 260.449C100.952 260.449 100.952 261.719 101.771 261.719Z" fill="white"/>
<path d="M85.1802 277.579C86.628 277.579 87.8018 276.405 87.8018 274.958C87.8018 273.51 86.628 272.336 85.1802 272.336C83.7323 272.336 82.5586 273.51 82.5586 274.958C82.5586 276.405 83.7323 277.579 85.1802 277.579Z" fill="black"/>
<path d="M83.8583 274.812L79.7058 280.211C79.5127 280.466 79.5805 280.831 79.8548 280.994L82.2698 282.423C82.5374 282.582 82.8863 282.477 83.0217 282.196L85.9482 276.052L83.8583 274.812Z" fill="black"/>
<path d="M97.0625 75.3945L100.174 78.5137C100.174 78.5137 105.148 78.9748 111.296 71.8142C117.443 64.6536 116.358 60.2262 116.358 60.2262L113.438 56.9023C113.438 56.9023 98.433 65.4464 97.0625 75.3971V75.3945Z" fill="#F3B443" stroke="black" stroke-width="0.218931" stroke-miterlimit="10"/>
<path d="M108.774 69.1242C113.212 63.9827 115.301 58.5127 113.441 56.9065C111.58 55.3004 106.474 58.1663 102.036 63.3078C97.5977 68.4492 95.5084 73.9192 97.3692 75.5254C99.23 77.1316 104.336 74.2657 108.774 69.1242Z" fill="#FFDB7F" stroke="black" stroke-width="0.218931" stroke-miterlimit="10"/>
<path d="M107.482 67.7427C110.994 63.6735 112.829 59.5009 111.58 58.423C110.332 57.345 106.472 59.7699 102.959 63.8391C99.447 67.9083 97.612 72.0809 98.8608 73.1588C100.11 74.2368 103.969 71.8119 107.482 67.7427Z" fill="#FFDB7F" stroke="black" stroke-width="0.218931" stroke-miterlimit="10"/>
<path opacity="0.49" d="M113.839 68.415L111.287 65.8011C111.287 65.8011 114.575 60.5601 114.057 57.6094L116.354 60.2259C116.354 60.2259 116.958 63.485 113.836 68.415H113.839Z" fill="black"/>
<path d="M326.427 183.332C325.953 183.681 321.756 186.728 321.248 187.005C313.64 191.184 302.552 187.461 295.642 178.088C288.811 168.824 288.461 157.29 294.487 151.2C294.964 150.718 299.184 147.539 299.738 147.13C307.324 141.536 315.741 147.839 323.111 157.837C330.482 167.834 334.013 177.738 326.427 183.332Z" fill="#F3B443" stroke="black" stroke-width="0.218931" stroke-miterlimit="10"/>
<path opacity="0.49" d="M299.747 147.027C299.193 147.437 294.97 150.615 294.496 151.097C289.885 155.76 289.012 163.613 291.921 171.196C292.952 170.167 294.022 169.18 295.123 168.232C296.898 166.452 298.83 164.836 300.895 163.403C300.638 158.329 302.752 151.273 299.747 147.027Z" fill="black"/>
<path d="M326.427 183.327C334.013 177.734 334.187 165.096 326.816 155.099C319.446 145.101 307.321 141.531 299.735 147.123C292.149 152.716 291.975 165.354 299.346 175.352C306.716 185.349 318.841 188.92 326.427 183.327Z" fill="#FFDB7F" stroke="black" stroke-width="0.218931" stroke-miterlimit="10"/>
<path d="M325.297 180.95C332.108 175.928 332.265 164.579 325.645 155.601C319.026 146.623 308.138 143.416 301.326 148.438C294.514 153.46 294.358 164.809 300.977 173.788C307.597 182.766 318.485 185.973 325.297 180.95Z" fill="#FFDB7F" stroke="black" stroke-width="0.218931" stroke-miterlimit="10"/>
<g opacity="0.29">
<path d="M332.288 172.287L294.182 156.72V156.717C294.71 152.544 297.122 149.691 297.122 149.691L331.177 163.722C332.288 165.621 332.288 172.287 332.288 172.287Z" fill="white"/>
<path d="M331.418 175.855L294.179 160.989C294.179 160.989 294.262 160.875 294.112 160.829C294.112 161.088 294.08 161.35 294.112 161.606C294.202 162.319 294.36 162.958 294.371 163.678C294.371 163.728 294.397 163.893 294.389 163.937C294.454 164.088 294.426 164.29 294.501 164.456L330.122 178.834C330.64 178.186 331.288 176.502 331.418 175.855Z" fill="white"/>
</g>
</svg>
