<svg xmlns="http://www.w3.org/2000/svg" width="200" height="48" viewBox="0 0 200 48">
  <rect width="200" height="48" rx="8" fill="#000"/>
  <g transform="translate(12,12) scale(0.04499,0.04410)">
    <path d="M533.5 278.4c0-18.5-1.5-37.1-4.7-55.3H272.1v104.8h147c-6.1 33.8-25.7 63.7-54.4 82.7v68h87.7c51.5-47.4 81.1-117.4 81.1-200.2z" fill="#4285F4"/>
    <path d="M272.1 544.3c73.4 0 135.3-24.1 180.4-65.7l-87.7-68c-24.4 16.6-55.9 26-92.6 26-71 0-131.2-47.9-152.8-112.3H28.9v70.1c46.2 91.9 140.3 149.9 243.2 149.9z" fill="#34A853"/>
    <path d="M119.3 324.3c-11.4-33.8-11.4-70.4 0-104.2V150H28.9c-38.6 76.9-38.6 167.5 0 244.4l90.4-70.1z" fill="#FBBC04"/>
    <path d="M272.1 107.7c38.8-.6 76.3 14 104.4 40.8l77.7-77.7C405 24.6 339.7-.8 272.1 0 169.2 0 75.1 58 28.9 150l90.4 70.1c21.5-64.5 81.8-112.4 152.8-112.4z" fill="#EA4335"/>
  </g>
  <line x1="44" y1="10" x2="44" y2="38" stroke="#4D4D4D" stroke-width="1"/>
  <text x="52" y="19" fill="#FFFFFF" fill-opacity="0.7" font-family="sans-serif" font-size="11">Add to</text>
  <text x="52" y="34" fill="#FFFFFF" font-family="sans-serif" font-size="14" font-weight="500">Google Wallet</text>
</svg>
