<svg xmlns="http://www.w3.org/2000/svg" fill="none" viewBox="0 0 239 55"><rect width="238" height="54" x=".5" y=".5" fill="#1f1f1f" rx="27"/><path fill="#34a853" d="M57 23.791H21v-5.645c0-3.065 2.642-5.646 5.78-5.646h24.44c3.138 0 5.78 2.58 5.78 5.646z"/><path fill="#fbbc04" d="M57 29H21v-6c0-3.257 2.642-6 5.78-6h24.44c3.138 0 5.78 2.743 5.78 6z"/><path fill="#ea4335" d="M57 34H21v-6c0-3.257 2.642-6 5.78-6h24.44c3.138 0 5.78 2.743 5.78 6z"/><path fill="url(#a)" d="m21 25.24 22.85 5.163c2.63.645 5.588 0 7.725-1.613L57 24.918v12.098c0 3.064-2.63 5.484-5.753 5.484H26.753C23.63 42.5 21 40.08 21 37.016z"/><path fill="#fff" d="m69.195 21.5 3.51-9.308h1.625l3.523 9.308H76.28l-.858-2.392h-3.796l-.858 2.392zm3.939-6.565-1.027 2.847h2.834l-1.027-2.847-.351-1.066h-.078zm8.6 9.581q-.871 0-1.508-.286a2.85 2.85 0 0 1-1.014-.715 2.8 2.8 0 0 1-.56-.884l1.3-.546q.209.52.664.845.468.338 1.118.338.91 0 1.43-.546.533-.546.533-1.547v-.637h-.078a2.25 2.25 0 0 1-.871.754q-.546.273-1.248.273a2.9 2.9 0 0 1-1.547-.429 3.2 3.2 0 0 1-1.131-1.196q-.43-.78-.43-1.82 0-1.053.43-1.82.43-.78 1.13-1.209a2.9 2.9 0 0 1 1.548-.429q.702 0 1.248.286.56.286.87.754h.079v-.832h1.339v6.279q0 1.08-.43 1.833a2.78 2.78 0 0 1-1.156 1.144q-.741.39-1.716.39m.013-4.225q.52 0 .962-.247a1.96 1.96 0 0 0 .715-.741q.273-.495.273-1.183 0-.715-.273-1.196a1.84 1.84 0 0 0-.715-.741 1.94 1.94 0 0 0-.962-.247q-.52 0-.975.26a1.86 1.86 0 0 0-.715.728q-.273.481-.273 1.196 0 .702.273 1.196.273.48.715.728.455.247.975.247m4.931 1.209v-6.63h1.326v.975h.078q.222-.507.754-.832a2.2 2.2 0 0 1 1.17-.338q.273 0 .455.039.195.039.351.091v1.456a3.5 3.5 0 0 0-.507-.169 2 2 0 0 0-.52-.065q-.494 0-.884.273-.376.26-.598.715-.22.443-.22.975v3.51zm7.854.208q-.975 0-1.742-.455a3.3 3.3 0 0 1-1.21-1.248q-.428-.793-.428-1.807 0-.95.416-1.755a3.3 3.3 0 0 1 1.157-1.287q.754-.494 1.729-.494 1.026 0 1.742.442.727.442 1.105 1.209.376.767.377 1.729 0 .143-.013.26a1 1 0 0 1-.013.182H92.53q.104.988.689 1.482.597.494 1.352.494.675 0 1.118-.299a2.4 2.4 0 0 0 .702-.767l1.157.559q-.429.78-1.17 1.274-.742.48-1.846.481m-.065-5.85q-.702 0-1.196.429t-.663 1.144h3.679a1.8 1.8 0 0 0-.221-.702 1.6 1.6 0 0 0-.598-.611q-.39-.26-1.001-.26m7.567 8.658q-.872 0-1.508-.286a2.85 2.85 0 0 1-1.014-.715 2.8 2.8 0 0 1-.56-.884l1.301-.546q.207.52.663.845.467.338 1.118.338.91 0 1.43-.546.533-.546.533-1.547v-.637h-.078a2.26 2.26 0 0 1-.871.754q-.546.273-1.248.273a2.9 2.9 0 0 1-1.547-.429 3.2 3.2 0 0 1-1.131-1.196q-.43-.78-.43-1.82 0-1.053.43-1.82.429-.78 1.131-1.209a2.9 2.9 0 0 1 1.547-.429q.702 0 1.248.286.558.286.871.754h.078v-.832h1.339v6.279q0 1.08-.429 1.833a2.8 2.8 0 0 1-1.157 1.144q-.741.39-1.716.39m.013-4.225q.52 0 .962-.247.441-.26.715-.741.273-.495.273-1.183 0-.715-.273-1.196a1.85 1.85 0 0 0-1.677-.988 1.93 1.93 0 0 0-1.69.988q-.273.481-.273 1.196 0 .702.273 1.196.273.48.715.728.454.247.975.247m6.948 1.417q-.716 0-1.274-.273a2.14 2.14 0 0 1-.871-.793 2.16 2.16 0 0 1-.312-1.157q0-.702.364-1.196a2.34 2.34 0 0 1 1.001-.767q.624-.26 1.378-.26.624 0 1.092.117.48.117.728.247v-.351q0-.65-.468-1.04t-1.209-.39q-.507 0-.962.234a1.86 1.86 0 0 0-.728.611l-.962-.741q.429-.598 1.131-.936a3.5 3.5 0 0 1 1.56-.351q1.443 0 2.223.715.78.702.78 1.976V21.5h-1.365v-.819h-.078q-.261.403-.78.715-.52.312-1.248.312m.247-1.144q.546 0 .962-.26a1.9 1.9 0 0 0 .65-.676q.246-.43.247-.923a3 3 0 0 0-.702-.273 3 3 0 0 0-.858-.117q-.859 0-1.222.351a1.1 1.1 0 0 0-.364.832q0 .468.351.767.351.3.936.299m4.769.936v-6.63h1.326v.975h.078q.222-.507.754-.832a2.2 2.2 0 0 1 1.17-.338q.273 0 .455.039.195.039.351.091v1.456a3.4 3.4 0 0 0-.507-.169 2 2 0 0 0-.52-.065q-.494 0-.884.273-.376.26-.598.715-.22.443-.221.975v3.51zm10.332.208a2.9 2.9 0 0 1-1.274-.273 2.15 2.15 0 0 1-.871-.793 2.16 2.16 0 0 1-.312-1.157q0-.702.364-1.196a2.34 2.34 0 0 1 1.001-.767q.624-.26 1.378-.26.624 0 1.092.117.482.117.728.247v-.351q0-.65-.468-1.04t-1.209-.39q-.507 0-.962.234a1.87 1.87 0 0 0-.728.611l-.962-.741q.429-.598 1.131-.936a3.5 3.5 0 0 1 1.56-.351q1.443 0 2.223.715.78.702.78 1.976V21.5h-1.365v-.819h-.078q-.26.403-.78.715-.519.312-1.248.312m.247-1.144q.546 0 .962-.26t.65-.676q.247-.43.247-.923a2.9 2.9 0 0 0-.702-.273 3 3 0 0 0-.858-.117q-.858 0-1.222.351a1.1 1.1 0 0 0-.364.832q0 .468.351.767.351.3.936.299m7.817.936v-9.308h1.404V21.5zm5.076.208q-.715 0-1.274-.273a2.14 2.14 0 0 1-.871-.793 2.16 2.16 0 0 1-.312-1.157q0-.702.364-1.196a2.34 2.34 0 0 1 1.001-.767q.624-.26 1.378-.26.624 0 1.092.117.481.117.728.247v-.351q0-.65-.468-1.04t-1.209-.39q-.507 0-.962.234a1.87 1.87 0 0 0-.728.611l-.962-.741q.429-.598 1.131-.936a3.5 3.5 0 0 1 1.56-.351q1.443 0 2.223.715.78.702.78 1.976V21.5h-1.365v-.819h-.078q-.26.403-.78.715t-1.248.312m.247-1.144q.546 0 .962-.26a1.9 1.9 0 0 0 .65-.676q.247-.43.247-.923a2.9 2.9 0 0 0-.702-.273 3 3 0 0 0-.858-.117q-.858 0-1.222.351a1.1 1.1 0 0 0-.364.832q0 .468.351.767.351.3.936.299M70.377 41.5V29.328h4.556q.986 0 1.802.425.833.425 1.309 1.156.493.73.493 1.649 0 .935-.476 1.598a2.95 2.95 0 0 1-1.173 1.003v.085q.917.323 1.496 1.071.578.731.578 1.768 0 1.02-.527 1.802-.51.765-1.394 1.19a4.3 4.3 0 0 1-1.904.425zm4.539-10.455h-2.669v3.4h2.601q.884 0 1.377-.527.493-.545.493-1.19 0-.63-.476-1.156-.476-.527-1.326-.527m-2.669 8.721h2.89q.918 0 1.428-.544.527-.561.527-1.275t-.527-1.275-1.496-.561h-2.822zm9.52-8.211q-.51 0-.884-.357a1.24 1.24 0 0 1-.357-.884q0-.51.357-.867.374-.357.884-.357t.867.357q.374.357.374.867t-.374.884a1.18 1.18 0 0 1-.867.357m-.918 9.945v-8.67h1.836v8.67zm4.13 0V29.328h1.837V41.5zm4.018 0V29.328h1.836V41.5zm7.879.272q-1.275 0-2.278-.595a4.3 4.3 0 0 1-1.581-1.632q-.561-1.037-.561-2.363 0-1.24.544-2.295a4.34 4.34 0 0 1 1.513-1.683q.985-.645 2.26-.646 1.343 0 2.279.578a3.75 3.75 0 0 1 1.445 1.581q.492 1.003.493 2.261 0 .187-.017.34 0 .153-.017.238h-6.698q.135 1.291.9 1.938.783.645 1.769.646.884 0 1.462-.391a3.1 3.1 0 0 0 .918-1.003l1.513.731a4.7 4.7 0 0 1-1.53 1.666q-.968.63-2.414.629m-.085-7.65q-.918 0-1.564.561t-.867 1.496h4.81a2.3 2.3 0 0 0-.288-.918 2.1 2.1 0 0 0-.782-.799q-.51-.34-1.31-.34m6.571 4.862v-4.556h-1.513V32.83h1.513v-2.448h1.836v2.448h2.125v1.598h-2.125v4.165q0 .646.255.986.272.34.901.34.323 0 .544-.085.238-.085.476-.238v1.785q-.29.12-.612.187-.323.068-.765.068-1.207 0-1.921-.697-.714-.714-.714-1.955m9.352 2.788q-1.275 0-2.278-.595a4.3 4.3 0 0 1-1.581-1.632q-.561-1.037-.561-2.363 0-1.24.544-2.295a4.34 4.34 0 0 1 1.513-1.683q.986-.645 2.261-.646 1.342 0 2.278.578a3.75 3.75 0 0 1 1.445 1.581q.493 1.003.493 2.261 0 .187-.017.34 0 .153-.017.238h-6.698q.135 1.291.901 1.938a2.7 2.7 0 0 0 1.768.646q.883 0 1.462-.391.578-.408.918-1.003l1.513.731a4.7 4.7 0 0 1-1.53 1.666q-.97.63-2.414.629m-.085-7.65q-.918 0-1.564.561-.647.561-.867 1.496h4.811a2.3 2.3 0 0 0-.289-.918 2.1 2.1 0 0 0-.782-.799q-.51-.34-1.309-.34m5.902 7.378v-8.67h1.734v1.275h.102q.289-.663.986-1.088a2.86 2.86 0 0 1 1.53-.442q.357 0 .595.051.255.051.459.119v1.904a4.5 4.5 0 0 0-.663-.221 2.7 2.7 0 0 0-.68-.085q-.646 0-1.156.357a2.36 2.36 0 0 0-.782.935q-.29.578-.289 1.275v4.59zm9.244.272q-.934 0-1.666-.357a2.8 2.8 0 0 1-1.139-1.037 2.83 2.83 0 0 1-.408-1.513q0-.918.476-1.564a3.06 3.06 0 0 1 1.309-1.003 4.6 4.6 0 0 1 1.802-.34q.816 0 1.428.153.63.153.952.323v-.459q0-.85-.612-1.36t-1.581-.51q-.663 0-1.258.306a2.44 2.44 0 0 0-.952.799l-1.258-.969q.561-.782 1.479-1.224a4.6 4.6 0 0 1 2.04-.459q1.887 0 2.907.935 1.02.918 1.02 2.584V41.5h-1.785v-1.071h-.102q-.339.527-1.02.935-.68.408-1.632.408m.323-1.496q.714 0 1.258-.34a2.44 2.44 0 0 0 .85-.884q.323-.56.323-1.207a3.8 3.8 0 0 0-.918-.357 4 4 0 0 0-1.122-.153q-1.121 0-1.598.459a1.43 1.43 0 0 0-.476 1.088q0 .612.459 1.003t1.224.391m13.911 1.496q-1.173 0-2.125-.578a4.34 4.34 0 0 1-1.496-1.632q-.543-1.055-.544-2.397 0-1.343.544-2.38a4.34 4.34 0 0 1 1.496-1.632 3.93 3.93 0 0 1 2.125-.595q1.003 0 1.717.442.732.442 1.071 1.003h.102l-.102-1.207v-3.468h1.819V41.5h-1.717v-1.156h-.102q-.339.56-1.071 1.003-.714.425-1.717.425m.272-1.683q.681 0 1.275-.357.612-.357.969-1.003.375-.663.374-1.564 0-.9-.374-1.547a2.55 2.55 0 0 0-.969-1.02 2.43 2.43 0 0 0-1.275-.357q-.68 0-1.275.357a2.7 2.7 0 0 0-.969 1.02q-.374.645-.374 1.547 0 .9.374 1.564.375.645.969 1.003.595.357 1.275.357m10.376 1.683q-1.275 0-2.278-.595a4.3 4.3 0 0 1-1.581-1.632q-.561-1.037-.561-2.363 0-1.24.544-2.295a4.34 4.34 0 0 1 1.513-1.683q.986-.645 2.261-.646 1.343 0 2.278.578a3.75 3.75 0 0 1 1.445 1.581q.493 1.003.493 2.261 0 .187-.017.34 0 .153-.017.238h-6.698q.136 1.291.901 1.938.782.645 1.768.646.884 0 1.462-.391.578-.408.918-1.003l1.513.731a4.7 4.7 0 0 1-1.53 1.666q-.97.63-2.414.629m-.085-7.65q-.918 0-1.564.561-.647.561-.867 1.496h4.811a2.3 2.3 0 0 0-.289-.918 2.1 2.1 0 0 0-.782-.799q-.51-.34-1.309-.34m15.607 7.65a6.4 6.4 0 0 1-2.465-.476 6.5 6.5 0 0 1-2.023-1.326 6.5 6.5 0 0 1-1.394-2.023 6.5 6.5 0 0 1-.493-2.533q0-1.36.493-2.516a6.3 6.3 0 0 1 1.377-2.023 6.3 6.3 0 0 1 2.04-1.343 6.4 6.4 0 0 1 2.465-.476q1.394 0 2.567.493a5.45 5.45 0 0 1 1.989 1.377l-1.292 1.275a4 4 0 0 0-1.428-1.02q-.816-.357-1.836-.357a4.44 4.44 0 0 0-2.227.578q-1.02.561-1.649 1.598-.612 1.02-.612 2.414t.629 2.431q.629 1.02 1.649 1.598 1.02.561 2.227.561 1.105 0 2.006-.408a3.64 3.64 0 0 0 1.445-1.19q.561-.765.68-1.836h-4.165v-1.649h5.916q.102.459.102.969v.017q0 1.768-.782 3.094a5.33 5.33 0 0 1-2.125 2.04q-1.36.73-3.094.731m11.475 0q-1.343 0-2.363-.612a4.4 4.4 0 0 1-1.598-1.649q-.578-1.036-.578-2.346 0-1.292.578-2.329a4.34 4.34 0 0 1 1.598-1.666q1.02-.612 2.363-.612 1.326 0 2.346.612a4.34 4.34 0 0 1 1.598 1.666q.578 1.037.578 2.329 0 1.31-.578 2.346A4.4 4.4 0 0 1 182 41.16q-1.02.612-2.346.612m0-1.683q.714 0 1.326-.34a2.7 2.7 0 0 0 .986-1.003q.391-.663.391-1.581t-.391-1.564a2.54 2.54 0 0 0-.986-1.003 2.6 2.6 0 0 0-1.326-.357q-.714 0-1.343.357a2.66 2.66 0 0 0-1.003 1.003q-.374.645-.374 1.564 0 .918.374 1.581.391.646 1.003 1.003.629.34 1.343.34m10.293 1.683q-1.343 0-2.363-.612a4.4 4.4 0 0 1-1.598-1.649q-.578-1.036-.578-2.346 0-1.292.578-2.329a4.34 4.34 0 0 1 1.598-1.666q1.02-.612 2.363-.612 1.326 0 2.346.612a4.34 4.34 0 0 1 1.598 1.666q.578 1.037.578 2.329 0 1.31-.578 2.346a4.4 4.4 0 0 1-1.598 1.649q-1.02.612-2.346.612m0-1.683q.714 0 1.326-.34a2.7 2.7 0 0 0 .986-1.003q.391-.663.391-1.581t-.391-1.564a2.54 2.54 0 0 0-.986-1.003 2.6 2.6 0 0 0-1.326-.357q-.714 0-1.343.357a2.66 2.66 0 0 0-1.003 1.003q-.374.645-.374 1.564 0 .918.374 1.581.391.646 1.003 1.003.629.34 1.343.34m10.123 5.355q-1.139 0-1.972-.374-.816-.357-1.326-.935a3.6 3.6 0 0 1-.731-1.156l1.7-.714q.272.68.867 1.105.612.442 1.462.442 1.19 0 1.87-.714.697-.714.697-2.023v-.833h-.102a2.95 2.95 0 0 1-1.139.986q-.714.357-1.632.357a3.8 3.8 0 0 1-2.023-.561 4.2 4.2 0 0 1-1.479-1.564q-.561-1.02-.561-2.38 0-1.377.561-2.38.561-1.02 1.479-1.581a3.8 3.8 0 0 1 2.023-.561q.918 0 1.632.374.73.375 1.139.986h.102V32.83h1.751v8.211q0 1.41-.561 2.397a3.63 3.63 0 0 1-1.513 1.496q-.969.51-2.244.51m.017-5.525q.68 0 1.258-.323.578-.34.935-.969.357-.645.357-1.547 0-.935-.357-1.564a2.4 2.4 0 0 0-.935-.969 2.54 2.54 0 0 0-1.258-.323 2.53 2.53 0 0 0-1.275.34 2.44 2.44 0 0 0-.935.952q-.357.629-.357 1.564 0 .918.357 1.564.357.63.935.952.595.323 1.275.323m6.466 1.581V29.328h1.836V41.5zm7.878.272q-1.275 0-2.278-.595a4.3 4.3 0 0 1-1.581-1.632q-.561-1.037-.561-2.363 0-1.24.544-2.295a4.34 4.34 0 0 1 1.513-1.683q.987-.645 2.261-.646 1.344 0 2.278.578a3.74 3.74 0 0 1 1.445 1.581q.493 1.003.493 2.261 0 .187-.017.34 0 .153-.017.238h-6.698q.136 1.291.901 1.938.783.645 1.768.646.885 0 1.462-.391.579-.408.918-1.003l1.513.731a4.7 4.7 0 0 1-1.53 1.666q-.969.63-2.414.629m-.085-7.65q-.918 0-1.564.561-.645.561-.867 1.496h4.811a2.3 2.3 0 0 0-.289-.918 2.1 2.1 0 0 0-.782-.799q-.51-.34-1.309-.34"/><rect width="238" height="54" x=".5" y=".5" stroke="#747775" rx="27"/><defs><linearGradient id="a" x1="37.284" x2="18.782" y1="34.045" y2="55.723" gradientUnits="userSpaceOnUse"><stop stop-color="#4285f4"/><stop offset="1" stop-color="#1b74e8"/></linearGradient></defs></svg>