<svg xmlns="http://www.w3.org/2000/svg" fill="none" viewBox="0 0 199 55"><rect width="198" height="54" x=".5" y=".5" fill="#1f1f1f" rx="27"/><path fill="#34a853" d="M57 23.791H21v-5.645c0-3.065 2.642-5.646 5.78-5.646h24.44c3.138 0 5.78 2.58 5.78 5.646z"/><path fill="#fbbc04" d="M57 29H21v-6c0-3.257 2.642-6 5.78-6h24.44c3.138 0 5.78 2.743 5.78 6z"/><path fill="#ea4335" d="M57 34H21v-6c0-3.257 2.642-6 5.78-6h24.44c3.138 0 5.78 2.743 5.78 6z"/><path fill="url(#a)" d="m21 25.24 22.85 5.163c2.63.645 5.588 0 7.725-1.613L57 24.918v12.098c0 3.064-2.63 5.484-5.753 5.484H26.753C23.63 42.5 21 40.08 21 37.016z"/><path fill="#fff" d="m69.195 21.5 3.51-9.308h1.625l3.523 9.308H76.28l-.858-2.392h-3.796l-.858 2.392zm3.939-6.565-1.027 2.847h2.834l-1.027-2.847-.351-1.066h-.078zm8.38 6.773a3.07 3.07 0 0 1-1.625-.442 3.3 3.3 0 0 1-1.144-1.248q-.416-.806-.416-1.833t.416-1.82a3.3 3.3 0 0 1 1.144-1.248 3 3 0 0 1 1.625-.455q.768 0 1.313.338.56.338.82.767h.077l-.078-.923v-2.652h1.391V21.5h-1.313v-.884h-.078q-.26.43-.819.767-.546.325-1.313.325m.208-1.287q.52 0 .975-.273.469-.273.741-.767.286-.507.286-1.196 0-.69-.286-1.183a1.95 1.95 0 0 0-.74-.78 1.86 1.86 0 0 0-.976-.273q-.519 0-.975.273t-.74.78q-.287.495-.287 1.183 0 .69.286 1.196.287.494.741.767.456.273.975.273m7.74 1.287a3.07 3.07 0 0 1-1.625-.442 3.3 3.3 0 0 1-1.144-1.248q-.417-.806-.416-1.833 0-1.027.416-1.82a3.3 3.3 0 0 1 1.144-1.248 3 3 0 0 1 1.625-.455q.766 0 1.313.338.558.338.819.767h.078l-.078-.923v-2.652h1.39V21.5h-1.312v-.884h-.078q-.26.43-.82.767-.545.325-1.312.325m.208-1.287q.519 0 .975-.273.468-.273.74-.767.287-.507.287-1.196 0-.69-.286-1.183a1.95 1.95 0 0 0-.741-.78 1.86 1.86 0 0 0-.975-.273q-.52 0-.975.273t-.741.78q-.286.495-.286 1.183 0 .69.286 1.196.285.494.74.767.456.273.976.273m8.704-.845v-3.484h-1.156V14.87h1.156v-1.872h1.404v1.872h1.626v1.222h-1.626v3.185q0 .494.195.754.209.26.69.26.246 0 .416-.065.181-.065.364-.182v1.365q-.222.09-.468.143-.248.052-.585.052-.924 0-1.47-.533-.546-.546-.546-1.495m7.243 2.132q-1.027 0-1.807-.468a3.34 3.34 0 0 1-1.222-1.261q-.442-.794-.442-1.794 0-.988.442-1.781a3.3 3.3 0 0 1 1.222-1.274q.78-.468 1.807-.468 1.014 0 1.794.468t1.222 1.274q.441.793.442 1.781 0 1-.442 1.794a3.35 3.35 0 0 1-1.222 1.261q-.78.468-1.794.468m0-1.287q.546 0 1.014-.26a2.07 2.07 0 0 0 .754-.767q.299-.507.299-1.209t-.299-1.196a1.95 1.95 0 0 0-.754-.767 2.046 2.046 0 0 0-2.041 0 2.03 2.03 0 0 0-.767.767q-.286.494-.286 1.196t.286 1.209q.299.494.767.767.48.26 1.027.26M76.14 41.772a6.4 6.4 0 0 1-2.465-.476 6.5 6.5 0 0 1-2.023-1.326 6.5 6.5 0 0 1-1.394-2.023 6.5 6.5 0 0 1-.493-2.533q0-1.36.493-2.516a6.3 6.3 0 0 1 1.377-2.023 6.3 6.3 0 0 1 2.04-1.343 6.4 6.4 0 0 1 2.465-.476q1.395 0 2.567.493a5.45 5.45 0 0 1 1.989 1.377l-1.292 1.275a4 4 0 0 0-1.428-1.02q-.816-.357-1.836-.357a4.44 4.44 0 0 0-2.227.578A4.37 4.37 0 0 0 72.264 33q-.612 1.02-.612 2.414t.629 2.431q.63 1.02 1.649 1.598 1.02.561 2.227.561 1.105 0 2.006-.408a3.64 3.64 0 0 0 1.445-1.19q.56-.765.68-1.836h-4.165v-1.649h5.916q.102.459.102.969v.017q0 1.768-.782 3.094a5.34 5.34 0 0 1-2.125 2.04q-1.36.73-3.094.731m11.475 0q-1.343 0-2.363-.612a4.4 4.4 0 0 1-1.598-1.649q-.578-1.036-.578-2.346 0-1.292.578-2.329a4.34 4.34 0 0 1 1.598-1.666q1.02-.612 2.363-.612 1.326 0 2.346.612t1.598 1.666q.578 1.037.578 2.329 0 1.31-.578 2.346a4.4 4.4 0 0 1-1.598 1.649q-1.02.612-2.346.612m0-1.683q.714 0 1.326-.34.612-.357.986-1.003.39-.663.39-1.581t-.39-1.564a2.55 2.55 0 0 0-.986-1.003 2.6 2.6 0 0 0-1.326-.357q-.714 0-1.343.357a2.66 2.66 0 0 0-1.003 1.003q-.374.645-.374 1.564 0 .918.374 1.581.39.646 1.003 1.003.63.34 1.343.34m10.293 1.683q-1.343 0-2.363-.612a4.4 4.4 0 0 1-1.598-1.649q-.578-1.036-.578-2.346 0-1.292.578-2.329a4.34 4.34 0 0 1 1.598-1.666q1.02-.612 2.363-.612 1.326 0 2.346.612a4.34 4.34 0 0 1 1.598 1.666q.578 1.037.578 2.329 0 1.31-.578 2.346a4.4 4.4 0 0 1-1.598 1.649q-1.02.612-2.346.612m0-1.683q.714 0 1.326-.34.612-.357.986-1.003.391-.663.391-1.581t-.391-1.564a2.55 2.55 0 0 0-.986-1.003 2.6 2.6 0 0 0-1.326-.357q-.714 0-1.343.357a2.66 2.66 0 0 0-1.003 1.003q-.375.645-.374 1.564 0 .918.374 1.581.39.646 1.003 1.003.63.34 1.343.34m10.123 5.355q-1.14 0-1.972-.374-.816-.357-1.326-.935a3.6 3.6 0 0 1-.731-1.156l1.7-.714q.271.68.867 1.105.612.442 1.462.442 1.19 0 1.87-.714.696-.714.697-2.023v-.833h-.102a2.95 2.95 0 0 1-1.139.986q-.714.357-1.632.357a3.8 3.8 0 0 1-2.023-.561 4.2 4.2 0 0 1-1.479-1.564q-.561-1.02-.561-2.38 0-1.377.561-2.38.561-1.02 1.479-1.581a3.8 3.8 0 0 1 2.023-.561q.918 0 1.632.374.73.375 1.139.986h.102V32.83h1.751v8.211q0 1.41-.561 2.397a3.63 3.63 0 0 1-1.513 1.496q-.969.51-2.244.51m.017-5.525q.68 0 1.258-.323.578-.34.935-.969.357-.645.357-1.547 0-.935-.357-1.564a2.4 2.4 0 0 0-.935-.969 2.54 2.54 0 0 0-1.258-.323q-.681 0-1.275.34a2.43 2.43 0 0 0-.935.952q-.357.629-.357 1.564 0 .918.357 1.564.356.63.935.952.594.323 1.275.323m6.466 1.581V29.328h1.836V41.5zm7.878.272q-1.275 0-2.278-.595a4.3 4.3 0 0 1-1.581-1.632q-.561-1.037-.561-2.363 0-1.24.544-2.295a4.34 4.34 0 0 1 1.513-1.683q.987-.645 2.261-.646 1.344 0 2.278.578a3.74 3.74 0 0 1 1.445 1.581q.493 1.003.493 2.261 0 .187-.017.34 0 .153-.017.238h-6.698q.136 1.291.901 1.938.783.645 1.768.646.885 0 1.462-.391.579-.408.918-1.003l1.513.731a4.7 4.7 0 0 1-1.53 1.666q-.968.63-2.414.629m-.085-7.65q-.918 0-1.564.561-.645.561-.867 1.496h4.811a2.3 2.3 0 0 0-.289-.918 2.1 2.1 0 0 0-.782-.799q-.51-.34-1.309-.34m11.672 7.378-3.264-12.172h2.074l1.938 7.905.204 1.054h.102l.255-1.054 2.448-7.905h1.87l2.346 7.905.255 1.037h.102l.204-1.037 1.938-7.905h2.057L143.295 41.5h-1.972l-2.329-8.075-.272-1.139h-.102l-.289 1.139L135.9 41.5zm15.943.272q-.935 0-1.666-.357a2.8 2.8 0 0 1-1.139-1.037 2.83 2.83 0 0 1-.408-1.513q0-.918.476-1.564a3.06 3.06 0 0 1 1.309-1.003 4.6 4.6 0 0 1 1.802-.34q.816 0 1.428.153.629.153.952.323v-.459q0-.85-.612-1.36t-1.581-.51q-.663 0-1.258.306a2.43 2.43 0 0 0-.952.799l-1.258-.969q.561-.782 1.479-1.224a4.6 4.6 0 0 1 2.04-.459q1.887 0 2.907.935 1.02.918 1.02 2.584V41.5h-1.785v-1.071h-.102q-.34.527-1.02.935t-1.632.408m.323-1.496q.714 0 1.258-.34a2.44 2.44 0 0 0 .85-.884q.323-.56.323-1.207a3.8 3.8 0 0 0-.918-.357 4 4 0 0 0-1.122-.153q-1.122 0-1.598.459a1.43 1.43 0 0 0-.476 1.088q0 .612.459 1.003t1.224.391m6.254 1.224V29.328h1.836V41.5zm4.018 0V29.328h1.836V41.5zm7.878.272q-1.275 0-2.278-.595a4.3 4.3 0 0 1-1.581-1.632q-.561-1.037-.561-2.363 0-1.24.544-2.295a4.34 4.34 0 0 1 1.513-1.683q.987-.645 2.261-.646 1.344 0 2.278.578a3.74 3.74 0 0 1 1.445 1.581q.493 1.003.493 2.261 0 .187-.017.34 0 .153-.017.238h-6.698q.136 1.291.901 1.938.783.645 1.768.646.885 0 1.462-.391.579-.408.918-1.003l1.513.731a4.7 4.7 0 0 1-1.53 1.666q-.968.63-2.414.629m-.085-7.65q-.918 0-1.564.561-.645.561-.867 1.496h4.811a2.3 2.3 0 0 0-.289-.918 2.1 2.1 0 0 0-.782-.799q-.51-.34-1.309-.34m6.572 4.862v-4.556h-1.513V32.83h1.513v-2.448h1.836v2.448h2.125v1.598h-2.125v4.165q0 .646.255.986.271.34.901.34.322 0 .544-.085.237-.085.476-.238v1.785q-.29.12-.612.187a3.8 3.8 0 0 1-.765.068q-1.207 0-1.921-.697-.714-.714-.714-1.955"/><rect width="198" height="54" x=".5" y=".5" stroke="#747775" rx="27"/><defs><linearGradient id="a" x1="37.284" x2="18.782" y1="34.045" y2="55.723" gradientUnits="userSpaceOnUse"><stop stop-color="#4285f4"/><stop offset="1" stop-color="#1b74e8"/></linearGradient></defs></svg>