<svg xmlns="http://www.w3.org/2000/svg" fill="none" overflow="visible" preserveAspectRatio="none" viewBox="0 0 23 19.6"><path fill="#34a853" fill-rule="evenodd" d="M23 7.15v-3.5c0-2-1.65-3.65-3.65-3.65H3.65C1.65 0 0 1.65 0 3.65v3.5c0 .35.3.65.65.65H22.4c.3 0 .6-.3.6-.65" clip-rule="evenodd"/><path fill="#fbbc04" fill-rule="evenodd" d="M23 10.25v-3.5c0-2-1.65-3.65-3.65-3.65H3.65C1.65 3.1 0 4.75 0 6.75v3.5c0 .35.3.65.65.65H22.4c.3-.05.6-.35.6-.65" clip-rule="evenodd"/><path fill="#ea4335" fill-rule="evenodd" d="M23 13.3V9.8c0-2-1.65-3.65-3.65-3.65H3.65C1.65 6.15 0 7.8 0 9.8v3.5c0 .35.3.65.65.65H22.4c.3-.05.6-.3.6-.65" clip-rule="evenodd"/><path fill="#4285f4" fill-rule="evenodd" d="M14.6 11.6 0 8.25v7.7c0 2 1.65 3.65 3.65 3.65h15.7c2 0 3.65-1.65 3.65-3.65v-7.9l-3.5 2.55c-1.4 1.05-3.2 1.4-4.9 1" clip-rule="evenodd"/></svg>