<svg xmlns="http://www.w3.org/2000/svg" fill="none" viewBox="0 0 240 55"><rect width="239" height="54" x=".5" y=".5" fill="#1f1f1f" rx="27"/><path fill="#34a853" d="M57 23.791H21v-5.645c0-3.065 2.642-5.646 5.78-5.646h24.44c3.138 0 5.78 2.58 5.78 5.646z"/><path fill="#fbbc04" d="M57 29H21v-6c0-3.257 2.642-6 5.78-6h24.44c3.138 0 5.78 2.743 5.78 6z"/><path fill="#ea4335" d="M57 34H21v-6c0-3.257 2.642-6 5.78-6h24.44c3.138 0 5.78 2.743 5.78 6z"/><path fill="url(#a)" d="m21 25.24 22.85 5.163c2.63.645 5.588 0 7.725-1.613L57 24.918v12.098c0 3.064-2.63 5.484-5.753 5.484H26.753C23.63 42.5 21 40.08 21 37.016z"/><path fill="#fff" d="m69.195 21.5 3.51-9.308h1.625l3.523 9.308H76.28l-.858-2.392h-3.796l-.858 2.392zm3.939-6.565-1.027 2.847h2.834l-1.027-2.847-.351-1.066h-.078zm8.38 6.773a3.07 3.07 0 0 1-1.625-.442 3.3 3.3 0 0 1-1.144-1.248q-.416-.806-.416-1.833t.416-1.82a3.3 3.3 0 0 1 1.144-1.248 3 3 0 0 1 1.625-.455q.768 0 1.313.338.56.338.82.767h.077l-.078-.923v-2.652h1.391V21.5h-1.313v-.884h-.078q-.26.43-.819.767-.546.325-1.313.325m.208-1.287q.52 0 .975-.273.469-.273.741-.767.286-.507.286-1.196 0-.69-.286-1.183a1.95 1.95 0 0 0-.74-.78 1.86 1.86 0 0 0-.976-.273q-.519 0-.975.273t-.74.78q-.287.495-.287 1.183 0 .69.286 1.196.287.494.741.767.456.273.975.273m5.775-6.526a.95.95 0 0 1-.676-.273.95.95 0 0 1-.273-.676q0-.39.273-.663a.95.95 0 0 1 .676-.273q.39 0 .663.273.285.273.286.663 0 .39-.286.676a.9.9 0 0 1-.663.273m-.702 7.605v-6.63H88.2v6.63zm6.15.208q-1 0-1.767-.455a3.3 3.3 0 0 1-1.21-1.248q-.441-.806-.441-1.82t.442-1.807a3.26 3.26 0 0 1 1.209-1.261q.766-.455 1.768-.455 1.104 0 1.859.494.766.495 1.092 1.339l-1.274.52q-.456-1.065-1.703-1.066-.546 0-1.001.286a2 2 0 0 0-.728.78q-.273.495-.273 1.17t.273 1.183q.272.507.728.78a1.9 1.9 0 0 0 1 .273q.637 0 1.08-.286.441-.3.689-.806l1.248.546a3.07 3.07 0 0 1-1.118 1.313q-.768.52-1.872.52m5-7.813a.95.95 0 0 1-.676-.273.95.95 0 0 1-.273-.676q0-.39.273-.663a.95.95 0 0 1 .676-.273q.39 0 .663.273.286.273.286.663t-.286.676a.9.9 0 0 1-.663.273m-.702 7.605v-6.63h1.404v6.63zm6.203.208q-1.027 0-1.807-.468a3.35 3.35 0 0 1-1.222-1.261q-.442-.794-.442-1.794 0-.988.442-1.781a3.3 3.3 0 0 1 1.222-1.274q.78-.468 1.807-.468 1.014 0 1.794.468t1.222 1.274q.442.793.442 1.781 0 1-.442 1.794a3.35 3.35 0 0 1-1.222 1.261q-.78.468-1.794.468m0-1.287q.546 0 1.014-.26a2.07 2.07 0 0 0 .754-.767q.299-.507.299-1.209t-.299-1.196a1.95 1.95 0 0 0-.754-.767 2.049 2.049 0 0 0-2.041 0 2.03 2.03 0 0 0-.767.767q-.286.494-.286 1.196t.286 1.209q.299.494.767.767.481.26 1.027.26m4.624 1.079v-6.63h1.326v.91h.078q.286-.48.845-.793a2.5 2.5 0 0 1 1.248-.325q1.222 0 1.833.728.61.728.611 1.924V21.5h-1.391v-4.004q0-.805-.403-1.17-.403-.377-1.053-.377a1.42 1.42 0 0 0-.884.286 1.9 1.9 0 0 0-.598.728 2.3 2.3 0 0 0-.208.975V21.5zm9.558.208q-.716 0-1.274-.273a2.14 2.14 0 0 1-.871-.793 2.16 2.16 0 0 1-.312-1.157q0-.702.364-1.196a2.34 2.34 0 0 1 1.001-.767q.624-.26 1.378-.26.624 0 1.092.117.48.117.728.247v-.351q0-.65-.468-1.04t-1.209-.39q-.507 0-.962.234a1.86 1.86 0 0 0-.728.611l-.962-.741q.429-.598 1.131-.936a3.5 3.5 0 0 1 1.56-.351q1.443 0 2.223.715.78.702.78 1.976V21.5h-1.365v-.819h-.078q-.261.403-.78.715-.52.312-1.248.312m.247-1.144q.546 0 .962-.26a1.9 1.9 0 0 0 .65-.676q.246-.43.247-.923a3 3 0 0 0-.702-.273 3 3 0 0 0-.858-.117q-.858 0-1.222.351a1.1 1.1 0 0 0-.364.832q0 .468.351.767.351.3.936.299m4.769.936v-6.63h1.326v.975h.078q.222-.507.754-.832a2.2 2.2 0 0 1 1.17-.338q.273 0 .455.039.195.039.351.091v1.456a3.4 3.4 0 0 0-.507-.169 2 2 0 0 0-.52-.065q-.494 0-.884.273-.376.26-.598.715-.22.443-.221.975v3.51zm10.332.208q-.715 0-1.274-.273a2.14 2.14 0 0 1-.871-.793 2.16 2.16 0 0 1-.312-1.157q0-.702.364-1.196a2.34 2.34 0 0 1 1.001-.767q.624-.26 1.378-.26.624 0 1.092.117.481.117.728.247v-.351q0-.65-.468-1.04t-1.209-.39q-.507 0-.962.234a1.87 1.87 0 0 0-.728.611l-.962-.741q.429-.598 1.131-.936a3.5 3.5 0 0 1 1.56-.351q1.443 0 2.223.715.78.702.78 1.976V21.5h-1.365v-.819h-.078q-.26.403-.78.715t-1.248.312m.247-1.144q.546 0 .962-.26a1.9 1.9 0 0 0 .65-.676q.247-.43.247-.923a2.9 2.9 0 0 0-.702-.273 3 3 0 0 0-.858-.117q-.858 0-1.222.351a1.1 1.1 0 0 0-.364.832q0 .468.351.767.351.3.936.299M76.106 41.772a6.5 6.5 0 0 1-2.499-.476 6.4 6.4 0 0 1-2.023-1.36 6.5 6.5 0 0 1-1.343-2.023 6.5 6.5 0 0 1-.476-2.499 6.5 6.5 0 0 1 .476-2.499 6.5 6.5 0 0 1 1.343-2.023 6.1 6.1 0 0 1 2.023-1.343 6.3 6.3 0 0 1 2.499-.493q1.428 0 2.55.527 1.122.51 1.955 1.462l-1.309 1.275a4.15 4.15 0 0 0-1.394-1.105q-.765-.39-1.785-.391-1.224 0-2.244.578A4.25 4.25 0 0 0 72.247 33q-.595 1.02-.595 2.414t.595 2.431q.612 1.02 1.632 1.598a4.6 4.6 0 0 0 2.244.561q1.105 0 1.955-.459a5.1 5.1 0 0 0 1.53-1.258l1.343 1.292a6.2 6.2 0 0 1-2.091 1.598q-1.224.595-2.754.595m9.02 0q-.935 0-1.666-.357a2.8 2.8 0 0 1-1.139-1.037 2.83 2.83 0 0 1-.408-1.513q0-.918.476-1.564a3.06 3.06 0 0 1 1.309-1.003 4.6 4.6 0 0 1 1.802-.34q.816 0 1.428.153.63.153.952.323v-.459q0-.85-.612-1.36t-1.581-.51q-.663 0-1.258.306a2.44 2.44 0 0 0-.952.799l-1.258-.969q.561-.782 1.479-1.224a4.6 4.6 0 0 1 2.04-.459q1.887 0 2.907.935 1.02.918 1.02 2.584V41.5H87.88v-1.071h-.102q-.34.527-1.02.935t-1.632.408m.323-1.496q.714 0 1.258-.34t.85-.884a2.4 2.4 0 0 0 .323-1.207 3.8 3.8 0 0 0-.918-.357 4 4 0 0 0-1.122-.153q-1.121 0-1.598.459a1.43 1.43 0 0 0-.476 1.088q0 .612.459 1.003t1.224.391m14.04-1.292v-4.556h-1.513V32.83h1.513v-2.448h1.836v2.448h2.125v1.598h-2.125v4.165q0 .646.255.986.273.34.901.34.324 0 .544-.085a2.3 2.3 0 0 0 .476-.238v1.785a3.5 3.5 0 0 1-.612.187 3.7 3.7 0 0 1-.748.068q-1.224 0-1.938-.697-.714-.714-.714-1.955M91.686 41.5v-8.67h1.734v1.275h.102A2.42 2.42 0 0 1 94.576 33a3.07 3.07 0 0 1 1.547-.408q.477 0 .714.068v1.836a3 3 0 0 0-.918-.119q-1.088 0-1.75.697-.647.698-.647 1.887V41.5zm17.176.272q-1.275 0-2.278-.595a4.3 4.3 0 0 1-1.581-1.632q-.561-1.037-.561-2.363 0-1.24.544-2.295a4.34 4.34 0 0 1 1.513-1.683q.986-.645 2.261-.646 1.343 0 2.278.578a3.75 3.75 0 0 1 1.445 1.581q.493 1.003.493 2.261 0 .187-.017.34 0 .153-.017.238h-6.698q.136 1.291.901 1.938.782.645 1.768.646.884 0 1.462-.391.578-.408.918-1.003l1.513.731a4.7 4.7 0 0 1-1.53 1.666q-.97.63-2.414.629m-.085-7.65q-.918 0-1.564.561-.647.561-.867 1.496h4.811a2.3 2.3 0 0 0-.289-.918 2.1 2.1 0 0 0-.782-.799q-.51-.34-1.309-.34m6.956-2.567q-.51 0-.884-.357a1.24 1.24 0 0 1-.357-.884q0-.51.357-.867.374-.357.884-.357t.867.357q.374.357.374.867t-.374.884a1.18 1.18 0 0 1-.867.357m-.918 9.945v-8.67h1.836v8.67zm4.114 0v-8.67h1.734v1.275h.102q.29-.663.986-1.088a2.86 2.86 0 0 1 1.53-.442 3 3 0 0 1 .595.051q.255.051.459.119v1.904a4.5 4.5 0 0 0-.663-.221 2.7 2.7 0 0 0-.68-.085q-.646 0-1.156.357a2.37 2.37 0 0 0-.782.935 2.8 2.8 0 0 0-.289 1.275v4.59zm9.245.272q-.936 0-1.666-.357a2.8 2.8 0 0 1-1.139-1.037 2.83 2.83 0 0 1-.408-1.513q0-.918.476-1.564a3.06 3.06 0 0 1 1.309-1.003 4.6 4.6 0 0 1 1.802-.34q.816 0 1.428.153.628.153.952.323v-.459q0-.85-.612-1.36t-1.581-.51q-.663 0-1.258.306a2.43 2.43 0 0 0-.952.799l-1.258-.969q.561-.782 1.479-1.224a4.6 4.6 0 0 1 2.04-.459q1.887 0 2.907.935 1.02.918 1.02 2.584V41.5h-1.785v-1.071h-.102q-.34.527-1.02.935-.681.408-1.632.408m.323-1.496q.714 0 1.258-.34.543-.34.85-.884.323-.56.323-1.207a3.8 3.8 0 0 0-.918-.357 4 4 0 0 0-1.122-.153q-1.122 0-1.598.459a1.42 1.42 0 0 0-.476 1.088q0 .612.459 1.003t1.224.391m13.911 1.496q-1.173 0-2.125-.578a4.34 4.34 0 0 1-1.496-1.632q-.544-1.055-.544-2.397 0-1.343.544-2.38a4.34 4.34 0 0 1 1.496-1.632 3.93 3.93 0 0 1 2.125-.595q1.003 0 1.717.442.73.442 1.071 1.003h.102l-.102-1.207v-3.468h1.819V41.5h-1.717v-1.156h-.102q-.34.56-1.071 1.003-.714.425-1.717.425m.272-1.683q.68 0 1.275-.357.612-.357.969-1.003.374-.663.374-1.564 0-.9-.374-1.547a2.55 2.55 0 0 0-.969-1.02 2.44 2.44 0 0 0-1.275-.357q-.68 0-1.275.357t-.969 1.02q-.374.645-.374 1.547 0 .9.374 1.564.374.645.969 1.003t1.275.357m10.494 1.683q-1.343 0-2.363-.612a4.4 4.4 0 0 1-1.598-1.649q-.578-1.036-.578-2.346 0-1.292.578-2.329a4.35 4.35 0 0 1 1.598-1.666q1.02-.612 2.363-.612 1.326 0 2.346.612a4.34 4.34 0 0 1 1.598 1.666q.578 1.037.578 2.329 0 1.31-.578 2.346a4.4 4.4 0 0 1-1.598 1.649q-1.02.612-2.346.612m0-1.683q.714 0 1.326-.34a2.7 2.7 0 0 0 .986-1.003q.391-.663.391-1.581t-.391-1.564a2.54 2.54 0 0 0-.986-1.003 2.68 2.68 0 0 0-2.669 0 2.66 2.66 0 0 0-1.003 1.003q-.374.645-.374 1.564 0 .918.374 1.581.391.646 1.003 1.003.63.34 1.343.34m15.918 1.683a6.4 6.4 0 0 1-2.465-.476 6.5 6.5 0 0 1-2.023-1.326 6.5 6.5 0 0 1-1.394-2.023 6.5 6.5 0 0 1-.493-2.533q0-1.36.493-2.516a6.3 6.3 0 0 1 1.377-2.023 6.3 6.3 0 0 1 2.04-1.343 6.4 6.4 0 0 1 2.465-.476q1.394 0 2.567.493a5.45 5.45 0 0 1 1.989 1.377l-1.292 1.275a4 4 0 0 0-1.428-1.02q-.816-.357-1.836-.357a4.44 4.44 0 0 0-2.227.578q-1.02.561-1.649 1.598-.612 1.02-.612 2.414t.629 2.431q.629 1.02 1.649 1.598 1.02.561 2.227.561 1.105 0 2.006-.408a3.64 3.64 0 0 0 1.445-1.19q.561-.765.68-1.836h-4.165v-1.649h5.916q.102.459.102.969v.017q0 1.768-.782 3.094a5.33 5.33 0 0 1-2.125 2.04q-1.36.73-3.094.731m11.475 0q-1.343 0-2.363-.612a4.4 4.4 0 0 1-1.598-1.649q-.578-1.036-.578-2.346 0-1.292.578-2.329a4.34 4.34 0 0 1 1.598-1.666q1.02-.612 2.363-.612 1.326 0 2.346.612a4.34 4.34 0 0 1 1.598 1.666q.578 1.037.578 2.329 0 1.31-.578 2.346a4.4 4.4 0 0 1-1.598 1.649q-1.02.612-2.346.612m0-1.683q.714 0 1.326-.34a2.7 2.7 0 0 0 .986-1.003q.391-.663.391-1.581t-.391-1.564a2.54 2.54 0 0 0-.986-1.003 2.6 2.6 0 0 0-1.326-.357q-.714 0-1.343.357a2.66 2.66 0 0 0-1.003 1.003q-.374.645-.374 1.564 0 .918.374 1.581.391.646 1.003 1.003.629.34 1.343.34m10.293 1.683q-1.343 0-2.363-.612a4.4 4.4 0 0 1-1.598-1.649q-.578-1.036-.578-2.346 0-1.292.578-2.329a4.34 4.34 0 0 1 1.598-1.666q1.02-.612 2.363-.612 1.326 0 2.346.612a4.34 4.34 0 0 1 1.598 1.666q.578 1.037.578 2.329 0 1.31-.578 2.346a4.4 4.4 0 0 1-1.598 1.649q-1.02.612-2.346.612m0-1.683q.714 0 1.326-.34a2.7 2.7 0 0 0 .986-1.003q.391-.663.391-1.581t-.391-1.564a2.54 2.54 0 0 0-.986-1.003 2.6 2.6 0 0 0-1.326-.357q-.714 0-1.343.357a2.66 2.66 0 0 0-1.003 1.003q-.374.645-.374 1.564 0 .918.374 1.581.391.646 1.003 1.003.629.34 1.343.34m10.123 5.355q-1.139 0-1.972-.374-.816-.357-1.326-.935a3.6 3.6 0 0 1-.731-1.156l1.7-.714q.272.68.867 1.105.612.442 1.462.442 1.19 0 1.87-.714.697-.714.697-2.023v-.833h-.102a2.95 2.95 0 0 1-1.139.986q-.714.357-1.632.357a3.8 3.8 0 0 1-2.023-.561 4.2 4.2 0 0 1-1.479-1.564q-.561-1.02-.561-2.38 0-1.377.561-2.38.561-1.02 1.479-1.581a3.8 3.8 0 0 1 2.023-.561q.918 0 1.632.374.73.375 1.139.986h.102V32.83h1.751v8.211q0 1.41-.561 2.397a3.63 3.63 0 0 1-1.513 1.496q-.969.51-2.244.51m.017-5.525q.68 0 1.258-.323.578-.34.935-.969.357-.645.357-1.547 0-.935-.357-1.564a2.4 2.4 0 0 0-.935-.969 2.54 2.54 0 0 0-1.258-.323 2.53 2.53 0 0 0-1.275.34 2.44 2.44 0 0 0-.935.952q-.357.629-.357 1.564 0 .918.357 1.564.357.63.935.952.595.323 1.275.323m6.466 1.581V29.328h1.836V41.5zm7.879.272q-1.276 0-2.278-.595a4.3 4.3 0 0 1-1.581-1.632q-.561-1.037-.561-2.363 0-1.24.544-2.295a4.34 4.34 0 0 1 1.513-1.683q.986-.645 2.261-.646 1.342 0 2.278.578a3.75 3.75 0 0 1 1.445 1.581q.493 1.003.493 2.261 0 .187-.017.34 0 .153-.017.238h-6.698q.136 1.291.901 1.938a2.7 2.7 0 0 0 1.768.646q.883 0 1.462-.391.578-.408.918-1.003l1.512.731a4.7 4.7 0 0 1-1.529 1.666q-.97.63-2.414.629m-.085-7.65q-.918 0-1.564.561-.647.561-.867 1.496h4.811a2.3 2.3 0 0 0-.289-.918 2.1 2.1 0 0 0-.782-.799q-.51-.34-1.309-.34"/><rect width="239" height="54" x=".5" y=".5" stroke="#747775" rx="27"/><defs><linearGradient id="a" x1="37.284" x2="18.782" y1="34.045" y2="55.723" gradientUnits="userSpaceOnUse"><stop stop-color="#4285f4"/><stop offset="1" stop-color="#1b74e8"/></linearGradient></defs></svg>