<svg xmlns="http://www.w3.org/2000/svg" fill="none" viewBox="0 0 128 128"><path fill="#E0F8F3" fill-rule="evenodd" d="M62.942 12.971c13.444 2.114 20.23 16.084 28.906 26.556 7.41 8.943 18.169 17.317 17.017 28.869-1.115 11.188-14.309 15.673-22.252 23.64-7.977 8.003-12.564 20.318-23.671 22.427-12.455 2.364-26.271-1.946-34.783-11.33-8.254-9.1-6.193-22.485-7.004-34.737-.909-13.73-6.208-28.663 2.08-39.655 8.907-11.814 25.08-18.07 39.707-15.77" clip-rule="evenodd"/><path fill="#FFAB93" d="M53.787 115.953c-9.284-.815-18.335-4.962-24.555-11.819-4.79-5.28-6.106-12.004-6.526-19.111l4.58-9.254c5.892-22.949 35.55-18.725 35.55-18.725v.002C88.888 71.31 77.103 89.299 77.103 89.299c-2.896 7.527-16.346 20.485-23.316 26.654"/><path fill="#FFAB93" d="M53.034 114.519s15.973-14.12 19.135-19.288Z"/><path stroke="#000" stroke-linecap="round" stroke-linejoin="round" stroke-width=".15" d="M53.034 114.519s15.973-14.12 19.135-19.288"/><path fill="#000" d="M50.59 96.52s17.111.296 16.265 5.046c2.846-2.824 4.39-5.093 4.39-5.093z" opacity=".29"/><path fill="#728C3E" d="m76.078 25.255-33.865-.161-.37 71.119 33.865.161z"/><path fill="#A6CB66" d="m73.519 32.439-.296 57.444a4.88 4.88 0 0 0-3.418 3.935l-21.338-.1a4.87 4.87 0 0 0-4.058-4.122l.292-57.144a4.875 4.875 0 0 0 4.16-4.798l21.222.102a4.88 4.88 0 0 0 3.432 4.685z"/><path fill="#41532D" d="m73.205 32.397-.008 1.534a18617.096 18617.096 0 0 1-.053 10.359l-.04 7.541c-.016 2.752-.028 5.508-.044 8.26l-.044 8.338q-.02 3.886-.04 7.777c-.012 2.192-.023 4.38-.032 6.572q-.013 2.365-.025 4.725l-.007 1.467c0 .252-.034.525-.005.773.003.03 0 .065 0 .097l.187-.252c-1.905.593-3.282 2.228-3.607 4.19l.35-.276q-3.607-.014-7.218-.036l-11.495-.053-2.627-.011.273.266a5.26 5.26 0 0 0-4.332-4.388l.276.35.007-1.527.022-4.155.031-6.146.038-7.5q.021-4.111.041-8.216l.045-8.295.041-7.735c.013-2.179.022-4.358.036-6.54q.013-2.35.022-4.702l.007-1.464c.003-.248.037-.521.004-.767-.004-.03 0-.064 0-.096l-.266.273c2.496-.396 4.386-2.534 4.429-5.074l-.35.276q3.599.017 7.198.035l14.025.067-.275-.35c.014 2.28 1.44 4.311 3.625 5.012.384.125.624-.461.238-.586-1.895-.609-3.224-2.346-3.237-4.355 0-.155-.088-.35-.275-.35q-3.6-.018-7.2-.036l-11.388-.054-2.636-.013c-.158 0-.348.092-.35.276-.038 2.264-1.656 4.165-3.899 4.523-.123.02-.264.139-.266.274l-.007 1.528-.022 4.154-.032 6.147-.038 7.5c-.012 2.74-.028 5.479-.04 8.215l-.045 8.296-.041 7.735q-.018 3.268-.036 6.54-.013 2.35-.023 4.702c-.002.745-.011 1.488-.01 2.23v.097c-.002.177.091.32.275.35a4.61 4.61 0 0 1 3.781 3.855c.02.124.14.264.274.267q3.607.014 7.218.035 5.748.03 11.495.054l2.627.011c.177.001.32-.092.35-.276.29-1.756 1.54-3.156 3.232-3.683a.31.31 0 0 0 .188-.252l.008-1.534.02-4.177.032-6.182q.02-3.77.04-7.541c.016-2.753.029-5.509.044-8.26.016-2.753.03-5.56.044-8.339q.02-3.886.04-7.777.019-3.285.033-6.572l.024-4.725c.003-.748.013-1.494.013-2.24v-.096c.003-.403-.625-.481-.626-.075z"/><path fill="#A6CB66" d="M58.895 74.244c8.44.04 15.313-5.978 15.352-13.442s-6.772-13.548-15.211-13.588-15.314 5.978-15.352 13.442c-.04 7.465 6.771 13.548 15.211 13.588"/><path fill="#41532D" d="M43.373 60.62c-.003 2.942 1.013 5.77 2.842 8.068 1.828 2.298 4.469 4.067 7.305 5.003 5.98 1.97 13.006.55 17.398-4.071 1.998-2.1 3.32-4.827 3.588-7.724.267-2.896-.516-5.791-2.12-8.205-3.524-5.288-10.326-7.6-16.452-6.532-6.125 1.068-11.21 5.255-12.353 11.272a12.5 12.5 0 0 0-.212 2.192c-.003.402.622.48.626.074.055-5.886 4.42-10.623 9.845-12.374 5.734-1.852 12.554-.425 16.702 4.058 1.862 2.011 3.09 4.569 3.34 7.315.253 2.795-.535 5.603-2.13 7.903-3.453 4.99-9.915 7.107-15.76 6.074-5.845-1.032-10.776-5.082-11.812-10.866a12.3 12.3 0 0 1-.189-2.107c0-.404-.626-.481-.626-.075z"/><path fill="#728C3E" d="M58.905 71.384c7.125.033 12.926-4.709 12.957-10.592.03-5.884-5.721-10.68-12.847-10.715-7.125-.034-12.926 4.708-12.957 10.592-.03 5.883 5.72 10.68 12.846 10.715"/><path fill="#41532D" d="M45.747 60.632c.003 5.056 3.984 8.949 8.59 10.373 4.99 1.543 10.976.54 14.757-3.214 1.65-1.64 2.8-3.77 3.038-6.101s-.44-4.618-1.773-6.504c-3.056-4.324-8.848-6.033-13.92-5.228-4.783.762-9.528 3.987-10.525 8.979a9 9 0 0 0-.171 1.697c-.006.402.622.48.626.075.05-4.79 3.907-8.38 8.259-9.693 4.757-1.435 10.474-.42 14.051 3.16 1.549 1.55 2.615 3.562 2.827 5.758.213 2.196-.465 4.382-1.766 6.148-2.98 4.046-8.464 5.579-13.269 4.784-4.5-.741-9.058-3.808-9.95-8.542a9 9 0 0 1-.152-1.615c-.001-.4-.626-.482-.626-.075z"/><path fill="#41532D" d="M68.179 59.8q-.952.047-1.909.112a10 10 0 0 0-.087-.712c.605-.062 1.208-.124 1.813-.196.845-.1.66-1.357-.173-1.3q-.968.068-1.937.14c-.077-.264-.159-.523-.245-.76-.79-2.116-2.743-3.768-5.102-3.147-2.273.6-3.183 2.703-3.866 4.788q-2.091.255-4.172.569.085-.206.202-.384c.384-.56 1.106-.871 1.71-.472.654.432 1.312-.596.657-1.029-.975-.644-2.233-.404-3.039.404-.455.457-.723 1.05-.85 1.682q-1.085.175-2.16.372c-.365.067-.384.689.02.682.685-.01 1.37-.036 2.054-.065q0 .253.028.502-1.16.093-2.316.212c-.428.043-.473.76-.017.78.846.04 1.694.054 2.542.055q-.001.005.004.01c.364 1.183 1.255 2.174 2.567 2.158 1.454-.018 2.457-1.066 2.993-2.316a.1.1 0 0 1 .012-.027q.816-.043 1.633-.09c2.154-.126 4.327-.225 6.49-.4a7 7 0 0 1-.073.601c-.194 1.125-.788 2.112-1.934 2.417-.32.085-.651.11-.98.097-.103-.005-.618-.086-.337-.025-.76-.157-1.145 1.002-.376 1.162 1.156.239 2.457.008 3.386-.742 1.06-.855 1.503-2.202 1.584-3.621a58 58 0 0 0 2.04-.23c.695-.091.533-1.254-.16-1.223zm-6.714-4.777c1.726-.056 2.723 1.296 3.21 2.913a204 204 0 0 0-6.71.634c.62-1.81 1.525-3.485 3.497-3.548zm-9.168 5.397c1.312-.077 2.623-.183 3.934-.302q-.086.268-.174.528-1.87.111-3.735.247a4 4 0 0 1-.024-.476zm2.4 2.329c-.845.435-1.648.188-2.052-.676q-.014-.029-.02-.056a100 100 0 0 0 2.903-.096c-.199.34-.46.634-.829.829zm4.167-2.273-1.512.093q.086-.279.17-.568l1.055-.101c2.127-.205 4.26-.376 6.392-.58q.044.343.065.678c-2.056.155-4.113.349-6.17.478"/><path fill="#728C3E" d="m49.595 25.124 26.482.126-.368 71.12-27.055-.13-6.807-.947.262-49.979s2.213 9.967 2.322 15.594c0 0 1.562-2.364 3.328-16.327s1.833-19.457 1.833-19.457z" opacity=".6" style="mix-blend-mode:multiply"/><path fill="#41532D" d="M76.027 96.407q.003-.953.01-1.905.016-2.59.026-5.183l.04-7.664q.024-4.656.048-9.311c.017-3.414.037-6.823.053-10.236q.028-5.167.054-10.333l.05-9.598.043-8.145.03-5.856c.004-.925.011-1.85.012-2.772a1 1 0 0 1 .002-.12c0-.154-.091-.35-.275-.35q-1.69-.008-3.381-.016-4.04-.017-8.078-.04l-9.768-.047-8.478-.042c-1.365-.005-2.736-.06-4.102-.02q-.028-.001-.058.001c-.154 0-.35.092-.35.276q-.004.953-.01 1.905-.016 2.59-.026 5.183l-.04 7.664q-.024 4.655-.048 9.311-.027 5.118-.054 10.236l-.053 10.333-.05 9.598-.043 8.145q-.014 2.928-.03 5.856c-.004.925-.012 1.85-.012 2.772q.001.059-.002.12c0 .154.091.35.275.35q1.69.007 3.38.016l8.079.04 9.768.047 8.477.042c1.366.005 2.737.06 4.102.02q.03.001.059-.001c.402.002.48-.627.074-.627q-1.69-.007-3.38-.016-4.04-.017-8.078-.04l-9.769-.047-8.477-.042-2.772-.012-.873-.003c-.139 0-.32-.03-.457-.001-.017.003-.039-.002-.059 0l.276.351q.003-.953.01-1.904.016-2.591.026-5.183l.04-7.665q.024-4.655.048-9.31l.053-10.237q.027-5.167.054-10.333l.05-9.598.043-8.145q.014-2.928.03-5.856l.009-1.821c.002-.31.04-.643.003-.951-.005-.04 0-.08.002-.119l-.35.276q1.69.008 3.38.016 4.04.017 8.078.04l9.769.047 8.477.042 2.772.012.873.003c.139 0 .32.03.458.002.016-.004.038 0 .058-.001l-.276-.351q-.003.953-.01 1.905-.016 2.59-.026 5.183l-.04 7.664c-.017 3.103-.03 6.207-.048 9.311l-.053 10.236q-.027 5.167-.054 10.333-.026 4.801-.05 9.598l-.042 8.145-.03 5.856c-.004.925-.012 1.85-.013 2.772q.002.059-.002.119c-.003.403.626.481.626.075"/><g fill="#D5EE9F" opacity=".4" style="mix-blend-mode:overlay"><path d="M43.75 28.98c-.01-.818-.012-1.637-.052-2.456-.015-.287-.496-.267-.5.02-.017.81.015 1.622.028 2.432.004.336.531.345.524.005M43.431 54.731c.28-6.363.37-12.729.364-19.1a614 614 0 0 0-.03-5.339c-.004-.336-.528-.344-.524-.005.08 6.373.047 12.745-.067 19.116-.032 1.774-.045 3.55-.074 5.324-.003.216.323.216.332.001z"/></g><path fill="#728C3E" d="m86.107 25.915-33.657-3.74-7.868 70.687L78.239 96.6z"/><path fill="#A6CB66" d="m82.802 32.783-6.353 57.093a4.88 4.88 0 0 0-3.814 3.554l-21.209-2.355a4.87 4.87 0 0 0-3.6-4.527l6.32-56.797a4.88 4.88 0 0 0 4.645-4.333l21.092 2.344a4.88 4.88 0 0 0 2.919 5.02"/><path fill="#41532D" d="m82.49 32.748-.17 1.526-.463 4.154-.683 6.144q-.418 3.745-.833 7.496l-.913 8.21-.923 8.288q-.429 3.865-.859 7.73c-.24 2.176-.486 4.355-.727 6.532l-.52 4.696-.163 1.457c-.03.249-.088.517-.086.77q-.002.048-.01.094l.266-.274c-1.946.388-3.53 1.825-4.06 3.748l.331-.196-7.173-.798c-3.809-.424-7.615-.844-11.424-1.268l-2.612-.289.274.266a5.24 5.24 0 0 0-3.795-4.773l.196.331.169-1.517.459-4.132.678-6.109q.413-3.727.831-7.455l.907-8.166c.303-2.721.613-5.497.917-8.244l.857-7.689.723-6.496.52-4.675.162-1.453c.028-.246.087-.511.084-.764 0-.032.007-.066.01-.094l-.266.274c2.534-.13 4.6-2.097 4.911-4.607l-.35.276 7.154.793c3.771.42 7.546.84 11.317 1.256l2.621.29-.275-.35a5.27 5.27 0 0 0 3.114 5.352c.372.164.61-.422.237-.586a4.62 4.62 0 0 1-2.725-4.691.32.32 0 0 0-.276-.35l-7.154-.795c-3.771-.419-7.546-.839-11.317-1.255l-2.621-.291a.32.32 0 0 0-.35.276c-.278 2.256-2.121 3.94-4.38 4.056-.136.007-.252.147-.265.274l-.17 1.517-.458 4.131-.678 6.11q-.413 3.727-.831 7.455l-.908 8.166-.917 8.244-.856 7.688q-.363 3.252-.723 6.497l-.52 4.674c-.082.738-.184 1.479-.246 2.218l-.01.094c-.014.127.062.294.196.331a4.63 4.63 0 0 1 3.406 4.283c.007.137.147.254.273.267l7.174.797c3.809.424 7.615.844 11.423 1.268l2.612.29c.123.012.294-.063.331-.197.47-1.71 1.823-3.013 3.57-3.358a.32.32 0 0 0 .266-.274l.171-1.527.464-4.153.682-6.144q.418-3.745.833-7.497l.913-8.21.923-8.287c.285-2.577.574-5.154.859-7.73.24-2.177.486-4.356.727-6.532l.52-4.696c.083-.742.186-1.485.249-2.227l.01-.095c.045-.403-.581-.478-.626-.074z"/><path fill="#A6CB66" d="M63.849 72.823c8.388.932 15.857-4.327 16.683-11.745.826-7.42-5.305-14.19-13.693-15.121s-15.857 4.327-16.683 11.746 5.305 14.188 13.693 15.12"/><path fill="#41532D" d="M49.85 57.664c-.654 6.11 3.314 11.591 8.736 14.046 5.734 2.597 12.95 1.907 17.776-2.27 2.192-1.898 3.761-4.451 4.329-7.302s.078-5.84-1.286-8.393c-2.987-5.59-9.42-8.565-15.615-8.173-5.934.376-11.809 4.08-13.519 9.991q-.3 1.034-.423 2.104c-.047.403.581.478.626.074.679-5.86 5.592-10.135 11.193-11.253 5.893-1.177 12.428.947 16.081 5.826 1.652 2.204 2.617 4.923 2.546 7.693-.07 2.77-1.137 5.447-2.944 7.56-3.965 4.626-10.723 6.056-16.431 4.346-5.708-1.711-10.087-6.231-10.488-12.093a12 12 0 0 1 .049-2.074c.042-.404-.584-.48-.626-.075z"/><path fill="#728C3E" d="M64.165 69.976c7.082.787 13.35-3.316 14.001-9.163S73.604 49.586 66.522 48.8c-7.082-.787-13.35 3.316-14.001 9.163s4.562 11.226 11.644 12.013"/><path fill="#41532D" d="M52.212 57.923c-.532 5.03 3.066 9.304 7.478 11.202 4.813 2.067 10.895 1.661 15.044-1.693 1.804-1.46 3.14-3.46 3.616-5.747.477-2.285.027-4.676-1.126-6.686-2.636-4.579-8.122-6.85-13.251-6.592-4.817.242-9.932 2.968-11.412 7.83a9.2 9.2 0 0 0-.35 1.686c-.047.403.582.478.627.075.556-4.757 4.821-7.926 9.287-8.744 4.886-.892 10.417.71 13.594 4.653 1.377 1.708 2.242 3.852 2.193 6.065-.046 2.216-.957 4.296-2.45 5.92-3.394 3.692-9.075 4.62-13.749 3.284-4.39-1.258-8.526-4.772-8.905-9.574a9 9 0 0 1 .03-1.604c.041-.404-.585-.48-.626-.075"/><path fill="#41532D" d="M74.9 59.56a94 94 0 0 0-1.907-.114q.011-.36-.003-.717c.607.01 1.215.02 1.824.02.85-.002.814-1.271-.02-1.311q-.967-.046-1.94-.09a9 9 0 0 0-.157-.783c-.538-2.196-2.281-4.067-4.695-3.724-2.33.327-3.476 2.31-4.4 4.303a136 136 0 0 0-4.209.074c.072-.127.152-.25.245-.356.447-.51 1.2-.736 1.754-.27.6.509 1.373-.435.775-.942-.892-.753-2.17-.666-3.068.045-.505.402-.843.958-1.044 1.572q-1.097.046-2.19.114c-.372.023-.46.637-.06.678q1.023.105 2.047.175a5 5 0 0 0-.03.504 93 93 0 0 0-2.324-.062c-.431-.005-.56.697-.108.772q1.253.204 2.517.353l.001.013c.222 1.217.992 2.306 2.295 2.443 1.445.151 2.567-.768 3.246-1.947.002-.01.01-.018.015-.027.544.036 1.091.068 1.632.103 2.155.13 4.323.288 6.489.369q-.065.315-.145.59c-.326 1.09-1.03 2.006-2.206 2.172a3.2 3.2 0 0 1-.985-.02c-.1-.017-.606-.158-.331-.068-.739-.247-1.255.86-.51 1.107 1.122.374 2.44.299 3.45-.337 1.153-.726 1.754-2.009 1.999-3.41a63 63 0 0 0 2.054.012c.701-.01.676-1.183-.016-1.232zm-6.106-5.533c1.72.147 2.552 1.606 2.846 3.27a209 209 0 0 0-6.736-.158c.828-1.726 1.921-3.284 3.89-3.115zm-9.74 4.282c1.312.078 2.626.128 3.943.165q-.117.257-.233.506c-1.246-.07-2.492-.138-3.74-.193q0-.237.03-.475zm2.11 2.595c-.891.332-1.656-.007-1.959-.912q-.007-.026-.013-.057 1.445.143 2.895.244c-.24.315-.53.578-.92.723zm4.406-1.765q-.754-.041-1.513-.088.117-.267.236-.545.527.014 1.062.023c2.137.046 4.276.127 6.415.177q.005.345-.012.681c-2.06-.088-4.126-.138-6.184-.25z"/><path fill="#728C3E" d="m78.474 94.53-.494 2.044-28.795-3.2-4.533-1.096 1.89-17.009 12.663-52.341 26.901 2.988z" opacity=".7" style="mix-blend-mode:multiply"/><path fill="#41532D" d="m78.557 96.635.21-1.893.574-5.15q.425-3.808.848-7.616c.342-3.085.688-6.169 1.03-9.253q.564-5.088 1.132-10.175l1.143-10.268 1.063-9.54c.3-2.7.601-5.396.9-8.096l.647-5.822c.103-.918.225-1.835.306-2.757l.015-.116a.32.32 0 0 0-.276-.351q-1.68-.187-3.361-.373l-8.031-.892c-3.235-.36-6.471-.716-9.71-1.077l-8.424-.934-2.757-.306c-.438-.05-.883-.128-1.32-.148q-.028-.005-.057-.005a.32.32 0 0 0-.35.276l-.212 1.892-.573 5.15-.848 7.616q-.514 4.628-1.03 9.254-.563 5.087-1.132 10.174c-.38 3.39-.763 6.847-1.143 10.269l-1.062 9.54q-.453 4.048-.9 8.096l-.647 5.822c-.103.918-.225 1.834-.307 2.756l-.014.117c-.02.17.105.331.275.35 1.122.126 2.24.248 3.362.374l8.03.89 9.71 1.079q4.213.467 8.425.934l2.757.306c.437.049.882.128 1.32.147a.4.4 0 0 0 .056.005c.404.045.478-.581.075-.626q-1.68-.187-3.361-.373l-8.03-.892-9.71-1.077c-2.808-.31-5.618-.624-8.425-.934l-2.757-.306c-.41-.046-.909-.189-1.32-.148-.017.003-.04-.005-.057-.005l.276.35c.069-.63.142-1.26.21-1.892l.574-5.15.848-7.616 1.03-9.254q.564-5.087 1.132-10.174c.38-3.39.763-6.846 1.143-10.268l1.063-9.54c.3-2.7.601-5.396.9-8.097l.647-5.821.2-1.811c.035-.309.103-.634.106-.946.002-.038.01-.079.015-.116l-.35.276q1.68.186 3.36.373l8.031.891q4.853.538 9.71 1.078 4.213.467 8.425.934l2.757.306c.409.046.908.188 1.32.147.016-.003.04.005.056.006l-.275-.351q-.106.945-.211 1.892l-.573 5.15-.849 7.617q-.514 4.626-1.029 9.253c-.376 3.39-.753 6.784-1.133 10.174l-1.143 10.269q-.531 4.77-1.062 9.54c-.302 2.7-.602 5.396-.9 8.096l-.647 5.822c-.103.918-.225 1.834-.307 2.757l-.014.116c-.045.404.58.478.626.075"/><g fill="#D5EE9F" opacity=".5" style="mix-blend-mode:overlay"><path d="M53.62 26.511c.07-.792.16-1.59.2-2.385.016-.326-.465-.37-.503-.046-.096.806-.15 1.615-.221 2.423-.013.142.126.264.26.267.151.002.254-.119.267-.261zM50.639 52.144c.95-6.288 1.684-12.605 2.334-18.933q.277-2.696.526-5.393c.03-.335-.493-.34-.524-.005a624 624 0 0 1-2.03 18.929c-.218 1.784-.414 3.573-.633 5.36-.022.186.3.23.326.045z"/></g><path fill="#A6CB66" d="m93.63 26.357-33.16-6.865L46.052 89.14l33.16 6.864z"/><path fill="#D5EE9F" d="M62.766 21.278c3.744.955 7.57 1.64 11.348 2.43 3.778.788 7.323 1.522 10.984 2.283 2.068.428 4.135.917 6.218 1.274.342.058.448-.452.11-.532-1.828-.436-3.678-.777-5.517-1.158-1.838-.38-3.848-.793-5.774-1.189-3.668-.76-7.335-1.509-11.005-2.262-2.077-.427-4.16-.906-6.26-1.225-.243-.037-.359.316-.108.381z" opacity=".7" style="mix-blend-mode:overlay"/><path fill="#D5EE9F" d="M61.485 27.046 49.839 83.302a4.88 4.88 0 0 1 2.527 4.56l20.895 4.325a4.87 4.87 0 0 1 4.827-3.189l11.585-55.962a4.876 4.876 0 0 1-3.075-5.556l-20.78-4.302a4.88 4.88 0 0 1-4.33 3.872z"/><path fill="#41532D" d="m61.17 27.01-1.159 5.598-1.253 6.051-7.802 37.69-.958 4.628c-.15.727-.338 1.46-.454 2.194l-.02.093c-.03.148.081.265.196.33a4.62 4.62 0 0 1 2.332 4.23c-.009.181.1.313.275.35l20.895 4.325c.133.028.282-.074.33-.196.704-1.858 2.504-3.08 4.498-2.996.182.009.314-.1.35-.276l1.152-5.565 1.247-6.021 1.52-7.345 1.666-8.047 1.681-8.122 1.568-7.573 1.325-6.402.954-4.606c.15-.724.336-1.454.452-2.185l.02-.096c.027-.133-.074-.283-.196-.33a4.62 4.62 0 0 1-2.879-5.226c.037-.177-.121-.32-.275-.351l-20.78-4.302c-.18-.037-.316.122-.351.276-.428 1.96-2.082 3.393-4.064 3.595-.405.042-.308.665.097.624 2.282-.235 4.106-1.919 4.597-4.147l-.35.276 20.78 4.302-.276-.35c-.487 2.49.91 4.979 3.27 5.887l-.195-.33-.31 1.494-.842 4.068-1.246 6.02-4.868 23.514-1.568 7.574-1.325 6.401-.953 4.607c-.148.712-.386 1.46-.453 2.184-.003.032-.013.065-.02.096l.351-.276a5.255 5.255 0 0 0-5.155 3.386l.33-.196-20.894-4.326.276.35A5.29 5.29 0 0 0 49.966 83l.196.331 7.305-35.289 1.576-7.614 1.332-6.435.958-4.629c.15-.727.338-1.459.455-2.193l.019-.093c.082-.399-.545-.468-.626-.075z"/><path fill="#D5EE9F" d="M67.1 70.983c8.265 1.71 16.191-2.828 17.704-10.138s-3.96-14.622-12.224-16.333S56.39 47.34 54.876 54.65s3.96 14.622 12.224 16.333"/><path fill="#41532D" d="M84.49 60.807c-1.22 5.765-6.528 9.531-12.185 10.128-5.98.634-12.308-2.118-15.483-7.318-1.439-2.357-2.126-5.158-1.797-7.913.332-2.787 1.68-5.376 3.715-7.297 4.414-4.165 11.183-4.935 16.693-2.703 5.51 2.23 9.502 7.19 9.3 13.069a12.3 12.3 0 0 1-.244 2.037c-.083.399.547.471.626.075 1.222-6.03-2.263-11.865-7.441-14.795-5.464-3.093-12.65-3.07-17.839.608-2.376 1.683-4.218 4.121-5.03 6.935-.81 2.813-.598 5.79.53 8.469 2.452 5.822 8.623 9.406 14.81 9.554 5.954.145 12.109-2.978 14.362-8.723.26-.662.457-1.35.604-2.046.082-.4-.545-.468-.626-.075z"/><path fill="#A6CB66" d="M67.68 68.176c6.977 1.444 13.6-2.056 14.793-7.818S78.976 48.756 72 47.311s-13.6 2.055-14.793 7.817S60.702 66.73 67.68 68.176"/><path fill="#41532D" d="M82.163 60.324c-.998 4.697-5.591 7.424-10.11 7.812-4.941.426-10.272-1.72-13.06-5.927-1.215-1.836-1.854-4.056-1.598-6.258s1.36-4.184 2.995-5.64c3.757-3.345 9.444-3.742 13.995-1.968 4.23 1.647 8.063 5.56 7.962 10.363a9.3 9.3 0 0 1-.184 1.62c-.083.4.547.472.626.075.995-4.95-2.213-9.518-6.407-11.818-4.593-2.52-10.661-2.662-15.112.265-1.937 1.274-3.485 3.164-4.16 5.399s-.462 4.673.515 6.804c2.206 4.803 7.532 7.596 12.667 7.766 4.811.157 10.087-2.071 12.002-6.773.216-.53.375-1.08.494-1.64.083-.399-.545-.467-.626-.074z"/><path fill="#41532D" d="M79.205 59.97c-.61-.182-1.223-.35-1.839-.52q.087-.351.148-.702c.594.14 1.184.277 1.779.407.83.181 1.065-1.067.26-1.285q-.935-.251-1.88-.499c.016-.274.02-.544.015-.8-.057-2.261-1.365-4.458-3.796-4.642-2.345-.175-3.888 1.515-5.214 3.267q-2.06-.444-4.129-.826.145-.165.316-.296c.545-.403 1.33-.463 1.77.112.479.625 1.435-.132.955-.758-.71-.927-1.98-1.113-3.006-.609-.581.283-1.027.755-1.352 1.314a126 126 0 0 0-2.163-.354c-.369-.057-.586.524-.202.648a64 64 0 0 0 1.963.607q-.08.24-.136.485-1.126-.291-2.257-.558c-.421-.097-.693.563-.27.732q1.18.466 2.386.88l-.003.013c-.043 1.236.48 2.464 1.722 2.876 1.378.457 2.672-.205 3.587-1.212q.01-.013.02-.022l1.574.448c2.077.585 4.163 1.201 6.262 1.742-.085.195-.175.38-.267.545-.549 1-1.433 1.739-2.618 1.652a3.1 3.1 0 0 1-.957-.23c-.092-.039-.557-.284-.308-.135-.668-.4-1.408.573-.733.974 1.016.604 2.32.81 3.442.403 1.28-.465 2.14-1.59 2.677-2.905q1 .241 2.002.45c.686.142.912-1.011.25-1.206zm-4.79-6.71c1.652.51 2.151 2.114 2.085 3.804a207 207 0 0 0-6.548-1.592c1.176-1.511 2.574-2.796 4.46-2.212zm-10.424 2.111c1.267.356 2.54.684 3.815 1q-.17.225-.337.443a295 295 0 0 0-3.611-.986 3.4 3.4 0 0 1 .133-.457m1.506 2.983c-.94.135-1.617-.36-1.718-1.307q-.001-.03-.004-.059c.921.3 1.846.582 2.776.855-.302.257-.642.451-1.054.511m4.682-.786c-.489-.133-.973-.269-1.46-.405q.171-.234.345-.484.515.124 1.031.25c2.078.5 4.15 1.036 6.23 1.538q-.07.338-.156.664c-1.997-.523-4.002-1.016-5.99-1.563"/><path fill="#41532D" d="m46.367 89.174.387-1.866 1.05-5.074 1.554-7.505 1.887-9.118c.63-3.038 1.384-6.683 2.075-10.024l4.041-19.52L60.2 22.355l.368-1.782c.064-.306.158-.622.193-.931.005-.038.016-.077.024-.114l-.35.275 31.803 6.584c.408.085.884.264 1.301.27.02 0 .04.008.056.011l-.275-.35-2.99 14.442-1.888 9.117-2.075 10.024-4.04 19.52-1.652 7.976-1.556 7.518c-.063.306-.158.622-.193.931-.004.038-.016.077-.023.115l.35-.276L47.449 89.1c-.426-.088-.87-.222-1.3-.27l-.056-.011c-.4-.082-.468.545-.075.627L77.82 96.03c.427.089.87.222 1.302.27l.055.011c.176.037.319-.121.35-.276l.387-1.865 1.05-5.074 1.554-7.506 1.887-9.118c.63-3.038 1.384-6.682 2.075-10.024l2.095-10.12q.975-4.702 1.946-9.4L93.36 29.22c.187-.903.41-1.806.562-2.713l.023-.115c.037-.176-.12-.319-.275-.35l-31.804-6.584c-.426-.089-.87-.222-1.3-.27l-.057-.011c-.176-.037-.318.121-.35.276l-.386 1.865-1.05 5.074-1.554 7.506-1.888 9.118-2.075 10.024-4.04 19.52-1.652 7.975-1.187 5.736c-.187.904-.41 1.806-.562 2.714l-.023.114c-.083.4.544.468.625.075"/><path fill="#41532D" d="M69.118 42.27c-2.41.013-4.832.457-7.026 1.48a13.4 13.4 0 0 0-2.84 1.775q-.646.526-1.217 1.135c-.327.349-.751.748-.932 1.198-.08.203.173.38.342.248.201-.162.345-.387.508-.582q.322-.39.676-.747.535-.543 1.132-1.015a13.8 13.8 0 0 1 2.733-1.683c2.08-.97 4.368-1.406 6.652-1.446.23-.004.193-.357-.033-.355zM68.19 73.598c2.725.206 5.525-.44 8.081-1.363 1.213-.44 2.379-.998 3.449-1.729 1.07-.73 2.205-1.653 3.041-2.69.187-.23-.174-.526-.385-.335-.91.832-1.75 1.7-2.76 2.417a14.8 14.8 0 0 1-3.246 1.722c-1.146.443-2.245.755-3.396 1.036-1.532.376-3.144.694-4.726.583-.23-.015-.286.338-.055.357zM72.947 74.858c3.387-.431 6.53-1.84 9.134-4.049.262-.223-.118-.596-.38-.375-2.492 2.12-5.583 3.541-8.807 4.09-.187.033-.136.36.053.334M61.861 30.032c-.863 3.845-1.638 7.71-2.421 11.572-.183.898-.355 1.795-.526 2.695-.05.258.341.345.401.086a581 581 0 0 0 2.359-11.236c.204-1.017.414-2.031.605-3.05.05-.27-.357-.332-.414-.07zM62.361 27.814a25 25 0 0 1-.332 1.416c-.069.256.367.347.402.083.067-.477.16-.948.255-1.419.044-.213-.284-.294-.328-.08zM90.735 32.736q-.854 4.08-1.7 8.163-1.38 6.672-2.765 13.346-1.569 7.582-3.146 15.165-1.438 6.942-2.871 13.886c-.615 2.986-1.236 5.968-1.845 8.955-.041.201-.077.404-.12.608-.053.26.348.346.402.086q.847-4.083 1.703-8.165 1.386-6.647 2.76-13.296 1.587-7.673 3.17-15.347a20653 20653 0 0 0 4.685-22.696l.126-.61c.053-.257-.343-.348-.396-.092zM91.092 31.064q-.103.493-.21.986c-.021.102.032.22.14.245.098.02.222-.032.244-.14q.1-.484.194-.97c.02-.099-.014-.212-.124-.241-.091-.026-.22.019-.241.124zM91.464 29.372q-.118.525-.234 1.052c-.02.096.075.2.167.205.109.007.185-.065.206-.167q.096-.502.192-1.009c.018-.086-.032-.187-.125-.203s-.184.033-.203.126z"/><path fill="#FFAB93" d="M41.562 96.873c12.898-9.504 2.658-27.13.548-30.463a1.11 1.11 0 0 1-.05-1.112c1.907-3.639 3.262-9.4 3.262-9.4.855-5.892-.595-9.526-2.24-11.679-1.31-1.715-3.994-1.35-4.816.648l-15.898 39.06c.222 2.445.37 5.037 1.63 9.926.591 2.297 1.812 5.723 4.222 8.223"/><path stroke="#000" stroke-linecap="round" stroke-linejoin="round" stroke-width=".15" d="M41.562 96.873c12.898-9.504 2.658-27.13.548-30.463a1.11 1.11 0 0 1-.05-1.112c1.907-3.639 3.262-9.4 3.262-9.4.855-5.892-.595-9.526-2.24-11.679-1.31-1.715-3.994-1.35-4.816.648l-15.898 39.06c.222 2.445.37 5.037 1.63 9.926.591 2.297 1.812 5.723 4.222 8.223"/><path fill="#FFAB93" d="M35.333 52.635s4.231.906 5.892-3.454l.877-2.13"/><path stroke="#000" stroke-linecap="round" stroke-linejoin="round" stroke-width=".15" d="M35.333 52.635s4.231.906 5.892-3.454l.877-2.13"/><path stroke="#fff" stroke-miterlimit="10" stroke-width=".15" d="M42.26 46.647s-.699-1.49-3.623-2.28"/><path fill="#000" d="M24.96 77.633s-2.147 7.555-.37 18c0 0-1.63-4.519-2.222-11.704z" opacity=".29"/><path stroke="#000" stroke-miterlimit="10" stroke-width=".15" d="M91.055 18.102v3.38M92.744 19.793h-3.38M12.501 74.516v3.078M14.04 76.055h-3.078"/><path fill="#F3B443" stroke="#000" stroke-miterlimit="10" stroke-width=".15" d="M17.463 16.852a1.76 1.76 0 1 0 0-3.52 1.76 1.76 0 0 0 0 3.52Z"/><path fill="#59B8AA" stroke="#000" stroke-miterlimit="10" stroke-width=".15" d="M11.257 100a2.963 2.963 0 1 0 0-5.926 2.963 2.963 0 0 0 0 5.926Z"/><path fill="#000" d="M9.599 97.179c-.411-.587-.59-1.332-.529-2.05a2.88 2.88 0 0 0-.776 1.97c0 1.602 1.3 2.901 2.9 2.901a2.89 2.89 0 0 0 2.54-1.504c-1.468.397-3.302-.125-4.135-1.317"/><path fill="#fff" d="M12.493 96.774a1.139 1.139 0 1 0 0-2.278 1.139 1.139 0 0 0 0 2.278"/><path fill="#F3B443" stroke="#000" stroke-miterlimit="10" stroke-width=".15" d="M29.331 27.701a2.518 2.518 0 1 0 0-5.037 2.518 2.518 0 0 0 0 5.037Z"/><path fill="#000" d="M27.921 25.301a2.67 2.67 0 0 1-.448-1.742c-.41.44-.66 1.026-.66 1.675a2.466 2.466 0 0 0 2.465 2.465 2.46 2.46 0 0 0 2.158-1.279c-1.247.338-2.806-.105-3.515-1.119"/><path fill="#fff" d="M30.383 24.96a.968.968 0 1 0 0-1.937.968.968 0 0 0 0 1.937"/><path fill="#59B8AA" stroke="#000" stroke-miterlimit="10" stroke-width=".15" d="M88.59 111.106a1.778 1.778 0 1 0 0-3.555 1.778 1.778 0 0 0 0 3.555Z"/><path fill="#000" d="M87.595 109.414a1.88 1.88 0 0 1-.317-1.23c-.288.31-.466.724-.466 1.182 0 .961.78 1.741 1.741 1.741.657 0 1.228-.366 1.523-.903-.88.238-1.98-.075-2.48-.79"/><path fill="#fff" d="M89.334 109.168a.683.683 0 1 0 0-1.367.683.683 0 0 0 0 1.367"/><path fill="#F3B443" stroke="#000" stroke-miterlimit="10" stroke-width=".15" d="m74.21 2.423 1.828 2.503s-.223 3.506-5.868 6.993c-5.645 3.489-8.604 2.25-8.604 2.25l-1.99-2.39s7.572-9.49 14.634-9.356Z"/><path fill="#FFDB7F" stroke="#000" stroke-miterlimit="10" stroke-width=".15" d="M68.575 9.883c4.056-2.52 6.604-5.753 5.692-7.221s-4.94-.614-8.995 1.907c-4.056 2.52-6.605 5.754-5.693 7.221s4.94.614 8.996-1.907Z"/><path fill="#FFDB7F" stroke="#000" stroke-miterlimit="10" stroke-width=".15" d="M67.758 8.836c3.211-1.995 5.317-4.412 4.704-5.398-.612-.986-3.712-.167-6.922 1.828s-5.317 4.412-4.704 5.398c.612.986 3.712.167 6.922-1.828Z"/><path fill="#000" d="m67.53 13.314-1.538-2.056s-4 1.71-5.993 1.029l1.567 1.882s2.198.775 5.964-.855" opacity=".49"/><path fill="#F3B443" stroke="#000" stroke-miterlimit="10" stroke-width=".15" d="m108.8 40.21-.944 1.11s-.016 1.652 2.51 3.483 3.956 1.355 3.956 1.355l1.016-1.052s-3.222-4.713-6.538-4.894z"/><path fill="#FFDB7F" stroke="#000" stroke-miterlimit="10" stroke-width=".15" d="M115.332 45.093c.479-.657-.604-2.261-2.418-3.584s-3.673-1.862-4.152-1.206.604 2.261 2.419 3.584 3.673 1.862 4.151 1.206Z"/><path fill="#FFDB7F" stroke="#000" stroke-miterlimit="10" stroke-width=".15" d="M114.783 44.524c.321-.441-.583-1.648-2.019-2.694s-2.86-1.538-3.182-1.097c-.321.44.582 1.647 2.018 2.694s2.861 1.538 3.183 1.097Z"/><path fill="#000" d="m111.556 45.552.792-.911s1.817.94 2.775.69l-.8.828s-1.058.288-2.766-.607z" opacity=".5"/><path fill="#F3B443" stroke="#000" stroke-miterlimit="10" stroke-width=".15" d="m11.708 57.816 1.198 1.076s.264 1.806-2.23 4.188c-2.492 2.382-4.131 2.071-4.131 2.071l-1.27-1.001s2.829-5.64 6.433-6.332z"/><path fill="#FFDB7F" stroke="#000" stroke-miterlimit="10" stroke-width=".15" d="M9.647 62.2c1.79-1.719 2.737-3.637 2.115-4.285s-2.578.22-4.368 1.938c-1.79 1.719-2.737 3.637-2.115 4.285s2.578-.22 4.368-1.938Z"/><path fill="#FFDB7F" stroke="#000" stroke-miterlimit="10" stroke-width=".15" d="M9.12 61.753c1.418-1.36 2.228-2.816 1.81-3.251-.417-.435-1.905.315-3.322 1.675s-2.227 2.816-1.81 3.251c.418.435 1.905-.315 3.322-1.675Z"/><path fill="#000" d="m9.482 64.071-1.003-.88s-1.849 1.301-2.936 1.17l1 .787s1.201.157 2.94-1.077" opacity=".5"/><path fill="#fff" stroke="#000" stroke-miterlimit="10" stroke-width=".15" d="M37.74 11.76s2.781-.341 2.781 3.142c0 0 0-3.208 2.938-3.151 0 0-2.86-.177-2.938-3.263 0 0 .204 3.208-2.78 3.273zM95.113 72.95s3.328-.407 3.328 3.76c0 0 0-3.838 3.515-3.771 0 0-3.515-.067-3.515-3.904 0 0 .616 3.916-3.328 3.916ZM27.113 113.022s6.911-.845 6.911 7.806c0 0 0-7.968 7.3-7.829 0 0-6.28.263-7.3-8.108 0 0 .194 7.969-6.91 8.13z"/></svg>