<svg xmlns="http://www.w3.org/2000/svg" fill="none" viewBox="0 0 172 142"><path fill="#E0F8F3" d="M25 28C25 8.118 41.118-8 61-8S97 8.118 97 28 80.882 64 61 64 25 47.882 25 28"/><path fill="#E0F8F3" d="M64.385 29.23a.923.923 0 0 1 1.662-.554l3.876 5.17h-5.538z"/><path fill="#12A594" d="M41.77 38.461a4.615 4.615 0 0 1 4.615-4.615H70c3.474 0 6.78 1.488 9.083 4.088l.617.697c.342.386.531.884.531 1.4v1.098a1.947 1.947 0 0 1-1.947 1.948h-31.9a4.615 4.615 0 0 1-4.614-4.616"/><path fill="#868E8B" d="M51.77 29.538a1.23 1.23 0 0 1 2.462 0v4.308H51.77z"/><path fill="#12A594" d="M56.846 33.385a2.615 2.615 0 0 0-2.616-2.615v3.076h2.616z"/><path fill="#008573" d="M44.385 33.846A2.615 2.615 0 0 1 47 31.23h4.77v2.615zM53.154 39.385h16v3.692h-16z"/><path fill="#5F6563" d="M41.923 39.385h4.461v3.692h-.769a3.69 3.69 0 0 1-3.692-3.692M75.923 39.385h4.154v3.692h-4.154z"/><path fill="#1A211E" d="M41.154 40.308v-3.693a3.385 3.385 0 0 1 3.385-3.384H70c3.65 0 7.124 1.564 9.544 4.296l.617.696.04.047c.417.492.646 1.116.646 1.762V42c0 .935-.758 1.692-1.693 1.692H44.54a3.385 3.385 0 0 1-3.385-3.384m1.231 0c0 1.19.964 2.154 2.154 2.154h34.615a.46.46 0 0 0 .462-.462v-1.968c0-.343-.118-.675-.332-.94l-.044-.053-.618-.696A11.52 11.52 0 0 0 70 34.462H44.54c-1.19 0-2.154.964-2.154 2.153z"/><path fill="#1A211E" d="M51.77 30.616h.031a.615.615 0 0 1 .584.615v2.615c0 .34-.276.616-.615.616h-7.385a.615.615 0 0 1-.615-.616 3.23 3.23 0 0 1 3.23-3.23zM47 31.846c-.89 0-1.644.581-1.903 1.385h6.057v-1.385zM54.231 30.154H54.2a.615.615 0 0 0-.583.615v3.077c0 .34.275.616.615.616h2.616c.34 0 .615-.276.615-.616v-1.23A2.46 2.46 0 0 0 55 30.153zm2 3.077h-1.384v-1.846H55c.68 0 1.231.55 1.231 1.23z"/><path fill="#1A211E" d="M52.385 28.923v4.308h1.23v-4.308zm2.462 4.923c0 .34-.276.616-.616.616H51.77a.615.615 0 0 1-.616-.616v-4.923c0-.68.551-1.23 1.231-1.23h1.23c.68 0 1.232.55 1.232 1.23zM67.231 38.77a.615.615 0 1 1 0 1.23H55.308a.615.615 0 0 1 0-1.23zM80.231 45.077h.032a.615.615 0 0 1 0 1.23H41.77a.615.615 0 1 1 0-1.23zM47.308 38.77h.032a.615.615 0 0 1 0 1.23h-5.57a.615.615 0 1 1 0-1.23zM80.077 38.77h.032a.615.615 0 0 1 0 1.23H75a.615.615 0 0 1 0-1.23zM65.462 27.692c.387 0 .752.183.985.493l3.969 5.292a.616.616 0 0 1-.492.985h-5.539a.615.615 0 0 1-.615-.616v-4.923c0-.68.55-1.23 1.23-1.23zM65 33.231h3.693l-3.231-4.308H65z"/><circle cx="49.923" cy="42" r="3.692" fill="#868E8B"/><circle cx="72.385" cy="42" r="3.692" fill="#868E8B"/><circle cx="49.923" cy="42" r="1.231" fill="#008573"/><circle cx="72.385" cy="42" r="1.231" fill="#008573"/><path fill="#1A211E" d="M50.538 42a.615.615 0 1 0-1.23 0 .615.615 0 0 0 1.23 0m1.231 0a1.846 1.846 0 1 1-3.692 0 1.846 1.846 0 0 1 3.692 0"/><path fill="#1A211E" d="M53 42a3.077 3.077 0 1 0-6.154 0A3.077 3.077 0 0 0 53 42m1.23 0a4.308 4.308 0 1 1-8.615 0 4.308 4.308 0 0 1 8.616 0M73 42a.615.615 0 1 0-1.231 0 .615.615 0 0 0 1.23 0m1.23 0a1.846 1.846 0 1 1-3.692 0 1.846 1.846 0 0 1 3.693 0"/><path fill="#1A211E" d="M75.461 42a3.077 3.077 0 1 0-6.153 0 3.077 3.077 0 0 0 6.153 0m1.231 0a4.308 4.308 0 1 1-8.615 0 4.308 4.308 0 0 1 8.615 0"/><circle cx="59.615" cy="17.077" r="6.923" fill="#F3B359"/><path fill="#FFDFA5" d="M59.77 9.692a6.923 6.923 0 0 1 6.298 9.8 6.923 6.923 0 0 1-11.982-6.83 6.92 6.92 0 0 1 5.684-2.97"/><path fill="#1A211E" d="M65.923 17.077a6.308 6.308 0 1 0-12.615 0 6.308 6.308 0 0 0 12.615 0m1.231 0a7.538 7.538 0 1 1-15.077 0 7.538 7.538 0 0 1 15.077 0"/><path fill="#1A211E" d="M59.624 12.769c.34.002.613.28.61.62v.053c.551.108.974.36 1.277.688.367.396.525.867.56 1.228l.005.07v.032a.615.615 0 0 1-1.227.065l-.002-.032-.005-.049a.93.93 0 0 0-.234-.479c-.155-.167-.44-.35-.993-.35-.403 0-.659.098-.823.207-.18.12-.301.348-.305.639a.96.96 0 0 0 .308.734l.032.026c.168.132.414.24.788.24.642 0 1.154.195 1.544.498l.076.063c.51.434.748 1.08.74 1.686-.008.61-.267 1.259-.856 1.65-.25.165-.545.287-.886.353l-.002.216-.001.032a.615.615 0 0 1-1.23-.01v-.031l.002-.206c-.554-.107-.978-.36-1.282-.689a2.15 2.15 0 0 1-.56-1.228l-.005-.07v-.032a.615.615 0 0 1 1.227-.065l.002.032.005.049a.93.93 0 0 0 .235.479c.154.167.44.35.992.35.403 0 .66-.098.823-.207.181-.12.301-.347.305-.639s-.114-.57-.307-.734l-.033-.026c-.168-.132-.414-.24-.788-.24-.641 0-1.154-.195-1.544-.498l-.076-.063c-.51-.434-.748-1.08-.74-1.686.008-.61.268-1.259.856-1.65.251-.166.548-.288.891-.354v-.062l.002-.031a.615.615 0 0 1 .619-.58M60.231 30.077v.031a.615.615 0 0 1-1.23 0V24a.615.615 0 0 1 1.23 0z"/><path fill="#1A211E" d="m60.063 30.443-.02.024a.615.615 0 0 1-.963-.764l.019-.025 1.88-2.369.021-.024a.615.615 0 0 1 .944.79z"/><path fill="#1A211E" d="m59.168 30.443.02.024a.615.615 0 0 0 .963-.764l-.019-.025-1.88-2.369-.02-.024a.615.615 0 0 0-.944.79z"/><path fill="#E0F8F3" d="M12 114c0-19.882 16.118-36 36-36s36 16.118 36 36-16.118 36-36 36-36-16.118-36-36"/><rect width="15.846" height="2.769" x="32" y="94.769" fill="#5F6563" rx="1.385"/><path fill="#008573" d="M28.77 102.923c0-1.189.964-2.153 2.153-2.153h18c1.19 0 2.154.964 2.154 2.153v25.539a2.154 2.154 0 0 1-2.154 2.154h-18a2.154 2.154 0 0 1-2.153-2.154z"/><path fill="#5F6563" d="M32 130.615h4v.154a2 2 0 1 1-4 0zM43.846 130.615h4v.154a2 2 0 1 1-4 0z"/><rect width="13.231" height="2.769" x="32" y="94.769" fill="#868E8B" rx="1.385"/><path fill="#12A594" d="M28.77 102.923c0-1.189.964-2.153 2.153-2.153h15.539c1.19 0 2.154.964 2.154 2.153v25.539a2.154 2.154 0 0 1-2.154 2.154H30.923a2.154 2.154 0 0 1-2.153-2.154z"/><path fill="#1A211E" fill-rule="evenodd" d="M47.077 94.154c.765 0 1.385.62 1.385 1.385v1.23c0 .765-.62 1.385-1.385 1.385h-.461v2h2.307l.072.001a2.77 2.77 0 0 1 2.698 2.769v25.538a2.77 2.77 0 0 1-2.77 2.769h-.461V132c0 .765-.62 1.385-1.385 1.385h-2.461c-.765 0-1.385-.62-1.385-1.385v-.769h-6.615V132c0 .765-.62 1.385-1.385 1.385H32.77c-.765 0-1.385-.62-1.385-1.385v-.769h-.462a2.77 2.77 0 0 1-2.769-2.769v-18.385a.616.616 0 0 1 1.231 0v18.385c0 .85.689 1.538 1.538 1.538h18c.85 0 1.539-.688 1.539-1.538v-25.538c0-.824-.646-1.496-1.46-1.537l-.079-.002h-18c-.85 0-1.538.689-1.538 1.539v2.692a.615.615 0 0 1-1.23 0v-2.692a2.77 2.77 0 0 1 2.768-2.77h2.308v-2h-.461c-.765 0-1.385-.62-1.385-1.384v-1.231c0-.765.62-1.385 1.385-1.385zM32.616 132c0 .085.069.154.154.154h2.461a.154.154 0 0 0 .154-.154v-.769h-2.77zm11.846 0c0 .085.069.154.154.154h2.461a.154.154 0 0 0 .154-.154v-.769h-2.769zm-10-31.846h10.923v-2H34.462zm-1.692-4.769a.154.154 0 0 0-.154.154v1.23c0 .086.069.154.154.154h14.307a.154.154 0 0 0 .154-.153v-1.231a.154.154 0 0 0-.154-.154z" clip-rule="evenodd"/><path fill="#1A211E" d="M35.077 106.77c.34 0 .616.275.616.615v16.923l-.001.032a.616.616 0 0 1-1.23 0v-16.955c0-.34.275-.615.615-.615M40 106.77c.34 0 .616.275.616.615v16.955a.616.616 0 0 1-1.23 0v-16.955c0-.34.275-.615.614-.615M44.924 106.77c.34 0 .615.275.615.615v16.955a.616.616 0 0 1-1.23 0v-16.955c0-.34.275-.615.614-.615"/><path fill="#E0F8F3" d="m60.77 110 6.307 2.385v20.769l-6.308-2.462-6.154 2.462-6.23-2.462V110l6.23 2.385z"/><path fill="#83CDC1" d="M67.077 112.385V133l-.002-.329c-.07-6.81-2.342-6.362-4.614-6.286-2.308.077-2.923-.846-4.077-3.154s-2.385-2.769-3.692-3.077c-5.23-1.538-6.333-7.307-6.23-10h.324l5.829 2.231 5.757-2.231h.804z"/><path fill="#008573" d="m64.77 111.192 2.307 1.082v15.995l-2.308-1.777z"/><path fill="#83CDC1" d="m64.77 126.423 2.307 1.089v5.834l-2.308-1.789z"/><path fill="#1A211E" fill-rule="evenodd" d="M60.574 109.417a.6.6 0 0 1 .413.008l6.308 2.384.044.019c.214.1.354.317.354.557v8.692a.615.615 0 1 1-1.231 0v-8.267l-4.923-1.861v14.782c.254.037.55.05.902.039.539-.018 1.184-.066 1.78-.002.622.066 1.264.257 1.823.753q.225.2.418.455v-2.437a.616.616 0 1 1 1.23 0v8.615a.616.616 0 0 1-.838.573l-6.082-2.373-5.928 2.371a.6.6 0 0 1-.454.001l-6.231-2.461a.62.62 0 0 1-.39-.573V110a.616.616 0 0 1 .836-.575l6.01 2.3 5.932-2.299zm3.517 17.575c-.484-.052-.994-.013-1.609.008a7 7 0 0 1-.943-.029v3.361l4.913 1.917c-.035-1.374-.168-2.397-.367-3.155-.233-.888-.546-1.375-.859-1.653-.307-.273-.675-.4-1.135-.449m-15.09 3.282 5 1.975v-11.674c-2.52-.911-4.072-2.772-4.981-4.729l-.02-.042zm6.23 1.971 5.077-2.031v-3.573a3.2 3.2 0 0 1-.72-.474c-.696-.604-1.188-1.53-1.754-2.661-.544-1.089-1.082-1.694-1.597-2.064a3.7 3.7 0 0 0-1.006-.502zm0-19.439v6.849c.561.153 1.148.373 1.725.788.716.515 1.37 1.295 1.98 2.513.552 1.105.932 1.78 1.372 2.203v-14.32zm-6.15-1.881c.053 1.236.341 2.869 1.054 4.402.754 1.621 1.968 3.104 3.865 3.924v-6.443z" clip-rule="evenodd"/><path fill="#FF70C2" d="M63.385 116.307c0 1.36-1.102 5.077-2.462 5.077-1.359 0-2.461-3.717-2.461-5.077a2.461 2.461 0 0 1 4.923 0"/><path fill="#1A211E" d="M62.769 116.307a1.846 1.846 0 0 0-3.692 0c0 .575.248 1.763.675 2.818.212.522.451.969.694 1.274.26.326.425.37.477.37s.217-.044.476-.37c.243-.305.482-.752.694-1.274.427-1.055.676-2.243.676-2.818m1.23 0c0 .786-.302 2.136-.766 3.28-.233.577-.525 1.144-.87 1.579-.33.413-.812.834-1.44.834s-1.11-.421-1.44-.834c-.346-.435-.637-1.002-.871-1.579-.464-1.144-.766-2.494-.766-3.28a3.077 3.077 0 0 1 6.154 0"/><path fill="#1A211E" d="M61.692 116.154a.77.77 0 1 1-1.54-.001.77.77 0 0 1 1.54.001"/><path fill="#E0F8F3" d="M88 83c0-19.882 16.118-36 36-36s36 16.118 36 36-16.118 36-36 36-36-16.118-36-36"/><path fill="#F3FBF9" d="M110.154 99.539V79.385l14.923-9 15 9v20.154z"/><path fill="#12A594" d="M121.692 89a3.385 3.385 0 0 1 6.77 0v10.615h-6.77z"/><rect width="7.077" height="2.923" x="132.154" y="63.77" fill="#83CDC1" rx="1.462"/><rect width="38.462" height="2.615" x="105.846" y="99.615" fill="#868E8B" rx="1.308"/><path fill="#12A594" d="M143.472 77.377a1.692 1.692 0 1 1-1.743 2.901l-16.384-9.845a.52.52 0 0 0-.536 0l-16.385 9.845a1.693 1.693 0 0 1-1.743-2.901l17.271-10.378a2.19 2.19 0 0 1 2.25 0z"/><path fill="#83CDC1" d="m138.154 74.18-4.924-2.957v-4.53h4.924z"/><circle cx="125.077" cy="77.77" r="4.308" fill="#83CDC1"/><path fill="#E0F8F3" d="M140.077 79.384v20.154h-3.615V77.215z"/><path fill="#008573" d="M126.692 85.615c.978 0 1.77.792 1.77 1.77v12.23h-1.77z"/><path fill="#12A594" d="M136.462 63.77h1.308a1.461 1.461 0 0 1 0 2.923h-1.308z"/><path fill="#5F6563" d="M136.462 99.615H143a1.308 1.308 0 1 1 0 2.616h-6.538z"/><path fill="#008573" d="M143.473 77.377a1.692 1.692 0 0 1-1.743 2.901l-2.899-1.742a.13.13 0 0 1-.061-.108v-3.573c0-.134.145-.217.26-.148z"/><path fill="#12A594" d="m138.154 74.18-1.692-1.016v-6.472h1.692z"/><path fill="#1A211E" d="M138.615 64.539c0-.08-.06-.145-.138-.153h-5.554a.154.154 0 0 0-.154.153v1.385c0 .084.069.153.154.153h5.538a.154.154 0 0 0 .154-.153zm1.231 1.385c0 .764-.62 1.384-1.385 1.384h-5.538c-.765 0-1.385-.62-1.385-1.385V64.54c0-.765.62-1.385 1.385-1.385h5.538l.071.002a1.385 1.385 0 0 1 1.314 1.383zM143.692 101.462v-1.077a.154.154 0 0 0-.154-.154h-36.923a.154.154 0 0 0-.154.154v1.077c0 .085.069.154.154.154h7.231a.615.615 0 1 1 0 1.231h-7.231c-.765 0-1.385-.62-1.385-1.385v-1.077c0-.765.62-1.385 1.385-1.385h36.923c.765 0 1.385.62 1.385 1.385v1.077c0 .765-.62 1.385-1.385 1.385h-26a.615.615 0 0 1 0-1.231h26a.154.154 0 0 0 .154-.154M123.635 66.472a2.8 2.8 0 0 1 2.883 0l17.271 10.378a2.31 2.31 0 0 1 .82 3.115l-.03.051a2.31 2.31 0 0 1-3.167.79l-16.335-9.816-16.336 9.816a2.307 2.307 0 0 1-3.135-.74l-.031-.05a2.307 2.307 0 0 1 .789-3.166l5.857-3.52a.616.616 0 0 1 .634 1.055l-5.857 3.52c-.51.306-.675.967-.368 1.477l.029.047c.318.473.954.618 1.448.322l16.385-9.845.034-.02c.342-.19.759-.19 1.102 0l.034.02 16.384 9.845c.51.306 1.171.141 1.478-.369l.027-.048a1.077 1.077 0 0 0-.396-1.43l-17.27-10.377a1.57 1.57 0 0 0-1.616 0l-8.183 4.917a.616.616 0 0 1-.634-1.055z"/><path fill="#1A211E" d="m138.154 66.077.031.001a.616.616 0 0 1 .584.615v7.488a.615.615 0 0 1-.932.528l-4.924-2.958a.62.62 0 0 1-.298-.528v-4.53l.001-.032a.615.615 0 0 1 .614-.584zm-4.308 4.798 3.692 2.218v-5.785h-3.692zM128.769 77.77a3.692 3.692 0 1 0-7.384 0 3.692 3.692 0 0 0 7.384 0m1.231 0a4.923 4.923 0 1 1-9.846 0 4.923 4.923 0 0 1 9.846 0"/><path fill="#1A211E" d="m129.384 77.154.032.001a.616.616 0 0 1 0 1.23h-8.647a.615.615 0 0 1 0-1.23z"/><path fill="#1A211E" d="m125.693 82.079-.001.031a.615.615 0 0 1-1.229 0l-.001-.031v-8.616a.616.616 0 0 1 1.231 0zM110.769 79.462v20.23h-1.231v-20.23zM139.538 85.616v-6.154h1.231v6.154a.616.616 0 0 1-1.231 0M139.538 89.308a.616.616 0 0 1 1.23-.032l.001.032v10.23h-1.231zM128.461 86.385a.154.154 0 0 0-.154-.154h-6.461a.154.154 0 0 0-.154.154V99h6.769zm1.231 13.23c0 .34-.276.616-.615.616h-8a.616.616 0 0 1-.616-.615v-13.23c0-.766.62-1.386 1.385-1.386h6.461c.765 0 1.385.62 1.385 1.385z"/><path fill="#1A211E" d="M123.846 92.539a.616.616 0 1 1-1.232 0 .616.616 0 0 1 1.232 0"/><path fill="#12A594" d="M138 94.385a4.923 4.923 0 0 1 4.913 5.23h-1.531a4.923 4.923 0 0 0-5.549-4.729 4.9 4.9 0 0 1 2.167-.501M113.725 95c2.361 0 4.275 1.945 4.275 4.344q0 .137-.008.271h-1.236c-.172-2.238-2.014-4-4.261-4-.433 0-.851.066-1.245.187a4.2 4.2 0 0 1 2.475-.802"/><path fill="#83CDC1" d="M138 94.385a4.923 4.923 0 0 1 4.913 5.23h-12.746a3.69 3.69 0 0 1 3.679-3.384c.189 0 .37-.078.496-.218A4.9 4.9 0 0 1 138 94.385M113.725 95c2.361 0 4.275 1.945 4.275 4.344q0 .137-.009.271h-11.068c.136-1.672 1.514-2.986 3.195-2.986.163 0 .32-.068.429-.19A4.23 4.23 0 0 1 113.725 95"/><path fill="#1A211E" d="M138 93.77a5.54 5.54 0 0 1 5.528 5.883l-.036.578h-13.993l.055-.666.01-.103a4.307 4.307 0 0 1 4.283-3.846c.02 0 .033-.009.038-.015l.096-.104A5.53 5.53 0 0 1 138 93.77m0 1.23c-1.23 0-2.34.516-3.126 1.344l-.075.081a1.28 1.28 0 0 1-.952.422A3.08 3.08 0 0 0 130.911 99h11.386A4.31 4.31 0 0 0 138 95M113.725 94.385c2.71 0 4.891 2.23 4.891 4.96q0 .158-.01.308l-.035.578h-12.315l.054-.665c.16-1.975 1.787-3.544 3.792-3.552a4.85 4.85 0 0 1 3.623-1.63m0 1.23a3.62 3.62 0 0 0-2.717 1.232 1.2 1.2 0 0 1-.89.398c-1.12 0-2.083.728-2.441 1.755h9.692c-.17-1.905-1.745-3.384-3.644-3.384"/><circle cx="112.154" cy="88.846" r="6.923" fill="#F3B359"/><path fill="#FFDFA5" d="M112.308 81.462a6.923 6.923 0 0 1 6.298 9.8 6.923 6.923 0 0 1-11.982-6.83 6.92 6.92 0 0 1 5.684-2.97"/><path fill="#1A211E" d="M118.461 88.846a6.307 6.307 0 1 0-12.615 0 6.307 6.307 0 0 0 12.615 0m1.231 0a7.538 7.538 0 1 1-15.077 0 7.539 7.539 0 0 1 15.077 0"/><path fill="#1A211E" d="M112.162 84.538c.34.003.613.28.611.62l-.001.053c.552.108.974.36 1.278.689.366.396.524.866.559 1.228l.005.07.001.032a.615.615 0 0 1-1.228.064l-.002-.031-.005-.049a.94.94 0 0 0-.234-.48c-.155-.166-.441-.35-.993-.35-.402 0-.659.099-.823.207-.181.12-.301.348-.305.64a.96.96 0 0 0 .308.733l.032.027c.168.132.414.24.788.24h.001c.641 0 1.154.194 1.543.498l.076.062c.51.435.748 1.08.74 1.687-.008.609-.267 1.259-.856 1.649-.25.165-.545.287-.886.354l-.002.216-.001.032a.615.615 0 0 1-1.229-.01l-.001-.032.002-.205c-.554-.108-.978-.36-1.282-.69a2.15 2.15 0 0 1-.559-1.228l-.006-.07-.001-.032a.616.616 0 0 1 1.228-.064l.002.031.005.05a.94.94 0 0 0 .235.478c.154.167.44.35.992.35.403 0 .659-.097.823-.206.181-.12.302-.348.305-.639.004-.293-.114-.57-.307-.734l-.033-.027c-.168-.131-.413-.24-.788-.24h-.001c-.64 0-1.153-.194-1.542-.498l-.077-.062c-.509-.434-.747-1.08-.74-1.687.008-.609.268-1.258.856-1.649.252-.166.548-.289.891-.355l.001-.061.001-.032a.615.615 0 0 1 .619-.579"/></svg>