<svg xmlns="http://www.w3.org/2000/svg" fill="none" viewBox="0 0 32 32"><path fill="#370989" d="M1.8 20.547c-.034-.012-.068-.03-.103-.041a.58.58 0 0 1-.393-.424c-.017-.064-.017-.128-.023-.192V8.984c0-.076 0-.145.012-.221.04-.296.3-.506.566-.5h1.5a.58.58 0 0 1 .573.564v.756c.023.011.034 0 .04-.012.058-.076.11-.157.167-.227a3.3 3.3 0 0 1 1.756-1.14 3.6 3.6 0 0 1 .999-.11 4.057 4.057 0 0 1 2.702 1.081 4.46 4.46 0 0 1 1.184 1.873 5.7 5.7 0 0 1 .288 1.627c0 .1.012.204.012.303 0 .494-.046.982-.156 1.465-.162.686-.433 1.32-.866 1.877a4.1 4.1 0 0 1-1.38 1.146c-.358.18-.74.308-1.138.372-.196.034-.398.046-.594.058a4 4 0 0 1-.52-.012 3.526 3.526 0 0 1-2.425-1.314c-.017-.017-.029-.035-.052-.058q-.01.027-.012.035v3.366c0 .07 0 .14-.023.203a.6.6 0 0 1-.392.402c-.035.011-.07.011-.099.04h-1.61zm2.085-7.564c0 .1.012.198.018.291q.024.403.161.78c.133.377.341.714.641.987a2.12 2.12 0 0 0 1.836.535 2.12 2.12 0 0 0 1.3-.767 2.5 2.5 0 0 0 .525-1.11q.11-.526.058-1.059a2.8 2.8 0 0 0-.18-.779 2.4 2.4 0 0 0-.629-.941q-.789-.708-1.83-.535c-.439.07-.814.273-1.126.581a2.36 2.36 0 0 0-.606.994 3.2 3.2 0 0 0-.156 1.012zM30.89 16.745c0 .012-.011.023-.017.03a.4.4 0 0 1-.127.25q-.111.119-.231.232c-.121.122-.243.25-.364.372a.5.5 0 0 1-.335.157.5.5 0 0 1-.329-.11c-.04-.035-.075-.07-.115-.111q-.087-.085-.174-.18c-.236-.244-.479-.483-.716-.727q-.45-.454-.9-.918-.432-.437-.855-.872l-.07-.07q-.032.026-.057.052a14 14 0 0 0-.312.32c-.311.314-.63.633-.94.953l-.532.535c-.173.174-.347.349-.514.523-.144.151-.294.297-.439.448a.484.484 0 0 1-.635.058 1 1 0 0 1-.11-.099c-.167-.168-.335-.343-.502-.511a1 1 0 0 1-.087-.093.485.485 0 0 1 .04-.669q.184-.194.376-.378c.237-.238.468-.476.704-.715.306-.308.607-.616.913-.93.3-.308.606-.616.906-.924q.27-.268.532-.547.12-.132.277-.22a.845.845 0 0 1 .97.15c.323.332.652.657.976.989.144.145.288.296.433.442q.538.549 1.085 1.098.242.243.485.495c.168.168.335.342.503.511q.042.046.086.099a.3.3 0 0 1 .064.157c0 .017.011.035.017.046v.14z"/><path fill="#370989" d="M30.89 9.414c0 .017-.017.04-.017.058 0 .093-.052.169-.11.238a1 1 0 0 1-.092.1q-.339.34-.67.68c-.352.354-.704.714-1.056 1.07q-.304.304-.607.61c-.11.11-.213.22-.323.325q-.025.024-.058.046c-.023-.023-.04-.034-.058-.058-.132-.14-.27-.273-.404-.412a1.15 1.15 0 0 0-.606-.326c-.335-.064-.635 0-.918.192-.075.052-.139.11-.202.174l-.399.401q-.01.008-.028.024c-.018-.018-.035-.03-.052-.047l-.832-.837q-.148-.149-.289-.296c-.242-.25-.49-.495-.733-.745-.289-.29-.577-.587-.866-.877a.5.5 0 0 1-.15-.285.47.47 0 0 1 .08-.36q.028-.043.064-.076.302-.313.612-.616a.4.4 0 0 1 .237-.128.47.47 0 0 1 .433.128l.208.209c.052.052.098.105.15.151.346.349.693.703 1.04 1.052q.302.306.606.61c.202.204.404.413.612.617l.156.157q.018.015.046.04l.046-.046c.173-.169.34-.343.514-.517.214-.216.421-.43.635-.646q.278-.277.554-.564c.22-.22.44-.447.659-.668.132-.134.26-.268.392-.395a.47.47 0 0 1 .272-.14.45.45 0 0 1 .363.093c.03.018.047.04.07.064q.295.297.583.593c.029.03.058.07.08.105q.046.06.047.14c0 .017.011.04.017.057v.087zM18.308 16.707c-.03.024-.04.041-.058.053a3.56 3.56 0 0 1-2.847 1.128c-.075 0-.144 0-.22-.006-.582-.04-1.137-.186-1.639-.5-.624-.39-1.01-.942-1.178-1.663a3.2 3.2 0 0 1-.075-.628c0-.191 0-.377.023-.57.07-.587.283-1.11.693-1.546.242-.255.525-.453.843-.604.323-.157.67-.262 1.022-.326q.39-.067.78-.093c.23-.011.461-.017.687-.006.64.024 1.27.14 1.876.355.03.012.058.017.087.023 0-.017.011-.029.011-.035 0-.226-.005-.453-.069-.68-.127-.47-.416-.785-.86-.97a2.5 2.5 0 0 0-.537-.146 5 5 0 0 0-.809-.035 5.96 5.96 0 0 0-1.75.302.56.56 0 0 1-.588-.157.5.5 0 0 1-.127-.22q-.14-.41-.277-.826c-.023-.064-.046-.128-.058-.198a.576.576 0 0 1 .358-.65c.139-.059.283-.105.427-.152.387-.128.78-.22 1.184-.285q.372-.06.745-.087c.329-.023.658-.017.987-.017.197 0 .393.017.59.04.507.058.992.175 1.454.401a3 3 0 0 1 1.398 1.372c.19.367.311.762.386 1.169.064.349.093.697.093 1.052v4.907c0 .058 0 .11-.018.168a.57.57 0 0 1-.542.436H18.89a.55.55 0 0 1-.514-.32.6.6 0 0 1-.064-.255v-.367c0-.122 0-.035-.005-.07zm.057-2.796a.4.4 0 0 1-.069-.035 4.1 4.1 0 0 0-1.917-.302c-.19.012-.375.04-.554.093a1.6 1.6 0 0 0-.566.28c-.19.15-.318.342-.381.586-.04.169-.052.332-.035.5.018.157.064.308.15.442.116.186.283.314.474.413.208.099.427.145.658.162.283.018.56 0 .831-.07.231-.052.457-.139.659-.267.456-.29.71-.709.733-1.255v-.053c.012-.04.012-.081.012-.122v-.372z"/><path fill="#370989" d="M26.666 7.406a1.21 1.21 0 0 1 1.218 1.221c0 .692-.56 1.227-1.218 1.227a1.22 1.22 0 0 1-1.213-1.233c0-.662.537-1.226 1.219-1.215zM3.934 22.02q.07.067.07.18v2.192c0 .07-.023.122-.07.174-.046.052-.104.07-.173.07a.21.21 0 0 1-.167-.07.26.26 0 0 1-.064-.174v-.134c-.086.116-.208.22-.358.302q-.225.123-.485.122a1.3 1.3 0 0 1-.618-.174 1.26 1.26 0 0 1-.438-.494 1.6 1.6 0 0 1-.156-.71c0-.261.052-.5.156-.709q.155-.312.433-.494.276-.174.606-.174c.22 0 .34.035.496.11q.225.113.364.285V22.2q.001-.105.064-.174a.21.21 0 0 1 .167-.07q.104 0 .173.07zm-.78 2.093a.8.8 0 0 0 .284-.332c.07-.14.104-.302.104-.476q0-.261-.104-.477a.8.8 0 0 0-.283-.337.73.73 0 0 0-.416-.122.73.73 0 0 0-.416.122.8.8 0 0 0-.283.331 1.1 1.1 0 0 0-.103.477c0 .174.034.337.103.476q.103.21.283.332.183.122.416.122.234 0 .416-.122zM5.012 24.074c0-.07.034-.122.103-.175a.2.2 0 0 1 .116-.035c.046 0 .115.024.167.076.099.116.208.198.324.256a.9.9 0 0 0 .415.087.7.7 0 0 0 .335-.087q.147-.086.145-.268a.28.28 0 0 0-.15-.261 1.8 1.8 0 0 0-.433-.169 4 4 0 0 1-.468-.157.85.85 0 0 1-.312-.244q-.129-.157-.127-.419c0-.174.04-.284.127-.4a.83.83 0 0 1 .34-.268 1.256 1.256 0 0 1 .941 0 .87.87 0 0 1 .388.279q.059.069.058.145c0 .053-.03.105-.081.157a.2.2 0 0 1-.127.047.22.22 0 0 1-.145-.058.65.65 0 0 0-.26-.186.8.8 0 0 0-.34-.064.6.6 0 0 0-.324.081q-.13.077-.132.267.002.175.15.262c.098.058.248.11.456.169.179.046.323.099.439.15a.8.8 0 0 1 .294.24q.121.156.121.418a.64.64 0 0 1-.132.412.9.9 0 0 1-.353.268q-.218.095-.461.093c-.162 0-.405-.035-.584-.11a1.1 1.1 0 0 1-.456-.355A.27.27 0 0 1 5 24.09zM7.908 24.074c0-.07.035-.122.104-.175a.2.2 0 0 1 .115-.035c.047 0 .116.024.168.076.098.116.208.198.323.256a.9.9 0 0 0 .416.087.7.7 0 0 0 .335-.087q.145-.086.144-.268a.28.28 0 0 0-.15-.261 1.8 1.8 0 0 0-.433-.169 4 4 0 0 1-.468-.157.85.85 0 0 1-.311-.244q-.129-.157-.127-.419c0-.174.04-.284.127-.4a.83.83 0 0 1 .34-.268c.145-.064.295-.093.462-.093s.318.03.48.093a.87.87 0 0 1 .386.279q.059.069.058.145-.002.08-.08.157a.2.2 0 0 1-.128.047.22.22 0 0 1-.144-.058.65.65 0 0 0-.26-.186.8.8 0 0 0-.34-.064.6.6 0 0 0-.324.081q-.132.077-.133.267.002.175.15.262c.098.058.249.11.456.169.18.046.324.099.44.15a.8.8 0 0 1 .294.24q.12.156.121.418a.64.64 0 0 1-.133.412.9.9 0 0 1-.352.268q-.218.095-.462.093c-.162 0-.404-.035-.583-.11a1.1 1.1 0 0 1-.456-.355.27.27 0 0 1-.047-.134zM10.997 21.57c-.04-.034-.063-.093-.063-.168v-.082q0-.121.069-.174t.208-.052q.14 0 .202.052.062.054.063.169v.081q-.001.122-.063.174c-.046.035-.11.053-.208.053q-.147 0-.208-.053m.381 2.988a.23.23 0 0 1-.173.07.22.22 0 0 1-.168-.07.24.24 0 0 1-.069-.174v-2.186c0-.07.023-.122.07-.174a.21.21 0 0 1 .167-.07.237.237 0 0 1 .242.244v2.186c0 .07-.023.122-.069.174M12.433 24.074c0-.07.035-.122.104-.175a.2.2 0 0 1 .116-.035c.046 0 .115.024.167.076a.915.915 0 0 0 .74.343.7.7 0 0 0 .334-.087q.146-.086.145-.268a.28.28 0 0 0-.15-.261 1.8 1.8 0 0 0-.434-.169 4 4 0 0 1-.467-.157.8.8 0 0 1-.312-.244q-.129-.157-.127-.419c0-.174.04-.284.127-.4a.83.83 0 0 1 .34-.268 1.257 1.257 0 0 1 .941 0 .87.87 0 0 1 .388.279q.058.069.057.145-.001.08-.08.157a.2.2 0 0 1-.127.047.22.22 0 0 1-.145-.058.65.65 0 0 0-.26-.186.8.8 0 0 0-.34-.064.6.6 0 0 0-.324.081q-.131.077-.133.267c0 .117.053.204.15.262.099.058.249.11.457.169.179.046.323.099.439.15a.8.8 0 0 1 .294.24q.12.156.121.418a.64.64 0 0 1-.133.412.86.86 0 0 1-.352.268 1.1 1.1 0 0 1-.462.093c-.161 0-.404-.035-.583-.11a1.1 1.1 0 0 1-.456-.355.27.27 0 0 1-.046-.134zM16.234 22.459v1.506q0 .251.225.25c.15 0 .057-.006.092-.018a.4.4 0 0 1 .092-.017c.047 0 .081.017.11.058a.23.23 0 0 1 .046.14c0 .052-.04.133-.12.18a.5.5 0 0 1-.272.075c-.099 0-.214-.011-.3-.035a.42.42 0 0 1-.243-.18c-.07-.093-.11-.238-.11-.436V22.46h-.288a.21.21 0 0 1-.156-.064.22.22 0 0 1-.064-.157q.001-.096.064-.157a.2.2 0 0 1 .155-.058h.29v-.424c0-.07.022-.122.068-.175s.104-.07.174-.07.121.024.167.07q.07.07.07.175v.424h.415q.096.001.156.064.062.06.064.157a.208.208 0 0 1-.22.215zM20.237 22.02q.07.067.07.18v2.192c0 .07-.024.122-.07.174s-.104.07-.173.07a.23.23 0 0 1-.173-.07.23.23 0 0 1-.064-.174v-.134c-.087.116-.208.22-.358.302q-.225.123-.485.122a1.3 1.3 0 0 1-.618-.174 1.2 1.2 0 0 1-.433-.494 1.6 1.6 0 0 1-.156-.71c0-.261.052-.5.156-.709q.156-.312.433-.494.277-.174.607-.174c.219 0 .34.035.49.11q.225.113.364.285V22.2q.001-.105.064-.174.06-.07.173-.07c.075 0 .127.023.173.07zm-.78 2.093a.85.85 0 0 0 .29-.332c.069-.14.103-.302.103-.476q0-.261-.104-.477a.8.8 0 0 0-.288-.337.73.73 0 0 0-.416-.122.73.73 0 0 0-.416.122.85.85 0 0 0-.289.331 1.1 1.1 0 0 0-.104.477c0 .174.035.337.104.476.07.14.162.25.29.332q.18.122.415.122.233 0 .416-.122zM23.746 23.01v1.372c0 .07-.023.122-.07.174-.045.053-.103.07-.172.07a.22.22 0 0 1-.168-.07.24.24 0 0 1-.07-.174v-1.366a.77.77 0 0 0-.138-.477q-.136-.174-.439-.174c-.202 0-.254.029-.363.087a.644.644 0 0 0-.346.564v1.366c0 .07-.024.122-.07.174-.046.053-.104.07-.173.07a.23.23 0 0 1-.173-.07.23.23 0 0 1-.064-.174v-2.157c0-.07.023-.122.07-.174a.21.21 0 0 1 .167-.07.237.237 0 0 1 .243.244v.175q.129-.202.363-.343a.96.96 0 0 1 .497-.14c.6 0 .9.36.9 1.093zM26.766 22.05c.173.088.265.192.265.326s-.017.11-.057.151-.087.07-.139.07-.075-.006-.104-.023q-.035-.02-.104-.064a.3.3 0 0 0-.098-.07c-.04-.023-.098-.035-.173-.052-.075-.012-.139-.023-.202-.023a.835.835 0 0 0-.774.46q-.111.215-.11.476a1 1 0 0 0 .11.476q.106.21.306.332a.82.82 0 0 0 .445.122c.167 0 .311-.03.421-.082a1 1 0 0 0 .098-.064.5.5 0 0 1 .087-.058.2.2 0 0 1 .092-.023q.105.001.156.064c.04.04.058.099.058.163s-.046.14-.133.209a1 1 0 0 1-.358.169c-.15.046-.306.063-.48.063a1.22 1.22 0 0 1-1.12-.674 1.55 1.55 0 0 1-.155-.703q.002-.391.167-.704c.11-.209.266-.378.462-.494.197-.116.422-.18.676-.18s.485.04.658.128zM30.271 23.365a.25.25 0 0 1-.167.064h-1.761a.9.9 0 0 0 .277.592q.241.22.595.221c.236 0 .288-.023.392-.07.099-.046.19-.11.266-.18a.3.3 0 0 1 .144-.046.24.24 0 0 1 .145.058c.04.035.058.087.058.14a.3.3 0 0 1-.099.191q-.146.149-.387.244c-.161.07-.323.1-.49.1q-.407 0-.716-.175a1.17 1.17 0 0 1-.474-.477 1.45 1.45 0 0 1-.167-.697c0-.262.058-.53.173-.744.115-.216.266-.378.456-.495a1.15 1.15 0 0 1 1.207-.005q.277.163.45.459c.116.197.174.413.174.657 0 .058-.03.11-.076.15zm-1.64-.838c-.138.105-.225.268-.27.494h1.477v-.04a.61.61 0 0 0-.236-.436.76.76 0 0 0-.485-.175.8.8 0 0 0-.485.157"/></svg>