<svg xmlns="http://www.w3.org/2000/svg" fill="none" viewBox="0 0 561 267"><g fill="#440098" clip-path="url(#a)"><path d="M105.02 12.89a63.39 63.39 0 0 0-54.96 28.87V27.2c0-6.06-4.89-10.98-10.95-11.02H10.89C4.85 16.24 0 21.16 0 27.19v208.7c0 6.19 5.02 11.21 11.21 11.21h27.64c6.2-.04 11.21-5.07 11.21-11.28v-65.01a67.34 67.34 0 0 0 54.96 26.55c41.62 0 80.28-32.47 80.28-91.88v-.71c0-59.34-39.17-91.88-80.28-91.88m30.29 92.59c0 29.83-19.59 49.1-43.1 49.1s-42.85-19.59-42.85-49.1v-.71c0-29.77 19.52-49.1 42.85-49.1s43.1 19.59 43.1 49.1zM351.147 34.41c-12.82-13.02-31.96-19.97-59.6-19.97-20-.36-39.89 3.14-58.57 10.31-5.48 2.21-8.3 8.3-6.44 13.92l5.93 17.4c1.74 5.65 7.62 8.92 13.34 7.41a117.5 117.5 0 0 1 38.66-5.86c25 0 37.88 11.02 37.88 32.22v3.03a124.1 124.1 0 0 0-43.1-7.35c-41.56 0-70.88 18.1-70.88 56.76v.64c0 35.57 27.32 54.45 60.63 54.45 20.26.92 39.85-7.37 53.29-22.55v8.38c0 2.87 1.13 5.63 3.16 7.67 1.99 2.07 4.73 3.23 7.6 3.22h26.61c5.99-.04 10.82-4.9 10.82-10.89V91.13c0-23.9-6.51-43.68-19.33-56.7zm-27.96 96.9-.26.26c0 18.62-15.46 31.18-39.17 31.18-16.11 0-27.32-7.99-27.32-21.59v-.64c0-15.98 13.14-24.55 34.53-24.55a77.9 77.9 0 0 1 32.22 6.44v8.9M464.299 88.08l-8.89 8.96-52.9-53.35a9.28 9.28 0 0 1 0-12.89l11.66-11.79c3.54-3.56 9.29-3.58 12.85-.04l.04.04 53.09 53.48 53.09-53.48c3.54-3.56 9.29-3.58 12.85-.04l.04.04 11.73 11.79a9.42 9.42 0 0 1 0 12.89l-52.96 53.35-8.83-8.96c-8.79-8.72-22.97-8.72-31.77 0"/><path d="M480.208 0c12.74-.11 23.15 10.14 23.26 22.87.11 12.74-10.13 23.15-22.87 23.26s-23.15-10.13-23.26-22.87c-.18-12.67 9.95-23.08 22.61-23.26zM414.167 192.72l-11.66-11.85a9.15 9.15 0 0 1 0-12.89l66.36-67.01c6.23-6.21 16.32-6.21 22.55 0l66.43 67.01a9.28 9.28 0 0 1 0 12.89l-11.73 11.85a9.15 9.15 0 0 1-12.89 0l-53.03-53.54-53.09 53.54a9.15 9.15 0 0 1-12.89 0h-.07z"/></g><defs><clipPath id="a"><path fill="#fff" d="M0 0h560.74v266.5H0z"/></clipPath></defs></svg>