<svg width="32" height="32" viewBox="0 0 32 32" fill="none" xmlns="http://www.w3.org/2000/svg">
<path d="M1.80092 20.5467C1.76627 20.535 1.73163 20.5176 1.69698 20.506C1.49489 20.4362 1.36209 20.2967 1.30435 20.0816C1.28702 20.0176 1.28702 19.9537 1.28125 19.8898C1.28125 19.8607 1.28125 19.8258 1.28125 19.7909V8.98391C1.28125 8.90833 1.28125 8.83857 1.2928 8.763C1.33322 8.46652 1.59305 8.25724 1.85866 8.26305C2.361 8.26305 2.85758 8.26305 3.35992 8.26305C3.64863 8.26305 3.92578 8.5014 3.93156 8.82695C3.93156 9.04204 3.93156 9.25713 3.93156 9.47804C3.93156 9.69895 3.93156 9.5478 3.93156 9.58268C3.95465 9.59431 3.9662 9.58268 3.97198 9.57105C4.02972 9.49548 4.08168 9.41409 4.13942 9.34433C4.60135 8.77463 5.19031 8.39094 5.89475 8.20492C6.22387 8.11772 6.55299 8.08865 6.89366 8.09446C7.4884 8.10609 8.06003 8.2398 8.59702 8.49558C8.96656 8.66999 9.29568 8.90252 9.59594 9.17575C10.1503 9.69313 10.5371 10.3268 10.7796 11.0476C10.8893 11.379 10.9702 11.722 11.0164 12.065C11.0452 12.2684 11.0626 12.4719 11.0683 12.6754C11.0683 12.7742 11.0799 12.8789 11.0799 12.9777C11.0799 13.4718 11.0337 13.9601 10.924 14.4426C10.7623 15.1286 10.4909 15.7623 10.0579 16.3204C9.68255 16.8029 9.2264 17.1865 8.67786 17.4656C8.31986 17.6458 7.93877 17.7737 7.54036 17.8376C7.34404 17.8725 7.14195 17.8841 6.94563 17.8958C6.77241 17.9074 6.59919 17.8958 6.42596 17.8841C6.14881 17.8609 5.87742 17.7969 5.61759 17.7097C5.0806 17.5237 4.6129 17.2272 4.21449 16.8145C4.13942 16.7331 4.07013 16.6517 4.00085 16.5703C3.98352 16.5529 3.97198 16.5354 3.94888 16.5122C3.9431 16.5296 3.93733 16.5413 3.93733 16.5471C3.93733 16.5761 3.93733 16.6052 3.93733 16.6343V19.913C3.93733 19.9828 3.93733 20.0525 3.91423 20.1165C3.85072 20.3141 3.71792 20.4478 3.5216 20.5176C3.48695 20.5292 3.45231 20.5292 3.42344 20.5583H1.81247L1.80092 20.5467ZM3.88536 12.9835C3.88536 13.0823 3.89691 13.1811 3.90269 13.2742C3.92001 13.5416 3.97198 13.8032 4.06436 14.0531C4.19716 14.431 4.40503 14.7682 4.70528 15.0414C5.07483 15.3786 5.50211 15.5646 5.99868 15.6053C6.18345 15.6228 6.36245 15.6053 6.54145 15.5762C7.06689 15.4832 7.49994 15.2216 7.84061 14.8089C8.112 14.4833 8.27945 14.1055 8.36606 13.6985C8.44112 13.3497 8.45844 12.9951 8.4238 12.6405C8.4007 12.3731 8.34296 12.1173 8.2448 11.8615C8.10622 11.5011 7.90413 11.1755 7.61543 10.9198C7.08998 10.4489 6.47793 10.2687 5.78504 10.3849C5.34621 10.4547 4.97089 10.6582 4.65909 10.9663C4.37039 11.2453 4.17407 11.5825 4.05281 11.9603C3.9431 12.2917 3.89691 12.6289 3.89691 12.9719L3.88536 12.9835Z" fill="#370989"/>
<path d="M30.8902 16.7453C30.8902 16.7569 30.8787 16.7685 30.8729 16.7744C30.8671 16.8732 30.8152 16.9546 30.7459 17.0243C30.6708 17.1057 30.5957 17.1813 30.5149 17.2569C30.3937 17.3789 30.2724 17.5068 30.1511 17.6289C30.0588 17.7219 29.9433 17.7801 29.8162 17.7859C29.695 17.7859 29.5853 17.7568 29.4871 17.6754C29.4467 17.6405 29.4121 17.6057 29.3716 17.565C29.3139 17.5068 29.2562 17.4487 29.1984 17.3848C28.9617 17.1406 28.7192 16.9022 28.4824 16.6581C28.1822 16.3558 27.8819 16.0477 27.5817 15.7396C27.293 15.4489 27.01 15.1582 26.7271 14.8676C26.704 14.8443 26.6809 14.8211 26.6578 14.7978C26.6347 14.8153 26.6174 14.8327 26.6001 14.8501C26.5019 14.949 26.4038 15.0478 26.3114 15.1466C26.3056 15.1524 26.294 15.1641 26.2883 15.1699C25.9765 15.4838 25.6589 15.8035 25.3471 16.1233C25.1681 16.3035 24.9949 16.4779 24.8159 16.6581C24.6427 16.8325 24.4694 17.0069 24.302 17.1813C24.1576 17.3324 24.0075 17.4778 23.8632 17.6289C23.7881 17.7103 23.6957 17.7568 23.586 17.7743C23.4532 17.7917 23.3319 17.7626 23.228 17.6871C23.1876 17.658 23.1529 17.6231 23.1183 17.5882C22.9509 17.4196 22.7834 17.2452 22.616 17.0766C22.5871 17.0476 22.5582 17.0185 22.5293 16.9836C22.3792 16.8034 22.3792 16.5534 22.5236 16.3674C22.5351 16.35 22.5524 16.3325 22.5698 16.3151C22.691 16.1872 22.818 16.0593 22.9451 15.9372C23.1818 15.6989 23.4128 15.4605 23.6495 15.2222C23.9555 14.9141 24.2558 14.606 24.5618 14.2921C24.8621 13.9839 25.1681 13.6758 25.4684 13.3677C25.6474 13.1875 25.8263 13.0073 25.9996 12.8213C26.0804 12.7341 26.1728 12.6585 26.2767 12.6004C26.6001 12.4376 26.9985 12.5015 27.2468 12.7515C27.5701 13.0829 27.8992 13.4084 28.2226 13.7398C28.3669 13.8851 28.5113 14.0363 28.6556 14.1816C29.0136 14.5478 29.3774 14.9141 29.7412 15.2803C29.9029 15.4431 30.0645 15.6059 30.2262 15.7745C30.3937 15.943 30.5611 16.1174 30.7285 16.286C30.7574 16.3151 30.7863 16.35 30.8152 16.3849C30.8498 16.4314 30.8729 16.4837 30.8787 16.5418C30.8787 16.5593 30.8902 16.5767 30.896 16.5883V16.7278L30.8902 16.7453Z" fill="#370989"/>
<path d="M30.8905 9.41393C30.8905 9.43137 30.8731 9.45462 30.8731 9.47206C30.8731 9.56508 30.8212 9.64065 30.7634 9.71041C30.7346 9.74529 30.7057 9.77436 30.671 9.80924C30.4459 10.036 30.2207 10.2627 30.0013 10.4894C29.649 10.844 29.2968 11.2044 28.9446 11.5591C28.7425 11.7625 28.5404 11.966 28.3383 12.1695C28.2286 12.2799 28.1247 12.3904 28.015 12.495C27.9976 12.5124 27.9803 12.5241 27.9572 12.5415C27.9341 12.5183 27.9168 12.5066 27.8995 12.4834C27.7667 12.3439 27.6281 12.2101 27.4953 12.0706C27.3278 11.902 27.1258 11.7916 26.889 11.7451C26.5541 11.6811 26.2539 11.7451 25.9709 11.9369C25.8959 11.9892 25.8324 12.0474 25.7688 12.1113C25.636 12.245 25.5032 12.3787 25.3704 12.5124C25.3647 12.5183 25.3531 12.5241 25.3416 12.5357C25.3242 12.5183 25.3069 12.5066 25.2896 12.4892C25.0124 12.2102 24.7353 11.9311 24.4581 11.6521C24.36 11.5532 24.2618 11.4544 24.1694 11.3556C23.9269 11.1056 23.6786 10.8615 23.4361 10.6115C23.1474 10.3208 22.8587 10.0243 22.57 9.73366C22.4892 9.65228 22.4372 9.55926 22.4199 9.44881C22.3968 9.3151 22.4256 9.19883 22.5007 9.08838C22.518 9.05931 22.5411 9.03606 22.5642 9.01281C22.7663 8.80353 22.9684 8.60006 23.1763 8.39659C23.2398 8.32683 23.3206 8.28614 23.413 8.2687C23.5805 8.23963 23.7248 8.28033 23.8461 8.39659C23.9154 8.46635 23.9847 8.53611 24.0539 8.60587C24.1059 8.65819 24.1521 8.71051 24.2041 8.75702C24.5505 9.10582 24.897 9.46044 25.2434 9.80924C25.4455 10.0127 25.6476 10.2162 25.8497 10.4196C26.0518 10.6231 26.2539 10.8324 26.4617 11.0359C26.5137 11.0882 26.5657 11.1405 26.6176 11.1928C26.6292 11.2044 26.6465 11.2161 26.6638 11.2335C26.6812 11.2161 26.6927 11.2044 26.71 11.187C26.8832 11.0184 27.0507 10.844 27.2239 10.6696C27.4376 10.4545 27.6454 10.2394 27.8591 10.0243C28.0438 9.8383 28.2286 9.65228 28.4134 9.46044C28.6328 9.23953 28.8522 9.01281 29.0716 8.7919C29.2044 8.65819 29.3315 8.52449 29.4643 8.39659C29.5393 8.32102 29.6259 8.27451 29.7356 8.25707C29.8684 8.23382 29.9955 8.2687 30.0994 8.35009C30.1283 8.36753 30.1456 8.39078 30.1687 8.41403C30.365 8.61169 30.5613 8.80934 30.7519 9.00699C30.7808 9.03606 30.8096 9.07675 30.8327 9.11163C30.8616 9.15233 30.8789 9.19883 30.8789 9.25115C30.8789 9.26859 30.8905 9.29185 30.8962 9.30929V9.39649L30.8905 9.41393Z" fill="#370989"/>
<path d="M18.3076 16.7074C18.2787 16.7307 18.2672 16.7481 18.2499 16.7598C17.9843 17.0446 17.684 17.2772 17.3433 17.4632C16.9911 17.655 16.6158 17.7829 16.2232 17.8469C15.9518 17.8934 15.6804 17.905 15.4032 17.8876C15.3282 17.8876 15.2589 17.8876 15.1838 17.8817C14.6007 17.8411 14.0463 17.6957 13.544 17.3818C12.9204 16.9923 12.5335 16.44 12.3661 15.7192C12.3199 15.5157 12.2968 15.3064 12.291 15.0913C12.291 14.8995 12.291 14.7135 12.3141 14.5216C12.3834 13.9345 12.597 13.4113 13.007 12.9753C13.2495 12.7195 13.5324 12.5218 13.85 12.3707C14.1734 12.2137 14.5198 12.1091 14.872 12.0451C15.1319 11.9986 15.3917 11.9696 15.6515 11.9521C15.8825 11.9405 16.1135 11.9347 16.3387 11.9463C16.9796 11.9696 17.609 12.0858 18.2152 12.3009C18.2441 12.3126 18.273 12.3184 18.3018 12.3242C18.3018 12.3067 18.3134 12.2951 18.3134 12.2893C18.3134 12.0626 18.3076 11.8359 18.2441 11.6091C18.1171 11.1383 17.8284 10.8243 17.3838 10.6383C17.2105 10.5686 17.0315 10.522 16.8468 10.493C16.5754 10.4523 16.304 10.4523 16.0384 10.4581C15.8421 10.4581 15.6515 10.4755 15.4552 10.4988C15.1492 10.5337 14.8432 10.5976 14.5487 10.679C14.4621 10.7023 14.3755 10.7313 14.2889 10.7604C14.0637 10.8243 13.8616 10.772 13.6999 10.6034C13.6364 10.5395 13.596 10.4639 13.5729 10.3825C13.4805 10.1093 13.3881 9.83607 13.2957 9.55703C13.2726 9.49308 13.2495 9.42914 13.238 9.35938C13.186 9.08033 13.3304 8.81292 13.596 8.70828C13.7345 8.65015 13.8789 8.60364 14.0232 8.55713C14.4101 8.42924 14.8027 8.33623 15.2069 8.27228C15.4552 8.23159 15.7035 8.20252 15.9518 8.18508C16.2809 8.16182 16.61 8.16764 16.9392 8.16764C17.1355 8.16764 17.3318 8.18508 17.5281 8.20833C18.0362 8.26647 18.5213 8.38273 18.9832 8.60945C19.601 8.91175 20.0687 9.36519 20.3805 9.9814C20.5711 10.3476 20.6923 10.743 20.7674 11.1499C20.8309 11.4987 20.8598 11.8475 20.8598 12.2021C20.8598 13.8357 20.8598 15.475 20.8598 17.1086C20.8598 17.1667 20.8598 17.219 20.8424 17.2772C20.7847 17.5213 20.5653 17.7073 20.2997 17.7132C20.1957 17.7132 20.0918 17.7132 19.9879 17.7132C19.6241 17.7132 19.2603 17.7132 18.8908 17.7132C18.6598 17.7132 18.4866 17.6027 18.3769 17.3934C18.3365 17.312 18.3134 17.2248 18.3134 17.1376C18.3134 17.0156 18.3134 16.8935 18.3134 16.7714C18.3134 16.6493 18.3134 16.7365 18.3076 16.7016V16.7074ZM18.3654 13.9112C18.3365 13.8996 18.3134 13.888 18.2961 13.8763C17.8399 13.6845 17.3722 13.5857 16.8814 13.5624C16.714 13.5566 16.5465 13.5624 16.3791 13.5741C16.1885 13.5857 16.0038 13.6147 15.8248 13.6671C15.6169 13.7252 15.4263 13.8124 15.2589 13.9461C15.0684 14.0973 14.9413 14.2891 14.8778 14.5333C14.8374 14.7018 14.8258 14.8646 14.8432 15.0332C14.8605 15.1902 14.9067 15.3413 14.9933 15.475C15.1088 15.661 15.2762 15.7889 15.4668 15.8878C15.6746 15.9866 15.894 16.0331 16.125 16.0505C16.4079 16.068 16.6851 16.0505 16.9565 15.9808C17.1874 15.9285 17.4126 15.8413 17.6147 15.7134C18.0709 15.4227 18.3249 15.0041 18.348 14.4577C18.348 14.4402 18.348 14.4228 18.348 14.4054C18.3596 14.3647 18.3596 14.324 18.3596 14.2833V13.9112H18.3654Z" fill="#370989"/>
<path d="M26.6657 7.40643C27.3297 7.39481 27.884 7.94126 27.884 8.62724C27.884 9.31902 27.3239 9.85385 26.6657 9.85385C26.0017 9.85385 25.4531 9.31321 25.4531 8.62142C25.4531 7.9587 25.9901 7.39481 26.6715 7.40643H26.6657Z" fill="#370989"/>
<path d="M3.93437 22.0198C3.98056 22.0663 4.00366 22.1244 4.00366 22.2V24.3916C4.00366 24.4614 3.98056 24.5137 3.93437 24.566C3.88818 24.6183 3.83044 24.6358 3.76115 24.6358C3.69186 24.6358 3.63412 24.6125 3.5937 24.566C3.55328 24.5195 3.53018 24.4614 3.53018 24.3916V24.2579C3.44357 24.3742 3.32232 24.4788 3.17219 24.5602C3.02207 24.6416 2.86039 24.6823 2.68717 24.6823C2.51395 24.6823 2.25411 24.6242 2.06934 24.5079C1.88457 24.3916 1.74022 24.223 1.63051 24.0138C1.52658 23.8045 1.47461 23.5661 1.47461 23.3045C1.47461 23.0429 1.52658 22.8046 1.63051 22.5953C1.73444 22.386 1.8788 22.2232 2.06357 22.1012C2.24834 21.9849 2.45043 21.9268 2.66985 21.9268C2.88926 21.9268 3.01052 21.9616 3.16642 22.0372C3.31654 22.1128 3.4378 22.2058 3.53018 22.3221V22.2C3.53018 22.1302 3.55328 22.0721 3.5937 22.0256C3.63412 21.9791 3.69186 21.9558 3.76115 21.9558C3.83044 21.9558 3.88818 21.9791 3.93437 22.0256V22.0198ZM3.15487 24.1126C3.27613 24.0312 3.37428 23.9207 3.4378 23.7812C3.50709 23.6417 3.54173 23.4789 3.54173 23.3045C3.54173 23.1301 3.50709 22.9732 3.4378 22.8278C3.36851 22.6825 3.27613 22.572 3.15487 22.4907C3.03361 22.4093 2.89504 22.3686 2.73913 22.3686C2.58323 22.3686 2.44466 22.4093 2.3234 22.4907C2.20214 22.572 2.10399 22.6825 2.04047 22.822C1.97118 22.9615 1.93654 23.1243 1.93654 23.2987C1.93654 23.4731 1.97118 23.6359 2.04047 23.7754C2.10976 23.9149 2.20214 24.0254 2.3234 24.1068C2.44466 24.1882 2.58323 24.2288 2.73913 24.2288C2.89504 24.2288 3.03361 24.1882 3.15487 24.1068V24.1126Z" fill="#370989"/>
<path d="M5.01155 24.0737C5.01155 24.004 5.04619 23.9517 5.11548 23.8993C5.15013 23.8761 5.18477 23.8645 5.23096 23.8645C5.27716 23.8645 5.34645 23.8877 5.39841 23.94C5.49657 24.0563 5.60628 24.1377 5.72176 24.1958C5.83724 24.254 5.97582 24.283 6.1375 24.283C6.26453 24.283 6.37423 24.2481 6.47239 24.1958C6.57055 24.1377 6.61674 24.0505 6.61674 23.9284C6.61674 23.8063 6.56478 23.7249 6.46662 23.6668C6.36846 23.6087 6.22411 23.5505 6.03356 23.4982C5.84879 23.4459 5.69289 23.3936 5.56586 23.3413C5.44461 23.2831 5.34067 23.2076 5.25406 23.0971C5.16745 22.9925 5.12703 22.8529 5.12703 22.6785C5.12703 22.5041 5.16745 22.3937 5.25406 22.2774C5.34067 22.1612 5.45038 22.074 5.59473 22.01C5.73908 21.9461 5.88921 21.917 6.05666 21.917C6.22411 21.917 6.37423 21.9461 6.53591 22.01C6.69758 22.074 6.82461 22.1612 6.92277 22.289C6.96319 22.3356 6.98051 22.3821 6.98051 22.4344C6.98051 22.4867 6.95164 22.539 6.89968 22.5913C6.86503 22.6204 6.82461 22.6378 6.77265 22.6378C6.72068 22.6378 6.66294 22.6146 6.62829 22.5797C6.559 22.4983 6.47239 22.4344 6.36846 22.3937C6.26453 22.3472 6.15482 22.3297 6.02779 22.3297C5.90076 22.3297 5.79105 22.3588 5.70444 22.4111C5.61783 22.4634 5.57163 22.5506 5.57163 22.6785C5.57163 22.7948 5.6236 22.882 5.72176 22.9401C5.81992 22.9983 5.97005 23.0506 6.17791 23.1087C6.35691 23.1552 6.50126 23.2076 6.61674 23.2599C6.73223 23.3122 6.83039 23.3936 6.91122 23.4982C6.99206 23.6029 7.03248 23.7424 7.03248 23.9168C7.03248 24.0912 6.98629 24.2133 6.89968 24.3295C6.80729 24.4458 6.69181 24.533 6.54746 24.5969C6.4031 24.6609 6.2472 24.69 6.08553 24.69C5.92385 24.69 5.68134 24.6551 5.50235 24.5795C5.32335 24.5039 5.17322 24.3877 5.04619 24.2249C5.01732 24.1784 5 24.1319 5 24.0912L5.01155 24.0737Z" fill="#370989"/>
<path d="M7.90803 24.0737C7.90803 24.004 7.94268 23.9517 8.01197 23.8993C8.04661 23.8761 8.08126 23.8645 8.12745 23.8645C8.17364 23.8645 8.24293 23.8877 8.2949 23.94C8.39306 24.0563 8.50276 24.1377 8.61825 24.1958C8.73373 24.254 8.87231 24.283 9.03398 24.283C9.16101 24.283 9.27072 24.2481 9.36888 24.1958C9.46704 24.1377 9.51323 24.0505 9.51323 23.9284C9.51323 23.8063 9.46126 23.7249 9.3631 23.6668C9.26494 23.6087 9.12059 23.5505 8.93005 23.4982C8.74528 23.4459 8.58938 23.3936 8.46235 23.3413C8.34109 23.2831 8.23716 23.2076 8.15054 23.0971C8.06393 22.9925 8.02351 22.8529 8.02351 22.6785C8.02351 22.5041 8.06393 22.3937 8.15054 22.2774C8.23716 22.1612 8.34686 22.074 8.49122 22.01C8.63557 21.9461 8.78569 21.917 8.95314 21.917C9.12059 21.917 9.27072 21.9461 9.43239 22.01C9.59407 22.074 9.7211 22.1612 9.81926 22.289C9.85967 22.3356 9.877 22.3821 9.877 22.4344C9.877 22.4867 9.84813 22.539 9.79616 22.5913C9.76152 22.6204 9.7211 22.6378 9.66913 22.6378C9.61716 22.6378 9.55942 22.6146 9.52478 22.5797C9.45549 22.4983 9.36888 22.4344 9.26494 22.3937C9.16101 22.3472 9.0513 22.3297 8.92427 22.3297C8.79724 22.3297 8.68753 22.3588 8.60092 22.4111C8.51431 22.4634 8.46812 22.5506 8.46812 22.6785C8.46812 22.7948 8.52009 22.882 8.61825 22.9401C8.7164 22.9983 8.86653 23.0506 9.0744 23.1087C9.2534 23.1552 9.39775 23.2076 9.51323 23.2599C9.62871 23.3122 9.72687 23.3936 9.80771 23.4982C9.88855 23.6029 9.92896 23.7424 9.92896 23.9168C9.92896 24.0912 9.88277 24.2133 9.79616 24.3295C9.70377 24.4458 9.58829 24.533 9.44394 24.5969C9.29959 24.6609 9.14369 24.69 8.98201 24.69C8.82034 24.69 8.57783 24.6551 8.39883 24.5795C8.21983 24.5039 8.06971 24.3877 7.94268 24.2249C7.91381 24.1784 7.89648 24.1319 7.89648 24.0912L7.90803 24.0737Z" fill="#370989"/>
<path d="M10.9971 21.5704C10.9567 21.5356 10.9336 21.4774 10.9336 21.4019V21.3205C10.9336 21.2391 10.9567 21.1809 11.0029 21.1461C11.0491 21.1112 11.1184 21.0938 11.2108 21.0938C11.3031 21.0938 11.3724 21.1112 11.4128 21.1461C11.4533 21.1809 11.4764 21.2391 11.4764 21.3147V21.396C11.4764 21.4774 11.4533 21.5356 11.4128 21.5704C11.3667 21.6053 11.3031 21.6228 11.205 21.6228C11.1068 21.6228 11.0375 21.6053 10.9971 21.5704ZM11.3782 24.5585C11.332 24.605 11.2743 24.6283 11.205 24.6283C11.1357 24.6283 11.0837 24.605 11.0375 24.5585C10.9913 24.512 10.9682 24.4539 10.9682 24.3841V22.1983C10.9682 22.1285 10.9913 22.0762 11.0375 22.0239C11.0837 21.9716 11.1415 21.9541 11.205 21.9541C11.2685 21.9541 11.332 21.9774 11.3782 22.0239C11.4244 22.0704 11.4475 22.1285 11.4475 22.1983V24.3841C11.4475 24.4539 11.4244 24.5062 11.3782 24.5585Z" fill="#370989"/>
<path d="M12.4334 24.0737C12.4334 24.004 12.4681 23.9517 12.5374 23.8993C12.572 23.8761 12.6066 23.8645 12.6528 23.8645C12.699 23.8645 12.7683 23.8877 12.8203 23.94C12.9184 24.0563 13.0282 24.1377 13.1436 24.1958C13.2591 24.254 13.3977 24.283 13.5594 24.283C13.6864 24.283 13.7961 24.2481 13.8943 24.1958C13.9924 24.1377 14.0386 24.0505 14.0386 23.9284C14.0386 23.8063 13.9867 23.7249 13.8885 23.6668C13.7903 23.6087 13.646 23.5505 13.4554 23.4982C13.2707 23.4459 13.1148 23.3936 12.9877 23.3413C12.8665 23.2831 12.7568 23.2076 12.6759 23.0971C12.5893 22.9925 12.5489 22.8529 12.5489 22.6785C12.5489 22.5041 12.5893 22.3937 12.6759 22.2774C12.7625 22.1612 12.8723 22.074 13.0166 22.01C13.161 21.9461 13.3111 21.917 13.4785 21.917C13.646 21.917 13.7961 21.9461 13.9578 22.01C14.1195 22.074 14.2465 22.1612 14.3446 22.289C14.3851 22.3356 14.4024 22.3821 14.4024 22.4344C14.4024 22.4867 14.3735 22.539 14.3215 22.5913C14.2869 22.6204 14.2465 22.6378 14.1945 22.6378C14.1426 22.6378 14.0848 22.6146 14.0502 22.5797C13.9809 22.4983 13.8943 22.4344 13.7903 22.3937C13.6864 22.3472 13.5767 22.3297 13.4497 22.3297C13.3226 22.3297 13.2129 22.3588 13.1263 22.4111C13.0397 22.4634 12.9935 22.5506 12.9935 22.6785C12.9935 22.7948 13.0455 22.882 13.1436 22.9401C13.2418 22.9983 13.3919 23.0506 13.5998 23.1087C13.7788 23.1552 13.9231 23.2076 14.0386 23.2599C14.1541 23.3122 14.2523 23.3936 14.3331 23.4982C14.4139 23.6029 14.4544 23.7424 14.4544 23.9168C14.4544 24.0912 14.4082 24.2133 14.3215 24.3295C14.2349 24.4458 14.1137 24.533 13.9693 24.5969C13.825 24.6609 13.6691 24.69 13.5074 24.69C13.3457 24.69 13.1032 24.6551 12.9242 24.5795C12.7452 24.5039 12.5951 24.3877 12.4681 24.2249C12.4392 24.1784 12.4219 24.1319 12.4219 24.0912L12.4334 24.0737Z" fill="#370989"/>
<path d="M16.2335 22.459V23.9647C16.2335 24.1333 16.3085 24.2147 16.4587 24.2147C16.6088 24.2147 16.5164 24.2088 16.551 24.1972C16.5915 24.1856 16.6203 24.1798 16.6434 24.1798C16.6896 24.1798 16.7243 24.1972 16.7531 24.2379C16.782 24.2728 16.7993 24.3251 16.7993 24.3774C16.7993 24.4298 16.7589 24.5111 16.6781 24.5576C16.5972 24.61 16.5048 24.6332 16.4067 24.6332C16.3085 24.6332 16.193 24.6216 16.1064 24.5983C16.014 24.5751 15.9332 24.517 15.8639 24.4181C15.7946 24.3251 15.7542 24.1798 15.7542 23.9821V22.459H15.4655C15.402 22.459 15.35 22.4358 15.3096 22.3951C15.2692 22.3544 15.2461 22.3021 15.2461 22.2381C15.2461 22.1742 15.2692 22.1219 15.3096 22.0812C15.35 22.0405 15.402 22.023 15.4655 22.023H15.7542V21.5987C15.7542 21.5289 15.7773 21.4766 15.8235 21.4243C15.8697 21.3719 15.9274 21.3545 15.9967 21.3545C16.066 21.3545 16.118 21.3777 16.1642 21.4243C16.2104 21.4708 16.2335 21.5289 16.2335 21.5987V22.023H16.6492C16.7127 22.023 16.7647 22.0463 16.8051 22.087C16.8455 22.1277 16.8686 22.18 16.8686 22.2439C16.8686 22.3079 16.8455 22.3602 16.8051 22.4009C16.7647 22.4416 16.7127 22.459 16.6492 22.459H16.2335Z" fill="#370989"/>
<path d="M20.2371 22.0198C20.2833 22.0663 20.3064 22.1244 20.3064 22.2V24.3916C20.3064 24.4614 20.2833 24.5137 20.2371 24.566C20.1909 24.6183 20.1332 24.6358 20.0639 24.6358C19.9946 24.6358 19.9369 24.6125 19.8907 24.566C19.8445 24.5195 19.8271 24.4614 19.8271 24.3916V24.2579C19.7405 24.3742 19.6193 24.4788 19.4692 24.5602C19.319 24.6416 19.1574 24.6823 18.9841 24.6823C18.8109 24.6823 18.5511 24.6242 18.3663 24.5079C18.1815 24.3916 18.0372 24.223 17.9332 24.0138C17.8293 23.8045 17.7773 23.5661 17.7773 23.3045C17.7773 23.0429 17.8293 22.8046 17.9332 22.5953C18.0372 22.386 18.1815 22.2232 18.3663 22.1012C18.5511 21.9849 18.7532 21.9268 18.9726 21.9268C19.192 21.9268 19.3133 21.9616 19.4634 22.0372C19.6135 22.1128 19.7348 22.2058 19.8271 22.3221V22.2C19.8271 22.1302 19.8502 22.0721 19.8907 22.0256C19.9311 21.9791 19.9888 21.9558 20.0639 21.9558C20.1389 21.9558 20.1909 21.9791 20.2371 22.0256V22.0198ZM19.4576 24.1126C19.5789 24.0312 19.677 23.9207 19.7463 23.7812C19.8156 23.6417 19.8502 23.4789 19.8502 23.3045C19.8502 23.1301 19.8156 22.9732 19.7463 22.8278C19.677 22.6825 19.5846 22.572 19.4576 22.4907C19.3363 22.4093 19.1978 22.3686 19.0419 22.3686C18.886 22.3686 18.7474 22.4093 18.6261 22.4907C18.5049 22.572 18.4067 22.6825 18.3374 22.822C18.2681 22.9615 18.2335 23.1243 18.2335 23.2987C18.2335 23.4731 18.2681 23.6359 18.3374 23.7754C18.4067 23.9149 18.4991 24.0254 18.6261 24.1068C18.7474 24.1882 18.886 24.2288 19.0419 24.2288C19.1978 24.2288 19.3363 24.1882 19.4576 24.1068V24.1126Z" fill="#370989"/>
<path d="M23.7461 23.0099V24.3819C23.7461 24.4516 23.723 24.5039 23.6768 24.5563C23.6306 24.6086 23.5729 24.626 23.5036 24.626C23.4343 24.626 23.3824 24.6028 23.3362 24.5563C23.29 24.5097 23.2669 24.4516 23.2669 24.3819V23.0157C23.2669 22.8181 23.2207 22.6611 23.1283 22.539C23.0359 22.4228 22.8916 22.3646 22.6895 22.3646C22.4874 22.3646 22.4354 22.3937 22.3257 22.4518C22.216 22.51 22.1294 22.5913 22.0716 22.6902C22.0139 22.789 21.9793 22.8994 21.9793 23.0157V24.3819C21.9793 24.4516 21.9562 24.5039 21.91 24.5563C21.8638 24.6086 21.806 24.626 21.7367 24.626C21.6674 24.626 21.6097 24.6028 21.5635 24.5563C21.5173 24.5097 21.5 24.4516 21.5 24.3819V22.2251C21.5 22.1553 21.5231 22.103 21.5693 22.0507C21.6155 21.9984 21.6732 21.9809 21.7367 21.9809C21.8003 21.9809 21.8638 22.0042 21.91 22.0507C21.9562 22.0972 21.9793 22.1553 21.9793 22.2251V22.3995C22.0659 22.2658 22.1871 22.1495 22.343 22.0565C22.4989 21.9635 22.6664 21.917 22.8396 21.917C23.4401 21.917 23.7403 22.2774 23.7403 23.0099H23.7461Z" fill="#370989"/>
<path d="M26.7658 22.0507C26.9391 22.1379 27.0314 22.2425 27.0314 22.3762C27.0314 22.51 27.0141 22.4867 26.9737 22.5274C26.9333 22.5681 26.8871 22.5972 26.8351 22.5972C26.7832 22.5972 26.7601 22.5913 26.7312 22.5739C26.7081 22.5623 26.6735 22.539 26.6273 22.51C26.6099 22.4867 26.5753 22.4634 26.5291 22.4402C26.4887 22.4169 26.4309 22.4053 26.3559 22.3879C26.2808 22.3762 26.2173 22.3646 26.1538 22.3646C25.9806 22.3646 25.8247 22.4053 25.6919 22.4867C25.5591 22.5681 25.4551 22.6785 25.3801 22.8239C25.305 22.9692 25.2704 23.1262 25.2704 23.3006C25.2704 23.475 25.305 23.6377 25.3801 23.7773C25.4493 23.9168 25.5533 24.0272 25.6861 24.1086C25.8189 24.19 25.9632 24.2307 26.1307 24.2307C26.2981 24.2307 26.4425 24.2016 26.5522 24.1493C26.5753 24.1377 26.6099 24.1144 26.6504 24.0854C26.685 24.0563 26.7139 24.0389 26.737 24.0272C26.7601 24.0156 26.7947 24.004 26.8294 24.004C26.8986 24.004 26.9506 24.0272 26.9853 24.0679C27.0257 24.1086 27.043 24.1668 27.043 24.2307C27.043 24.2947 26.9968 24.3702 26.9102 24.44C26.8236 24.5097 26.7023 24.5679 26.5522 24.6086C26.4021 24.6551 26.2462 24.6725 26.0729 24.6725C25.8189 24.6725 25.5937 24.6144 25.4032 24.4923C25.2068 24.376 25.0567 24.2075 24.9528 23.9982C24.8488 23.7889 24.7969 23.5564 24.7969 23.2948C24.7969 23.0332 24.8546 22.8006 24.9643 22.5913C25.074 22.3821 25.2299 22.2135 25.4263 22.0972C25.6226 21.9809 25.8478 21.917 26.1018 21.917C26.3559 21.917 26.5868 21.9577 26.7601 22.0449L26.7658 22.0507Z" fill="#370989"/>
<path d="M30.2714 23.3645C30.2252 23.4052 30.1675 23.4285 30.104 23.4285H28.3429C28.366 23.6726 28.4584 23.8703 28.62 24.0214C28.7817 24.1668 28.978 24.2423 29.2148 24.2423C29.4515 24.2423 29.5035 24.2191 29.6074 24.1726C29.7056 24.1261 29.7979 24.0621 29.873 23.9924C29.925 23.9633 29.9712 23.9459 30.0174 23.9459C30.0635 23.9459 30.1213 23.9691 30.1617 24.004C30.2021 24.0389 30.2195 24.0912 30.2195 24.1435C30.2195 24.1958 30.1848 24.2772 30.1213 24.3353C30.0231 24.4342 29.8961 24.5156 29.7344 24.5795C29.5728 24.6493 29.4111 24.6783 29.2436 24.6783C28.9722 24.6783 28.7355 24.6202 28.5276 24.5039C28.3198 24.3877 28.1639 24.2307 28.0542 24.0272C27.9445 23.8238 27.8867 23.5912 27.8867 23.3296C27.8867 23.068 27.9445 22.8006 28.0599 22.5855C28.1754 22.3704 28.3255 22.2077 28.5161 22.0914C28.7066 21.9751 28.9087 21.917 29.1224 21.917C29.336 21.917 29.5381 21.9751 29.7229 22.0856C29.9077 22.196 30.0578 22.3472 30.1733 22.5448C30.2887 22.7425 30.3465 22.9576 30.3465 23.2017C30.3465 23.2599 30.3176 23.3122 30.2714 23.3529V23.3645ZM28.6316 22.5274C28.493 22.632 28.4064 22.7948 28.3602 23.0215H29.8384V22.9808C29.821 22.8006 29.7402 22.6553 29.6016 22.5448C29.463 22.4344 29.3014 22.3704 29.1166 22.3704C28.9318 22.3704 28.7702 22.4228 28.6316 22.5274Z" fill="#370989"/>
</svg>
