<svg xmlns="http://www.w3.org/2000/svg" fill="none" viewBox="0 0 320 202">
  <g clip-path="url(#a)">
    <rect width="320" height="201.9" fill="#1a191b" rx="12.6"/>
    <g clip-path="url(#b)">
      <path fill="url(#c)" d="M183.1 246.4a25 25 0 0 1-15.9-11.7c-7.1-13.5 1.8-35.4 24.5-60 44.3-48.3 128.4-94.4 187.4-103 26.9-3.9 45.2.6 51.6 12.6 7 13.5-1.8 35.4-24.5 60.1-44.4 48.1-128.4 94.2-187.4 102.8a86 86 0 0 1-35.7-1M379.2 73c-58.7 8.5-142.4 54.5-186.6 102.4-22.3 24.3-31.2 45.7-24.3 58.7 6 11.6 24 15.8 50.3 12 58.8-8.5 142.5-54.5 186.7-102.4 22.3-24.3 31.2-45.7 24.3-58.7-6-11.5-24-15.8-50.4-12"/>
      <path fill="url(#d)" d="M177.2 246.3q-13.4-4-18-13.7c-6.8-15 4.3-38.5 30.7-64.3 49.7-48.8 139-92.5 199-97.6 26.4-2.2 44 3.4 49.7 15.8 7 15-4.3 38.5-30.6 64.3-49.7 48.8-139 92.6-199 97.6q-19.3 1.6-31.8-2.1M420.3 74a87 87 0 0 0-31.3-2c-59.8 5-148.7 48.6-198.3 97.2-26 25.4-37 48.4-30.3 62.9 5.4 12 22.7 17.3 48.5 15.1 59.7-5 148.7-48.6 198.2-97.2 26-25.5 37-48.4 30.4-63q-4.2-9-17.2-13"/>
      <path fill="url(#e)" d="M171.9 246q-15.9-4.8-20.4-16.2c-6.6-16.6 7-41.6 37.3-68.5 55.2-49 149.4-90 210-91.1 25.7-.6 42.6 6.2 47.6 19 6.6 16.8-7 41.7-37.3 68.6-55.2 49-149.5 90-210.1 91.2q-16 .2-27.1-3M425.7 74.3a89 89 0 0 0-26.8-3c-60.4 1.2-154.3 42-209.3 90.8-29.9 26.5-43.3 51-37 67.2 4.8 12.3 21.3 18.9 46.4 18.3 60.4-1.2 154.3-42 209.3-90.8 29.8-26.5 43.3-51 37-67.2q-4.4-10.7-19.6-15.3"/>
      <path fill="url(#f)" d="M167 245.4q-18.7-5.4-23.1-19c-6-18.5 10.2-45 44.5-72.6 60.8-49 159.7-86.5 220.6-83.5 25 1.2 40.6 9 45 22.4 6 18.5-10.2 45-44.5 72.7-60.8 49-159.7 86.4-220.6 83.4a93 93 0 0 1-22-3.4M430.5 75q-9.2-2.8-21.7-3.4c-60.6-3-159.2 34.4-219.7 83.2-34 27.3-50 53.3-44.2 71.3 4.3 13 19.5 20.4 44 21.6 60.6 3 159.2-34.4 219.7-83.2 34-27.3 50-53.3 44.1-71.3q-4.2-12.9-22.2-18.2"/>
      <path fill="url(#g)" d="M163.1 244.8q-22.2-6.7-26.5-22.6c-5.3-20.5 13.7-48.4 52.3-76.6C255.2 97 358.4 63.6 419 71c24 3 38.6 12 42.3 25.8 5.3 20.5-13.8 48.4-52.3 76.6-66.3 48.6-169.5 82-230.1 74.5q-8.7-1-15.8-3.2M434.4 75.5a95 95 0 0 0-15.5-3.2c-60.4-7.4-163.2 26-229.3 74.3-37.6 27.5-57 55.6-51.8 75.3 3.5 13.4 17.7 22 41.2 24.9 60.4 7.4 163.2-25.9 229.3-74.2 37.5-27.5 57-55.7 51.8-75.4-2.6-10-11.4-17.5-25.7-21.7"/>
      <path fill="url(#h)" d="M160.4 244.3c-17.7-5.3-28.3-14.6-30.7-27.1-4.3-22.3 18.3-52.4 60.6-80.4C262 89.2 369 60.5 429 72.8c22.8 4.7 36.4 14.8 39.2 29.1 4.3 22.3-18.3 52.4-60.6 80.4-71.8 47.6-178.9 76.4-238.7 64zM429 73.3l-.1.6C369.2 61.7 262.5 90.3 191 137.8c-41.9 27.8-64.3 57.3-60.1 79.1 2.7 14 15.9 23.7 38.2 28.3 59.6 12.2 166.3-16.4 237.8-63.9 41.9-27.7 64.3-57.3 60-79.1-2.6-13.9-15.8-23.7-38.2-28.3z"/>
      <path fill="url(#i)" d="M159 244c-21.5-6.5-33.9-17.8-35.8-32.8-3-24.5 22.9-55.9 69.5-83.8 77.1-46.2 187.5-69.7 246-52.2h.1c21.6 6.4 34 17.7 35.8 32.7 3.1 24.5-22.8 55.9-69.4 83.8-77.1 46.3-187.5 69.7-246.1 52.2M438.4 76.4c-58.3-17.4-168.2 6-245.1 52-46.2 27.7-71.9 58.6-68.9 82.7 1.8 14.4 14 25.4 35 31.6 58.3 17.4 168.3-6 245.2-52 46.1-27.7 71.9-58.6 68.8-82.7-1.8-14.4-13.9-25.3-35-31.6"/>
      <path fill="url(#j)" d="M159.2 244a107 107 0 0 1-9.7-3.4c-20.2-8.2-31.3-20.7-32.2-36.3-1.5-27 28-59.4 78.8-86.8 82.4-44.5 195.6-62 252.3-39 20.2 8.2 31.3 20.8 32.2 36.3 1.4 27-28 59.4-78.8 86.8-78 42-183.5 60-242.6 42.3M438.3 76.3c-58.8-17.5-164 .3-241.6 42.2-50.4 27.2-79.6 59.3-78.2 85.8.8 15 11.7 27.2 31.5 35.2 56.4 22.8 169 5.4 251.2-39 50.4-27 79.6-59.1 78.2-85.6-.9-15-11.7-27.2-31.5-35.2a108 108 0 0 0-9.6-3.4"/>
      <path fill="url(#k)" d="M160.8 244.5q-11.3-3.4-20.5-8.2c-18.8-10-28.6-23.8-28.2-40 .5-29.5 33.6-62.9 88.5-89.3 87.5-42 202.8-53 257-24.2 18.8 10 28.5 23.8 28.2 40-.6 29.5-33.7 62.9-88.6 89.3-77.6 37.4-177 50.1-236.4 32.4M436.6 75.7c-59-17.6-158-4.8-235.5 32.4-54.4 26.2-87.3 59.2-87.8 88.2-.3 15.7 9.2 29.2 27.6 39q9.1 4.8 20.3 8.1c59 17.6 158.2 4.9 235.5-32.4 54.5-26.2 87.3-59.2 87.9-88.2.3-15.7-9.2-29.2-27.6-39q-9-4.7-20.4-8"/>
      <path fill="url(#l)" d="M164.3 246a118 118 0 0 1-32.7-15c-17.4-11.7-25.6-27-24-44 3.2-32 40-66 98.7-91 92.3-39.2 209-42.8 260-8 17.3 11.9 25.6 27.1 24 44.1-3.2 32-40.1 66-98.8 91-75.9 32.3-168.3 40.4-227.2 22.9M433.1 74.3C374.6 56.9 282.5 65 206.8 97.2c-58.2 24.7-94.9 58.4-98 90-1.6 16.5 6.5 31.3 23.4 42.9 50.8 34.6 167 31 258.9-8.1 58.2-24.8 94.8-58.4 98-90 1.6-16.5-6.5-31.4-23.5-43q-13.6-9-32.5-14.7"/>
      <path fill="url(#m)" d="M169.9 248.5a125 125 0 0 1-46.5-23.7c-15.8-13.8-22.5-30.5-19.2-48.4 6.3-34.6 47.1-68.8 109-91.8 96.8-35.7 214-31.4 261.3 9.7 15.8 13.8 22.4 30.6 19.2 48.5-6.3 34.5-47.1 68.8-109 91.7-73 27-157.4 31.1-214.8 14M427.6 71.8c-57.1-17-141.3-12.9-214 14-61.5 22.7-102 56.7-108.2 90.8-3.2 17.5 3.3 33.8 18.8 47.3 47 40.8 163.6 45 260 9.4 61.6-22.7 102-56.7 108.3-90.8 3.2-17.4-3.3-33.8-18.8-47.2a123 123 0 0 0-46-23.5"/>
      <path fill="url(#n)" d="M177.4 252.4c-26.2-7.8-47.7-19.6-61.5-35a55 55 0 0 1-13.8-53.3c10-36.8 54.7-71 119.4-91.3C322.4 41.1 439.2 54 482 101.7a55 55 0 0 1 13.8 53.3c-10 36.8-54.7 71-119.4 91.3-68.3 21.5-144 22.5-199 6.1M420.1 67.8C365.4 51.5 290 52.5 221.8 74c-64.3 20.2-108.6 54-118.6 90.4a54 54 0 0 0 13.6 52.2c42.5 47.4 158.7 60.2 259.2 28.5 64.3-20.2 108.7-54 118.6-90.4a54 54 0 0 0-13.5-52.2c-13.7-15.2-35-27-61-34.7"/>
      <path fill="url(#o)" d="M186.8 258c-34.6-10.4-62.5-27-77.6-49a62 62 0 0 1-7.7-58.9C116 111.4 164.3 78 231 60.7c104.6-27.2 220.2-5 257.7 49.4a62 62 0 0 1 7.7 59c-14.4 38.6-62.9 72-129.5 89.3-62.4 16.2-128.8 14.9-180-.4m224-195.7c-51.2-15.2-117.2-16.6-179.5-.5C165 79 117 112.2 102.6 150.5a61 61 0 0 0 7.6 57.8c37.3 54 152.2 76 256.3 49 66.3-17.2 114.4-50.4 128.7-88.7a61 61 0 0 0-7.5-57.8c-15-21.7-42.6-38.3-77-48.5"/>
      <path fill="url(#p)" d="M197.5 265.3c-44-13.1-78.7-36-94-65.9a71 71 0 0 1-.6-65.2c19.3-40 71.2-72.2 139-86 107.8-21.8 221 10.2 252.5 71.5 10.8 21 11 43.5.6 65.2-19.3 40-71.3 72.2-139 86a335 335 0 0 1-158.5-5.6M400 55a333 333 0 0 0-157.8-5.6C174.7 63.1 123 95 104 134.8a70 70 0 0 0 .6 64c31.2 60.9 143.9 92.7 251 70.9C423.2 256 474.9 224 494 184.4a70 70 0 0 0-.6-64.2C478.1 90.7 443.7 68 400 55"/>
      <path fill="url(#q)" d="M208.8 274.4c-54-16-95.9-46.7-110-85.7a82 82 0 0 1 8-72.3c24.3-40.7 79.5-71 147.4-80.8 110.4-16 220.2 26.5 244.9 94.8a82 82 0 0 1-8 72.3c-24.3 40.8-79.5 71-147.5 80.8-47.2 6.9-94.4 3-134.8-9m180-228.6a317 317 0 0 0-134.4-9C186.8 46.5 132 76.5 107.8 117a81 81 0 0 0-7.9 71.3c24.5 67.8 133.8 110 243.5 94 67.7-9.8 122.5-39.8 146.7-80.2a81 81 0 0 0 7.8-71.3c-14-38.6-55.5-69-109-85"/>
      <path fill="url(#r)" d="M219.4 285.2c-64-19-112.9-59-124-108.3a97 97 0 0 1 18-80.3C143 56 200.8 28.6 268 22.9c112.2-9.5 217.5 44 234.6 119.4a97 97 0 0 1-18.1 80.3c-29.6 40.4-87.4 68-154.6 73.6-38.8 3.3-76.7-1-110.5-11M378.1 35.1a300 300 0 0 0-110-11c-66.9 5.6-124.3 33-153.7 73.2a96 96 0 0 0-17.9 79.3c17 74.7 121.6 127.9 233.3 118.4 66.8-5.6 124.3-33 153.7-73.2 18-24.4 24-51.9 17.9-79.3C490.3 93.7 441.7 54 378 35.1"/>
      <path fill="url(#s)" d="M228.7 297.5c-73.9-22-129.1-73.2-135.5-133.7A114 114 0 0 1 123.3 75c34.6-39.2 94.4-63.4 159.9-64.8C396.6 7.8 496 73 504.7 155.3c3.4 32-7 62.7-30.1 88.9-34.6 39.2-94.4 63.5-159.9 64.8-30.1.6-59.3-3.5-86-11.5M368.9 22.8c-26.6-8-55.7-12-85.7-11.5-65.2 1.4-124.6 25.4-159 64.4a113 113 0 0 0-29.8 88c6.3 60 61.2 110.8 134.6 132.6 26.6 8 55.6 12.1 85.7 11.5 65.2-1.3 124.6-25.4 159-64.4a113 113 0 0 0 29.8-88c-6.3-60-61.3-110.7-134.6-132.6"/>
      <path fill="url(#t)" d="M235.7 311.1C152.4 286.3 92.1 222 92.4 149.6 92.6 113 108 79.1 137 51.8c39.6-37.6 99-57.5 162.9-54.4 113.8 5.5 206 82.7 205.6 172a134 134 0 0 1-44.4 98c-39.6 37.6-99 57.4-162.9 54.3q-32.7-1.6-62.4-10.6M362 9.1a261 261 0 0 0-62.2-10.5c-63.5-3-122.6 16.7-162 54a133 133 0 0 0-44 97C93.3 221.5 153.2 285.4 236 310q29.5 8.9 62.2 10.5c63.5 3 122.6-16.6 162-54a133 133 0 0 0 44-97C504.6 97.7 444.7 33.9 362 9.2"/>
      <path fill="url(#u)" d="M240 325.9c-92.4-27.6-155.8-107-146.7-191.6a158 158 0 0 1 61-106.9c43.4-34.4 103-50 163.5-42.5C431.2-1 515 88.5 504.6 185a158 158 0 0 1-61 106.8c-43.4 34.5-103 50-163.5 42.5a244 244 0 0 1-40-8.3zM357.5-5.6a243 243 0 0 0-39.8-8.3c-60.2-7.4-119.5 8-162.7 42.3-34.6 27.4-56 65-60.5 106-9 84 54 163 145.8 190.3a243 243 0 0 0 39.9 8.3c60.2 7.4 119.5-8 162.7-42.2 34.6-27.4 56-65.1 60.5-106.1 9-84-54-162.9-145.9-190.3"/>
      <path fill="url(#v)" d="M241.4 341.6C140.3 311.5 75.9 215 95.9 118 117 14.9 225.3-50.3 337.3-27.3a215 215 0 0 1 132.3 84.2A182 182 0 0 1 502 201.3a182 182 0 0 1-86.6 119.9 215 215 0 0 1-154.8 25.2 227 227 0 0 1-19.2-4.8m115-362.9A228 228 0 0 0 337-26C225.8-49 118 15.7 97 118c-19.8 96.4 44.2 192.4 144.6 222.3a226 226 0 0 0 19.1 4.8c54 11.1 108.6 2.2 154-25a181 181 0 0 0 86-119.2 181 181 0 0 0-32.1-143.4 212 212 0 0 0-112.3-78.9"/>
      <path fill="url(#w)" d="M239.7 358.2A207.3 207.3 0 1 1 358.1-39.2a207.3 207.3 0 0 1-118.4 397.5M357.8-37.9a206.3 206.3 0 0 0-256.4 138.6A206.3 206.3 0 0 0 240 357a206.3 206.3 0 0 0 256.4-138.7A206.3 206.3 0 0 0 357.8-37.9"/>
    </g>
    <path fill="#fbfdfc" fill-rule="evenodd" d="M73.2 31.4v-19h-2.4v3.5q-1.4-2-3.3-3t-4.2-1q-4 0-6.8 2.9-2.9 2.9-2.9 7 0 4.2 2.8 7.1 2.9 3 6.9 3 2.2 0 4.1-1 2-1 3.4-2.8v3.3zM59.8 15.2a7 7 0 0 1 3.7-1q3.2 0 5.3 2.2Q71 18.7 71 22q0 2.1-1 3.9t-2.7 2.7a8 8 0 0 1-3.8 1 7 7 0 0 1-3.7-1q-1.7-1-2.7-2.9T56 22t1-3.8 2.7-2.9" clip-rule="evenodd"/>
    <path fill="#fbfdfc" d="M39.6 12.4h-3l6.5 9-7.1 10h2.9l5.7-8 5.7 8h3l-7.3-10 6.5-9h-3l-5 7zm-6.2-.1H11.7v3.2h2v-.8h17.7v.8h2zM17 20.6v-.5h-2v3.4h2V23h11.2v.5h2v-3.4h-2v.5zM13.6 29v-.8h-2v3.2h21.8v-3.2h-2v.8z"/>
    <path fill="#fff" d="m260.7 31.5 8.2-19.7h-5.3l-5.3 13.4-2.2-11.4q-.5-2-2.3-2H245l-.1.6c1.8.4 3.8 1 5 1.6.8.5 1 .8 1.2 1.8l4.1 15.7zm24.7-12c2 1.1 4.6 2.5 4.6 5.6 0 4-3.5 6.7-8.8 6.7-2.3 0-4.5-.5-5.7-1l1-4.3q1.6 1 5.1 1.2c1.5 0 3-.6 3.1-2q.1-1-2.6-2.4c-2-1-4.5-2.5-4.5-5.3 0-3.9 3.6-6.5 8.6-6.5q3 .1 4.8.8l-1 4.2a10 10 0 0 0-5-.9q-2.1.5-2.1 1.7c0 .9 1.1 1.5 2.5 2.2"/>
    <path fill="#fff" fill-rule="evenodd" d="M308 31.5h-4.7l-.6-3h-6.5l-1 3h-5.4l7.6-18.2a2 2 0 0 1 2.2-1.5h4.3zM300.3 17l-2.7 7.4h4.2z" clip-rule="evenodd"/>
    <path fill="#fff" d="m272 31.5 4.2-19.7h-5.1l-4.2 19.7zm6.6 11.7v-6.5h-.7v6.5z"/>
    <path fill="#fff" fill-rule="evenodd" d="M272.5 36.9v6.3h.8v-2.5h1.3q1 0 1.6-.4.5-.4.5-1.5 0-1-.5-1.4-.7-.5-1.6-.5zm.8.6h1.1q.8 0 1.1.3.4.4.4 1 0 .8-.4 1l-1 .3h-1.2zm6.7 2v-.7a3 3 0 0 1 1.6-.4q.9 0 1.3.4.4.3.4 1.1v3.3h-.7v-1q-.1.6-.6.8-.3.3-1 .3l-.6-.2-.6-.4-.2-.7q0-.5.2-.8l.6-.4.8-.2 1.4-.4V40q0-.5-.2-.8t-1-.2l-.7.1zm2.6 2.1v-1l-.4.2-.9.2q-.4 0-.7.3l-.2.6q0 .4.2.6.3.3.7.2l.7-.1.5-.5z" clip-rule="evenodd"/>
    <path fill="#fff" d="m285.9 42.5-.2-.6v-2.8h1.3l.1-.6h-1.4v-1h-.7v1l-.8.1v.5h.8v3q0 .6.3.9.4.3 1 .3h.5l.4-.2v-.6l-.3.1zm2.1-5.2.1-.3.4-.2q.2 0 .3.2l.1.3-.1.3-.3.1-.4-.1zm.7 1.1v4.7h-.7v-4.7zm5 .3q-.5-.4-1.2-.4l-.6.1q-.4.1-.6.4l-.4.6v-1h-.8v4.7h.7v-2.9a1 1 0 0 1 .7-1.1l.7-.2q.7 0 1 .3.2.3.2 1v2.9h.7V40q0-.9-.4-1.2m3.6 3.9.7-.2.5-.5.2-.6v-2.9h.8v4.7h-.7v-1l-.5.6-.6.4-.6.1q-.8 0-1.2-.4t-.4-1.2v-3.2h.7v3q0 .6.2.9t1 .2m7.3-3q-.1-.6-.5-.8t-1-.3l-.7.1q-.3 0-.5.4l-.4.6v-1h-.8v4.7h.8v-3l.1-.6.5-.4.7-.2q.6 0 .9.3l.2.9v3h.7v-3q0-.5.4-.8t1-.4q.6 0 .9.3l.2.9v3h.7V40q0-.8-.4-1.2t-1.1-.4l-.7.1q-.3 0-.6.4z"/>
  </g>
  <rect width="319.1" height="201" x=".5" y=".5" stroke="url(#x)" stroke-width=".9" rx="12.2"/>
  <defs>
    <linearGradient id="c" x1="265.9" x2="332.3" y1="270.5" y2="47.7" gradientUnits="userSpaceOnUse">
      <stop stop-color="#626366"/>
      <stop offset="0" stop-color="#717275"/>
      <stop offset=".1" stop-color="#8f9193"/>
      <stop offset=".2" stop-color="#a7a8ab"/>
      <stop offset=".3" stop-color="#b7b9bb"/>
      <stop offset=".4" stop-color="#c1c3c5"/>
      <stop offset=".5" stop-color="#c5c7c9"/>
      <stop offset=".6" stop-color="#c1c3c5"/>
      <stop offset=".7" stop-color="#b7b9bb"/>
      <stop offset=".8" stop-color="#a7a8ab"/>
      <stop offset=".9" stop-color="#8f9193"/>
      <stop offset="1" stop-color="#717275"/>
      <stop offset="1" stop-color="#626366"/>
    </linearGradient>
    <linearGradient id="d" x1="265.4" x2="332.8" y1="272" y2="46.1" gradientUnits="userSpaceOnUse">
      <stop stop-color="#626366"/>
      <stop offset="0" stop-color="#717275"/>
      <stop offset=".1" stop-color="#8f9193"/>
      <stop offset=".2" stop-color="#a7a8ab"/>
      <stop offset=".3" stop-color="#b7b9bb"/>
      <stop offset=".4" stop-color="#c1c3c5"/>
      <stop offset=".5" stop-color="#c5c7c9"/>
      <stop offset=".6" stop-color="#c1c3c5"/>
      <stop offset=".7" stop-color="#b7b9bb"/>
      <stop offset=".8" stop-color="#a7a8ab"/>
      <stop offset=".9" stop-color="#8f9193"/>
      <stop offset="1" stop-color="#717275"/>
      <stop offset="1" stop-color="#626366"/>
    </linearGradient>
    <linearGradient id="e" x1="265.1" x2="333.1" y1="273.2" y2="45" gradientUnits="userSpaceOnUse">
      <stop stop-color="#626366"/>
      <stop offset="0" stop-color="#717275"/>
      <stop offset=".1" stop-color="#8f9193"/>
      <stop offset=".2" stop-color="#a7a8ab"/>
      <stop offset=".3" stop-color="#b7b9bb"/>
      <stop offset=".4" stop-color="#c1c3c5"/>
      <stop offset=".5" stop-color="#c5c7c9"/>
      <stop offset=".6" stop-color="#c1c3c5"/>
      <stop offset=".7" stop-color="#b7b9bb"/>
      <stop offset=".8" stop-color="#a7a8ab"/>
      <stop offset=".9" stop-color="#8f9193"/>
      <stop offset="1" stop-color="#717275"/>
      <stop offset="1" stop-color="#626366"/>
    </linearGradient>
    <linearGradient id="f" x1="264.8" x2="333.4" y1="274.1" y2="44.1" gradientUnits="userSpaceOnUse">
      <stop stop-color="#626366"/>
      <stop offset="0" stop-color="#717275"/>
      <stop offset=".1" stop-color="#8f9193"/>
      <stop offset=".2" stop-color="#a7a8ab"/>
      <stop offset=".3" stop-color="#b7b9bb"/>
      <stop offset=".4" stop-color="#c1c3c5"/>
      <stop offset=".5" stop-color="#c5c7c9"/>
      <stop offset=".6" stop-color="#c1c3c5"/>
      <stop offset=".7" stop-color="#b7b9bb"/>
      <stop offset=".8" stop-color="#a7a8ab"/>
      <stop offset=".9" stop-color="#8f9193"/>
      <stop offset="1" stop-color="#717275"/>
      <stop offset="1" stop-color="#626366"/>
    </linearGradient>
    <linearGradient id="g" x1="264.7" x2="333.6" y1="274.6" y2="43.6" gradientUnits="userSpaceOnUse">
      <stop stop-color="#626366"/>
      <stop offset="0" stop-color="#717275"/>
      <stop offset=".1" stop-color="#8f9193"/>
      <stop offset=".2" stop-color="#a7a8ab"/>
      <stop offset=".3" stop-color="#b7b9bb"/>
      <stop offset=".4" stop-color="#c1c3c5"/>
      <stop offset=".5" stop-color="#c5c7c9"/>
      <stop offset=".6" stop-color="#c1c3c5"/>
      <stop offset=".7" stop-color="#b7b9bb"/>
      <stop offset=".8" stop-color="#a7a8ab"/>
      <stop offset=".9" stop-color="#8f9193"/>
      <stop offset="1" stop-color="#717275"/>
      <stop offset="1" stop-color="#626366"/>
    </linearGradient>
    <linearGradient id="h" x1="264.6" x2="333.6" y1="274.8" y2="43.4" gradientUnits="userSpaceOnUse">
      <stop stop-color="#626366"/>
      <stop offset="0" stop-color="#717275"/>
      <stop offset=".1" stop-color="#8f9193"/>
      <stop offset=".2" stop-color="#a7a8ab"/>
      <stop offset=".3" stop-color="#b7b9bb"/>
      <stop offset=".4" stop-color="#c1c3c5"/>
      <stop offset=".5" stop-color="#c5c7c9"/>
      <stop offset=".6" stop-color="#c1c3c5"/>
      <stop offset=".7" stop-color="#b7b9bb"/>
      <stop offset=".8" stop-color="#a7a8ab"/>
      <stop offset=".9" stop-color="#8f9193"/>
      <stop offset="1" stop-color="#717275"/>
      <stop offset="1" stop-color="#626366"/>
    </linearGradient>
    <linearGradient id="i" x1="264.6" x2="333.7" y1="274.8" y2="43.3" gradientUnits="userSpaceOnUse">
      <stop stop-color="#626366"/>
      <stop offset="0" stop-color="#717275"/>
      <stop offset=".1" stop-color="#8f9193"/>
      <stop offset=".2" stop-color="#a7a8ab"/>
      <stop offset=".3" stop-color="#b7b9bb"/>
      <stop offset=".4" stop-color="#c1c3c5"/>
      <stop offset=".5" stop-color="#c5c7c9"/>
      <stop offset=".6" stop-color="#c1c3c5"/>
      <stop offset=".7" stop-color="#b7b9bb"/>
      <stop offset=".8" stop-color="#a7a8ab"/>
      <stop offset=".9" stop-color="#8f9193"/>
      <stop offset="1" stop-color="#717275"/>
      <stop offset="1" stop-color="#626366"/>
    </linearGradient>
    <linearGradient id="j" x1="264.6" x2="333.7" y1="274.8" y2="43.3" gradientUnits="userSpaceOnUse">
      <stop stop-color="#626366"/>
      <stop offset="0" stop-color="#717275"/>
      <stop offset=".1" stop-color="#8f9193"/>
      <stop offset=".2" stop-color="#a7a8ab"/>
      <stop offset=".3" stop-color="#b7b9bb"/>
      <stop offset=".4" stop-color="#c1c3c5"/>
      <stop offset=".5" stop-color="#c5c7c9"/>
      <stop offset=".6" stop-color="#c1c3c5"/>
      <stop offset=".7" stop-color="#b7b9bb"/>
      <stop offset=".8" stop-color="#a7a8ab"/>
      <stop offset=".9" stop-color="#8f9193"/>
      <stop offset="1" stop-color="#717275"/>
      <stop offset="1" stop-color="#626366"/>
    </linearGradient>
    <linearGradient id="k" x1="264.6" x2="333.7" y1="274.9" y2="43.2" gradientUnits="userSpaceOnUse">
      <stop stop-color="#626366"/>
      <stop offset="0" stop-color="#717275"/>
      <stop offset=".1" stop-color="#8f9193"/>
      <stop offset=".2" stop-color="#a7a8ab"/>
      <stop offset=".3" stop-color="#b7b9bb"/>
      <stop offset=".4" stop-color="#c1c3c5"/>
      <stop offset=".5" stop-color="#c5c7c9"/>
      <stop offset=".6" stop-color="#c1c3c5"/>
      <stop offset=".7" stop-color="#b7b9bb"/>
      <stop offset=".8" stop-color="#a7a8ab"/>
      <stop offset=".9" stop-color="#8f9193"/>
      <stop offset="1" stop-color="#717275"/>
      <stop offset="1" stop-color="#626366"/>
    </linearGradient>
    <linearGradient id="l" x1="264.5" x2="333.8" y1="275.3" y2="42.9" gradientUnits="userSpaceOnUse">
      <stop stop-color="#626366"/>
      <stop offset="0" stop-color="#717275"/>
      <stop offset=".1" stop-color="#8f9193"/>
      <stop offset=".2" stop-color="#a7a8ab"/>
      <stop offset=".3" stop-color="#b7b9bb"/>
      <stop offset=".4" stop-color="#c1c3c5"/>
      <stop offset=".5" stop-color="#c5c7c9"/>
      <stop offset=".6" stop-color="#c1c3c5"/>
      <stop offset=".7" stop-color="#b7b9bb"/>
      <stop offset=".8" stop-color="#a7a8ab"/>
      <stop offset=".9" stop-color="#8f9193"/>
      <stop offset="1" stop-color="#717275"/>
      <stop offset="1" stop-color="#626366"/>
    </linearGradient>
    <linearGradient id="m" x1="264.3" x2="334" y1="276.1" y2="42.1" gradientUnits="userSpaceOnUse">
      <stop stop-color="#626366"/>
      <stop offset="0" stop-color="#717275"/>
      <stop offset=".1" stop-color="#8f9193"/>
      <stop offset=".2" stop-color="#a7a8ab"/>
      <stop offset=".3" stop-color="#b7b9bb"/>
      <stop offset=".4" stop-color="#c1c3c5"/>
      <stop offset=".5" stop-color="#c5c7c9"/>
      <stop offset=".6" stop-color="#c1c3c5"/>
      <stop offset=".7" stop-color="#b7b9bb"/>
      <stop offset=".8" stop-color="#a7a8ab"/>
      <stop offset=".9" stop-color="#8f9193"/>
      <stop offset="1" stop-color="#717275"/>
      <stop offset="1" stop-color="#626366"/>
    </linearGradient>
    <linearGradient id="n" x1="263.8" x2="334.5" y1="277.6" y2="40.5" gradientUnits="userSpaceOnUse">
      <stop stop-color="#626366"/>
      <stop offset="0" stop-color="#717275"/>
      <stop offset=".1" stop-color="#8f9193"/>
      <stop offset=".2" stop-color="#a7a8ab"/>
      <stop offset=".3" stop-color="#b7b9bb"/>
      <stop offset=".4" stop-color="#c1c3c5"/>
      <stop offset=".5" stop-color="#c5c7c9"/>
      <stop offset=".6" stop-color="#c1c3c5"/>
      <stop offset=".7" stop-color="#b7b9bb"/>
      <stop offset=".8" stop-color="#a7a8ab"/>
      <stop offset=".9" stop-color="#8f9193"/>
      <stop offset="1" stop-color="#717275"/>
      <stop offset="1" stop-color="#626366"/>
    </linearGradient>
    <linearGradient id="o" x1="263.1" x2="335.3" y1="280.1" y2="38" gradientUnits="userSpaceOnUse">
      <stop stop-color="#626366"/>
      <stop offset="0" stop-color="#717275"/>
      <stop offset=".1" stop-color="#8f9193"/>
      <stop offset=".2" stop-color="#a7a8ab"/>
      <stop offset=".3" stop-color="#b7b9bb"/>
      <stop offset=".4" stop-color="#c1c3c5"/>
      <stop offset=".5" stop-color="#c5c7c9"/>
      <stop offset=".6" stop-color="#c1c3c5"/>
      <stop offset=".7" stop-color="#b7b9bb"/>
      <stop offset=".8" stop-color="#a7a8ab"/>
      <stop offset=".9" stop-color="#8f9193"/>
      <stop offset="1" stop-color="#717275"/>
      <stop offset="1" stop-color="#626366"/>
    </linearGradient>
    <linearGradient id="p" x1="261.9" x2="336.4" y1="283.9" y2="34.2" gradientUnits="userSpaceOnUse">
      <stop stop-color="#626366"/>
      <stop offset="0" stop-color="#717275"/>
      <stop offset=".1" stop-color="#8f9193"/>
      <stop offset=".2" stop-color="#a7a8ab"/>
      <stop offset=".3" stop-color="#b7b9bb"/>
      <stop offset=".4" stop-color="#c1c3c5"/>
      <stop offset=".5" stop-color="#c5c7c9"/>
      <stop offset=".6" stop-color="#c1c3c5"/>
      <stop offset=".7" stop-color="#b7b9bb"/>
      <stop offset=".8" stop-color="#a7a8ab"/>
      <stop offset=".9" stop-color="#8f9193"/>
      <stop offset="1" stop-color="#717275"/>
      <stop offset="1" stop-color="#626366"/>
    </linearGradient>
    <linearGradient id="q" x1="260.4" x2="338" y1="289.2" y2="28.9" gradientUnits="userSpaceOnUse">
      <stop stop-color="#626366"/>
      <stop offset="0" stop-color="#717275"/>
      <stop offset=".1" stop-color="#8f9193"/>
      <stop offset=".2" stop-color="#a7a8ab"/>
      <stop offset=".3" stop-color="#b7b9bb"/>
      <stop offset=".4" stop-color="#c1c3c5"/>
      <stop offset=".5" stop-color="#c5c7c9"/>
      <stop offset=".6" stop-color="#c1c3c5"/>
      <stop offset=".7" stop-color="#b7b9bb"/>
      <stop offset=".8" stop-color="#a7a8ab"/>
      <stop offset=".9" stop-color="#8f9193"/>
      <stop offset="1" stop-color="#717275"/>
      <stop offset="1" stop-color="#626366"/>
    </linearGradient>
    <linearGradient id="r" x1="258.3" x2="340.1" y1="296.2" y2="21.9" gradientUnits="userSpaceOnUse">
      <stop stop-color="#626366"/>
      <stop offset="0" stop-color="#717275"/>
      <stop offset=".1" stop-color="#8f9193"/>
      <stop offset=".2" stop-color="#a7a8ab"/>
      <stop offset=".3" stop-color="#b7b9bb"/>
      <stop offset=".4" stop-color="#c1c3c5"/>
      <stop offset=".5" stop-color="#c5c7c9"/>
      <stop offset=".6" stop-color="#c1c3c5"/>
      <stop offset=".7" stop-color="#b7b9bb"/>
      <stop offset=".8" stop-color="#a7a8ab"/>
      <stop offset=".9" stop-color="#8f9193"/>
      <stop offset="1" stop-color="#717275"/>
      <stop offset="1" stop-color="#626366"/>
    </linearGradient>
    <linearGradient id="s" x1="255.7" x2="342.7" y1="304.9" y2="13" gradientUnits="userSpaceOnUse">
      <stop stop-color="#626366"/>
      <stop offset="0" stop-color="#717275"/>
      <stop offset=".1" stop-color="#8f9193"/>
      <stop offset=".2" stop-color="#a7a8ab"/>
      <stop offset=".3" stop-color="#b7b9bb"/>
      <stop offset=".4" stop-color="#c1c3c5"/>
      <stop offset=".5" stop-color="#c5c7c9"/>
      <stop offset=".6" stop-color="#c1c3c5"/>
      <stop offset=".7" stop-color="#b7b9bb"/>
      <stop offset=".8" stop-color="#a7a8ab"/>
      <stop offset=".9" stop-color="#8f9193"/>
      <stop offset="1" stop-color="#717275"/>
      <stop offset="1" stop-color="#626366"/>
    </linearGradient>
    <linearGradient id="t" x1="252.5" x2="345.9" y1="315.4" y2="2.4" gradientUnits="userSpaceOnUse">
      <stop stop-color="#626366"/>
      <stop offset="0" stop-color="#717275"/>
      <stop offset=".1" stop-color="#8f9193"/>
      <stop offset=".2" stop-color="#a7a8ab"/>
      <stop offset=".3" stop-color="#b7b9bb"/>
      <stop offset=".4" stop-color="#c1c3c5"/>
      <stop offset=".5" stop-color="#c5c7c9"/>
      <stop offset=".6" stop-color="#c1c3c5"/>
      <stop offset=".7" stop-color="#b7b9bb"/>
      <stop offset=".8" stop-color="#a7a8ab"/>
      <stop offset=".9" stop-color="#8f9193"/>
      <stop offset="1" stop-color="#717275"/>
      <stop offset="1" stop-color="#626366"/>
    </linearGradient>
    <linearGradient id="u" x1="248.9" x2="349.6" y1="327.7" y2="-10" gradientUnits="userSpaceOnUse">
      <stop stop-color="#626366"/>
      <stop offset="0" stop-color="#717275"/>
      <stop offset=".1" stop-color="#8f9193"/>
      <stop offset=".2" stop-color="#a7a8ab"/>
      <stop offset=".3" stop-color="#b7b9bb"/>
      <stop offset=".4" stop-color="#c1c3c5"/>
      <stop offset=".5" stop-color="#c5c7c9"/>
      <stop offset=".6" stop-color="#c1c3c5"/>
      <stop offset=".7" stop-color="#b7b9bb"/>
      <stop offset=".8" stop-color="#a7a8ab"/>
      <stop offset=".9" stop-color="#8f9193"/>
      <stop offset="1" stop-color="#717275"/>
      <stop offset="1" stop-color="#626366"/>
    </linearGradient>
    <linearGradient id="v" x1="244.7" x2="353.8" y1="341.7" y2="-24.1" gradientUnits="userSpaceOnUse">
      <stop stop-color="#626366"/>
      <stop offset="0" stop-color="#717275"/>
      <stop offset=".1" stop-color="#8f9193"/>
      <stop offset=".2" stop-color="#a7a8ab"/>
      <stop offset=".3" stop-color="#b7b9bb"/>
      <stop offset=".4" stop-color="#c1c3c5"/>
      <stop offset=".5" stop-color="#c5c7c9"/>
      <stop offset=".6" stop-color="#c1c3c5"/>
      <stop offset=".7" stop-color="#b7b9bb"/>
      <stop offset=".8" stop-color="#a7a8ab"/>
      <stop offset=".9" stop-color="#8f9193"/>
      <stop offset="1" stop-color="#717275"/>
      <stop offset="1" stop-color="#626366"/>
    </linearGradient>
    <linearGradient id="w" x1="240" x2="358.5" y1="357.4" y2="-39.9" gradientUnits="userSpaceOnUse">
      <stop stop-color="#626366"/>
      <stop offset="0" stop-color="#717275"/>
      <stop offset=".1" stop-color="#8f9193"/>
      <stop offset=".2" stop-color="#a7a8ab"/>
      <stop offset=".3" stop-color="#b7b9bb"/>
      <stop offset=".4" stop-color="#c1c3c5"/>
      <stop offset=".5" stop-color="#c5c7c9"/>
      <stop offset=".6" stop-color="#c1c3c5"/>
      <stop offset=".7" stop-color="#b7b9bb"/>
      <stop offset=".8" stop-color="#a7a8ab"/>
      <stop offset=".9" stop-color="#8f9193"/>
      <stop offset="1" stop-color="#717275"/>
      <stop offset="1" stop-color="#626366"/>
    </linearGradient>
    <linearGradient id="x" x1="150.6" x2="148.6" y1="201.9" y2="0" gradientUnits="userSpaceOnUse">
      <stop stop-color="#1a181a"/>
      <stop offset="1" stop-color="#3b383b"/>
    </linearGradient>
    <clipPath id="a">
      <rect width="320" height="201.9" fill="#fff" rx="12.6"/>
    </clipPath>
    <clipPath id="b">
      <path fill="#fff" d="M159.5-98.3 556.8 20 438.4 417.5 41 299z"/>
    </clipPath>
  </defs>
</svg>
