<svg xmlns="http://www.w3.org/2000/svg" fill="none" viewBox="-51 -47 390 390"><g filter="url(#a)"><circle cx="144" cy="148" r="72" fill="#012169"/><path fill="#fff" d="M197.081 99.356a72 72 0 0 1 14.836 24.685l-39.929 23.958 39.929 23.957a72 72 0 0 1-14.835 24.685L144 164.792l-53.084 31.849a72 72 0 0 1-14.834-24.685l39.929-23.957-39.929-23.958a72 72 0 0 1 14.835-24.685L144 131.205z"/><path fill="#fff" d="M144 76a71.9 71.9 0 0 1 24 4.097v43.901h43.902A71.9 71.9 0 0 1 216 148a71.9 71.9 0 0 1-4.097 23.998H168v43.904A71.9 71.9 0 0 1 144 220a71.9 71.9 0 0 1-24-4.098v-43.904H76.097A71.9 71.9 0 0 1 72 148a71.9 71.9 0 0 1 4.098-24.002H120v-43.9A71.9 71.9 0 0 1 144 76"/><path fill="#c8102e" d="M144 76c4.932 0 9.748.496 14.401 1.44v56.158h56.158A72.4 72.4 0 0 1 216 148a72.4 72.4 0 0 1-1.441 14.399h-56.158v56.16A72.4 72.4 0 0 1 144 220c-4.932 0-9.747-.497-14.4-1.441v-56.16H73.441A72.3 72.3 0 0 1 72 148c0-4.932.497-9.748 1.441-14.402H129.6V77.441A72.3 72.3 0 0 1 144 76"/><path fill="#c8102e" d="m120 173.682-32.216 19.309a72 72 0 0 1-5.524-7.929l21.78-13.06H120zM210.146 176.482a72 72 0 0 1-4.398 8.566l-21.744-13.046h18.676zM103.996 124.002H85.32l-7.466-4.482a72 72 0 0 1 4.397-8.565zM200.216 103.012a72 72 0 0 1 5.523 7.928l-21.779 13.062H168v-1.68z"/><path fill="#13171b" d="M144 84.57c18.387 0 34.947 7.825 46.532 20.325-11.315-10.486-26.461-16.896-43.104-16.896-35.03 0-63.428 28.398-63.428 63.428 0 16.643 6.41 31.789 16.896 43.104-12.5-11.585-20.325-28.145-20.325-46.532 0-35.031 28.398-63.429 63.429-63.429" opacity=".6"/><path fill="#cbcbcb" d="M144.246 211.676c-18.387 0-34.947-7.824-46.532-20.325 11.315 10.486 26.461 16.896 43.104 16.896 35.03 0 63.428-28.398 63.428-63.428 0-16.643-6.41-31.789-16.896-43.104 12.501 11.585 20.325 28.145 20.325 46.532 0 35.031-28.398 63.429-63.429 63.429" opacity=".8"/><path fill="#000" d="M214.285 148.001c0 38.817-31.468 70.285-70.285 70.285-38.818 0-70.286-31.468-70.286-70.285 0-38.818 31.468-70.286 70.286-70.286s70.285 31.468 70.285 70.286m-133.543 0c0 34.936 28.322 63.257 63.258 63.257s63.257-28.321 63.257-63.257S178.936 84.743 144 84.743s-63.258 28.322-63.258 63.258" opacity=".2"/><g opacity=".6" style="mix-blend-mode:hard-light"><circle cx="144" cy="148" r="70.95" stroke="url(#b)" stroke-width="2.1" style="mix-blend-mode:overlay"/></g><path fill="#f7f8f8" d="M194.385 96.566a72.3 72.3 0 0 1 13.063 17.371l-35.482 100.427a71.6 71.6 0 0 1-21.075 5.307zM184.136 88.215a72 72 0 0 1 5.696 4.254l-45.055 127.525q-.389.005-.777.005-3.2-.001-6.328-.276z" opacity=".2"/></g><defs><linearGradient id="b" x1="93" x2="194.7" y1="97" y2="198.7" gradientUnits="userSpaceOnUse"><stop stop-color="#fff"/><stop offset="1" stop-color="#404040"/></linearGradient><filter id="a" width="177.6" height="177.6" x="66.4" y="70.4" color-interpolation-filters="sRGB" filterUnits="userSpaceOnUse"><feFlood flood-opacity="0" result="BackgroundImageFix"/><feColorMatrix in="SourceAlpha" result="hardAlpha" values="0 0 0 0 0 0 0 0 0 0 0 0 0 0 0 0 0 0 127 0"/><feOffset dx="11.2" dy="11.2"/><feGaussianBlur stdDeviation="8.4"/><feComposite in2="hardAlpha" operator="out"/><feColorMatrix values="0 0 0 0 0 0 0 0 0 0 0 0 0 0 0 0 0 0 0.12 0"/><feBlend in2="BackgroundImageFix" result="effect1_dropShadow_16831_13818"/><feBlend in="SourceGraphic" in2="effect1_dropShadow_16831_13818" result="shape"/></filter></defs></svg>