<svg xmlns="http://www.w3.org/2000/svg" fill="none" viewBox="0 0 320 202">
  <g clip-path="url(#a)">
    <path fill="#1a181a" stroke="url(#b)" stroke-width=".9" d="M11.2.5h297.6c6 0 10.7 4.8 10.7 10.7v179.5c0 6-4.8 10.8-10.7 10.8H11.2c-6 0-10.7-4.9-10.7-10.8V11.2C.5 5.2 5.3.5 11.2.5Z"/>
    <path fill="#fcfdfd" d="M177.3 96.2h-34.6a2 2 0 0 0-2 1.9v5.8q.2 1.7 2 1.9h34.6a2 2 0 0 0 2-2v-5.7a2 2 0 0 0-2-2m9.7-24h-54a2 2 0 0 0-1.9 1.9v10.6a2 2 0 0 0 2 1.9h5.7a2 2 0 0 0 2-2v-2.8h38.4v2.9a2 2 0 0 0 2 1.9h5.7a2 2 0 0 0 2-2V74a2 2 0 0 0-2-2zm0 43.3h-5.8a2 2 0 0 0-2 2v2.8h-38.4v-2.9a2 2 0 0 0-2-1.9H133a2 2 0 0 0-1.9 2v10.5a2 2 0 0 0 2 2H187a2 2 0 0 0 1.9-2v-10.6a2 2 0 0 0-2-1.9z"/>
    <path fill="url(#c)" d="M14.4 41.6a2 2 0 0 1-2-2V34a2 2 0 0 1 2-2h34.7a2 2 0 0 1 1.9 2v5.8a2 2 0 0 1-2 2zM58.7 8h-54a2 2 0 0 0-1.8 2v10.5a2 2 0 0 0 1.9 2h5.8a2 2 0 0 0 1.9-2v-2.9H51v3a2 2 0 0 0 2 1.8h5.7a2 2 0 0 0 2-1.9V9.8a2 2 0 0 0-2-2m0 43.4h-5.8a2 2 0 0 0-1.9 2V56H12.5v-3a2 2 0 0 0-2-1.9H4.9a2 2 0 0 0-2 2v10.6a2 2 0 0 0 2 1.9h54a2 2 0 0 0 1.8-2V53.3a2 2 0 0 0-1.9-2zm54.5-9.6a2 2 0 0 0 2-2V34a2 2 0 0 0-2-2H78.5a2 2 0 0 0-1.9 2v5.8a2 2 0 0 0 2 2zM122.8 8H69a2 2 0 0 0-2 2v10.5a2 2 0 0 0 2 2h5.8a2 2 0 0 0 2-2v-2.9H115v3a2 2 0 0 0 2 1.8h5.7a2 2 0 0 0 2-1.9V9.8a2 2 0 0 0-2-2zm0 43.3h-5.7a2 2 0 0 0-2 2V56H76.6v-3a2 2 0 0 0-1.9-1.9h-5.8a2 2 0 0 0-2 2v10.6a2 2 0 0 0 2 1.9h54a2 2 0 0 0 1.9-2V53.3a2 2 0 0 0-2-2m54.5-9.6a2 2 0 0 0 2-2V34a2 2 0 0 0-2-2h-34.6a2 2 0 0 0-2 2v5.8a2 2 0 0 0 2 2zM187 8h-54a2 2 0 0 0-1.9 2v10.5a2 2 0 0 0 2 2h5.7a2 2 0 0 0 2-2v-2.9h38.4v3a2 2 0 0 0 2 1.8h5.7a2 2 0 0 0 2-1.9V9.8a2 2 0 0 0-2-2zm0 43.3h-5.8a2 2 0 0 0-2 2V56h-38.4v-3a2 2 0 0 0-2-1.9H133a2 2 0 0 0-1.9 2v10.6a2 2 0 0 0 2 1.9H187a2 2 0 0 0 1.9-2V53.3a2 2 0 0 0-2-2zm54.5-9.6a2 2 0 0 0 1.9-2V34a2 2 0 0 0-2-2h-34.6a2 2 0 0 0-2 2v5.8a2 2 0 0 0 2 2zM251 8h-54a2 2 0 0 0-1.9 2v10.5a2 2 0 0 0 2 2h5.7a2 2 0 0 0 2-2v-2.9h38.5v3a2 2 0 0 0 1.9 1.8h5.8a2 2 0 0 0 1.9-1.9V9.8a2 2 0 0 0-2-2zm0 43.3h-5.8a2 2 0 0 0-2 2V56H205v-3a2 2 0 0 0-2-1.9h-5.7a2 2 0 0 0-2 2v10.6a2 2 0 0 0 2 1.9H251a2 2 0 0 0 2-2V53.3a2 2 0 0 0-2-2m54.5-9.6a2 2 0 0 0 2-2V34a2 2 0 0 0-2-2h-34.7a2 2 0 0 0-1.9 2v5.8a2 2 0 0 0 2 2zM315.2 8h-54a2 2 0 0 0-1.8 2v10.5a2 2 0 0 0 1.9 2h5.8a2 2 0 0 0 1.9-2v-2.9h38.5v3a2 2 0 0 0 2 1.8h5.7a2 2 0 0 0 2-1.9V9.8a2 2 0 0 0-2-2zm0 43.3h-5.8a2 2 0 0 0-1.9 2V56H269v-3a2 2 0 0 0-2-1.9h-5.7a2 2 0 0 0-2 2v10.6a2 2 0 0 0 2 1.9h54a2 2 0 0 0 1.9-2V53.3a2 2 0 0 0-2-2M49.1 105.8a2 2 0 0 0 1.9-2v-5.7a2 2 0 0 0-2-2H14.5a2 2 0 0 0-2 2v5.8a2 2 0 0 0 2 1.9zM58.7 72h-54A2 2 0 0 0 3 74v10.6a2 2 0 0 0 1.9 1.9h5.8a2 2 0 0 0 1.9-2v-2.8H51v2.9a2 2 0 0 0 2 1.9h5.7a2 2 0 0 0 2-2V74a2 2 0 0 0-2-2m0 43.4h-5.8a2 2 0 0 0-1.9 2v2.8H12.5v-2.9a2 2 0 0 0-2-1.9H4.9a2 2 0 0 0-2 2v10.5a2 2 0 0 0 2 2h54a2 2 0 0 0 1.8-2v-10.6a2 2 0 0 0-1.9-1.9zm54.5-9.6a2 2 0 0 0 2-2v-5.7a2 2 0 0 0-2-2H78.5a2 2 0 0 0-1.9 2v5.8a2 2 0 0 0 2 1.9zm9.6-33.7H69a2 2 0 0 0-2 1.9v10.6a2 2 0 0 0 2 1.9h5.8a2 2 0 0 0 2-2v-2.8H115v2.9a2 2 0 0 0 2 1.9h5.7a2 2 0 0 0 2-2V74a2 2 0 0 0-2-2zm0 43.3h-5.7a2 2 0 0 0-2 2v2.8H76.6v-2.9a2 2 0 0 0-1.9-1.9h-5.8a2 2 0 0 0-2 2v10.5a2 2 0 0 0 2 2h54a2 2 0 0 0 1.9-2v-10.6a2 2 0 0 0-2-1.9m118.7-9.6a2 2 0 0 0 1.9-2v-5.7a2 2 0 0 0-2-2h-34.6a2 2 0 0 0-2 2v5.8a2 2 0 0 0 2 1.9zM251 72h-54a2 2 0 0 0-1.9 1.9v10.6a2 2 0 0 0 2 1.9h5.7a2 2 0 0 0 2-2v-2.8h38.5v2.9a2 2 0 0 0 1.9 1.9h5.8a2 2 0 0 0 1.9-2V74a2 2 0 0 0-2-2zm0 43.3h-5.8a2 2 0 0 0-2 2v2.8H205v-2.9a2 2 0 0 0-2-1.9h-5.7a2 2 0 0 0-2 2v10.5q.2 1.8 2 2H251a2 2 0 0 0 2-2v-10.6a2 2 0 0 0-2-1.9m54.5-9.6a2 2 0 0 0 2-2V98a2 2 0 0 0-2-2h-34.7a2 2 0 0 0-1.9 2v5.8a2 2 0 0 0 2 1.9zm9.6-33.7h-54a2 2 0 0 0-1.8 1.9v10.6a2 2 0 0 0 1.9 1.9h5.8a2 2 0 0 0 1.9-2v-2.8h38.5v2.9a2 2 0 0 0 2 1.9h5.7a2 2 0 0 0 2-2V74a2 2 0 0 0-2-2m0 43.3h-5.8a2 2 0 0 0-1.9 2v2.8H269v-2.9a2 2 0 0 0-2-1.9h-5.7a2 2 0 0 0-2 2v10.5c0 1.1 1 2 2 2h54a2 2 0 0 0 1.9-2v-10.6a2 2 0 0 0-2-1.9zM49.1 170a2 2 0 0 0 1.9-2v-5.8a2 2 0 0 0-2-1.9H14.5a2 2 0 0 0-2 2v5.7a2 2 0 0 0 2 2zm9.6-33.7h-54a2 2 0 0 0-1.8 2v10.5a2 2 0 0 0 1.9 2h5.8a2 2 0 0 0 1.9-2V146H51v2.8a2 2 0 0 0 2 2h5.7a2 2 0 0 0 2-2v-10.5a2 2 0 0 0-2-2m0 43.4h-5.8a2 2 0 0 0-1.9 1.9v2.9H12.5v-2.9a2 2 0 0 0-2-2H4.9a2 2 0 0 0-2 2v10.6a2 2 0 0 0 2 2h54a2 2 0 0 0 1.8-2v-10.6a2 2 0 0 0-1.9-2zm54.5-9.7a2 2 0 0 0 2-1.9v-5.8a2 2 0 0 0-2-1.9H78.5a2 2 0 0 0-1.9 2v5.7a2 2 0 0 0 2 2zm9.6-33.7H69a2 2 0 0 0-2 2v10.5a2 2 0 0 0 2 2h5.8a2 2 0 0 0 2-2V146H115v2.8a2 2 0 0 0 2 2h5.7a2 2 0 0 0 2-2v-10.5a2 2 0 0 0-2-2zm0 43.4h-5.7a2 2 0 0 0-2 1.9v2.9H76.6v-2.9a2 2 0 0 0-1.9-2h-5.8a2 2 0 0 0-2 2v10.6a2 2 0 0 0 2 2h54a2 2 0 0 0 1.9-2v-10.6a2 2 0 0 0-2-2zm54.5-9.7a2 2 0 0 0 2-1.9v-5.8a2 2 0 0 0-2-1.9h-34.6a2 2 0 0 0-2 2v5.7c0 1 .9 2 2 2zm9.7-33.7h-54a2 2 0 0 0-1.9 2v10.5a2 2 0 0 0 2 2h5.7a2 2 0 0 0 2-2V146h38.4v2.8a2 2 0 0 0 2 2h5.7a2 2 0 0 0 2-2v-10.5a2 2 0 0 0-2-2zm0 43.4h-5.8a2 2 0 0 0-2 1.9v2.9h-38.4v-2.9a2 2 0 0 0-2-2h-5.7a2 2 0 0 0-2 2v10.6a2 2 0 0 0 2 2H187a2 2 0 0 0 1.9-2v-10.6a2 2 0 0 0-2-2zm54.5-9.7a2 2 0 0 0 1.9-1.9v-5.8a2 2 0 0 0-2-1.9h-34.6a2 2 0 0 0-2 2v5.7c0 1 1 2 2 2zm9.6-33.7h-54a2 2 0 0 0-1.9 2v10.5a2 2 0 0 0 2 2h5.7a2 2 0 0 0 2-2V146h38.5v2.8a2 2 0 0 0 1.9 2h5.8a2 2 0 0 0 1.9-2v-10.5a2 2 0 0 0-2-2zm0 43.4h-5.8a2 2 0 0 0-2 1.9v2.9H205v-2.9a2 2 0 0 0-2-2h-5.7a2 2 0 0 0-2 2v10.6c0 1 .9 2 2 2H251a2 2 0 0 0 2-2v-10.6a2 2 0 0 0-2-2zm54.5-9.7a2 2 0 0 0 2-1.9v-5.8a2 2 0 0 0-2-1.9h-34.7a2 2 0 0 0-1.9 2v5.7c0 1 .9 2 2 2zm9.6-33.7h-54a2 2 0 0 0-1.8 2v10.5a2 2 0 0 0 1.9 2h5.8a2 2 0 0 0 1.9-2V146h38.5v2.8a2 2 0 0 0 2 2h5.7a2 2 0 0 0 2-2v-10.5a2 2 0 0 0-2-2m0 43.4h-5.8a2 2 0 0 0-1.9 1.9v2.9H269v-2.9a2 2 0 0 0-2-2h-5.7a2 2 0 0 0-2 2v10.6c0 1 1 2 2 2h54a2 2 0 0 0 1.9-2v-10.6a2 2 0 0 0-2-2z"/>
    <path fill="#1a191a" stroke="#19181a" stroke-miterlimit="10" stroke-width="2.4" d="M309.4 50q-.5-.9-1.4-1.5a5 5 0 0 0-4.6 0q0 .2-.2.3l-.7-.7-.5-.1-1.8.2h-1.6q-.5 0-.8.3a1 1 0 0 0-1-.4h-5.4l-.7.2-.6-.2h-.6V48q0-.6-.5-1t-1-.3l-1 .1a1.3 1.3 0 0 0-1.1 1.3v.2l-.7.4q-1-.7-2.7-.7l-1.5.2-1.3.6-.4.6-.5-.6q-1-.9-2.5-.9l-1.3.3h-.3l-.7-.1h-3l-.7.2-.3-.1q-1.7-.6-3.3.2l-1 .7v-.3q.3-.4.3-1 0-.8-.7-1.3a2 2 0 0 0-2.6 0l-.3.4-.3-.3-1.2-.6a6 6 0 0 0-3.8.1 4 4 0 0 0-1.6 1.2q-.6.9-.6 2.1 0 1 .3 1.7t1 1.1q.4.4 1.2.6s-.2.5-.5.2q-.9-.5-1.8.1-.4.5-.3 1v1.1q0 .6.6 1l1.6.8 1.8.2a5 5 0 0 0 3.1-.9l.3-.3q.3 1 1.3 1h.9v.5q0 .6.7 1t1.6.6l1.9.2q2 0 3.1-.7 1-.6 1.4-1.5h5.4q.8 0 1.1-.7l.8.5 1.5.3q.8 0 1.5-.3l.6.2h1q1-.1 1.3-1.3.2.5.5.7.9.7 2.2.7l1.8-.4q.3 0 .4-.4.9.8 2.4.8l1.3-.2.3-.1.7.2h1q.5 0 .8-.4.4.4 1 .4h5.9l1.3.1q1 0 1.9-.3l1.3-.7q.4-.3.4-.8l.1-1-.2-.8q.3-.3.3-.7v-.5l.1-.3q0-1.2-.4-2zm-37.6 3.7Z"/>
    <path fill="#1a191a" stroke="#19181a" stroke-miterlimit="10" stroke-width="4.7" d="M304.3 11.5a1.3 1.3 0 0 0-1.3-1h-19.8a19 19 0 0 0-4.2-.6q-2.3 0-4.3.5h-51.5q-1 .1-1.3 1l-.2.8a1.3 1.3 0 0 0 1 1.6q4.2 1 6.5 2.1c.6.4.7.5 1 1.6l5.5 21.3q.3 1 1.3 1h30.8q2.1.4 4.3.4t4.2-.4h32.3q.6 0 1-.5a1 1 0 0 0 .3-1z"/>
    <path fill="url(#d)" d="M265.3 37q2.4 1 6.8 1.2c6.9 0 11.3-3.3 11.3-8.4 0-3.8-3-5.4-5.9-6.9-2-1-3.8-2-3.8-3.8 0-1.1 1-2.6 3.6-3 .9 0 3.4-.2 6.4 1l.9-4.2a18 18 0 0 0-5.6-.9c-6.4 0-11 3.3-11 8.1 0 3.4 3.2 5.4 5.7 6.6 2.6 1.3 4 2.3 4 4 0 2.3-2.5 3.3-4.9 3.4h-.3q-4.2-.2-6.3-1.4zm37.5.8h4.9l-5.3-25.3h-5.3q-1.6 0-2.2 1.5l-10 23.8h5.6l1.5-4h10zm-49.1 0h5.4l5.4-25.3H259zm-16.1 0h6.2l10.6-25.3h-5.6l-8 20.2-3.4-18q-.5-2.2-2.4-2.2h-9q2.3.6 4.2 1.6c1.3.7 1.7 1.5 2 2.9zm63.6-8h-7.8l5-13.6z"/>
    <path fill="url(#e)" d="M266.2 32.7q2.1 1.2 6.3 1.4h.3c2.4 0 4.9-1.1 4.9-3.4 0-1.7-1.4-2.7-4-4-2.5-1.2-5.7-3.1-5.7-6.6 0-4.7 4.6-8 11-8q3.5.1 5.6.8l.8-.4q-2.5-1.1-6.4-1.2c-6.9 0-11.7 3.6-11.7 8.8 0 3.9 3.4 6 6 7.3 2.7 1.3 3.6 2.1 3.6 3.3 0 1.8-2.1 2.6-4.1 2.6-3.5.1-5.5-.9-7.1-1.6z"/>
    <path fill="url(#f)" d="m265.3 37 1-4.3-.6-1-1.3 5.8zm-24.2-7 7.2-18.3.5.8-8 20.1zm-3.5 7.8L232.2 17c-.3-1.4-.7-2.2-2-2.9a23 23 0 0 0-4.3-1.6l-2.7-.7-.2.7c2.4.6 5.2 1.4 6.8 2.3 1 .6 1.4 1 1.7 2.4l5.5 21.3zm15.2.7 5.7-26.7.6.7-5.4 25.3zM303 11.7h-5.9a3 3 0 0 0-3 2l-10.3 24.8 1.1-.7L295 14a2.4 2.4 0 0 1 2.2-1.5h5.3zm-1.8 18-2.9-13.5-.2 2.8 2.1 10zm1.6 8-.8-4-.6.8.8 4z"/>
    <path fill="url(#g)" d="m298.3 16.3-4.9 13.5 1.1-.8 3.6-10zm-12.9-3.8-1.2 5.6-.5-1 .9-4.1zm23.2 26L303 11.8l-.6.7 5.3 25.3zm-49.5-.7 5.4-25.3.9-.7-5.7 26.7zm-3.6-26-11.2 26.7-.5-.8 10.6-25.2zm35.6 26.7 1.4-4-.5-.7-1.5 4z"/>
    <path fill="url(#h)" d="M302 33.8h-10l.5.7h8.9zm-11 4.7h-7.2l1.1-.7h5.7zm17.6 0h-6.4l.6-.7h4.9zm-71.6 0h7.3l-.5-.7h-6.2zm16.7-.7h5.4l.6.7h-7z"/>
    <path fill="url(#i)" d="M226 12.5h9q2 0 2.4 2.1l3.4 18 .3-2.6-3-15.5a3 3 0 0 0-3.1-2.8h-11.8zm38.4 25a21 21 0 0 0 7.7 1.4c7.3 0 12-3.6 12-9.1 0-7-9.7-7.5-9.6-10.6q0-1.7 2.9-2.3c1-.1 3.7-.2 6.8 1.2l-.5-1c-3-1.2-5.6-1-6.4-1-2.6.4-3.6 1.9-3.6 3 0 1.8 1.8 2.7 3.8 3.8 2.8 1.5 6 3.1 5.9 6.9 0 5-4.5 8.4-11.3 8.4q-4.4-.2-6.8-1.1z"/>
    <path fill="url(#j)" d="M300.2 29h-5.7l-1 .8h7.7zm-44.7-17.3h-7.2l.5.8h5.6zm9 .8H259l-.6-.8h6.9z"/>
    <path fill="#aeafb2" d="M256.2 49.4q0-.8.4-1.3t1-.8l1.4-.2q.9 0 1.5.2.6.1.8.4l.1 1-.7-.3-.8-.3-1-.2q-.7 0-1.2.3t-.5 1q0 .5.2.8l.7.5 1.1.4 2 .7.5.7q.3.4.3 1 0 1.3-.9 2t-2.3.6a5 5 0 0 1-2.7-.8v-1l1.3.7 1.5.2q2 0 2-1.4 0-.6-.2-.8l-.7-.5-1.2-.4-1-.3-.8-.5-.6-.6-.2-1zm7.2-1.5q0-.3.2-.4l.4-.2q.3 0 .5.2l.2.4-.2.4-.5.2-.4-.2zm1.1 1.5v6.4h-1v-6.4zm5.7 5.4q1 0 1.4.4.3.3.3 1 0 .9-.8 1.3t-2.5.5l-1.6-.2q-.8-.1-1.3-.4v-.9l1 .5q.8.3 2 .3l1.7-.3q.6-.2.6-.7 0-.3-.2-.5h-3.3l-1-.4q-.5-.2-.5-.8 0-.5.4-.8.3-.3.8-.3l-.8-.8q-.2-.5-.2-1.2t.3-1.1q.2-.5.8-.8t1.3-.3l1 .1.7.5.4-.3.6-.2h.8v.8h-1.5q.5.5.5 1.3t-.3 1.2l-.9.8q-.5.3-1.3.3H267l-.2.5q0 .3.2.4h3.2zm-1.5-4.8q-.8 0-1.2.4t-.4 1.2.4 1.1 1.2.4q.9 0 1-.4.5-.4.5-1.2t-.4-1q-.5-.5-1.1-.5m7.6-.7q1 0 1.7.5.5.6.5 1.7v4.3h-1v-4q0-.9-.3-1.3-.3-.3-1.2-.4-.6 0-1 .3-.4.1-.7.6-.2.3-.2.9v3.9h-1v-6.4h1v1.4l.5-.9.8-.5zm4 1.6.2-1q.3-.3.9-.4l1.2-.2q1.2 0 1.8.5t.6 1.6v4.4h-1v-1.2q-.2.6-.8 1t-1.3.3l-1-.2-.6-.5q-.3-.5-.3-1 0-.8.3-1 .2-.4.7-.6l1.1-.4 1.2-.2q.6 0 .7-.3v-.3q0-.7-.3-1t-1.2-.3q-.6 0-1 .2l-1 .5zm3.7 2.7v-1.3l-.6.3-1.2.3-.9.3q-.3.1-.3.9 0 .5.3.8t.9.3 1-.3l.6-.6zm4.2.5q0 .6.3.8l.6.2h.7l.4-.2v.8l-.5.2h-.7a2 2 0 0 1-1.3-.3q-.5-.4-.5-1.3v-4h-1.1v-.7l1.1-.1V48l1-.1v1.5h2l-.2.8h-1.8zm5.8 1q.5 0 .9-.2l.7-.6q.3-.4.3-1v-3.9h1v6.4h-1v-1.4l-.6 1-.8.4-.9.1q-1 0-1.6-.5t-.6-1.7v-4.3h1v4.1q0 .8.3 1.2.4.5 1.3.4m7.3-4.8q-.8 0-1.2.5t-.4 1.4v3.6h-1v-6.3h1v1.3q.2-.9.7-1.2.6-.4 1.1-.3h.6l-.2 1.1h-.7zm4.7 4.8q.8 0 1.4-.2l1-.5-.2.9-.8.4a4 4 0 0 1-3.2-.2 3 3 0 0 1-1.1-1.2l-.4-1.7q0-1 .4-1.7l1-1.2q.7-.4 1.6-.4t1.6.3 1 1l.2 1.5v.5h-4.8q0 1.2.6 1.9t1.7.6m-.3-5q-.9 0-1.3.5-.6.6-.7 1.4h3.8l-.1-1-.6-.6q-.4-.3-1.1-.2z"/>
    <path fill="#fcfdfd" d="M13.8 15h15.4v4h-9.4v4h8.7v3.9h-8.7V31h9.4v4.1H13.8zM36 26.3l-5.5-9h6.8l3 6.5 3-6.4h6.8l-5.6 8.9 5.6 8.8h-6.7l-3.3-6.4-3 6.4h-6.8zM54.5 35q-1.3-.2-2.2-.9t-1.4-1.7-.5-2.6.4-2.6a4 4 0 0 1 1.4-1.6q.9-.6 2.2-1c1.3-.3 2-.2 3.2-.2H63v-.6q0-1-.4-1.5a2 2 0 0 0-1.1-.9l-1.8-.2-1.4.2-1.2.7a3 3 0 0 0-.7 1.5l-5.9-1.7q.3-1.2 1.2-2.2a7 7 0 0 1 2.2-1.4q1.2-.6 2.7-.9l3.1-.2q3 0 5.1.7A6 6 0 0 1 68 20a7 7 0 0 1 1.1 4v11h-5l-.5-1.9-.8.8-1.4.7-1.8.4q-1 .3-2 .2-1.8 0-3-.2zm6.1-3.7 1.5-.5.9-.7v-2.5h-5l-.9.3-.5.6-.1 1 .1 1q.2.4.5.6.4.3.8.3l1 .1z"/>
    <rect width="37.8" height="29.8" x="32.9" y="68.9" fill="url(#k)" stroke="#000" stroke-width=".2" rx="5.9"/>
    <path fill="#000" fill-rule="evenodd" d="M58.5 68.8V77h12.3v.3H58.4l-2.3 2.5q.3.3.3.8v3.2h14.4v.2H56.4v3.3q0 .5-.3.8l2.3 2.5h12.4v.2H58.5v8.1h-.2v-8.1L55.9 88q-.3.3-.8.3h-6.8q-.4 0-.8-.3l-2.4 2.6v8.1H45v-8H32.8v-.3H45l2.4-2.5-.3-.8v-3.3H32.8v-.2H47v-3.2q0-1.2 1.2-1.3H55q.5 0 .8.3l2.4-2.5v-8.2zM48.3 79.5a1 1 0 0 0-1 1v6.7q.1.9 1 1h6.8q1-.1 1-1v-6.7q0-1-1-1z" clip-rule="evenodd"/>
    <path fill="#000" d="m45.1 77 2.4 2.5-.2.2-2.3-2.5H32.8v-.3h12v-8h.3z"/>
  </g>
  <defs>
    <linearGradient id="b" x1="150.6" x2="148.6" y1="201.9" y2="0" gradientUnits="userSpaceOnUse">
      <stop stop-color="#1a181a"/>
      <stop offset="1" stop-color="#3b383b"/>
    </linearGradient>
    <linearGradient id="d" x1="266.2" x2="266.2" y1="11.5" y2="37.6" gradientUnits="userSpaceOnUse">
      <stop stop-color="#6e6f71"/>
      <stop offset=".1" stop-color="#9d9e9f"/>
      <stop offset=".2" stop-color="#c3c4c4"/>
      <stop offset=".3" stop-color="#dededf"/>
      <stop offset=".4" stop-color="#efefef"/>
      <stop offset=".5" stop-color="#f5f5f5"/>
      <stop offset=".6" stop-color="#f1f1f1"/>
      <stop offset=".7" stop-color="#e7e7e8"/>
      <stop offset=".8" stop-color="#d6d7d7"/>
      <stop offset=".8" stop-color="#bfbfc0"/>
      <stop offset=".9" stop-color="#a0a0a2"/>
      <stop offset="1" stop-color="#7b7b7e"/>
      <stop offset="1" stop-color="#636467"/>
    </linearGradient>
    <linearGradient id="e" x1="264.8" x2="284.5" y1="23.9" y2="23.9" gradientUnits="userSpaceOnUse">
      <stop stop-color="#f2f2f2"/>
      <stop offset=".5" stop-color="#bbbdbf"/>
      <stop offset="1" stop-color="#dbdddd"/>
    </linearGradient>
    <linearGradient id="f" x1="263.6" x2="263.6" y1="12.2" y2="38.9" gradientUnits="userSpaceOnUse">
      <stop stop-color="#f2f2f2"/>
      <stop offset=".5" stop-color="#929497"/>
      <stop offset="1" stop-color="#dbdddd"/>
    </linearGradient>
    <linearGradient id="g" x1="275.9" x2="275.9" y1="38.5" y2="11.6" gradientUnits="userSpaceOnUse">
      <stop stop-color="#636467"/>
      <stop offset="0" stop-color="#717275"/>
      <stop offset=".1" stop-color="#909193"/>
      <stop offset=".2" stop-color="#a7a8ab"/>
      <stop offset=".3" stop-color="#b8b9bb"/>
      <stop offset=".4" stop-color="#c2c3c5"/>
      <stop offset=".5" stop-color="#c6c7c9"/>
      <stop offset=".6" stop-color="#c2c3c5"/>
      <stop offset=".7" stop-color="#b8b9bb"/>
      <stop offset=".8" stop-color="#a7a8ab"/>
      <stop offset=".9" stop-color="#909193"/>
      <stop offset="1" stop-color="#717275"/>
      <stop offset="1" stop-color="#636467"/>
    </linearGradient>
    <linearGradient id="h" x1="235.9" x2="307.9" y1="37.2" y2="37.2" gradientUnits="userSpaceOnUse">
      <stop stop-color="#f2f2f2"/>
      <stop offset=".5" stop-color="#e6e7e7"/>
      <stop offset="1" stop-color="#dbdddd"/>
    </linearGradient>
    <linearGradient id="i" x1="254.2" x2="254.2" y1="12.1" y2="39.4" gradientUnits="userSpaceOnUse">
      <stop stop-color="#929497"/>
      <stop offset=".1" stop-color="#95979a"/>
      <stop offset=".2" stop-color="#9fa1a3"/>
      <stop offset=".3" stop-color="#b0b1b3"/>
      <stop offset=".4" stop-color="#c7c9ca"/>
      <stop offset=".5" stop-color="#e6e7e7"/>
      <stop offset="1" stop-color="#929497"/>
    </linearGradient>
    <linearGradient id="j" x1="247.2" x2="300" y1="21.9" y2="21.9" gradientUnits="userSpaceOnUse">
      <stop stop-color="#f2f2f2"/>
      <stop offset=".5" stop-color="#e6e7e7"/>
      <stop offset="1" stop-color="#dbdddd"/>
    </linearGradient>
    <linearGradient id="k" x1="32.8" x2="70.8" y1="86.8" y2="86.8" gradientUnits="userSpaceOnUse">
      <stop stop-color="#d9d9d9"/>
      <stop offset=".5" stop-color="#babab8"/>
      <stop offset="1" stop-color="#a8a8a6"/>
    </linearGradient>
    <radialGradient id="c" cx="0" cy="0" r="1" gradientTransform="matrix(173 0 0 120 160 101)" gradientUnits="userSpaceOnUse">
      <stop stop-color="#fcfdfd"/>
      <stop offset="0" stop-color="#e9eaea"/>
      <stop offset=".1" stop-color="#b6b6b7" stop-opacity=".8"/>
      <stop offset=".2" stop-color="#8b8b8c" stop-opacity=".8"/>
      <stop offset=".3" stop-color="#6a6a6b" stop-opacity=".7"/>
      <stop offset=".4" stop-color="#525253" stop-opacity=".6"/>
      <stop offset=".5" stop-color="#444445" stop-opacity=".6"/>
      <stop offset=".5" stop-color="#3f3f40" stop-opacity=".6"/>
      <stop offset="1" stop-color="#1a181a"/>
    </radialGradient>
    <clipPath id="a">
      <path fill="#fff" d="M0 0h320v201.8H0z"/>
    </clipPath>
  </defs>
</svg>
