<svg xmlns="http://www.w3.org/2000/svg" fill="none" viewBox="0 0 390 390"><path fill="#f7f9f8" d="M253 223.5c16.292 0 29.5 13.208 29.5 29.5s-13.208 29.5-29.5 29.5-29.5-13.208-29.5-29.5 13.208-29.5 29.5-29.5"/><path stroke="#d7dad9" d="M253 223.5c16.292 0 29.5 13.208 29.5 29.5s-13.208 29.5-29.5 29.5-29.5-13.208-29.5-29.5 13.208-29.5 29.5-29.5Z"/><path fill="url(#a)" d="m269.797 261.653-5.669 5.938a1.32 1.32 0 0 1-.963.409H236.29a.651.651 0 0 1-.604-.387.63.63 0 0 1 .123-.694l5.673-5.939a1.33 1.33 0 0 1 .96-.409h26.874a.67.67 0 0 1 .604.387.635.635 0 0 1-.123.695m-5.669-11.959a1.3 1.3 0 0 0-.438-.302 1.4 1.4 0 0 0-.525-.106H236.29a.67.67 0 0 0-.604.386.634.634 0 0 0 .123.695l5.673 5.939a1.32 1.32 0 0 0 .96.408h26.874a.655.655 0 0 0 .604-.386.63.63 0 0 0-.123-.695zm-27.838-4.265h26.875c.18 0 .359-.037.525-.107s.315-.173.438-.302l5.669-5.939a.632.632 0 0 0-.12-.976.7.7 0 0 0-.361-.105h-26.874a1.34 1.34 0 0 0-.96.409l-5.672 5.938a.627.627 0 0 0-.122.694c.05.115.135.213.242.282a.7.7 0 0 0 .36.106"/><defs><linearGradient id="a" x1="238.531" x2="265.973" y1="268.715" y2="237.043" gradientUnits="userSpaceOnUse"><stop offset=".08" stop-color="#9945ff"/><stop offset=".3" stop-color="#8752f3"/><stop offset=".5" stop-color="#5497d5"/><stop offset=".6" stop-color="#43b4ca"/><stop offset=".72" stop-color="#28e0b9"/><stop offset=".97" stop-color="#19fb9b"/></linearGradient></defs></svg>