<svg xmlns="http://www.w3.org/2000/svg" fill="none" viewBox="58 58 390 390"><path fill="#f7f9f8" d="M253 223.5c16.292 0 29.5 13.208 29.5 29.5s-13.208 29.5-29.5 29.5-29.5-13.208-29.5-29.5 13.208-29.5 29.5-29.5"/><path stroke="#d7dad9" d="M253 223.5c16.292 0 29.5 13.208 29.5 29.5s-13.208 29.5-29.5 29.5-29.5-13.208-29.5-29.5 13.208-29.5 29.5-29.5Z"/><g clip-path="url(#a)"><path fill="#000" d="M268.803 246.252v2.749l-1.165.591a2.46 2.46 0 0 0-1.336 2.374q.039.516.039 1.037a13.5 13.5 0 0 1-7.392 12.025 13.57 13.57 0 0 1-14.1-1.104l2.391-1.215.135-.071a11.11 11.11 0 0 0 11.02-.102 11.05 11.05 0 0 0 5.39-10.986l-18.625 9.465-3.853 1.957-4.504 2.289v-2.756l4.535-2.305 2.204-1.121zm-22.15-5.279a13.57 13.57 0 0 1 14.102 1.102l-.329.167-2.205 1.121a11.11 11.11 0 0 0-11.009.114 11.05 11.05 0 0 0-5.48 9.522q0 .725.095 1.443l18.606-9.451 3.853-1.958 4.517-2.298v2.757l-4.556 2.316-2.204 1.119-19.615 9.967-1.093.555-1.108.564-3.424 1.741v-2.759l1.163-.591a2.455 2.455 0 0 0 1.337-2.374 13.499 13.499 0 0 1 7.35-13.057"/></g><defs><clipPath id="a"><path fill="#fff" d="M236.803 239.5h32v27h-32z"/></clipPath></defs></svg>