<svg xmlns="http://www.w3.org/2000/svg" fill="none" viewBox="58 58 390 390"><path fill="#f7f9f8" d="M253 223.5c16.292 0 29.5 13.208 29.5 29.5s-13.208 29.5-29.5 29.5-29.5-13.208-29.5-29.5 13.208-29.5 29.5-29.5"/><path stroke="#d7dad9" d="M253 223.5c16.292 0 29.5 13.208 29.5 29.5s-13.208 29.5-29.5 29.5-29.5-13.208-29.5-29.5 13.208-29.5 29.5-29.5Z"/><g clip-path="url(#a)"><g clip-path="url(#b)"><path fill="#ff060a" d="M269.76 248.362c-1.519-1.402-3.62-3.543-5.331-5.062l-.101-.071a2 2 0 0 0-.562-.314c-4.126-.769-23.328-4.359-23.703-4.313a.7.7 0 0 0-.293.111l-.097.076a1.14 1.14 0 0 0-.263.426l-.025.065v.415c2.161 6.02 10.697 25.738 12.378 30.365.101.314.293.912.653.942h.081c.192 0 1.012-1.083 1.012-1.083s14.661-17.78 16.144-19.673q.289-.35.507-.75a1.22 1.22 0 0 0-.4-1.134m-12.489 2.071 6.257-5.189 3.67 3.382zm-2.43-.339-10.773-8.829 17.43 3.215zm.972 2.313 11.026-1.777-12.606 15.188zm-13.208-10.261 11.334 9.618-1.64 14.064z"/></g></g><defs><clipPath id="a"><path fill="#fff" d="M229 229h48v48h-48z"/></clipPath><clipPath id="b"><path fill="#fff" d="M238.6 238.602H271v32.4h-32.4z"/></clipPath></defs></svg>