<svg xmlns="http://www.w3.org/2000/svg" fill="none" viewBox="0 0 390 390"><path fill="#e0f8f3" fill-rule="evenodd" d="M193.394 300.472c-36.464 4.085-73.178-15.942-93.819-46.21-19.168-28.107-10.192-63.483-3.753-96.867 6.887-35.706 7.638-80.323 40.826-95.346 32.917-14.9 66.312 14.817 97.747 32.62 27.454 15.55 60.098 29.622 66.575 60.448 6.4 30.454-18.387 55.69-36.912 80.721-19.971 26.984-37.254 60.892-70.664 64.634" clip-rule="evenodd"/><path fill="#59b8aa" stroke="#000" stroke-miterlimit="10" stroke-width=".325" d="M40.941 200.883a5.941 5.941 0 1 0 0-11.883 5.941 5.941 0 0 0 0 11.883Z"/><path fill="#000" d="M37.616 195.224c-.824-1.176-1.183-2.671-1.059-4.111A5.78 5.78 0 0 0 35 195.065a5.82 5.82 0 0 0 5.817 5.817 5.8 5.8 0 0 0 5.09-3.018c-2.941.796-6.62-.249-8.291-2.64"/><path fill="#fff" d="M43.423 194.411a2.283 2.283 0 1 0 0-4.567 2.283 2.283 0 0 0 0 4.567"/><path fill="#59b8aa" stroke="#000" stroke-miterlimit="10" stroke-width=".325" d="M290.599 110.198a4.599 4.599 0 1 0 0-9.198 4.599 4.599 0 0 0 0 9.198Z"/><path fill="#000" d="M288.025 105.819c-.638-.911-.916-2.068-.82-3.182a4.47 4.47 0 0 0-1.205 3.058 4.504 4.504 0 0 0 4.502 4.503 4.49 4.49 0 0 0 3.94-2.336c-2.276.616-5.123-.193-6.417-2.043"/><path fill="#fff" d="M292.52 105.188a1.768 1.768 0 1 0-.001-3.535 1.768 1.768 0 0 0 .001 3.535"/><path stroke="#000" stroke-miterlimit="10" stroke-width=".325" d="M71.95 268v7.897M75.9 271.949H68M225.949 43v7.897M229.897 46.95H222"/><path fill="#59b8aa" stroke="#000" stroke-miterlimit="10" stroke-width=".325" d="M317.111 317.222a4.112 4.112 0 1 0-.001-8.223 4.112 4.112 0 0 0 .001 8.223Z"/><path fill="#fff" stroke="#000" stroke-miterlimit="10" stroke-width=".325" d="M150.5 44.784s12.159-1.486 12.159 13.716c0 0 0-14 12.841-13.755 0 0-11.048.462-12.841-14.245 0 0 .342 14-12.159 14.284ZM142.998 320.714s9.241-1.114 9.241 10.286c0 0 0-10.499 9.759-10.316 0 0-8.396.346-9.759-10.684 0 0 .26 10.499-9.241 10.712zM330 180.851s5.82-.712 5.82 6.575c0 0 0-6.713 6.149-6.595 0 0-5.291.221-6.149-6.831 0 0 .163 6.713-5.82 6.848z"/><g filter="url(#a)"><circle cx="144" cy="148" r="72" fill="#bf0a30"/><path fill="#fff" d="M201.591 190.7a72 72 0 0 1-8.791 9.584H95.2a72 72 0 0 1-8.79-9.584zM212.022 171.531a71 71 0 0 1-4.258 9.584H80.236a71 71 0 0 1-4.258-9.584zM216 152.362a71 71 0 0 1-1.293 9.585H73.293A71 71 0 0 1 72 152.362zM214.686 133.194a71 71 0 0 1 1.306 9.583H72.008c.22-3.259.66-6.458 1.306-9.583zM207.707 114.024a70.6 70.6 0 0 1 4.276 9.585H76.017a71 71 0 0 1 4.276-9.585zM192.683 94.856a72 72 0 0 1 8.827 9.584H86.49a72 72 0 0 1 8.827-9.584z"/><path fill="#00205b" d="M144 152.286H72.127A73 73 0 0 1 72 148c0-39.765 32.235-72 72-72z"/><path fill="#fff" d="M85.52 143.455h2.964l-2.398 1.735.915 2.811-2.396-1.737-2.397 1.737.915-2.811-2.398-1.735h2.964l.916-2.81zM102.31 143.455h2.964l-2.398 1.735.916 2.811-2.397-1.737-2.397 1.737.915-2.811-2.397-1.735h2.964l.915-2.81zM119.102 143.455h2.964l-2.398 1.735.916 2.811-2.396-1.737-2.398 1.737.915-2.811-2.397-1.735h2.964l.916-2.81zM135.893 143.455h2.964l-2.398 1.735.915 2.811-2.396-1.737-2.397 1.737.915-2.811-2.398-1.735h2.964l.916-2.81zM77.123 136.338h2.963l-2.398 1.736.917 2.81-2.397-1.736-2.398 1.736.915-2.81-1.848-1.339q.03-.198.064-.397h2.352l.915-2.809zM93.915 136.338h2.964l-2.398 1.736.916 2.81L93 139.148l-2.398 1.736.915-2.81-2.396-1.736h2.964l.915-2.809zM110.705 136.338h2.964l-2.398 1.736.917 2.81-2.398-1.736-2.397 1.736.915-2.81-2.397-1.736h2.964l.915-2.809zM127.497 136.338h2.965l-2.398 1.736.916 2.81-2.398-1.736-2.397 1.736.916-2.81-2.398-1.736h2.964l.915-2.809zM85.52 129.222h2.964l-2.398 1.735.915 2.811-2.396-1.737-2.397 1.737.915-2.811-2.398-1.735h2.964l.916-2.81zM102.31 129.222h2.964l-2.398 1.735.916 2.811-2.397-1.737-2.397 1.737.915-2.811-2.397-1.735h2.964l.915-2.81zM119.102 129.222h2.964l-2.398 1.735.916 2.811-2.396-1.737-2.398 1.737.915-2.811-2.397-1.735h2.964l.916-2.81zM135.893 129.222h2.964l-2.398 1.735.915 2.811-2.396-1.737-2.397 1.737.915-2.811-2.398-1.735h2.964l.916-2.81zM77.123 122.109h2.963l-2.398 1.736.917 2.811-2.397-1.737-.565.408q.616-1.86 1.33-3.676zM93.915 122.109h2.964l-2.398 1.736.916 2.811L93 124.919l-2.398 1.737.915-2.811-2.396-1.736h2.964L93 119.3zM110.705 122.109h2.964l-2.398 1.736.917 2.811-2.398-1.737-2.397 1.737.915-2.811-2.397-1.736h2.964l.915-2.809zM127.497 122.109h2.965l-2.398 1.736.916 2.811-2.398-1.737-2.397 1.737.916-2.811-2.398-1.736h2.964l.915-2.809zM85.52 114.99h2.964l-2.398 1.735.915 2.811-2.396-1.737-2.397 1.737.915-2.811-2.398-1.735h2.964l.916-2.81zM102.31 114.99h2.964l-2.398 1.735.916 2.811-2.397-1.737-2.397 1.737.915-2.811-2.397-1.735h2.964l.915-2.81zM119.102 114.99h2.964l-2.398 1.735.916 2.811-2.396-1.737-2.398 1.737.915-2.811-2.397-1.735h2.964l.916-2.81zM135.893 114.99h2.964l-2.398 1.735.915 2.811-2.396-1.737-2.397 1.737.915-2.811-2.398-1.735h2.964l.916-2.81zM93.915 107.873h2.964l-2.398 1.736.916 2.81L93 110.683l-2.398 1.736.915-2.81-2.396-1.736h2.964l.915-2.809zM110.705 107.873h2.964l-2.398 1.736.917 2.81-2.398-1.736-2.397 1.736.915-2.81-2.397-1.736h2.964l.915-2.809zM127.497 107.873h2.965l-2.398 1.736.916 2.81-2.398-1.736-2.397 1.736.916-2.81-2.398-1.736h2.964l.915-2.809zM87.001 105.303l-.637-.462q.168-.225.34-.449zM102.31 100.757h2.964l-2.398 1.735.916 2.811-2.397-1.737-2.397 1.737.915-2.811-2.397-1.735h2.964l.915-2.81zM119.102 100.757h2.964l-2.398 1.735.916 2.811-2.396-1.737-2.398 1.737.915-2.811-2.397-1.735h2.964l.916-2.81zM135.893 100.757h2.964l-2.398 1.735.915 2.811-2.396-1.737-2.397 1.737.915-2.811-2.398-1.735h2.964l.916-2.81zM95.397 98.183l-1.971-1.429q.565-.558 1.144-1.104zM110.705 93.637h2.964l-2.398 1.736.917 2.81-2.398-1.737-2.397 1.737.915-2.81-2.397-1.736h2.964l.915-2.81zM127.497 93.637h2.965l-2.398 1.736.916 2.81-2.398-1.737-2.397 1.737.916-2.81-2.398-1.736h2.964l.915-2.81zM96.879 93.637l-.504.364.416-.364zM103.792 91.07l-1.971-1.427q.606-.44 1.223-.867zM119.102 86.525h2.964l-2.398 1.735.916 2.81-2.396-1.736-2.398 1.737.915-2.811-2.397-1.735h2.964l.916-2.81zM135.893 86.525h2.964l-2.398 1.735.915 2.81-2.396-1.736-2.397 1.737.915-2.811-2.398-1.735h2.964l.916-2.81z"/><path fill="#000" d="M144.001 84.57c18.387 0 34.947 7.825 46.532 20.325-11.315-10.486-26.461-16.896-43.104-16.896-35.03 0-63.428 28.398-63.428 63.428 0 16.643 6.41 31.789 16.896 43.104-12.5-11.585-20.325-28.145-20.325-46.532 0-35.031 28.398-63.429 63.429-63.429" opacity=".7"/><path fill="#f1f8ff" d="M144.245 211.676c-18.387 0-34.947-7.824-46.532-20.325 11.315 10.486 26.461 16.896 43.104 16.896 35.03 0 63.428-28.398 63.428-63.428 0-16.643-6.41-31.789-16.896-43.104 12.501 11.585 20.325 28.145 20.325 46.532 0 35.031-28.398 63.429-63.429 63.429" opacity=".8"/><path fill="#000" d="M214.286 148.001c0 38.817-31.468 70.285-70.285 70.285-38.818 0-70.286-31.468-70.286-70.285 0-38.818 31.468-70.286 70.286-70.286s70.285 31.468 70.285 70.286m-133.543 0c0 34.936 28.322 63.257 63.258 63.257s63.257-28.321 63.257-63.257-28.321-63.258-63.257-63.258-63.258 28.322-63.258 63.258" opacity=".2"/><g opacity=".8" style="mix-blend-mode:hard-light"><circle cx="144" cy="148" r="70.95" stroke="url(#b)" stroke-width="2.1" style="mix-blend-mode:overlay"/></g><path fill="#ffeded" d="M194.385 96.566a72.3 72.3 0 0 1 13.063 17.371l-35.482 100.427a71.6 71.6 0 0 1-21.075 5.307zM184.136 88.215a72 72 0 0 1 5.696 4.254l-45.055 127.525q-.389.005-.777.005-3.2-.001-6.328-.276z" opacity=".3"/></g><path fill="#f3b443" stroke="#000" stroke-miterlimit="10" stroke-width=".325" d="M67.99 50.98a3.99 3.99 0 1 0 0-7.98 3.99 3.99 0 0 0 0 7.98Z"/><path fill="#000" d="M65.757 47.179c-.553-.79-.795-1.794-.711-2.761A3.88 3.88 0 0 0 64 47.072a3.907 3.907 0 0 0 3.906 3.906c1.476 0 2.756-.82 3.418-2.026-1.975.534-4.445-.168-5.567-1.773"/><path fill="#fff" d="M69.657 46.634a1.534 1.534 0 1 0 0-3.068 1.534 1.534 0 0 0 0 3.068"/><g filter="url(#c)"><circle cx="235" cy="231" r="84" fill="#2775ca"/><path fill="#08386b" d="M235 157c21.452 0 40.771 9.128 54.287 23.712C276.087 168.479 258.417 161 239 161c-40.869 0-74 33.131-74 74 0 19.417 7.479 37.087 19.712 50.287C170.128 271.771 161 252.452 161 231c0-40.869 33.131-74 74-74"/><path fill="#f1f8ff" d="M235.287 305.289c-21.452 0-40.771-9.128-54.287-23.712 13.2 12.234 30.87 19.712 50.287 19.712 40.869 0 74-33.131 74-74 0-19.417-7.478-37.087-19.712-50.287 14.584 13.516 23.712 32.835 23.712 54.287 0 40.869-33.131 74-74 74" opacity=".8"/><path fill="#488cd6" d="M317 231c0 45.287-36.713 82-82 82s-82-36.713-82-82 36.713-82 82-82 82 36.713 82 82m-155.8 0c0 40.759 33.041 73.8 73.8 73.8s73.8-33.041 73.8-73.8-33.041-73.8-73.8-73.8-73.8 33.041-73.8 73.8"/><g opacity=".6" style="mix-blend-mode:hard-light"><circle cx="235" cy="231" r="82.95" stroke="url(#d)" stroke-width="2.1" style="mix-blend-mode:overlay"/></g><path fill="#fff" fill-rule="evenodd" d="M248.622 190.112c-1.305-.415-2.372.357-2.372 1.721v3.356c0 .915.692 1.957 1.555 2.272 13.85 5.053 23.762 18.314 23.762 33.839s-9.912 28.786-23.762 33.839c-.946.346-1.555 1.268-1.555 2.272v3.356c0 1.364 1.067 2.136 2.372 1.721 17.503-5.571 30.178-21.905 30.178-41.188s-12.675-35.617-30.178-41.188m-24.072 1.721c0-1.364-1.067-2.136-2.372-1.721C204.675 195.683 192 212.017 192 231.3s12.675 35.617 30.178 41.188c1.305.415 2.372-.357 2.372-1.721v-3.356c0-.915-.692-1.957-1.555-2.272-13.85-5.053-23.762-18.314-23.762-33.839s9.912-28.786 23.762-33.839c.863-.315 1.555-1.357 1.555-2.272zm12.658 10.647h-3.616c-.999 0-1.809.806-1.809 1.801v5.58c-7.169 1.016-11.804 5.769-11.804 11.866 0 7.892 4.789 10.954 14.899 12.31 6.859 1.119 8.811 2.59 8.811 6.478s-3.312 6.479-7.982 6.479c-6.314 0-8.392-2.753-9.158-6.315-.182-.844-.907-1.46-1.774-1.46h-4.125c-1.039 0-1.851.932-1.673 1.951 1.051 5.996 4.917 10.395 12.806 11.462v5.687c0 .995.81 1.801 1.809 1.801h3.616c.999 0 1.809-.806 1.809-1.801v-5.69c7.469-1.182 12.241-6.361 12.241-12.762 0-8.422-5.145-11.25-15.079-12.604-7.332-1.06-8.75-2.768-8.75-6.184 0-3.239 2.483-5.537 7.273-5.537 4.332 0 6.823 1.506 7.853 4.979a1.82 1.82 0 0 0 1.737 1.323h3.804c1.061 0 1.887-.971 1.66-2.004-1.204-5.488-4.918-8.781-10.739-9.82v-5.739c0-.995-.81-1.801-1.809-1.801" clip-rule="evenodd"/><path fill="#c2dfe7" d="M293.782 170.996a84.3 84.3 0 0 1 15.24 20.266l-41.395 117.165a83.5 83.5 0 0 1-24.588 6.191zM281.825 161.25a84 84 0 0 1 6.646 4.963l-52.565 148.779a85.028 85.028 0 0 1-8.289-.315z" opacity=".2"/></g><defs><linearGradient id="b" x1="93" x2="194.7" y1="97" y2="198.7" gradientUnits="userSpaceOnUse"><stop stop-color="#fff"/><stop offset="1" stop-color="#404040"/></linearGradient><linearGradient id="d" x1="175.5" x2="294.15" y1="171.5" y2="290.15" gradientUnits="userSpaceOnUse"><stop stop-color="#fff"/><stop offset="1" stop-color="#404040"/></linearGradient><filter id="a" width="177.6" height="177.6" x="66.4" y="70.4" color-interpolation-filters="sRGB" filterUnits="userSpaceOnUse"><feFlood flood-opacity="0" result="BackgroundImageFix"/><feColorMatrix in="SourceAlpha" result="hardAlpha" values="0 0 0 0 0 0 0 0 0 0 0 0 0 0 0 0 0 0 127 0"/><feOffset dx="11.2" dy="11.2"/><feGaussianBlur stdDeviation="8.4"/><feComposite in2="hardAlpha" operator="out"/><feColorMatrix values="0 0 0 0 0 0 0 0 0 0 0 0 0 0 0 0 0 0 0.12 0"/><feBlend in2="BackgroundImageFix" result="effect1_dropShadow_15122_21330"/><feBlend in="SourceGraphic" in2="effect1_dropShadow_15122_21330" result="shape"/></filter><filter id="c" width="201.6" height="201.6" x="145.4" y="141.4" color-interpolation-filters="sRGB" filterUnits="userSpaceOnUse"><feFlood flood-opacity="0" result="BackgroundImageFix"/><feColorMatrix in="SourceAlpha" result="hardAlpha" values="0 0 0 0 0 0 0 0 0 0 0 0 0 0 0 0 0 0 127 0"/><feOffset dx="11.2" dy="11.2"/><feGaussianBlur stdDeviation="8.4"/><feComposite in2="hardAlpha" operator="out"/><feColorMatrix values="0 0 0 0 0 0 0 0 0 0 0 0 0 0 0 0 0 0 0.12 0"/><feBlend in2="BackgroundImageFix" result="effect1_dropShadow_15122_21330"/><feBlend in="SourceGraphic" in2="effect1_dropShadow_15122_21330" result="shape"/></filter></defs></svg>