<svg xmlns="http://www.w3.org/2000/svg" fill="none" viewBox="-51 -47 390 390"><g filter="url(#a)"><circle cx="144" cy="148" r="72" fill="#bf0a30"/><path fill="#fff" d="M201.591 190.7a72 72 0 0 1-8.791 9.584H95.2a72 72 0 0 1-8.79-9.584zM212.022 171.531a71 71 0 0 1-4.258 9.584H80.236a71 71 0 0 1-4.258-9.584zM216 152.362a71 71 0 0 1-1.293 9.585H73.293A71 71 0 0 1 72 152.362zM214.686 133.194a71 71 0 0 1 1.306 9.583H72.008c.22-3.259.66-6.458 1.306-9.583zM207.707 114.024a70.6 70.6 0 0 1 4.276 9.585H76.017a71 71 0 0 1 4.276-9.585zM192.683 94.856a72 72 0 0 1 8.827 9.584H86.49a72 72 0 0 1 8.827-9.584z"/><path fill="#00205b" d="M144 152.286H72.127A73 73 0 0 1 72 148c0-39.765 32.235-72 72-72z"/><path fill="#fff" d="M85.52 143.455h2.964l-2.398 1.735.915 2.811-2.396-1.737-2.397 1.737.915-2.811-2.398-1.735h2.964l.916-2.81zM102.31 143.455h2.964l-2.398 1.735.916 2.811-2.397-1.737-2.397 1.737.915-2.811-2.397-1.735h2.964l.915-2.81zM119.102 143.455h2.964l-2.398 1.735.916 2.811-2.396-1.737-2.398 1.737.915-2.811-2.397-1.735h2.964l.916-2.81zM135.893 143.455h2.964l-2.398 1.735.915 2.811-2.396-1.737-2.397 1.737.915-2.811-2.398-1.735h2.964l.916-2.81zM77.123 136.338h2.963l-2.398 1.736.917 2.81-2.397-1.736-2.398 1.736.915-2.81-1.848-1.339q.03-.198.064-.397h2.352l.915-2.809zM93.915 136.338h2.964l-2.398 1.736.916 2.81L93 139.148l-2.398 1.736.915-2.81-2.396-1.736h2.964l.915-2.809zM110.705 136.338h2.964l-2.398 1.736.917 2.81-2.398-1.736-2.397 1.736.915-2.81-2.397-1.736h2.964l.915-2.809zM127.497 136.338h2.965l-2.398 1.736.916 2.81-2.398-1.736-2.397 1.736.916-2.81-2.398-1.736h2.964l.915-2.809zM85.52 129.222h2.964l-2.398 1.735.915 2.811-2.396-1.737-2.397 1.737.915-2.811-2.398-1.735h2.964l.916-2.81zM102.31 129.222h2.964l-2.398 1.735.916 2.811-2.397-1.737-2.397 1.737.915-2.811-2.397-1.735h2.964l.915-2.81zM119.102 129.222h2.964l-2.398 1.735.916 2.811-2.396-1.737-2.398 1.737.915-2.811-2.397-1.735h2.964l.916-2.81zM135.893 129.222h2.964l-2.398 1.735.915 2.811-2.396-1.737-2.397 1.737.915-2.811-2.398-1.735h2.964l.916-2.81zM77.123 122.109h2.963l-2.398 1.736.917 2.811-2.397-1.737-.565.408q.616-1.86 1.33-3.676zM93.915 122.109h2.964l-2.398 1.736.916 2.811L93 124.919l-2.398 1.737.915-2.811-2.396-1.736h2.964L93 119.3zM110.705 122.109h2.964l-2.398 1.736.917 2.811-2.398-1.737-2.397 1.737.915-2.811-2.397-1.736h2.964l.915-2.809zM127.497 122.109h2.965l-2.398 1.736.916 2.811-2.398-1.737-2.397 1.737.916-2.811-2.398-1.736h2.964l.915-2.809zM85.52 114.99h2.964l-2.398 1.735.915 2.811-2.396-1.737-2.397 1.737.915-2.811-2.398-1.735h2.964l.916-2.81zM102.31 114.99h2.964l-2.398 1.735.916 2.811-2.397-1.737-2.397 1.737.915-2.811-2.397-1.735h2.964l.915-2.81zM119.102 114.99h2.964l-2.398 1.735.916 2.811-2.396-1.737-2.398 1.737.915-2.811-2.397-1.735h2.964l.916-2.81zM135.893 114.99h2.964l-2.398 1.735.915 2.811-2.396-1.737-2.397 1.737.915-2.811-2.398-1.735h2.964l.916-2.81zM93.915 107.873h2.964l-2.398 1.736.916 2.81L93 110.683l-2.398 1.736.915-2.81-2.396-1.736h2.964l.915-2.809zM110.705 107.873h2.964l-2.398 1.736.917 2.81-2.398-1.736-2.397 1.736.915-2.81-2.397-1.736h2.964l.915-2.809zM127.497 107.873h2.965l-2.398 1.736.916 2.81-2.398-1.736-2.397 1.736.916-2.81-2.398-1.736h2.964l.915-2.809zM87.001 105.303l-.637-.462q.168-.225.34-.449zM102.31 100.757h2.964l-2.398 1.735.916 2.811-2.397-1.737-2.397 1.737.915-2.811-2.397-1.735h2.964l.915-2.81zM119.102 100.757h2.964l-2.398 1.735.916 2.811-2.396-1.737-2.398 1.737.915-2.811-2.397-1.735h2.964l.916-2.81zM135.893 100.757h2.964l-2.398 1.735.915 2.811-2.396-1.737-2.397 1.737.915-2.811-2.398-1.735h2.964l.916-2.81zM95.397 98.183l-1.971-1.429q.565-.558 1.144-1.104zM110.705 93.637h2.964l-2.398 1.736.917 2.81-2.398-1.737-2.397 1.737.915-2.81-2.397-1.736h2.964l.915-2.81zM127.497 93.637h2.965l-2.398 1.736.916 2.81-2.398-1.737-2.397 1.737.916-2.81-2.398-1.736h2.964l.915-2.81zM96.879 93.637l-.504.364.416-.364zM103.792 91.07l-1.971-1.427q.606-.44 1.223-.867zM119.102 86.525h2.964l-2.398 1.735.916 2.81-2.396-1.736-2.398 1.737.915-2.811-2.397-1.735h2.964l.916-2.81zM135.893 86.525h2.964l-2.398 1.735.915 2.81-2.396-1.736-2.397 1.737.915-2.811-2.398-1.735h2.964l.916-2.81z"/><path fill="#000" d="M144 84.57c18.387 0 34.947 7.825 46.532 20.325-11.315-10.486-26.461-16.896-43.104-16.896-35.03 0-63.428 28.398-63.428 63.428 0 16.643 6.41 31.789 16.896 43.104-12.5-11.585-20.325-28.145-20.325-46.532 0-35.031 28.398-63.429 63.429-63.429" opacity=".7"/><path fill="#f1f8ff" d="M144.246 211.676c-18.387 0-34.947-7.824-46.532-20.325 11.315 10.486 26.461 16.896 43.104 16.896 35.03 0 63.428-28.398 63.428-63.428 0-16.643-6.41-31.789-16.896-43.104 12.501 11.585 20.325 28.145 20.325 46.532 0 35.031-28.398 63.429-63.429 63.429" opacity=".8"/><path fill="#000" d="M214.285 148.001c0 38.817-31.468 70.285-70.285 70.285-38.818 0-70.286-31.468-70.286-70.285 0-38.818 31.468-70.286 70.286-70.286s70.285 31.468 70.285 70.286m-133.543 0c0 34.936 28.322 63.257 63.258 63.257s63.257-28.321 63.257-63.257S178.936 84.743 144 84.743s-63.258 28.322-63.258 63.258" opacity=".2"/><g opacity=".8" style="mix-blend-mode:hard-light"><circle cx="144" cy="148" r="70.95" stroke="url(#b)" stroke-width="2.1" style="mix-blend-mode:overlay"/></g><path fill="#ffeded" d="M194.385 96.566a72.3 72.3 0 0 1 13.063 17.371l-35.482 100.427a71.6 71.6 0 0 1-21.075 5.307zM184.136 88.215a72 72 0 0 1 5.696 4.254l-45.055 127.525q-.389.005-.777.005-3.2-.001-6.328-.276z" opacity=".3"/></g><defs><linearGradient id="b" x1="93" x2="194.7" y1="97" y2="198.7" gradientUnits="userSpaceOnUse"><stop stop-color="#fff"/><stop offset="1" stop-color="#404040"/></linearGradient><filter id="a" width="177.6" height="177.6" x="66.4" y="70.4" color-interpolation-filters="sRGB" filterUnits="userSpaceOnUse"><feFlood flood-opacity="0" result="BackgroundImageFix"/><feColorMatrix in="SourceAlpha" result="hardAlpha" values="0 0 0 0 0 0 0 0 0 0 0 0 0 0 0 0 0 0 127 0"/><feOffset dx="11.2" dy="11.2"/><feGaussianBlur stdDeviation="8.4"/><feComposite in2="hardAlpha" operator="out"/><feColorMatrix values="0 0 0 0 0 0 0 0 0 0 0 0 0 0 0 0 0 0 0.12 0"/><feBlend in2="BackgroundImageFix" result="effect1_dropShadow_16831_13856"/><feBlend in="SourceGraphic" in2="effect1_dropShadow_16831_13856" result="shape"/></filter></defs></svg>