<svg xmlns="http://www.w3.org/2000/svg" fill="none" viewBox="0 0 390 390"><g filter="url(#a)"><circle cx="195" cy="195" r="84" fill="#2775ca"/><path fill="#08386b" d="M195 121c21.452 0 40.771 9.128 54.287 23.712C236.087 132.479 218.417 125 199 125c-40.869 0-74 33.131-74 74 0 19.417 7.479 37.087 19.712 50.287C130.128 235.771 121 216.452 121 195c0-40.869 33.131-74 74-74"/><path fill="#f1f8ff" d="M195.287 269.289c-21.452 0-40.771-9.128-54.287-23.712 13.2 12.234 30.87 19.712 50.287 19.712 40.869 0 74-33.131 74-74 0-19.417-7.478-37.087-19.712-50.287 14.584 13.516 23.712 32.835 23.712 54.287 0 40.869-33.131 74-74 74" opacity=".8"/><path fill="#488cd6" d="M277 195c0 45.287-36.713 82-82 82s-82-36.713-82-82 36.713-82 82-82 82 36.713 82 82m-155.8 0c0 40.759 33.041 73.8 73.8 73.8s73.8-33.041 73.8-73.8-33.041-73.8-73.8-73.8-73.8 33.041-73.8 73.8"/><g opacity=".6" style="mix-blend-mode:hard-light"><circle cx="195" cy="195" r="82.95" stroke="url(#b)" stroke-width="2.1" style="mix-blend-mode:overlay"/></g><path fill="#fff" fill-rule="evenodd" d="M208.622 154.112c-1.305-.415-2.372.357-2.372 1.721v3.356c0 .915.692 1.957 1.555 2.272 13.85 5.053 23.762 18.314 23.762 33.839s-9.912 28.786-23.762 33.839c-.946.346-1.555 1.268-1.555 2.272v3.356c0 1.364 1.067 2.136 2.372 1.721 17.503-5.571 30.178-21.905 30.178-41.188s-12.675-35.617-30.178-41.188m-24.072 1.721c0-1.364-1.067-2.136-2.372-1.721C164.675 159.683 152 176.017 152 195.3s12.675 35.617 30.178 41.188c1.305.415 2.372-.357 2.372-1.721v-3.356c0-.915-.692-1.957-1.555-2.272-13.85-5.053-23.762-18.314-23.762-33.839s9.912-28.786 23.762-33.839c.863-.315 1.555-1.357 1.555-2.272zm12.658 10.647h-3.616c-.999 0-1.809.806-1.809 1.801v5.58c-7.169 1.016-11.804 5.769-11.804 11.866 0 7.892 4.789 10.954 14.899 12.31 6.859 1.119 8.811 2.59 8.811 6.478s-3.312 6.479-7.982 6.479c-6.314 0-8.392-2.753-9.158-6.315-.182-.844-.907-1.46-1.774-1.46h-4.125c-1.039 0-1.851.932-1.673 1.951 1.051 5.996 4.917 10.395 12.806 11.462v5.687c0 .995.81 1.801 1.809 1.801h3.616c.999 0 1.809-.806 1.809-1.801v-5.69c7.469-1.182 12.241-6.361 12.241-12.762 0-8.422-5.145-11.25-15.079-12.604-7.332-1.06-8.75-2.768-8.75-6.184 0-3.239 2.483-5.537 7.273-5.537 4.332 0 6.823 1.506 7.853 4.979a1.82 1.82 0 0 0 1.737 1.323h3.804c1.061 0 1.887-.971 1.66-2.004-1.204-5.488-4.918-8.781-10.739-9.82v-5.739c0-.995-.81-1.801-1.809-1.801" clip-rule="evenodd"/><path fill="#c2dfe7" d="M253.782 135a84.3 84.3 0 0 1 15.24 20.266l-41.395 117.165a83.5 83.5 0 0 1-24.588 6.191zM241.825 125.25a84 84 0 0 1 6.646 4.963l-52.565 148.779a85.028 85.028 0 0 1-8.289-.315z" opacity=".2"/></g><defs><linearGradient id="b" x1="135.5" x2="254.15" y1="135.5" y2="254.15" gradientUnits="userSpaceOnUse"><stop stop-color="#fff"/><stop offset="1" stop-color="#404040"/></linearGradient><filter id="a" width="201.6" height="201.6" x="105.4" y="105.4" color-interpolation-filters="sRGB" filterUnits="userSpaceOnUse"><feFlood flood-opacity="0" result="BackgroundImageFix"/><feColorMatrix in="SourceAlpha" result="hardAlpha" values="0 0 0 0 0 0 0 0 0 0 0 0 0 0 0 0 0 0 127 0"/><feOffset dx="11.2" dy="11.2"/><feGaussianBlur stdDeviation="8.4"/><feComposite in2="hardAlpha" operator="out"/><feColorMatrix values="0 0 0 0 0 0 0 0 0 0 0 0 0 0 0 0 0 0 0.12 0"/><feBlend in2="BackgroundImageFix" result="effect1_dropShadow_16836_14970"/><feBlend in="SourceGraphic" in2="effect1_dropShadow_16836_14970" result="shape"/></filter></defs></svg>