<svg xmlns="http://www.w3.org/2000/svg" fill="none" viewBox="0 0 390 390"><g filter="url(#a)"><circle cx="195" cy="195" r="84" fill="#009493"/><path fill="#024e4d" d="M195 121c21.452 0 40.771 9.128 54.287 23.712C236.087 132.479 218.417 125 199 125c-40.869 0-74 33.131-74 74 0 19.417 7.479 37.087 19.712 50.287C130.128 235.771 121 216.452 121 195c0-40.869 33.131-74 74-74"/><path fill="#bfe2e2" d="M195.287 269.289c-21.452 0-40.771-9.128-54.287-23.712 13.2 12.234 30.87 19.712 50.287 19.712 40.869 0 74-33.131 74-74 0-19.417-7.478-37.087-19.712-50.287 14.584 13.516 23.712 32.835 23.712 54.287 0 40.869-33.131 74-74 74" opacity=".8"/><path fill="#05a8a7" d="M277 195c0 45.287-36.713 82-82 82s-82-36.713-82-82 36.713-82 82-82 82 36.713 82 82m-155.8 0c0 40.759 33.041 73.8 73.8 73.8s73.8-33.041 73.8-73.8-33.041-73.8-73.8-73.8-73.8 33.041-73.8 73.8"/><g opacity=".6" style="mix-blend-mode:hard-light"><circle cx="195" cy="195" r="82.95" stroke="url(#b)" stroke-width="2.1" style="mix-blend-mode:overlay"/></g><path fill="#fff" fill-rule="evenodd" d="M229.867 159.297v12.763h-25.876v8.848c18.173.946 31.808 4.829 31.909 9.484v9.705c-.102 4.655-13.736 8.539-31.909 9.484v21.716h-17.182v-21.716c-18.173-.945-31.808-4.829-31.909-9.484l.001-9.705c.101-4.655 13.735-8.538 31.908-9.484v-8.848h-25.875v-12.763zM195.4 202.914c19.394 0 35.605-3.284 39.572-7.669-3.365-3.719-15.533-6.646-30.981-7.45v9.265c-2.769.144-5.643.22-8.591.22s-5.822-.076-8.591-.22v-9.265c-15.448.804-27.616 3.731-30.98 7.45 3.967 4.385 20.177 7.669 39.571 7.669" clip-rule="evenodd"/><path fill="#c2dfe7" d="M253.782 135a84.3 84.3 0 0 1 15.24 20.266l-41.395 117.165a83.5 83.5 0 0 1-24.588 6.191zM241.825 125.25a84 84 0 0 1 6.646 4.963l-52.565 148.779a85.028 85.028 0 0 1-8.289-.315z" opacity=".2"/></g><defs><linearGradient id="b" x1="135.5" x2="254.15" y1="135.5" y2="254.15" gradientUnits="userSpaceOnUse"><stop stop-color="#fff"/><stop offset="1" stop-color="#404040"/></linearGradient><filter id="a" width="201.6" height="201.6" x="105.4" y="105.4" color-interpolation-filters="sRGB" filterUnits="userSpaceOnUse"><feFlood flood-opacity="0" result="BackgroundImageFix"/><feColorMatrix in="SourceAlpha" result="hardAlpha" values="0 0 0 0 0 0 0 0 0 0 0 0 0 0 0 0 0 0 127 0"/><feOffset dx="11.2" dy="11.2"/><feGaussianBlur stdDeviation="8.4"/><feComposite in2="hardAlpha" operator="out"/><feColorMatrix values="0 0 0 0 0 0 0 0 0 0 0 0 0 0 0 0 0 0 0.12 0"/><feBlend in2="BackgroundImageFix" result="effect1_dropShadow_17008_13496"/><feBlend in="SourceGraphic" in2="effect1_dropShadow_17008_13496" result="shape"/></filter></defs></svg>