<svg xmlns="http://www.w3.org/2000/svg" fill="none" viewBox="0 0 32 32"><path fill="#0031BF" d="m8.78 20.577 3.684-8.572h-2.39l-2.367 5.828-.957-4.96A1.05 1.05 0 0 0 5.702 12H1.83l-.053.251c.795.17 1.7.442 2.242.729.337.18.431.333.542.754l1.815 6.843zM19.825 15.513c.92.47 2.071 1.058 2.065 2.412l.005.005c-.01 1.786-1.573 2.935-3.962 2.935-1.02-.01-2-.22-2.53-.457l.41-1.877.064.028c.516.233 1.176.53 2.272.51.658-.005 1.357-.261 1.363-.836.005-.38-.295-.646-1.179-1.067-.863-.41-2.01-1.103-1.994-2.334.01-1.668 1.594-2.832 3.84-2.832.874 0 1.58.185 2.127.38l-.4 1.816c-1.016-.457-1.916-.426-2.242-.385-.658.082-.957.41-.963.718-.008.406.506.669 1.124.984"/><path fill="#0031BF" fill-rule="evenodd" d="M29.927 20.567h-2.105v.005l-.273-1.277h-2.915l-.474 1.277h-2.389l3.41-7.941c.163-.385.531-.631.968-.631h1.942zm-3.446-6.258-1.2 3.221h1.889z" clip-rule="evenodd"/><path fill="#0031BF" d="M13.836 20.572 15.714 12h-2.278l-1.873 8.572z"/></svg>