<svg width="32" height="32" viewBox="0 0 32 32" fill="none" xmlns="http://www.w3.org/2000/svg">
<path d="M8.7805 20.5774L12.4636 12.0051H10.0749L7.70712 17.8329L6.74952 12.8721C6.63903 12.3181 6.19708 12 5.7025 12H1.82996L1.77734 12.2514C2.57184 12.4207 3.47683 12.6926 4.01877 12.9798C4.35552 13.1594 4.45023 13.3133 4.56072 13.734L6.37597 20.5774H8.7805Z" fill="#0031BF"/>
<path d="M19.825 15.5133C20.7456 15.9836 21.8962 16.5714 21.8899 17.9252L21.8951 17.9303C21.8846 19.7156 20.3219 20.8647 17.9332 20.8647C16.9124 20.8544 15.9338 20.6441 15.4023 20.4081L15.8127 18.5306C15.8339 18.54 15.8551 18.5496 15.8767 18.5593C16.3932 18.7919 17.0529 19.0889 18.1489 19.0692C18.8066 19.0641 19.5064 18.8076 19.5116 18.233C19.5169 17.8534 19.217 17.5866 18.3331 17.1659C17.4702 16.7555 16.3231 16.063 16.3389 14.8318C16.3495 13.1645 17.9332 12 20.1799 12C21.0533 12 21.7583 12.1847 22.3055 12.3796L21.9057 14.1957C20.8902 13.7391 19.9904 13.7699 19.6642 13.8109C19.0065 13.893 18.7066 14.2213 18.7014 14.5291C18.6929 14.935 19.2072 15.1977 19.825 15.5133Z" fill="#0031BF"/>
<path fill-rule="evenodd" clip-rule="evenodd" d="M29.927 20.5671H27.8223V20.5723L27.5487 19.2949H24.6338L24.1602 20.5723H21.7715L25.181 12.631C25.3441 12.2462 25.7124 12 26.1491 12H28.0906L29.927 20.5671ZM26.4806 14.3085L25.281 17.5302H27.1699L26.4806 14.3085Z" fill="#0031BF"/>
<path d="M13.8355 20.5723L15.7139 12H13.4356L11.5625 20.5723H13.8355Z" fill="#0031BF"/>
</svg>
