<svg xmlns="http://www.w3.org/2000/svg" fill="none" viewBox="0 0 65 36">
  <g fill="#fff">
    <path d="M32.05 19.54c1.16.43 3.08.83 5.18.85 5.18 0 8.54-2.5 8.56-6.37.01-2.86-2.36-4.1-4.45-5.2-1.57-.82-2.92-1.53-2.89-2.85.02-.88.74-1.99 2.72-2.25.63-.08 2.54-.21 4.83.68l.67-3.13c-1.02-.34-2.45-.7-4.24-.7-4.86 0-8.26 2.52-8.29 6.14-.03 2.6 2.42 4.1 4.27 5 1.98.96 3.05 1.73 3.04 3.03-.02 1.72-1.87 2.52-3.7 2.55h-.21c-2.19 0-3.67-.54-4.78-1.04zm28.46.53h3.69L60.21.93h-4.02c-.76 0-1.41.44-1.71 1.14l-7.54 18h4.25l1.09-3.03h7.59zm-37.25 0h4.08L31.43.93h-4.08zm-12.22 0h4.73L23.79.94h-4.27l-6.04 15.27-2.57-13.67c-.19-.97-.92-1.6-1.86-1.6H2.21c1.17.34 2.36.77 3.23 1.24.97.53 1.26 1.09 1.53 2.14zm48.21-6.04h-5.86l3.72-10.25z"/>
    <path d="M32.76 16.25c1.11.5 2.59 1.04 4.78 1.04h.21c1.83-.03 3.68-.83 3.7-2.55.01-1.3-1.06-2.07-3.04-3.03-1.85-.9-4.3-2.4-4.27-5C34.17 3.1 37.58.57 42.43.57c1.79 0 3.23.36 4.24.7l.66-.37c-1.26-.46-2.89-.9-4.9-.9-5.18 0-8.83 2.76-8.86 6.7-.03 2.92 2.6 4.55 4.59 5.52 2.04.99 2.73 1.63 2.72 2.52-.01 1.36-1.63 1.96-3.14 1.99-2.64.04-4.17-.71-5.39-1.28zm-.71 3.29.7-3.29-.41-.81-.95 4.44zm-18.38-5.37L19.13.37l.39.57-6.04 15.27zm-2.63 5.9L6.97 4.32c-.27-1.05-.55-1.61-1.53-2.14-.87-.47-2.06-.9-3.23-1.24L.12.37 0 .96a22 22 0 0 1 5.17 1.72c.77.42.99.78 1.25 1.78l4.18 16.18zm11.51.57L26.89.37l.46.57-4.09 19.14-.7.57zM60.67.37h-4.48c-1 0-1.86.59-2.23 1.49l-7.87 18.79.86-.57 7.54-18c.29-.7.95-1.14 1.71-1.14h4.02zm-1.42 13.66L57.11 3.78l-.15 2.08 1.59 7.61zm1.26 6.04-.63-3.03-.46.57.63 3.03z"/>
    <path d="m57.11 3.77-3.72 10.25.81-.57 2.76-7.61.15-2.08zM47.33.9l-.92 4.3-.41-.79.67-3.13zM64.9 20.64 60.67.37l-.46.57 3.99 19.14.7.57zm-37.56-.57L31.43.93l.7-.57-4.34 20.27-.46-.57zM24.64.37l-8.5 20.27-.38-.57L23.79.94zm26.95 20.27 1.09-3.03-.4-.57-1.09 3.03z"/>
    <path d="M59.88 17.05h-7.59l.4.57h6.73zm-8.29 3.59h-5.5l.86-.57h4.25zm13.31 0h-4.85l.46-.57h3.69zm-54.3 0h5.55l-.38-.57h-4.73zm12.66-.57h4.08l.46.57h-5.24zM2.21.94h6.84c.94 0 1.67.63 1.86 1.6l2.57 13.67.19-2.04-2.21-11.73A2.45 2.45 0 0 0 9.04.37H.12zM31.4 19.88a16 16 0 0 0 5.83 1.08c5.51 0 9.11-2.72 9.13-6.94.02-5.35-7.4-5.64-7.35-8.03.01-.73.71-1.5 2.22-1.7a10 10 0 0 1 5.17.91l-.41-.79a10 10 0 0 0-4.83-.68c-1.98.26-2.7 1.37-2.72 2.25-.03 1.31 1.33 2.02 2.89 2.85 2.09 1.1 4.47 2.34 4.45 5.2-.02 3.87-3.38 6.37-8.56 6.37-2.1-.02-4.02-.42-5.18-.85l-.65.34zm27.15-6.42H54.2l-.81.57h5.86zM24.64.37h-5.51l.39.57h4.27zm6.79.57h-4.08l-.46-.57h5.24zm-6.27 27.99q0-.6.29-.99c.29-.39.45-.45.78-.59q.49-.2 1.07-.2.7 0 1.13.15t.63.31l.06.82h-.03q-.2-.17-.49-.31c-.29-.14-.41-.17-.65-.23q-.34-.09-.69-.09-.58 0-.97.21-.38.21-.38.74 0 .4.19.63.18.22.53.36t.81.27q.42.12.8.25.37.12.67.32.29.2.45.51t.17.82q0 .95-.62 1.43-.63.5-1.75.49a4 4 0 0 1-2.06-.57l-.04-.84h.03q.42.35.99.55c.57.2.76.2 1.15.2q1.51 0 1.51-1.09 0-.4-.18-.62c-.18-.22-.3-.28-.53-.38q-.36-.15-.87-.29a8 8 0 0 1-.77-.24q-.36-.14-.65-.33c-.29-.19-.33-.3-.44-.51s-.16-.48-.16-.8zm5.46-1.17q0-.19.13-.31c.13-.12.2-.12.34-.12s.25.04.34.12.14.19.14.31-.05.24-.14.32-.2.12-.34.12-.25-.04-.34-.12a.4.4 0 0 1-.13-.32m.85 1.18v4.8h-.76v-4.8zm4.33 4.05q.74 0 1.01.27c.27.27.28.44.28.79q0 .64-.62 1c-.62.36-1.04.35-1.9.35q-.64 0-1.24-.11t-.93-.3l-.04-.68q.27.2.83.38.57.18 1.38.18.98 0 1.4-.18.4-.18.41-.55 0-.27-.14-.36-.15-.1-.53-.1h-1.96q-.52 0-.82-.2t-.3-.65q0-.33.23-.56c.23-.23.38-.24.65-.28v-.02a1.6 1.6 0 0 1-.59-.59 2 2 0 0 1-.2-.85q0-.48.22-.87c.22-.39.37-.46.65-.61s.61-.23 1-.23q.4 0 .73.11t.57.32h.03q.08-.13.26-.22c.18-.09.26-.1.4-.12q.2-.04.4-.04h.26l-.07.66-1.09-.09v.02q.38.43.38 1.06 0 .5-.23.88c-.23.38-.37.46-.65.61s-.6.22-1 .22q-.23 0-.44-.02l-.28-.02q-.3 0-.49.1c-.19.1-.19.17-.19.31s.05.25.16.3q.16.08.4.08h2.04zm-1.2-3.62q-.56 0-.86.3t-.3.86c0 .56.1.68.3.87q.32.3.86.29c.54-.01.65-.1.86-.29q.31-.3.31-.87c0-.57-.1-.66-.3-.86s-.5-.3-.87-.3m5.83-.55q.78 0 1.22.4c.44.4.44.68.44 1.25v3.27h-.75v-3.06q0-.6-.26-.91-.26-.3-.94-.3-.4 0-.73.16c-.33.16-.39.26-.52.46s-.19.43-.19.7v2.94h-.76v-4.8h.72v1.02h.04a1.6 1.6 0 0 1 1.03-1.03q.34-.11.68-.11zM43.5 30l.08-.74q.27-.19.68-.31c.41-.12.57-.13.9-.13q.92 0 1.37.36t.45 1.21v3.35h-.72v-.92h-.03q-.18.54-.58.79c-.4.25-.59.25-.98.25q-.4 0-.73-.15t-.54-.45-.2-.77c0-.47.07-.56.2-.75s.31-.34.55-.44.52-.18.85-.24q.6-.1.95-.19t.51-.23v-.22q0-.53-.24-.76-.24-.24-.9-.24-.42 0-.84.14-.4.15-.74.43h-.02zm2.73 2.12v-.99q-.13.12-.48.21t-.85.18q-.43.07-.7.25c-.27.18-.27.35-.27.66q0 .43.25.64.26.21.7.21a1.4 1.4 0 0 0 1.2-.63q.15-.27.15-.54zm3.19.32q0 .46.2.62c.2.16.3.16.51.16q.29 0 .5-.05c.21-.05.26-.07.35-.12h.03l-.07.64q-.13.08-.38.12c-.25.04-.34.05-.52.05q-.63 0-1-.3-.36-.3-.36-.99v-3h-.88l.1-.5.78-.11v-1.03l.76-.11v1.12h1.47l-.09.63h-1.38v2.88zm4.36.76q.39 0 .72-.16c.33-.16.39-.26.52-.46s.2-.43.2-.7v-2.95h.76v4.8h-.72v-1.01h-.03q-.15.4-.42.66-.28.26-.61.36c-.33.1-.45.11-.67.11q-.78 0-1.23-.41t-.45-1.26v-3.25h.76v3.08q0 .62.25.9c.25.28.48.28.93.28zm5.55-3.6q-.56 0-.88.35c-.32.35-.31.59-.31 1.07v2.72h-.76v-4.8h.72v1h.04q.16-.63.55-.87c.39-.24.54-.25.85-.25l.23.01q.12 0 .17.03l-.09.82h-.03l-.2-.06q-.14-.03-.3-.03zm3.57 3.64q.65 0 1.05-.16c.4-.16.51-.25.73-.42h.02l-.07.69q-.21.18-.66.34c-.45.16-.67.16-1.12.16q-.73 0-1.28-.32-.55-.33-.85-.89c-.3-.56-.31-.81-.31-1.3s.1-.92.3-1.3.48-.68.82-.9.74-.33 1.18-.33q.75 0 1.23.27.47.27.69.75c.22.48.22.69.22 1.12v.2q0 .12-.03.21h-3.63v.04q.01.86.48 1.35t1.25.49zm-.19-3.85q-.64 0-1.03.39c-.39.39-.42.62-.48 1.09h2.9v-.08q0-.43-.13-.73a1 1 0 0 0-.43-.48q-.3-.18-.84-.17z"/>
  </g>
</svg>
